%TF.GenerationSoftware,KiCad,Pcbnew,(6.0.5)*%
%TF.CreationDate,2022-06-06T17:18:48-06:00*%
%TF.ProjectId,21Pin_Fanout,32315069-6e5f-4466-916e-6f75742e6b69,rev?*%
%TF.SameCoordinates,Original*%
%TF.FileFunction,Copper,L1,Top*%
%TF.FilePolarity,Positive*%
%FSLAX46Y46*%
G04 Gerber Fmt 4.6, Leading zero omitted, Abs format (unit mm)*
G04 Created by KiCad (PCBNEW (6.0.5)) date 2022-06-06 17:18:48*
%MOMM*%
%LPD*%
G01*
G04 APERTURE LIST*
G04 Aperture macros list*
%AMRoundRect*
0 Rectangle with rounded corners*
0 $1 Rounding radius*
0 $2 $3 $4 $5 $6 $7 $8 $9 X,Y pos of 4 corners*
0 Add a 4 corners polygon primitive as box body*
4,1,4,$2,$3,$4,$5,$6,$7,$8,$9,$2,$3,0*
0 Add four circle primitives for the rounded corners*
1,1,$1+$1,$2,$3*
1,1,$1+$1,$4,$5*
1,1,$1+$1,$6,$7*
1,1,$1+$1,$8,$9*
0 Add four rect primitives between the rounded corners*
20,1,$1+$1,$2,$3,$4,$5,0*
20,1,$1+$1,$4,$5,$6,$7,0*
20,1,$1+$1,$6,$7,$8,$9,0*
20,1,$1+$1,$8,$9,$2,$3,0*%
G04 Aperture macros list end*
%TA.AperFunction,SMDPad,CuDef*%
%ADD10RoundRect,0.150000X0.150000X0.625000X-0.150000X0.625000X-0.150000X-0.625000X0.150000X-0.625000X0*%
%TD*%
%TA.AperFunction,SMDPad,CuDef*%
%ADD11RoundRect,0.250000X0.350000X0.650000X-0.350000X0.650000X-0.350000X-0.650000X0.350000X-0.650000X0*%
%TD*%
%TA.AperFunction,ComponentPad*%
%ADD12RoundRect,0.250000X0.350000X0.625000X-0.350000X0.625000X-0.350000X-0.625000X0.350000X-0.625000X0*%
%TD*%
%TA.AperFunction,ComponentPad*%
%ADD13O,1.200000X1.750000*%
%TD*%
%TA.AperFunction,SMDPad,CuDef*%
%ADD14O,0.250000X2.400000*%
%TD*%
%TA.AperFunction,ComponentPad*%
%ADD15O,1.500000X2.700000*%
%TD*%
%TA.AperFunction,ComponentPad*%
%ADD16O,1.500000X3.300000*%
%TD*%
%TA.AperFunction,Conductor*%
%ADD17C,0.250000*%
%TD*%
%TA.AperFunction,Conductor*%
%ADD18C,1.000000*%
%TD*%
G04 APERTURE END LIST*
D10*
%TO.P,J9,1,Pin_1*%
%TO.N,Net-(J1-Pad10)*%
X-25500000Y18000000D03*
%TO.P,J9,2,Pin_2*%
X-26500000Y18000000D03*
%TO.P,J9,3,Pin_3*%
%TO.N,Net-(J1-Pad12)*%
X-27500000Y18000000D03*
%TO.P,J9,4,Pin_4*%
X-28500000Y18000000D03*
D11*
%TO.P,J9,MP*%
%TO.N,N/C*%
X-29800000Y21875000D03*
X-24200000Y21875000D03*
%TD*%
D12*
%TO.P,J2,1,Pin_1*%
%TO.N,Net-(J1-Pad10)*%
X-18500000Y16500000D03*
D13*
%TO.P,J2,2,Pin_2*%
%TO.N,Net-(J1-Pad12)*%
X-20500000Y16500000D03*
%TD*%
D12*
%TO.P,J5,1,Pin_1*%
%TO.N,Net-(J1-Pad1)*%
X26584000Y16509000D03*
D13*
%TO.P,J5,2,Pin_2*%
%TO.N,Net-(J1-Pad3)*%
X24584000Y16509000D03*
%TD*%
D12*
%TO.P,J4,1,Pin_1*%
%TO.N,Net-(J1-Pad4)*%
X11500000Y16500000D03*
D13*
%TO.P,J4,2,Pin_2*%
%TO.N,Net-(J1-Pad6)*%
X9500000Y16500000D03*
%TD*%
D10*
%TO.P,J6,1,Pin_1*%
%TO.N,Net-(J1-Pad1)*%
X19500000Y18000000D03*
%TO.P,J6,2,Pin_2*%
X18500000Y18000000D03*
%TO.P,J6,3,Pin_3*%
%TO.N,Net-(J1-Pad3)*%
X17500000Y18000000D03*
%TO.P,J6,4,Pin_4*%
X16500000Y18000000D03*
D11*
%TO.P,J6,MP*%
%TO.N,N/C*%
X15200000Y21875000D03*
X20800000Y21875000D03*
%TD*%
D12*
%TO.P,J3,1,Pin_1*%
%TO.N,Net-(J1-Pad7)*%
X-3500000Y16500000D03*
D13*
%TO.P,J3,2,Pin_2*%
%TO.N,Net-(J1-Pad9)*%
X-5500000Y16500000D03*
%TD*%
D10*
%TO.P,J8,1,Pin_1*%
%TO.N,Net-(J1-Pad7)*%
X-10500000Y18000000D03*
%TO.P,J8,2,Pin_2*%
X-11500000Y18000000D03*
%TO.P,J8,3,Pin_3*%
%TO.N,Net-(J1-Pad9)*%
X-12500000Y18000000D03*
%TO.P,J8,4,Pin_4*%
X-13500000Y18000000D03*
D11*
%TO.P,J8,MP*%
%TO.N,N/C*%
X-14800000Y21875000D03*
X-9200000Y21875000D03*
%TD*%
D10*
%TO.P,J7,1,Pin_1*%
%TO.N,Net-(J1-Pad4)*%
X4500000Y18000000D03*
%TO.P,J7,2,Pin_2*%
X3500000Y18000000D03*
%TO.P,J7,3,Pin_3*%
%TO.N,Net-(J1-Pad6)*%
X2500000Y18000000D03*
%TO.P,J7,4,Pin_4*%
X1500000Y18000000D03*
D11*
%TO.P,J7,MP*%
%TO.N,N/C*%
X200000Y21875000D03*
X5800000Y21875000D03*
%TD*%
D14*
%TO.P,J1,1,D2+*%
%TO.N,Net-(J1-Pad1)*%
X4501000Y3396000D03*
%TO.P,J1,2,D2S*%
%TO.N,GND*%
X4001000Y3396000D03*
%TO.P,J1,3,D2-*%
%TO.N,Net-(J1-Pad3)*%
X3501000Y3396000D03*
%TO.P,J1,4,D1+*%
%TO.N,Net-(J1-Pad4)*%
X3001000Y3396000D03*
%TO.P,J1,5,D1S*%
%TO.N,GND*%
X2500000Y3396000D03*
%TO.P,J1,6,D1-*%
%TO.N,Net-(J1-Pad6)*%
X2000000Y3396000D03*
%TO.P,J1,7,D0+*%
%TO.N,Net-(J1-Pad7)*%
X1500000Y3396000D03*
%TO.P,J1,8,D0S*%
%TO.N,GND*%
X1000000Y3396000D03*
%TO.P,J1,9,D0-*%
%TO.N,Net-(J1-Pad9)*%
X500000Y3396000D03*
%TO.P,J1,10,CK+*%
%TO.N,Net-(J1-Pad10)*%
X0Y3396000D03*
%TO.P,J1,11,CKS*%
%TO.N,GND*%
X-500000Y3396000D03*
%TO.P,J1,12,CK-*%
%TO.N,Net-(J1-Pad12)*%
X-1000000Y3396000D03*
%TO.P,J1,13,CEC*%
%TO.N,unconnected-(J1-Pad13)*%
X-1500000Y3396000D03*
%TO.P,J1,14,UTILITY*%
%TO.N,unconnected-(J1-Pad14)*%
X-2000000Y3396000D03*
%TO.P,J1,15,SCL*%
%TO.N,unconnected-(J1-Pad15)*%
X-2500000Y3396000D03*
%TO.P,J1,16,SDA*%
%TO.N,unconnected-(J1-Pad16)*%
X-3001000Y3396000D03*
%TO.P,J1,17,GND*%
%TO.N,GND*%
X-3501000Y3396000D03*
%TO.P,J1,18,+5V*%
%TO.N,unconnected-(J1-Pad18)*%
X-4001000Y3396000D03*
%TO.P,J1,19,HPD*%
%TO.N,unconnected-(J1-Pad19)*%
X-4501000Y3396000D03*
D15*
%TO.P,J1,20*%
%TO.N,N/C*%
X7250000Y-3396000D03*
%TO.P,J1,21*%
X-7250000Y-3396000D03*
D16*
%TO.P,J1,22*%
X7250000Y2564000D03*
%TO.P,J1,23*%
X-7250000Y2564000D03*
%TD*%
D17*
%TO.N,Net-(J1-Pad1)*%
X4501000Y5783673D02*
X4500000Y5784673D01*
X25093000Y18000000D02*
X26584000Y16509000D01*
D18*
X17284672Y5784672D02*
X26584000Y15084000D01*
X4500000Y5784673D02*
X17284672Y5784672D01*
D17*
X19500000Y18000000D02*
X25093000Y18000000D01*
X19500000Y18000000D02*
X18500000Y18000000D01*
X4501000Y3396000D02*
X4501000Y5783673D01*
D18*
X26584000Y15084000D02*
X26584000Y16509000D01*
D17*
%TO.N,GND*%
X-3501000Y2185283D02*
X-3501000Y3396000D01*
X-500000Y1946000D02*
X-574520Y1871480D01*
X-574520Y1871480D02*
X-3187197Y1871480D01*
X2500000Y1946000D02*
X2425480Y1871480D01*
X-500000Y3396000D02*
X-500000Y1946000D01*
X1000000Y2000000D02*
X1000000Y3396000D01*
X3926480Y1871480D02*
X2712843Y1871480D01*
X2500000Y2084323D02*
X2500000Y3396000D01*
X4001000Y3396000D02*
X4001000Y1946000D01*
X1128520Y1871480D02*
X1000000Y2000000D01*
X2500000Y3396000D02*
X2500000Y1946000D01*
X-500000Y1946000D02*
X-425480Y1871480D01*
X-3187197Y1871480D02*
X-3501000Y2185283D01*
X2425480Y1871480D02*
X1128520Y1871480D01*
X2712843Y1871480D02*
X2500000Y2084323D01*
X4001000Y1946000D02*
X3926480Y1871480D01*
X-425480Y1871480D02*
X1628520Y1871480D01*
%TO.N,Net-(J1-Pad3)*%
X3501000Y6469386D02*
X4015807Y6984193D01*
X3501000Y3396000D02*
X3501000Y6469386D01*
X17500000Y17553928D02*
X18544928Y16509000D01*
X18544928Y16509000D02*
X24584000Y16509000D01*
D18*
X24584000Y16509000D02*
X24584000Y15084000D01*
X24584000Y15084000D02*
X16484192Y6984192D01*
D17*
X17500000Y18000000D02*
X17500000Y17553928D01*
X16500000Y18000000D02*
X17500000Y18000000D01*
D18*
X16484192Y6984192D02*
X4015807Y6984193D01*
%TO.N,Net-(J1-Pad4)*%
X11500000Y15000000D02*
X10696378Y15000000D01*
D17*
X4500000Y18000000D02*
X3500000Y18000000D01*
X3001000Y7135433D02*
X4098189Y8232622D01*
X4500000Y18000000D02*
X10000000Y18000000D01*
X3001000Y3396000D02*
X3001000Y7135433D01*
X4098189Y8232622D02*
X4098189Y8401811D01*
D18*
X11500000Y16500000D02*
X11500000Y15000000D01*
D17*
X10000000Y18000000D02*
X11500000Y16500000D01*
D18*
X10696378Y15000000D02*
X4098189Y8401811D01*
D17*
%TO.N,Net-(J1-Pad6)*%
X2500000Y17553928D02*
X3553928Y16500000D01*
X2000000Y6833953D02*
X2699520Y7533473D01*
D18*
X9500000Y16500000D02*
X9500000Y15500000D01*
D17*
X2699520Y7533473D02*
X2699520Y8000000D01*
D18*
X9500000Y15500000D02*
X2699520Y8699520D01*
X2699520Y8699520D02*
X2699520Y8000000D01*
D17*
X2500000Y18000000D02*
X2500000Y17553928D01*
X2500000Y18000000D02*
X1500000Y18000000D01*
X3553928Y16500000D02*
X9500000Y16500000D01*
X2000000Y3396000D02*
X2000000Y6833953D01*
D18*
%TO.N,Net-(J1-Pad7)*%
X-3500000Y16500000D02*
X-3500000Y15000000D01*
D17*
X-10500000Y18000000D02*
X-5000000Y18000000D01*
X-11500000Y18000000D02*
X-10500000Y18000000D01*
D18*
X1500000Y10000000D02*
X1500000Y7500000D01*
D17*
X1500000Y3396000D02*
X1500000Y7500000D01*
X-5000000Y18000000D02*
X-3500000Y16500000D01*
D18*
X-3500000Y15000000D02*
X1500000Y10000000D01*
D17*
%TO.N,Net-(J1-Pad9)*%
X500000Y3396000D02*
X500000Y4606717D01*
D18*
X-5500000Y12696377D02*
X98188Y7098189D01*
D17*
X-12500000Y18000000D02*
X-12500000Y17553928D01*
X824520Y4931237D02*
X824520Y6371857D01*
X-11446072Y16500000D02*
X-5500000Y16500000D01*
X824520Y6371857D02*
X98188Y7098189D01*
X-12500000Y17553928D02*
X-11446072Y16500000D01*
D18*
X-5500000Y16500000D02*
X-5500000Y12696377D01*
D17*
X500000Y4606717D02*
X824520Y4931237D01*
X-13500000Y18000000D02*
X-12500000Y18000000D01*
%TO.N,Net-(J1-Pad10)*%
X-20000000Y18000000D02*
X-18500000Y16500000D01*
X0Y3396000D02*
X0Y5500000D01*
X-25500000Y18000000D02*
X-20000000Y18000000D01*
D18*
X-18500000Y14500000D02*
X-10699520Y6699520D01*
X-10699520Y6699520D02*
X-1199520Y6699520D01*
X-1199520Y6699520D02*
X0Y5500000D01*
X-18500000Y16500000D02*
X-18500000Y14500000D01*
D17*
X-26500000Y18000000D02*
X-25500000Y18000000D01*
D18*
%TO.N,Net-(J1-Pad12)*%
X-11500000Y5500000D02*
X-2000000Y5500000D01*
D17*
X-27500000Y17553928D02*
X-26446072Y16500000D01*
X-1000000Y3396000D02*
X-1000000Y4846000D01*
D18*
X-20500000Y14500000D02*
X-11500000Y5500000D01*
D17*
X-26446072Y16500000D02*
X-20500000Y16500000D01*
X-1000000Y4846000D02*
X-1654000Y5500000D01*
D18*
X-20500000Y16500000D02*
X-20500000Y14500000D01*
D17*
X-27500000Y18000000D02*
X-27500000Y17553928D01*
X-28500000Y18000000D02*
X-27500000Y18000000D01*
X-1654000Y5500000D02*
X-2000000Y5500000D01*
%TD*%
M02*
