%TF.GenerationSoftware,KiCad,Pcbnew,(6.0.5)*%
%TF.CreationDate,2022-06-06T17:18:48-06:00*%
%TF.ProjectId,21Pin_Fanout,32315069-6e5f-4466-916e-6f75742e6b69,rev?*%
%TF.SameCoordinates,Original*%
%TF.FileFunction,Legend,Bot*%
%TF.FilePolarity,Positive*%
%FSLAX46Y46*%
G04 Gerber Fmt 4.6, Leading zero omitted, Abs format (unit mm)*
G04 Created by KiCad (PCBNEW (6.0.5)) date 2022-06-06 17:18:48*
%MOMM*%
%LPD*%
G01*
G04 APERTURE LIST*
%ADD10C,0.150000*%
G04 APERTURE END LIST*
D10*
X23738095Y-842380D02*
X23738095Y157619D01*
X23738095Y-318571D02*
X23166666Y-318571D01*
X23166666Y-842380D02*
X23166666Y157619D01*
X22690476Y-842380D02*
X22690476Y157619D01*
X22452380Y157619D01*
X22309523Y110000D01*
X22214285Y14761D01*
X22166666Y-80476D01*
X22119047Y-270952D01*
X22119047Y-413809D01*
X22166666Y-604285D01*
X22214285Y-699523D01*
X22309523Y-794761D01*
X22452380Y-842380D01*
X22690476Y-842380D01*
X21690476Y-842380D02*
X21690476Y157619D01*
X21357142Y-556666D01*
X21023809Y157619D01*
X21023809Y-842380D01*
X20547619Y-842380D02*
X20547619Y157619D01*
X20309523Y-937619D02*
X19547619Y-937619D01*
X19023809Y157619D02*
X19023809Y-556666D01*
X19071428Y-699523D01*
X19166666Y-794761D01*
X19309523Y-842380D01*
X19404761Y-842380D01*
X18595238Y-794761D02*
X18452380Y-842380D01*
X18214285Y-842380D01*
X18119047Y-794761D01*
X18071428Y-747142D01*
X18023809Y-651904D01*
X18023809Y-556666D01*
X18071428Y-461428D01*
X18119047Y-413809D01*
X18214285Y-366190D01*
X18404761Y-318571D01*
X18500000Y-270952D01*
X18547619Y-223333D01*
X18595238Y-128095D01*
X18595238Y-32857D01*
X18547619Y62380D01*
X18500000Y110000D01*
X18404761Y157619D01*
X18166666Y157619D01*
X18023809Y110000D01*
X17738095Y157619D02*
X17166666Y157619D01*
X17452380Y-842380D02*
X17452380Y157619D01*
X17071428Y-937619D02*
X16309523Y-937619D01*
X16119047Y62380D02*
X16071428Y110000D01*
X15976190Y157619D01*
X15738095Y157619D01*
X15642857Y110000D01*
X15595238Y62380D01*
X15547619Y-32857D01*
X15547619Y-128095D01*
X15595238Y-270952D01*
X16166666Y-842380D01*
X15547619Y-842380D01*
X14595238Y-842380D02*
X15166666Y-842380D01*
X14880952Y-842380D02*
X14880952Y157619D01*
X14976190Y14761D01*
X15071428Y-80476D01*
X15166666Y-128095D01*
X14166666Y-842380D02*
X14166666Y157619D01*
X13785714Y157619D01*
X13690476Y110000D01*
X13642857Y62380D01*
X13595238Y-32857D01*
X13595238Y-175714D01*
X13642857Y-270952D01*
X13690476Y-318571D01*
X13785714Y-366190D01*
X14166666Y-366190D01*
X13166666Y-842380D02*
X13166666Y-175714D01*
X13166666Y157619D02*
X13214285Y110000D01*
X13166666Y62380D01*
X13119047Y110000D01*
X13166666Y157619D01*
X13166666Y62380D01*
X12690476Y-175714D02*
X12690476Y-842380D01*
X12690476Y-270952D02*
X12642857Y-223333D01*
X12547619Y-175714D01*
X12404761Y-175714D01*
X12309523Y-223333D01*
X12261904Y-318571D01*
X12261904Y-842380D01*
X23904761Y-2452380D02*
X24238095Y-1976190D01*
X24476190Y-2452380D02*
X24476190Y-1452380D01*
X24095238Y-1452380D01*
X24000000Y-1500000D01*
X23952380Y-1547619D01*
X23904761Y-1642857D01*
X23904761Y-1785714D01*
X23952380Y-1880952D01*
X24000000Y-1928571D01*
X24095238Y-1976190D01*
X24476190Y-1976190D01*
X23571428Y-1785714D02*
X23333333Y-2452380D01*
X23095238Y-1785714D02*
X23333333Y-2452380D01*
X23428571Y-2690476D01*
X23476190Y-2738095D01*
X23571428Y-2785714D01*
X22285714Y-2452380D02*
X22285714Y-1928571D01*
X22333333Y-1833333D01*
X22428571Y-1785714D01*
X22619047Y-1785714D01*
X22714285Y-1833333D01*
X22285714Y-2404761D02*
X22380952Y-2452380D01*
X22619047Y-2452380D01*
X22714285Y-2404761D01*
X22761904Y-2309523D01*
X22761904Y-2214285D01*
X22714285Y-2119047D01*
X22619047Y-2071428D01*
X22380952Y-2071428D01*
X22285714Y-2023809D01*
X21809523Y-1785714D02*
X21809523Y-2452380D01*
X21809523Y-1880952D02*
X21761904Y-1833333D01*
X21666666Y-1785714D01*
X21523809Y-1785714D01*
X21428571Y-1833333D01*
X21380952Y-1928571D01*
X21380952Y-2452380D01*
X20142857Y-2452380D02*
X20142857Y-1452380D01*
X19809523Y-2166666D01*
X19476190Y-1452380D01*
X19476190Y-2452380D01*
X18857142Y-2452380D02*
X18952380Y-2404761D01*
X19000000Y-2357142D01*
X19047619Y-2261904D01*
X19047619Y-1976190D01*
X19000000Y-1880952D01*
X18952380Y-1833333D01*
X18857142Y-1785714D01*
X18714285Y-1785714D01*
X18619047Y-1833333D01*
X18571428Y-1880952D01*
X18523809Y-1976190D01*
X18523809Y-2261904D01*
X18571428Y-2357142D01*
X18619047Y-2404761D01*
X18714285Y-2452380D01*
X18857142Y-2452380D01*
X18095238Y-2452380D02*
X18095238Y-1785714D01*
X18095238Y-1976190D02*
X18047619Y-1880952D01*
X18000000Y-1833333D01*
X17904761Y-1785714D01*
X17809523Y-1785714D01*
X17047619Y-1785714D02*
X17047619Y-2595238D01*
X17095238Y-2690476D01*
X17142857Y-2738095D01*
X17238095Y-2785714D01*
X17380952Y-2785714D01*
X17476190Y-2738095D01*
X17047619Y-2404761D02*
X17142857Y-2452380D01*
X17333333Y-2452380D01*
X17428571Y-2404761D01*
X17476190Y-2357142D01*
X17523809Y-2261904D01*
X17523809Y-1976190D01*
X17476190Y-1880952D01*
X17428571Y-1833333D01*
X17333333Y-1785714D01*
X17142857Y-1785714D01*
X17047619Y-1833333D01*
X16190476Y-2404761D02*
X16285714Y-2452380D01*
X16476190Y-2452380D01*
X16571428Y-2404761D01*
X16619047Y-2309523D01*
X16619047Y-1928571D01*
X16571428Y-1833333D01*
X16476190Y-1785714D01*
X16285714Y-1785714D01*
X16190476Y-1833333D01*
X16142857Y-1928571D01*
X16142857Y-2023809D01*
X16619047Y-2119047D01*
X15714285Y-1785714D02*
X15714285Y-2452380D01*
X15714285Y-1880952D02*
X15666666Y-1833333D01*
X15571428Y-1785714D01*
X15428571Y-1785714D01*
X15333333Y-1833333D01*
X15285714Y-1928571D01*
X15285714Y-2452380D01*
X14857142Y-2404761D02*
X14761904Y-2452380D01*
X14571428Y-2452380D01*
X14476190Y-2404761D01*
X14428571Y-2309523D01*
X14428571Y-2261904D01*
X14476190Y-2166666D01*
X14571428Y-2119047D01*
X14714285Y-2119047D01*
X14809523Y-2071428D01*
X14857142Y-1976190D01*
X14857142Y-1928571D01*
X14809523Y-1833333D01*
X14714285Y-1785714D01*
X14571428Y-1785714D01*
X14476190Y-1833333D01*
X14142857Y-1785714D02*
X13761904Y-1785714D01*
X14000000Y-1452380D02*
X14000000Y-2309523D01*
X13952380Y-2404761D01*
X13857142Y-2452380D01*
X13761904Y-2452380D01*
X13047619Y-2404761D02*
X13142857Y-2452380D01*
X13333333Y-2452380D01*
X13428571Y-2404761D01*
X13476190Y-2309523D01*
X13476190Y-1928571D01*
X13428571Y-1833333D01*
X13333333Y-1785714D01*
X13142857Y-1785714D01*
X13047619Y-1833333D01*
X13000000Y-1928571D01*
X13000000Y-2023809D01*
X13476190Y-2119047D01*
X12571428Y-2452380D02*
X12571428Y-1785714D01*
X12571428Y-1976190D02*
X12523809Y-1880952D01*
X12476190Y-1833333D01*
X12380952Y-1785714D01*
X12285714Y-1785714D01*
X11952380Y-1785714D02*
X11952380Y-2452380D01*
X11952380Y-1880952D02*
X11904761Y-1833333D01*
X11809523Y-1785714D01*
X11666666Y-1785714D01*
X11571428Y-1833333D01*
X11523809Y-1928571D01*
X11523809Y-2452380D01*
X20714285Y-3062380D02*
X20904761Y-3062380D01*
X21000000Y-3110000D01*
X21047619Y-3157619D01*
X21142857Y-3300476D01*
X21190476Y-3490952D01*
X21190476Y-3871904D01*
X21142857Y-3967142D01*
X21095238Y-4014761D01*
X21000000Y-4062380D01*
X20809523Y-4062380D01*
X20714285Y-4014761D01*
X20666666Y-3967142D01*
X20619047Y-3871904D01*
X20619047Y-3633809D01*
X20666666Y-3538571D01*
X20714285Y-3490952D01*
X20809523Y-3443333D01*
X21000000Y-3443333D01*
X21095238Y-3490952D01*
X21142857Y-3538571D01*
X21190476Y-3633809D01*
X19476190Y-3014761D02*
X20333333Y-4300476D01*
X18714285Y-3062380D02*
X18904761Y-3062380D01*
X19000000Y-3110000D01*
X19047619Y-3157619D01*
X19142857Y-3300476D01*
X19190476Y-3490952D01*
X19190476Y-3871904D01*
X19142857Y-3967142D01*
X19095238Y-4014761D01*
X19000000Y-4062380D01*
X18809523Y-4062380D01*
X18714285Y-4014761D01*
X18666666Y-3967142D01*
X18619047Y-3871904D01*
X18619047Y-3633809D01*
X18666666Y-3538571D01*
X18714285Y-3490952D01*
X18809523Y-3443333D01*
X19000000Y-3443333D01*
X19095238Y-3490952D01*
X19142857Y-3538571D01*
X19190476Y-3633809D01*
X18238095Y-3157619D02*
X18190476Y-3110000D01*
X18095238Y-3062380D01*
X17857142Y-3062380D01*
X17761904Y-3110000D01*
X17714285Y-3157619D01*
X17666666Y-3252857D01*
X17666666Y-3348095D01*
X17714285Y-3490952D01*
X18285714Y-4062380D01*
X17666666Y-4062380D01*
X17047619Y-3062380D02*
X16952380Y-3062380D01*
X16857142Y-3110000D01*
X16809523Y-3157619D01*
X16761904Y-3252857D01*
X16714285Y-3443333D01*
X16714285Y-3681428D01*
X16761904Y-3871904D01*
X16809523Y-3967142D01*
X16857142Y-4014761D01*
X16952380Y-4062380D01*
X17047619Y-4062380D01*
X17142857Y-4014761D01*
X17190476Y-3967142D01*
X17238095Y-3871904D01*
X17285714Y-3681428D01*
X17285714Y-3443333D01*
X17238095Y-3252857D01*
X17190476Y-3157619D01*
X17142857Y-3110000D01*
X17047619Y-3062380D01*
X16333333Y-3157619D02*
X16285714Y-3110000D01*
X16190476Y-3062380D01*
X15952380Y-3062380D01*
X15857142Y-3110000D01*
X15809523Y-3157619D01*
X15761904Y-3252857D01*
X15761904Y-3348095D01*
X15809523Y-3490952D01*
X16380952Y-4062380D01*
X15761904Y-4062380D01*
X15380952Y-3157619D02*
X15333333Y-3110000D01*
X15238095Y-3062380D01*
X15000000Y-3062380D01*
X14904761Y-3110000D01*
X14857142Y-3157619D01*
X14809523Y-3252857D01*
X14809523Y-3348095D01*
X14857142Y-3490952D01*
X15428571Y-4062380D01*
X14809523Y-4062380D01*
M02*
