%TF.GenerationSoftware,KiCad,Pcbnew,(6.0.5)*%
%TF.CreationDate,2022-06-06T17:18:48-06:00*%
%TF.ProjectId,21Pin_Fanout,32315069-6e5f-4466-916e-6f75742e6b69,rev?*%
%TF.SameCoordinates,Original*%
%TF.FileFunction,Legend,Top*%
%TF.FilePolarity,Positive*%
%FSLAX46Y46*%
G04 Gerber Fmt 4.6, Leading zero omitted, Abs format (unit mm)*
G04 Created by KiCad (PCBNEW (6.0.5)) date 2022-06-06 17:18:48*
%MOMM*%
%LPD*%
G01*
G04 APERTURE LIST*
%ADD10C,0.150000*%
%ADD11C,0.120000*%
%ADD12C,0.254000*%
%ADD13C,0.200000*%
G04 APERTURE END LIST*
D10*
X12261904Y-842380D02*
X12261904Y157619D01*
X12261904Y-318571D02*
X12833333Y-318571D01*
X12833333Y-842380D02*
X12833333Y157619D01*
X13309523Y-842380D02*
X13309523Y157619D01*
X13547619Y157619D01*
X13690476Y110000D01*
X13785714Y14761D01*
X13833333Y-80476D01*
X13880952Y-270952D01*
X13880952Y-413809D01*
X13833333Y-604285D01*
X13785714Y-699523D01*
X13690476Y-794761D01*
X13547619Y-842380D01*
X13309523Y-842380D01*
X14309523Y-842380D02*
X14309523Y157619D01*
X14642857Y-556666D01*
X14976190Y157619D01*
X14976190Y-842380D01*
X15452380Y-842380D02*
X15452380Y157619D01*
X15690476Y-937619D02*
X16452380Y-937619D01*
X16976190Y157619D02*
X16976190Y-556666D01*
X16928571Y-699523D01*
X16833333Y-794761D01*
X16690476Y-842380D01*
X16595238Y-842380D01*
X17404761Y-794761D02*
X17547619Y-842380D01*
X17785714Y-842380D01*
X17880952Y-794761D01*
X17928571Y-747142D01*
X17976190Y-651904D01*
X17976190Y-556666D01*
X17928571Y-461428D01*
X17880952Y-413809D01*
X17785714Y-366190D01*
X17595238Y-318571D01*
X17500000Y-270952D01*
X17452380Y-223333D01*
X17404761Y-128095D01*
X17404761Y-32857D01*
X17452380Y62380D01*
X17500000Y110000D01*
X17595238Y157619D01*
X17833333Y157619D01*
X17976190Y110000D01*
X18261904Y157619D02*
X18833333Y157619D01*
X18547619Y-842380D02*
X18547619Y157619D01*
X18928571Y-937619D02*
X19690476Y-937619D01*
X19880952Y62380D02*
X19928571Y110000D01*
X20023809Y157619D01*
X20261904Y157619D01*
X20357142Y110000D01*
X20404761Y62380D01*
X20452380Y-32857D01*
X20452380Y-128095D01*
X20404761Y-270952D01*
X19833333Y-842380D01*
X20452380Y-842380D01*
X21404761Y-842380D02*
X20833333Y-842380D01*
X21119047Y-842380D02*
X21119047Y157619D01*
X21023809Y14761D01*
X20928571Y-80476D01*
X20833333Y-128095D01*
X21833333Y-842380D02*
X21833333Y157619D01*
X22214285Y157619D01*
X22309523Y110000D01*
X22357142Y62380D01*
X22404761Y-32857D01*
X22404761Y-175714D01*
X22357142Y-270952D01*
X22309523Y-318571D01*
X22214285Y-366190D01*
X21833333Y-366190D01*
X22833333Y-842380D02*
X22833333Y-175714D01*
X22833333Y157619D02*
X22785714Y110000D01*
X22833333Y62380D01*
X22880952Y110000D01*
X22833333Y157619D01*
X22833333Y62380D01*
X23309523Y-175714D02*
X23309523Y-842380D01*
X23309523Y-270952D02*
X23357142Y-223333D01*
X23452380Y-175714D01*
X23595238Y-175714D01*
X23690476Y-223333D01*
X23738095Y-318571D01*
X23738095Y-842380D01*
X12095238Y-2452380D02*
X11761904Y-1976190D01*
X11523809Y-2452380D02*
X11523809Y-1452380D01*
X11904761Y-1452380D01*
X11999999Y-1500000D01*
X12047619Y-1547619D01*
X12095238Y-1642857D01*
X12095238Y-1785714D01*
X12047619Y-1880952D01*
X11999999Y-1928571D01*
X11904761Y-1976190D01*
X11523809Y-1976190D01*
X12428571Y-1785714D02*
X12666666Y-2452380D01*
X12904761Y-1785714D02*
X12666666Y-2452380D01*
X12571428Y-2690476D01*
X12523809Y-2738095D01*
X12428571Y-2785714D01*
X13714285Y-2452380D02*
X13714285Y-1928571D01*
X13666666Y-1833333D01*
X13571428Y-1785714D01*
X13380952Y-1785714D01*
X13285714Y-1833333D01*
X13714285Y-2404761D02*
X13619047Y-2452380D01*
X13380952Y-2452380D01*
X13285714Y-2404761D01*
X13238095Y-2309523D01*
X13238095Y-2214285D01*
X13285714Y-2119047D01*
X13380952Y-2071428D01*
X13619047Y-2071428D01*
X13714285Y-2023809D01*
X14190476Y-1785714D02*
X14190476Y-2452380D01*
X14190476Y-1880952D02*
X14238095Y-1833333D01*
X14333333Y-1785714D01*
X14476190Y-1785714D01*
X14571428Y-1833333D01*
X14619047Y-1928571D01*
X14619047Y-2452380D01*
X15857142Y-2452380D02*
X15857142Y-1452380D01*
X16190476Y-2166666D01*
X16523809Y-1452380D01*
X16523809Y-2452380D01*
X17142857Y-2452380D02*
X17047619Y-2404761D01*
X16999999Y-2357142D01*
X16952380Y-2261904D01*
X16952380Y-1976190D01*
X16999999Y-1880952D01*
X17047619Y-1833333D01*
X17142857Y-1785714D01*
X17285714Y-1785714D01*
X17380952Y-1833333D01*
X17428571Y-1880952D01*
X17476190Y-1976190D01*
X17476190Y-2261904D01*
X17428571Y-2357142D01*
X17380952Y-2404761D01*
X17285714Y-2452380D01*
X17142857Y-2452380D01*
X17904761Y-2452380D02*
X17904761Y-1785714D01*
X17904761Y-1976190D02*
X17952380Y-1880952D01*
X17999999Y-1833333D01*
X18095238Y-1785714D01*
X18190476Y-1785714D01*
X18952380Y-1785714D02*
X18952380Y-2595238D01*
X18904761Y-2690476D01*
X18857142Y-2738095D01*
X18761904Y-2785714D01*
X18619047Y-2785714D01*
X18523809Y-2738095D01*
X18952380Y-2404761D02*
X18857142Y-2452380D01*
X18666666Y-2452380D01*
X18571428Y-2404761D01*
X18523809Y-2357142D01*
X18476190Y-2261904D01*
X18476190Y-1976190D01*
X18523809Y-1880952D01*
X18571428Y-1833333D01*
X18666666Y-1785714D01*
X18857142Y-1785714D01*
X18952380Y-1833333D01*
X19809523Y-2404761D02*
X19714285Y-2452380D01*
X19523809Y-2452380D01*
X19428571Y-2404761D01*
X19380952Y-2309523D01*
X19380952Y-1928571D01*
X19428571Y-1833333D01*
X19523809Y-1785714D01*
X19714285Y-1785714D01*
X19809523Y-1833333D01*
X19857142Y-1928571D01*
X19857142Y-2023809D01*
X19380952Y-2119047D01*
X20285714Y-1785714D02*
X20285714Y-2452380D01*
X20285714Y-1880952D02*
X20333333Y-1833333D01*
X20428571Y-1785714D01*
X20571428Y-1785714D01*
X20666666Y-1833333D01*
X20714285Y-1928571D01*
X20714285Y-2452380D01*
X21142857Y-2404761D02*
X21238095Y-2452380D01*
X21428571Y-2452380D01*
X21523809Y-2404761D01*
X21571428Y-2309523D01*
X21571428Y-2261904D01*
X21523809Y-2166666D01*
X21428571Y-2119047D01*
X21285714Y-2119047D01*
X21190476Y-2071428D01*
X21142857Y-1976190D01*
X21142857Y-1928571D01*
X21190476Y-1833333D01*
X21285714Y-1785714D01*
X21428571Y-1785714D01*
X21523809Y-1833333D01*
X21857142Y-1785714D02*
X22238095Y-1785714D01*
X22000000Y-1452380D02*
X22000000Y-2309523D01*
X22047619Y-2404761D01*
X22142857Y-2452380D01*
X22238095Y-2452380D01*
X22952380Y-2404761D02*
X22857142Y-2452380D01*
X22666666Y-2452380D01*
X22571428Y-2404761D01*
X22523809Y-2309523D01*
X22523809Y-1928571D01*
X22571428Y-1833333D01*
X22666666Y-1785714D01*
X22857142Y-1785714D01*
X22952380Y-1833333D01*
X22999999Y-1928571D01*
X22999999Y-2023809D01*
X22523809Y-2119047D01*
X23428571Y-2452380D02*
X23428571Y-1785714D01*
X23428571Y-1976190D02*
X23476190Y-1880952D01*
X23523809Y-1833333D01*
X23619047Y-1785714D01*
X23714285Y-1785714D01*
X24047619Y-1785714D02*
X24047619Y-2452380D01*
X24047619Y-1880952D02*
X24095238Y-1833333D01*
X24190476Y-1785714D01*
X24333333Y-1785714D01*
X24428571Y-1833333D01*
X24476190Y-1928571D01*
X24476190Y-2452380D01*
X15285714Y-3062380D02*
X15095238Y-3062380D01*
X15000000Y-3110000D01*
X14952380Y-3157619D01*
X14857142Y-3300476D01*
X14809523Y-3490952D01*
X14809523Y-3871904D01*
X14857142Y-3967142D01*
X14904761Y-4014761D01*
X15000000Y-4062380D01*
X15190476Y-4062380D01*
X15285714Y-4014761D01*
X15333333Y-3967142D01*
X15380952Y-3871904D01*
X15380952Y-3633809D01*
X15333333Y-3538571D01*
X15285714Y-3490952D01*
X15190476Y-3443333D01*
X15000000Y-3443333D01*
X14904761Y-3490952D01*
X14857142Y-3538571D01*
X14809523Y-3633809D01*
X16523809Y-3014761D02*
X15666666Y-4300476D01*
X17285714Y-3062380D02*
X17095238Y-3062380D01*
X17000000Y-3110000D01*
X16952380Y-3157619D01*
X16857142Y-3300476D01*
X16809523Y-3490952D01*
X16809523Y-3871904D01*
X16857142Y-3967142D01*
X16904761Y-4014761D01*
X17000000Y-4062380D01*
X17190476Y-4062380D01*
X17285714Y-4014761D01*
X17333333Y-3967142D01*
X17380952Y-3871904D01*
X17380952Y-3633809D01*
X17333333Y-3538571D01*
X17285714Y-3490952D01*
X17190476Y-3443333D01*
X17000000Y-3443333D01*
X16904761Y-3490952D01*
X16857142Y-3538571D01*
X16809523Y-3633809D01*
X17761904Y-3157619D02*
X17809523Y-3110000D01*
X17904761Y-3062380D01*
X18142857Y-3062380D01*
X18238095Y-3110000D01*
X18285714Y-3157619D01*
X18333333Y-3252857D01*
X18333333Y-3348095D01*
X18285714Y-3490952D01*
X17714285Y-4062380D01*
X18333333Y-4062380D01*
X18952380Y-3062380D02*
X19047619Y-3062380D01*
X19142857Y-3110000D01*
X19190476Y-3157619D01*
X19238095Y-3252857D01*
X19285714Y-3443333D01*
X19285714Y-3681428D01*
X19238095Y-3871904D01*
X19190476Y-3967142D01*
X19142857Y-4014761D01*
X19047619Y-4062380D01*
X18952380Y-4062380D01*
X18857142Y-4014761D01*
X18809523Y-3967142D01*
X18761904Y-3871904D01*
X18714285Y-3681428D01*
X18714285Y-3443333D01*
X18761904Y-3252857D01*
X18809523Y-3157619D01*
X18857142Y-3110000D01*
X18952380Y-3062380D01*
X19666666Y-3157619D02*
X19714285Y-3110000D01*
X19809523Y-3062380D01*
X20047619Y-3062380D01*
X20142857Y-3110000D01*
X20190476Y-3157619D01*
X20238095Y-3252857D01*
X20238095Y-3348095D01*
X20190476Y-3490952D01*
X19619047Y-4062380D01*
X20238095Y-4062380D01*
X20619047Y-3157619D02*
X20666666Y-3110000D01*
X20761904Y-3062380D01*
X21000000Y-3062380D01*
X21095238Y-3110000D01*
X21142857Y-3157619D01*
X21190476Y-3252857D01*
X21190476Y-3348095D01*
X21142857Y-3490952D01*
X20571428Y-4062380D01*
X21190476Y-4062380D01*
%TO.C,J9*%
X-27333333Y16567619D02*
X-27333333Y15853333D01*
X-27380952Y15710476D01*
X-27476190Y15615238D01*
X-27619047Y15567619D01*
X-27714285Y15567619D01*
X-26809523Y15567619D02*
X-26619047Y15567619D01*
X-26523809Y15615238D01*
X-26476190Y15662857D01*
X-26380952Y15805714D01*
X-26333333Y15996190D01*
X-26333333Y16377142D01*
X-26380952Y16472380D01*
X-26428571Y16520000D01*
X-26523809Y16567619D01*
X-26714285Y16567619D01*
X-26809523Y16520000D01*
X-26857142Y16472380D01*
X-26904761Y16377142D01*
X-26904761Y16139047D01*
X-26857142Y16043809D01*
X-26809523Y15996190D01*
X-26714285Y15948571D01*
X-26523809Y15948571D01*
X-26428571Y15996190D01*
X-26380952Y16043809D01*
X-26333333Y16139047D01*
%TO.C,J2*%
X-19833333Y14497619D02*
X-19833333Y13783333D01*
X-19880952Y13640476D01*
X-19976190Y13545238D01*
X-20119047Y13497619D01*
X-20214285Y13497619D01*
X-19404761Y14402380D02*
X-19357142Y14450000D01*
X-19261904Y14497619D01*
X-19023809Y14497619D01*
X-18928571Y14450000D01*
X-18880952Y14402380D01*
X-18833333Y14307142D01*
X-18833333Y14211904D01*
X-18880952Y14069047D01*
X-19452380Y13497619D01*
X-18833333Y13497619D01*
%TO.C,J5*%
X25250666Y14506619D02*
X25250666Y13792333D01*
X25203047Y13649476D01*
X25107809Y13554238D01*
X24964952Y13506619D01*
X24869714Y13506619D01*
X26203047Y14506619D02*
X25726857Y14506619D01*
X25679238Y14030428D01*
X25726857Y14078047D01*
X25822095Y14125666D01*
X26060190Y14125666D01*
X26155428Y14078047D01*
X26203047Y14030428D01*
X26250666Y13935190D01*
X26250666Y13697095D01*
X26203047Y13601857D01*
X26155428Y13554238D01*
X26060190Y13506619D01*
X25822095Y13506619D01*
X25726857Y13554238D01*
X25679238Y13601857D01*
%TO.C,J4*%
X10166666Y14497619D02*
X10166666Y13783333D01*
X10119047Y13640476D01*
X10023809Y13545238D01*
X9880952Y13497619D01*
X9785714Y13497619D01*
X11071428Y14164285D02*
X11071428Y13497619D01*
X10833333Y14545238D02*
X10595238Y13830952D01*
X11214285Y13830952D01*
%TO.C,J6*%
X17666666Y16567619D02*
X17666666Y15853333D01*
X17619047Y15710476D01*
X17523809Y15615238D01*
X17380952Y15567619D01*
X17285714Y15567619D01*
X18571428Y16567619D02*
X18380952Y16567619D01*
X18285714Y16520000D01*
X18238095Y16472380D01*
X18142857Y16329523D01*
X18095238Y16139047D01*
X18095238Y15758095D01*
X18142857Y15662857D01*
X18190476Y15615238D01*
X18285714Y15567619D01*
X18476190Y15567619D01*
X18571428Y15615238D01*
X18619047Y15662857D01*
X18666666Y15758095D01*
X18666666Y15996190D01*
X18619047Y16091428D01*
X18571428Y16139047D01*
X18476190Y16186666D01*
X18285714Y16186666D01*
X18190476Y16139047D01*
X18142857Y16091428D01*
X18095238Y15996190D01*
%TO.C,J3*%
X-4833333Y14497619D02*
X-4833333Y13783333D01*
X-4880952Y13640476D01*
X-4976190Y13545238D01*
X-5119047Y13497619D01*
X-5214285Y13497619D01*
X-4452380Y14497619D02*
X-3833333Y14497619D01*
X-4166666Y14116666D01*
X-4023809Y14116666D01*
X-3928571Y14069047D01*
X-3880952Y14021428D01*
X-3833333Y13926190D01*
X-3833333Y13688095D01*
X-3880952Y13592857D01*
X-3928571Y13545238D01*
X-4023809Y13497619D01*
X-4309523Y13497619D01*
X-4404761Y13545238D01*
X-4452380Y13592857D01*
%TO.C,J8*%
X-12333333Y16567619D02*
X-12333333Y15853333D01*
X-12380952Y15710476D01*
X-12476190Y15615238D01*
X-12619047Y15567619D01*
X-12714285Y15567619D01*
X-11714285Y16139047D02*
X-11809523Y16186666D01*
X-11857142Y16234285D01*
X-11904761Y16329523D01*
X-11904761Y16377142D01*
X-11857142Y16472380D01*
X-11809523Y16520000D01*
X-11714285Y16567619D01*
X-11523809Y16567619D01*
X-11428571Y16520000D01*
X-11380952Y16472380D01*
X-11333333Y16377142D01*
X-11333333Y16329523D01*
X-11380952Y16234285D01*
X-11428571Y16186666D01*
X-11523809Y16139047D01*
X-11714285Y16139047D01*
X-11809523Y16091428D01*
X-11857142Y16043809D01*
X-11904761Y15948571D01*
X-11904761Y15758095D01*
X-11857142Y15662857D01*
X-11809523Y15615238D01*
X-11714285Y15567619D01*
X-11523809Y15567619D01*
X-11428571Y15615238D01*
X-11380952Y15662857D01*
X-11333333Y15758095D01*
X-11333333Y15948571D01*
X-11380952Y16043809D01*
X-11428571Y16091428D01*
X-11523809Y16139047D01*
%TO.C,J7*%
X2666666Y16567619D02*
X2666666Y15853333D01*
X2619047Y15710476D01*
X2523809Y15615238D01*
X2380952Y15567619D01*
X2285714Y15567619D01*
X3047619Y16567619D02*
X3714285Y16567619D01*
X3285714Y15567619D01*
%TO.C,J1*%
X621309Y3754619D02*
X621309Y3040333D01*
X573690Y2897476D01*
X478452Y2802238D01*
X335595Y2754619D01*
X240357Y2754619D01*
X1621309Y2754619D02*
X1049880Y2754619D01*
X1335595Y2754619D02*
X1335595Y3754619D01*
X1240357Y3611761D01*
X1145119Y3516523D01*
X1049880Y3468904D01*
D11*
%TO.C,J9*%
X-30110000Y20715000D02*
X-30110000Y18215000D01*
X-24940000Y18215000D02*
X-24940000Y17225000D01*
X-23890000Y18215000D02*
X-24940000Y18215000D01*
X-30110000Y18215000D02*
X-29060000Y18215000D01*
X-23890000Y20715000D02*
X-23890000Y18215000D01*
X-25060000Y22685000D02*
X-28940000Y22685000D01*
%TO.C,J2*%
X-17360000Y15040000D02*
X-16440000Y15040000D01*
X-20000000Y18500000D02*
X-20000000Y22860000D01*
X-21640000Y16640000D02*
X-21360000Y16640000D01*
X-17200000Y19000000D02*
X-17200000Y20600000D01*
X-22560000Y16640000D02*
X-21640000Y16640000D01*
X-17640000Y16640000D02*
X-17360000Y16640000D01*
X-19000000Y18500000D02*
X-20000000Y18500000D01*
X-18200000Y19000000D02*
X-17200000Y19000000D01*
X-16440000Y16640000D02*
X-17360000Y16640000D01*
X-17360000Y16640000D02*
X-17360000Y15040000D01*
X-18200000Y20600000D02*
X-18200000Y19000000D01*
X-16440000Y15040000D02*
X-16440000Y22860000D01*
X-20800000Y19000000D02*
X-21800000Y19000000D01*
X-21800000Y20600000D02*
X-20800000Y20600000D01*
X-17200000Y20600000D02*
X-18200000Y20600000D01*
X-17640000Y16640000D02*
X-17640000Y15425000D01*
X-17700000Y20600000D02*
X-17700000Y22860000D01*
X-21640000Y15040000D02*
X-21640000Y16640000D01*
X-22560000Y15040000D02*
X-21640000Y15040000D01*
X-21800000Y19000000D02*
X-21800000Y20600000D01*
X-16440000Y22860000D02*
X-22560000Y22860000D01*
X-18200000Y20600000D02*
X-18200000Y22860000D01*
X-19000000Y22860000D02*
X-19000000Y18500000D01*
X-20800000Y20600000D02*
X-20800000Y19000000D01*
X-22560000Y22860000D02*
X-22560000Y15040000D01*
%TO.C,J5*%
X27884000Y20609000D02*
X26884000Y20609000D01*
X22524000Y16649000D02*
X23444000Y16649000D01*
X22524000Y22869000D02*
X22524000Y15049000D01*
X27444000Y16649000D02*
X27724000Y16649000D01*
X27884000Y19009000D02*
X27884000Y20609000D01*
X24284000Y20609000D02*
X24284000Y19009000D01*
X23444000Y15049000D02*
X23444000Y16649000D01*
X26084000Y18509000D02*
X25084000Y18509000D01*
X22524000Y15049000D02*
X23444000Y15049000D01*
X26884000Y19009000D02*
X27884000Y19009000D01*
X23284000Y20609000D02*
X24284000Y20609000D01*
X27724000Y16649000D02*
X27724000Y15049000D01*
X27444000Y16649000D02*
X27444000Y15434000D01*
X26884000Y20609000D02*
X26884000Y19009000D01*
X23444000Y16649000D02*
X23724000Y16649000D01*
X24284000Y19009000D02*
X23284000Y19009000D01*
X28644000Y22869000D02*
X22524000Y22869000D01*
X28644000Y16649000D02*
X27724000Y16649000D01*
X25084000Y18509000D02*
X25084000Y22869000D01*
X28644000Y15049000D02*
X28644000Y22869000D01*
X26884000Y20609000D02*
X26884000Y22869000D01*
X27724000Y15049000D02*
X28644000Y15049000D01*
X26084000Y22869000D02*
X26084000Y18509000D01*
X27384000Y20609000D02*
X27384000Y22869000D01*
X23284000Y19009000D02*
X23284000Y20609000D01*
%TO.C,J4*%
X10000000Y18500000D02*
X10000000Y22860000D01*
X11800000Y20600000D02*
X11800000Y19000000D01*
X8360000Y16640000D02*
X8640000Y16640000D01*
X13560000Y15040000D02*
X13560000Y22860000D01*
X9200000Y19000000D02*
X8200000Y19000000D01*
X13560000Y22860000D02*
X7440000Y22860000D01*
X12300000Y20600000D02*
X12300000Y22860000D01*
X12360000Y16640000D02*
X12640000Y16640000D01*
X7440000Y16640000D02*
X8360000Y16640000D01*
X11800000Y19000000D02*
X12800000Y19000000D01*
X12800000Y19000000D02*
X12800000Y20600000D01*
X12800000Y20600000D02*
X11800000Y20600000D01*
X11000000Y18500000D02*
X10000000Y18500000D01*
X9200000Y20600000D02*
X9200000Y19000000D01*
X12360000Y16640000D02*
X12360000Y15425000D01*
X7440000Y22860000D02*
X7440000Y15040000D01*
X8200000Y19000000D02*
X8200000Y20600000D01*
X8200000Y20600000D02*
X9200000Y20600000D01*
X11000000Y22860000D02*
X11000000Y18500000D01*
X11800000Y20600000D02*
X11800000Y22860000D01*
X13560000Y16640000D02*
X12640000Y16640000D01*
X12640000Y16640000D02*
X12640000Y15040000D01*
X7440000Y15040000D02*
X8360000Y15040000D01*
X8360000Y15040000D02*
X8360000Y16640000D01*
X12640000Y15040000D02*
X13560000Y15040000D01*
%TO.C,J6*%
X19940000Y22685000D02*
X16060000Y22685000D01*
X21110000Y18215000D02*
X20060000Y18215000D01*
X20060000Y18215000D02*
X20060000Y17225000D01*
X14890000Y20715000D02*
X14890000Y18215000D01*
X21110000Y20715000D02*
X21110000Y18215000D01*
X14890000Y18215000D02*
X15940000Y18215000D01*
%TO.C,J3*%
X-2700000Y20600000D02*
X-2700000Y22860000D01*
X-2200000Y20600000D02*
X-3200000Y20600000D01*
X-5800000Y20600000D02*
X-5800000Y19000000D01*
X-2360000Y16640000D02*
X-2360000Y15040000D01*
X-6800000Y20600000D02*
X-5800000Y20600000D01*
X-5000000Y18500000D02*
X-5000000Y22860000D01*
X-5800000Y19000000D02*
X-6800000Y19000000D01*
X-1440000Y15040000D02*
X-1440000Y22860000D01*
X-1440000Y22860000D02*
X-7560000Y22860000D01*
X-7560000Y22860000D02*
X-7560000Y15040000D01*
X-6640000Y16640000D02*
X-6360000Y16640000D01*
X-3200000Y20600000D02*
X-3200000Y22860000D01*
X-2200000Y19000000D02*
X-2200000Y20600000D01*
X-3200000Y20600000D02*
X-3200000Y19000000D01*
X-2640000Y16640000D02*
X-2360000Y16640000D01*
X-3200000Y19000000D02*
X-2200000Y19000000D01*
X-7560000Y16640000D02*
X-6640000Y16640000D01*
X-1440000Y16640000D02*
X-2360000Y16640000D01*
X-4000000Y22860000D02*
X-4000000Y18500000D01*
X-6800000Y19000000D02*
X-6800000Y20600000D01*
X-6640000Y15040000D02*
X-6640000Y16640000D01*
X-4000000Y18500000D02*
X-5000000Y18500000D01*
X-2360000Y15040000D02*
X-1440000Y15040000D01*
X-2640000Y16640000D02*
X-2640000Y15425000D01*
X-7560000Y15040000D02*
X-6640000Y15040000D01*
%TO.C,J8*%
X-15110000Y20715000D02*
X-15110000Y18215000D01*
X-10060000Y22685000D02*
X-13940000Y22685000D01*
X-8890000Y20715000D02*
X-8890000Y18215000D01*
X-15110000Y18215000D02*
X-14060000Y18215000D01*
X-9940000Y18215000D02*
X-9940000Y17225000D01*
X-8890000Y18215000D02*
X-9940000Y18215000D01*
%TO.C,J7*%
X-110000Y18215000D02*
X940000Y18215000D01*
X6110000Y20715000D02*
X6110000Y18215000D01*
X6110000Y18215000D02*
X5060000Y18215000D01*
X5060000Y18215000D02*
X5060000Y17225000D01*
X-110000Y20715000D02*
X-110000Y18215000D01*
X4940000Y22685000D02*
X1060000Y22685000D01*
D12*
%TO.C,J1*%
X4000000Y-1904000D02*
X4500000Y-5404000D01*
D13*
X6145000Y2575000D02*
X6145000Y3563000D01*
X6352000Y3563000D02*
X6352000Y3556000D01*
X-6107000Y3545000D02*
X-6120000Y3545000D01*
X7500000Y-1876000D02*
X7500000Y743000D01*
X-6350000Y3557000D02*
X-6107000Y3557000D01*
X4830000Y2565000D02*
X6080000Y2565000D01*
X-3200000Y-2504000D02*
X-3800000Y-2504000D01*
X6080000Y2565000D02*
X6080000Y2575000D01*
X-7500000Y-1875000D02*
X-7500000Y743000D01*
X-6107000Y3557000D02*
X-6107000Y3545000D01*
X-6120000Y2592000D02*
X-4837000Y2592000D01*
X7500000Y-8036000D02*
X7500000Y-4917000D01*
X6145000Y3563000D02*
X6352000Y3563000D01*
X3200000Y-2504000D02*
X3800000Y-2504000D01*
D12*
X-3000000Y-1904000D02*
X-4000000Y-1904000D01*
D13*
X-6120000Y3545000D02*
X-6120000Y2592000D01*
D12*
X2500000Y-5404000D02*
X3000000Y-1904000D01*
D13*
X-7500000Y-8036000D02*
X-7500000Y-4917000D01*
X6080000Y2575000D02*
X6145000Y2575000D01*
D12*
X-2500000Y-5404000D02*
X-3000000Y-1904000D01*
D13*
X-7500000Y-8036000D02*
X7500000Y-8036000D01*
D12*
X3000000Y-1904000D02*
X4000000Y-1904000D01*
X-4000000Y-1904000D02*
X-4500000Y-5404000D01*
%TD*%
M02*
