%TF.GenerationSoftware,KiCad,Pcbnew,(6.0.5)*%
%TF.CreationDate,2022-06-06T17:16:28-06:00*%
%TF.ProjectId,15Pin_Fanout,31355069-6e5f-4466-916e-6f75742e6b69,rev?*%
%TF.SameCoordinates,Original*%
%TF.FileFunction,Copper,L1,Top*%
%TF.FilePolarity,Positive*%
%FSLAX46Y46*%
G04 Gerber Fmt 4.6, Leading zero omitted, Abs format (unit mm)*
G04 Created by KiCad (PCBNEW (6.0.5)) date 2022-06-06 17:16:28*
%MOMM*%
%LPD*%
G01*
G04 APERTURE LIST*
G04 Aperture macros list*
%AMRoundRect*
0 Rectangle with rounded corners*
0 $1 Rounding radius*
0 $2 $3 $4 $5 $6 $7 $8 $9 X,Y pos of 4 corners*
0 Add a 4 corners polygon primitive as box body*
4,1,4,$2,$3,$4,$5,$6,$7,$8,$9,$2,$3,0*
0 Add four circle primitives for the rounded corners*
1,1,$1+$1,$2,$3*
1,1,$1+$1,$4,$5*
1,1,$1+$1,$6,$7*
1,1,$1+$1,$8,$9*
0 Add four rect primitives between the rounded corners*
20,1,$1+$1,$2,$3,$4,$5,0*
20,1,$1+$1,$4,$5,$6,$7,0*
20,1,$1+$1,$6,$7,$8,$9,0*
20,1,$1+$1,$8,$9,$2,$3,0*%
G04 Aperture macros list end*
%TA.AperFunction,ComponentPad*%
%ADD10RoundRect,0.250000X0.350000X0.625000X-0.350000X0.625000X-0.350000X-0.625000X0.350000X-0.625000X0*%
%TD*%
%TA.AperFunction,ComponentPad*%
%ADD11O,1.200000X1.750000*%
%TD*%
%TA.AperFunction,SMDPad,CuDef*%
%ADD12RoundRect,0.150000X0.150000X0.625000X-0.150000X0.625000X-0.150000X-0.625000X0.150000X-0.625000X0*%
%TD*%
%TA.AperFunction,SMDPad,CuDef*%
%ADD13RoundRect,0.250000X0.350000X0.650000X-0.350000X0.650000X-0.350000X-0.650000X0.350000X-0.650000X0*%
%TD*%
%TA.AperFunction,SMDPad,CuDef*%
%ADD14O,0.250000X2.400000*%
%TD*%
%TA.AperFunction,ComponentPad*%
%ADD15O,1.500000X2.700000*%
%TD*%
%TA.AperFunction,ComponentPad*%
%ADD16O,1.500000X3.300000*%
%TD*%
%TA.AperFunction,ViaPad*%
%ADD17C,0.800000*%
%TD*%
%TA.AperFunction,Conductor*%
%ADD18C,0.250000*%
%TD*%
%TA.AperFunction,Conductor*%
%ADD19C,1.000000*%
%TD*%
%TA.AperFunction,Conductor*%
%ADD20C,0.300000*%
%TD*%
%TA.AperFunction,Conductor*%
%ADD21C,0.350000*%
%TD*%
G04 APERTURE END LIST*
D10*
%TO.P,J3,1,Pin_1*%
%TO.N,Net-(J1-Pad7)*%
X-2474000Y16750000D03*
D11*
%TO.P,J3,2,Pin_2*%
%TO.N,Net-(J1-Pad9)*%
X-4474000Y16750000D03*
%TD*%
D10*
%TO.P,J5,1,Pin_1*%
%TO.N,Net-(J1-Pad4)*%
X4726000Y16750000D03*
D11*
%TO.P,J5,2,Pin_2*%
%TO.N,Net-(J1-Pad6)*%
X2726000Y16750000D03*
%TD*%
D12*
%TO.P,J6,1,Pin_1*%
%TO.N,Net-(J1-Pad4)*%
X13176000Y18000000D03*
%TO.P,J6,2,Pin_2*%
%TO.N,Net-(J1-Pad1)*%
X12176000Y18000000D03*
%TO.P,J6,3,Pin_3*%
%TO.N,Net-(J1-Pad3)*%
X11176000Y18000000D03*
%TO.P,J6,4,Pin_4*%
%TO.N,Net-(J1-Pad6)*%
X10176000Y18000000D03*
D13*
%TO.P,J6,MP*%
%TO.N,N/C*%
X14476000Y21875000D03*
X8876000Y21875000D03*
%TD*%
D10*
%TO.P,J4,1,Pin_1*%
%TO.N,Net-(J1-Pad10)*%
X-18250000Y16750000D03*
D11*
%TO.P,J4,2,Pin_2*%
%TO.N,Net-(J1-Pad12)*%
X-20250000Y16750000D03*
%TD*%
D12*
%TO.P,J7,1,Pin_1*%
%TO.N,Net-(J1-Pad10)*%
X-9884000Y18000000D03*
%TO.P,J7,2,Pin_2*%
%TO.N,Net-(J1-Pad7)*%
X-10884000Y18000000D03*
%TO.P,J7,3,Pin_3*%
%TO.N,Net-(J1-Pad9)*%
X-11884000Y18000000D03*
%TO.P,J7,4,Pin_4*%
%TO.N,Net-(J1-Pad12)*%
X-12884000Y18000000D03*
D13*
%TO.P,J7,MP*%
%TO.N,N/C*%
X-8584000Y21875000D03*
X-14184000Y21875000D03*
%TD*%
D10*
%TO.P,J2,1,Pin_1*%
%TO.N,Net-(J1-Pad1)*%
X20526000Y16750000D03*
D11*
%TO.P,J2,2,Pin_2*%
%TO.N,Net-(J1-Pad3)*%
X18526000Y16750000D03*
%TD*%
D14*
%TO.P,J1,1,D2+*%
%TO.N,Net-(J1-Pad1)*%
X4501000Y3396000D03*
%TO.P,J1,2,D2S*%
%TO.N,GND*%
X4001000Y3396000D03*
%TO.P,J1,3,D2-*%
%TO.N,Net-(J1-Pad3)*%
X3501000Y3396000D03*
%TO.P,J1,4,D1+*%
%TO.N,Net-(J1-Pad4)*%
X3001000Y3396000D03*
%TO.P,J1,5,D1S*%
%TO.N,GND*%
X2500000Y3396000D03*
%TO.P,J1,6,D1-*%
%TO.N,Net-(J1-Pad6)*%
X2000000Y3396000D03*
%TO.P,J1,7,D0+*%
%TO.N,Net-(J1-Pad7)*%
X1500000Y3396000D03*
%TO.P,J1,8,D0S*%
%TO.N,GND*%
X1000000Y3396000D03*
%TO.P,J1,9,D0-*%
%TO.N,Net-(J1-Pad9)*%
X500000Y3396000D03*
%TO.P,J1,10,CK+*%
%TO.N,Net-(J1-Pad10)*%
X0Y3396000D03*
%TO.P,J1,11,CKS*%
%TO.N,GND*%
X-500000Y3396000D03*
%TO.P,J1,12,CK-*%
%TO.N,Net-(J1-Pad12)*%
X-1000000Y3396000D03*
%TO.P,J1,13,CEC*%
%TO.N,unconnected-(J1-Pad13)*%
X-1500000Y3396000D03*
%TO.P,J1,14,UTILITY*%
%TO.N,unconnected-(J1-Pad14)*%
X-2000000Y3396000D03*
%TO.P,J1,15,SCL*%
%TO.N,unconnected-(J1-Pad15)*%
X-2500000Y3396000D03*
%TO.P,J1,16,SDA*%
%TO.N,unconnected-(J1-Pad16)*%
X-3001000Y3396000D03*
%TO.P,J1,17,GND*%
%TO.N,GND*%
X-3501000Y3396000D03*
%TO.P,J1,18,+5V*%
%TO.N,unconnected-(J1-Pad18)*%
X-4001000Y3396000D03*
%TO.P,J1,19,HPD*%
%TO.N,unconnected-(J1-Pad19)*%
X-4501000Y3396000D03*
D15*
%TO.P,J1,20*%
%TO.N,N/C*%
X7250000Y-3396000D03*
%TO.P,J1,21*%
X-7250000Y-3396000D03*
D16*
%TO.P,J1,22*%
X7250000Y2564000D03*
%TO.P,J1,23*%
X-7250000Y2564000D03*
%TD*%
D17*
%TO.N,GND*%
X-2750000Y1500000D03*
X999000Y1751000D03*
%TO.N,Net-(J1-Pad3)*%
X16500000Y19824020D03*
%TO.N,Net-(J1-Pad7)*%
X-11000000Y16590500D03*
%TD*%
D18*
%TO.N,Net-(J1-Pad1)*%
X12176000Y18446072D02*
X12829448Y19099520D01*
D19*
X20526000Y15276000D02*
X17500000Y12250000D01*
D18*
X12176000Y18000000D02*
X12176000Y18446072D01*
D19*
X20526000Y16750000D02*
X20526000Y15276000D01*
X13750000Y12250000D02*
X4896000Y3396000D01*
D18*
X18176480Y19099520D02*
X20526000Y16750000D01*
D19*
X4896000Y3396000D02*
X4825520Y3396000D01*
X17500000Y12250000D02*
X13750000Y12250000D01*
D18*
X12829448Y19099520D02*
X18176480Y19099520D01*
%TO.N,GND*%
X4001000Y3396000D02*
X4001000Y1751000D01*
X-500000Y3396000D02*
X-500000Y2166048D01*
X4001000Y1751000D02*
X3249000Y1751000D01*
X-500000Y2166048D02*
X-84952Y1751000D01*
X-84952Y1751000D02*
X999000Y1751000D01*
X-3501000Y1946000D02*
X-3055000Y1500000D01*
X2833323Y1751000D02*
X2500000Y2084323D01*
X999000Y1751000D02*
X1499000Y1751000D01*
X-3501000Y3396000D02*
X-3501000Y1946000D01*
X1499000Y1751000D02*
X3249000Y1751000D01*
X1195000Y1751000D02*
X1499000Y1751000D01*
X1000000Y1946000D02*
X1195000Y1751000D01*
X3249000Y1751000D02*
X2833323Y1751000D01*
X1000000Y3396000D02*
X1000000Y1946000D01*
X-3055000Y1500000D02*
X-2750000Y1500000D01*
X2500000Y2084323D02*
X2500000Y3396000D01*
D19*
%TO.N,Net-(J1-Pad3)*%
X16699520Y13449520D02*
X13253143Y13449520D01*
X18526000Y15276000D02*
X16699520Y13449520D01*
D18*
X3501000Y5751000D02*
X3825520Y6075520D01*
X11176000Y18000000D02*
X11176000Y18446072D01*
X3501000Y3396000D02*
X3501000Y5751000D01*
X12553948Y19824020D02*
X16500000Y19824020D01*
D19*
X11199520Y13449520D02*
X3825520Y6075520D01*
X18526000Y16750000D02*
X18526000Y15276000D01*
X13253143Y13449520D02*
X11199520Y13449520D01*
D18*
X11176000Y18446072D02*
X12553948Y19824020D01*
D19*
%TO.N,Net-(J1-Pad4)*%
X4726000Y16750000D02*
X4726000Y8672378D01*
D18*
X3001000Y6947378D02*
X3276811Y7223189D01*
X3001000Y3396000D02*
X3001000Y6947378D01*
X13176000Y16824000D02*
X13102000Y16750000D01*
X13102000Y16750000D02*
X4726000Y16750000D01*
X13176000Y18000000D02*
X13176000Y16824000D01*
D19*
X4726000Y8672378D02*
X3276811Y7223189D01*
%TO.N,Net-(J1-Pad6)*%
X2726000Y16750000D02*
X2726000Y8976000D01*
D18*
X2000000Y8250000D02*
X2726000Y8976000D01*
D19*
X2726000Y8976000D02*
X2077291Y8327291D01*
D18*
X2000000Y3396000D02*
X2000000Y8250000D01*
X10176000Y18000000D02*
X3976000Y18000000D01*
X3976000Y18000000D02*
X2726000Y16750000D01*
D19*
%TO.N,Net-(J1-Pad7)*%
X-2474000Y16750000D02*
X-2474000Y14224000D01*
X877771Y10872229D02*
X877771Y8500000D01*
D18*
X877771Y7969671D02*
X877771Y8500000D01*
X-10884000Y18000000D02*
X-10884000Y16706500D01*
X1500000Y3396000D02*
X1500000Y7347442D01*
X1500000Y7347442D02*
X877771Y7969671D01*
X-10884000Y16706500D02*
X-11000000Y16590500D01*
D19*
X-2474000Y14224000D02*
X877771Y10872229D01*
%TO.N,Net-(J1-Pad9)*%
X-321749Y8003143D02*
X90697Y7590697D01*
X-321749Y10375372D02*
X-321749Y8003143D01*
D18*
X-7090000Y19366000D02*
X-4474000Y16750000D01*
D19*
X-4474000Y14527623D02*
X-321749Y10375372D01*
D20*
X500000Y7181394D02*
X90697Y7590697D01*
D21*
X500000Y3396000D02*
X500000Y7181394D01*
D18*
X-11884000Y18000000D02*
X-11884000Y19366000D01*
X-11884000Y19366000D02*
X-7090000Y19366000D01*
D19*
X-4474000Y16750000D02*
X-4474000Y14527623D01*
D18*
%TO.N,Net-(J1-Pad10)*%
X-9884000Y18000000D02*
X-9884000Y15866000D01*
X-17366000Y15866000D02*
X-18250000Y16750000D01*
D19*
X-18250000Y16750000D02*
X-18250000Y15250000D01*
X-18250000Y15250000D02*
X-8750000Y5750000D01*
D18*
X0Y5250000D02*
X-500000Y5750000D01*
D19*
X-8750000Y5750000D02*
X-500000Y5750000D01*
D18*
X0Y3396000D02*
X0Y5250000D01*
X-9884000Y15866000D02*
X-17366000Y15866000D01*
%TO.N,Net-(J1-Pad12)*%
X-1000000Y3396000D02*
X-1000000Y1500000D01*
D19*
X-20250000Y16750000D02*
X-20250000Y8250000D01*
D18*
X-19000000Y18000000D02*
X-20250000Y16750000D01*
D19*
X-12000000Y0D02*
X-2500000Y0D01*
X-2500000Y0D02*
X-1000000Y1500000D01*
D18*
X-12884000Y18000000D02*
X-19000000Y18000000D01*
D19*
X-20250000Y8250000D02*
X-12000000Y0D01*
%TD*%
%TA.AperFunction,Conductor*%
%TO.N,GND*%
G36*
X-15350379Y22471498D02*
G01*
X-15303886Y22417842D01*
X-15292500Y22365500D01*
X-15292500Y21174600D01*
X-15281526Y21068834D01*
X-15225550Y20901054D01*
X-15132478Y20750652D01*
X-15007303Y20625695D01*
X-15001073Y20621855D01*
X-15001072Y20621854D01*
X-14863910Y20537306D01*
X-14856738Y20532885D01*
X-14778000Y20506769D01*
X-14695389Y20479368D01*
X-14695387Y20479368D01*
X-14688861Y20477203D01*
X-14682025Y20476503D01*
X-14682022Y20476502D01*
X-14638969Y20472091D01*
X-14584400Y20466500D01*
X-13783600Y20466500D01*
X-13780354Y20466837D01*
X-13780350Y20466837D01*
X-13684692Y20476762D01*
X-13684688Y20476763D01*
X-13677834Y20477474D01*
X-13671298Y20479655D01*
X-13671296Y20479655D01*
X-13539194Y20523728D01*
X-13510054Y20533450D01*
X-13359652Y20626522D01*
X-13234695Y20751697D01*
X-13141885Y20902262D01*
X-13086203Y21070139D01*
X-13075500Y21174600D01*
X-13075500Y22365500D01*
X-13055498Y22433621D01*
X-13001842Y22480114D01*
X-12949500Y22491500D01*
X-9818500Y22491500D01*
X-9750379Y22471498D01*
X-9703886Y22417842D01*
X-9692500Y22365500D01*
X-9692500Y21174600D01*
X-9681526Y21068834D01*
X-9625550Y20901054D01*
X-9532478Y20750652D01*
X-9407303Y20625695D01*
X-9401073Y20621855D01*
X-9401072Y20621854D01*
X-9263910Y20537306D01*
X-9256738Y20532885D01*
X-9178000Y20506769D01*
X-9095389Y20479368D01*
X-9095387Y20479368D01*
X-9088861Y20477203D01*
X-9082025Y20476503D01*
X-9082022Y20476502D01*
X-9038969Y20472091D01*
X-8984400Y20466500D01*
X-8183600Y20466500D01*
X-8180354Y20466837D01*
X-8180350Y20466837D01*
X-8084692Y20476762D01*
X-8084688Y20476763D01*
X-8077834Y20477474D01*
X-8071298Y20479655D01*
X-8071296Y20479655D01*
X-7939194Y20523728D01*
X-7910054Y20533450D01*
X-7759652Y20626522D01*
X-7634695Y20751697D01*
X-7541885Y20902262D01*
X-7486203Y21070139D01*
X-7475500Y21174600D01*
X-7475500Y22365500D01*
X-7455498Y22433621D01*
X-7401842Y22480114D01*
X-7349500Y22491500D01*
X7641500Y22491500D01*
X7709621Y22471498D01*
X7756114Y22417842D01*
X7767500Y22365500D01*
X7767500Y21174600D01*
X7778474Y21068834D01*
X7834450Y20901054D01*
X7927522Y20750652D01*
X8052697Y20625695D01*
X8058927Y20621855D01*
X8058928Y20621854D01*
X8196090Y20537306D01*
X8203262Y20532885D01*
X8282000Y20506769D01*
X8364611Y20479368D01*
X8364613Y20479368D01*
X8371139Y20477203D01*
X8377975Y20476503D01*
X8377978Y20476502D01*
X8421031Y20472091D01*
X8475600Y20466500D01*
X9276400Y20466500D01*
X9279646Y20466837D01*
X9279650Y20466837D01*
X9375308Y20476762D01*
X9375312Y20476763D01*
X9382166Y20477474D01*
X9388702Y20479655D01*
X9388704Y20479655D01*
X9520806Y20523728D01*
X9549946Y20533450D01*
X9700348Y20626522D01*
X9825305Y20751697D01*
X9918115Y20902262D01*
X9973797Y21070139D01*
X9984500Y21174600D01*
X9984500Y22365500D01*
X10004502Y22433621D01*
X10058158Y22480114D01*
X10110500Y22491500D01*
X13241500Y22491500D01*
X13309621Y22471498D01*
X13356114Y22417842D01*
X13367500Y22365500D01*
X13367500Y21174600D01*
X13378474Y21068834D01*
X13434450Y20901054D01*
X13527522Y20750652D01*
X13532704Y20745479D01*
X13605617Y20672693D01*
X13639696Y20610411D01*
X13634693Y20539590D01*
X13592196Y20482718D01*
X13525697Y20457849D01*
X13516599Y20457520D01*
X12632716Y20457520D01*
X12621533Y20458047D01*
X12614040Y20459722D01*
X12606114Y20459473D01*
X12606113Y20459473D01*
X12545950Y20457582D01*
X12541992Y20457520D01*
X12514092Y20457520D01*
X12510102Y20457016D01*
X12498268Y20456084D01*
X12454059Y20454694D01*
X12446445Y20452482D01*
X12446440Y20452481D01*
X12434607Y20449043D01*
X12415244Y20445032D01*
X12395151Y20442494D01*
X12387784Y20439577D01*
X12387779Y20439576D01*
X12354040Y20426218D01*
X12342813Y20422374D01*
X12300355Y20410038D01*
X12293529Y20406001D01*
X12282920Y20399727D01*
X12265172Y20391032D01*
X12246331Y20383572D01*
X12239915Y20378910D01*
X12239914Y20378910D01*
X12210561Y20357584D01*
X12200641Y20351068D01*
X12169413Y20332600D01*
X12169410Y20332598D01*
X12162586Y20328562D01*
X12148265Y20314241D01*
X12133232Y20301401D01*
X12116841Y20289492D01*
X12111791Y20283388D01*
X12111786Y20283383D01*
X12088655Y20255422D01*
X12080665Y20246641D01*
X11154427Y19320404D01*
X11092115Y19286379D01*
X11065332Y19283500D01*
X10959498Y19283500D01*
X10957050Y19283307D01*
X10957042Y19283307D01*
X10928579Y19281067D01*
X10928574Y19281066D01*
X10922169Y19280562D01*
X10822231Y19251528D01*
X10770012Y19236357D01*
X10770010Y19236356D01*
X10762399Y19234145D01*
X10755576Y19230110D01*
X10755574Y19230109D01*
X10740137Y19220980D01*
X10671321Y19203522D01*
X10611863Y19220980D01*
X10596426Y19230109D01*
X10596424Y19230110D01*
X10589601Y19234145D01*
X10581990Y19236356D01*
X10581988Y19236357D01*
X10529769Y19251528D01*
X10429831Y19280562D01*
X10423426Y19281066D01*
X10423421Y19281067D01*
X10394958Y19283307D01*
X10394950Y19283307D01*
X10392502Y19283500D01*
X9959498Y19283500D01*
X9957050Y19283307D01*
X9957042Y19283307D01*
X9928579Y19281067D01*
X9928574Y19281066D01*
X9922169Y19280562D01*
X9822231Y19251528D01*
X9770012Y19236357D01*
X9770010Y19236356D01*
X9762399Y19234145D01*
X9755575Y19230109D01*
X9755573Y19230108D01*
X9626020Y19153491D01*
X9626017Y19153489D01*
X9619193Y19149453D01*
X9501547Y19031807D01*
X9497511Y19024983D01*
X9497509Y19024980D01*
X9433893Y18917411D01*
X9416855Y18888601D01*
X9370438Y18728831D01*
X9368773Y18729315D01*
X9340655Y18673442D01*
X9279519Y18637347D01*
X9248622Y18633500D01*
X4054767Y18633500D01*
X4043584Y18634027D01*
X4036091Y18635702D01*
X4028165Y18635453D01*
X4028164Y18635453D01*
X3968001Y18633562D01*
X3964043Y18633500D01*
X3936144Y18633500D01*
X3932154Y18632996D01*
X3920320Y18632064D01*
X3876111Y18630674D01*
X3868497Y18628462D01*
X3868492Y18628461D01*
X3856659Y18625023D01*
X3837296Y18621012D01*
X3817203Y18618474D01*
X3809836Y18615557D01*
X3809831Y18615556D01*
X3776092Y18602198D01*
X3764865Y18598354D01*
X3722407Y18586018D01*
X3715581Y18581981D01*
X3704972Y18575707D01*
X3687224Y18567012D01*
X3668383Y18559552D01*
X3661967Y18554890D01*
X3661966Y18554890D01*
X3632613Y18533564D01*
X3622693Y18527048D01*
X3591465Y18508580D01*
X3591462Y18508578D01*
X3584638Y18504542D01*
X3570317Y18490221D01*
X3555284Y18477381D01*
X3538893Y18465472D01*
X3533842Y18459366D01*
X3510702Y18431395D01*
X3502712Y18422616D01*
X3191957Y18111861D01*
X3129645Y18077835D01*
X3061529Y18081928D01*
X2995394Y18104894D01*
X2995392Y18104895D01*
X2989729Y18106861D01*
X2983794Y18107722D01*
X2983792Y18107722D01*
X2786336Y18136352D01*
X2786333Y18136352D01*
X2780396Y18137213D01*
X2569101Y18127433D01*
X2437923Y18095819D01*
X2369299Y18079281D01*
X2369297Y18079280D01*
X2363466Y18077875D01*
X2358008Y18075393D01*
X2358004Y18075392D01*
X2242959Y18023084D01*
X2170913Y17990326D01*
X1998389Y17867946D01*
X1852119Y17715150D01*
X1737380Y17537452D01*
X1735137Y17531886D01*
X1668485Y17366500D01*
X1658314Y17341263D01*
X1617772Y17133663D01*
X1617500Y17128101D01*
X1617500Y16422154D01*
X1632548Y16264434D01*
X1692092Y16061466D01*
X1694836Y16056139D01*
X1703516Y16039285D01*
X1717500Y15981593D01*
X1717500Y11762925D01*
X1697498Y11694804D01*
X1643842Y11648311D01*
X1573568Y11638207D01*
X1508988Y11667701D01*
X1502405Y11673830D01*
X-1428595Y14604829D01*
X-1462621Y14667141D01*
X-1465500Y14693924D01*
X-1465500Y15712015D01*
X-1446759Y15778132D01*
X-1435726Y15796030D01*
X-1435724Y15796033D01*
X-1431885Y15802262D01*
X-1376203Y15970139D01*
X-1365500Y16074600D01*
X-1365500Y17425400D01*
X-1376474Y17531166D01*
X-1380251Y17542489D01*
X-1430132Y17691998D01*
X-1432450Y17698946D01*
X-1525522Y17849348D01*
X-1650697Y17974305D01*
X-1753174Y18037473D01*
X-1795032Y18063275D01*
X-1795034Y18063276D01*
X-1801262Y18067115D01*
X-1881005Y18093564D01*
X-1962611Y18120632D01*
X-1962613Y18120632D01*
X-1969139Y18122797D01*
X-1975975Y18123497D01*
X-1975978Y18123498D01*
X-2019031Y18127909D01*
X-2073600Y18133500D01*
X-2874400Y18133500D01*
X-2877646Y18133163D01*
X-2877650Y18133163D01*
X-2973308Y18123238D01*
X-2973312Y18123237D01*
X-2980166Y18122526D01*
X-2986702Y18120345D01*
X-2986704Y18120345D01*
X-3094368Y18084425D01*
X-3147946Y18066550D01*
X-3298348Y17973478D01*
X-3423305Y17848303D01*
X-3427145Y17842073D01*
X-3427146Y17842072D01*
X-3455074Y17796764D01*
X-3507846Y17749271D01*
X-3577918Y17737847D01*
X-3643042Y17766121D01*
X-3661418Y17785045D01*
X-3667604Y17792920D01*
X-3672135Y17796852D01*
X-3672138Y17796855D01*
X-3822833Y17927621D01*
X-3827363Y17931552D01*
X-3832549Y17934552D01*
X-3832553Y17934555D01*
X-4005258Y18034467D01*
X-4010454Y18037473D01*
X-4210271Y18106861D01*
X-4216206Y18107722D01*
X-4216208Y18107722D01*
X-4413664Y18136352D01*
X-4413667Y18136352D01*
X-4419604Y18137213D01*
X-4630899Y18127433D01*
X-4765496Y18094995D01*
X-4823817Y18080940D01*
X-4894728Y18084425D01*
X-4942433Y18114338D01*
X-6586348Y19758253D01*
X-6593888Y19766539D01*
X-6598000Y19773018D01*
X-6647652Y19819644D01*
X-6650493Y19822398D01*
X-6670230Y19842135D01*
X-6673427Y19844615D01*
X-6682449Y19852320D01*
X-6714679Y19882586D01*
X-6721625Y19886405D01*
X-6721628Y19886407D01*
X-6732434Y19892348D01*
X-6748953Y19903199D01*
X-6749417Y19903559D01*
X-6764959Y19915614D01*
X-6772228Y19918759D01*
X-6772232Y19918762D01*
X-6805537Y19933174D01*
X-6816187Y19938391D01*
X-6854940Y19959695D01*
X-6874563Y19964733D01*
X-6893266Y19971137D01*
X-6904580Y19976033D01*
X-6904581Y19976033D01*
X-6911855Y19979181D01*
X-6919678Y19980420D01*
X-6919688Y19980423D01*
X-6955524Y19986099D01*
X-6967144Y19988505D01*
X-7002289Y19997528D01*
X-7002290Y19997528D01*
X-7009970Y19999500D01*
X-7030224Y19999500D01*
X-7049935Y20001051D01*
X-7054234Y20001732D01*
X-7069943Y20004220D01*
X-7095649Y20001790D01*
X-7113961Y20000059D01*
X-7125819Y19999500D01*
X-11812207Y19999500D01*
X-11835816Y20001732D01*
X-11836119Y20001790D01*
X-11836123Y20001790D01*
X-11843906Y20003275D01*
X-11899951Y19999749D01*
X-11907862Y19999500D01*
X-11923856Y19999500D01*
X-11939730Y19997494D01*
X-11947590Y19996752D01*
X-11975049Y19995024D01*
X-11995737Y19993723D01*
X-11995738Y19993723D01*
X-12003650Y19993225D01*
X-12011191Y19990775D01*
X-12011487Y19990679D01*
X-12034631Y19985506D01*
X-12034935Y19985468D01*
X-12034940Y19985467D01*
X-12042797Y19984474D01*
X-12050162Y19981558D01*
X-12050166Y19981557D01*
X-12095011Y19963801D01*
X-12102430Y19961129D01*
X-12155875Y19943764D01*
X-12162571Y19939514D01*
X-12162572Y19939514D01*
X-12162831Y19939350D01*
X-12183958Y19928585D01*
X-12184246Y19928471D01*
X-12184251Y19928468D01*
X-12191617Y19925552D01*
X-12198025Y19920896D01*
X-12198031Y19920893D01*
X-12237052Y19892542D01*
X-12243589Y19888099D01*
X-12291018Y19858000D01*
X-12296444Y19852222D01*
X-12296445Y19852221D01*
X-12296659Y19851993D01*
X-12314446Y19836312D01*
X-12314691Y19836134D01*
X-12314693Y19836132D01*
X-12321107Y19831472D01*
X-12326161Y19825363D01*
X-12326162Y19825362D01*
X-12356903Y19788204D01*
X-12362134Y19782270D01*
X-12395158Y19747102D01*
X-12395160Y19747099D01*
X-12400586Y19741321D01*
X-12404555Y19734101D01*
X-12417881Y19714494D01*
X-12418080Y19714254D01*
X-12418084Y19714247D01*
X-12423133Y19708144D01*
X-12440180Y19671916D01*
X-12447047Y19657324D01*
X-12450629Y19650292D01*
X-12477695Y19601060D01*
X-12479665Y19593385D01*
X-12479668Y19593379D01*
X-12479744Y19593081D01*
X-12487776Y19570772D01*
X-12487906Y19570497D01*
X-12487909Y19570489D01*
X-12491283Y19563318D01*
X-12492769Y19555526D01*
X-12501805Y19508157D01*
X-12503529Y19500442D01*
X-12517500Y19446030D01*
X-12517500Y19437793D01*
X-12519732Y19414184D01*
X-12521275Y19406094D01*
X-12520872Y19399688D01*
X-12544882Y19333587D01*
X-12601351Y19290555D01*
X-12656281Y19282618D01*
X-12665019Y19283306D01*
X-12665047Y19283307D01*
X-12667498Y19283500D01*
X-13100502Y19283500D01*
X-13102950Y19283307D01*
X-13102958Y19283307D01*
X-13131421Y19281067D01*
X-13131426Y19281066D01*
X-13137831Y19280562D01*
X-13237769Y19251528D01*
X-13289988Y19236357D01*
X-13289990Y19236356D01*
X-13297601Y19234145D01*
X-13304425Y19230109D01*
X-13304427Y19230108D01*
X-13433980Y19153491D01*
X-13433983Y19153489D01*
X-13440807Y19149453D01*
X-13558453Y19031807D01*
X-13562489Y19024983D01*
X-13562491Y19024980D01*
X-13626107Y18917411D01*
X-13643145Y18888601D01*
X-13689562Y18728831D01*
X-13691227Y18729315D01*
X-13719345Y18673442D01*
X-13780481Y18637347D01*
X-13811378Y18633500D01*
X-18921233Y18633500D01*
X-18932416Y18634027D01*
X-18939909Y18635702D01*
X-18947835Y18635453D01*
X-18947836Y18635453D01*
X-19007999Y18633562D01*
X-19011957Y18633500D01*
X-19039856Y18633500D01*
X-19043846Y18632996D01*
X-19055680Y18632064D01*
X-19099889Y18630674D01*
X-19107503Y18628462D01*
X-19107508Y18628461D01*
X-19119341Y18625023D01*
X-19138704Y18621012D01*
X-19158797Y18618474D01*
X-19166164Y18615557D01*
X-19166169Y18615556D01*
X-19199908Y18602198D01*
X-19211135Y18598354D01*
X-19253593Y18586018D01*
X-19260419Y18581981D01*
X-19271028Y18575707D01*
X-19288776Y18567012D01*
X-19307617Y18559552D01*
X-19314033Y18554890D01*
X-19314034Y18554890D01*
X-19343387Y18533564D01*
X-19353307Y18527048D01*
X-19384535Y18508580D01*
X-19384538Y18508578D01*
X-19391362Y18504542D01*
X-19405683Y18490221D01*
X-19420716Y18477381D01*
X-19437107Y18465472D01*
X-19442158Y18459366D01*
X-19465298Y18431395D01*
X-19473288Y18422616D01*
X-19784043Y18111861D01*
X-19846355Y18077835D01*
X-19914471Y18081928D01*
X-19980606Y18104894D01*
X-19980608Y18104895D01*
X-19986271Y18106861D01*
X-19992206Y18107722D01*
X-19992208Y18107722D01*
X-20189664Y18136352D01*
X-20189667Y18136352D01*
X-20195604Y18137213D01*
X-20406899Y18127433D01*
X-20538077Y18095819D01*
X-20606701Y18079281D01*
X-20606703Y18079280D01*
X-20612534Y18077875D01*
X-20617992Y18075393D01*
X-20617996Y18075392D01*
X-20733041Y18023084D01*
X-20805087Y17990326D01*
X-20977611Y17867946D01*
X-21123881Y17715150D01*
X-21238620Y17537452D01*
X-21240863Y17531886D01*
X-21307515Y17366500D01*
X-21317686Y17341263D01*
X-21358228Y17133663D01*
X-21358500Y17128101D01*
X-21358500Y16422154D01*
X-21343452Y16264434D01*
X-21283908Y16061466D01*
X-21281164Y16056139D01*
X-21272484Y16039285D01*
X-21258500Y15981593D01*
X-21258500Y8311843D01*
X-21259237Y8298236D01*
X-21263324Y8260612D01*
X-21262787Y8254477D01*
X-21258950Y8210612D01*
X-21258621Y8205786D01*
X-21258500Y8203314D01*
X-21258500Y8200231D01*
X-21258199Y8197163D01*
X-21254310Y8157494D01*
X-21254188Y8156181D01*
X-21246087Y8063587D01*
X-21244600Y8058468D01*
X-21244080Y8053167D01*
X-21217209Y7964166D01*
X-21216874Y7963033D01*
X-21201269Y7909324D01*
X-21190909Y7873664D01*
X-21188456Y7868932D01*
X-21186916Y7863831D01*
X-21184022Y7858388D01*
X-21143269Y7781740D01*
X-21142657Y7780574D01*
X-21099892Y7698074D01*
X-21096569Y7693911D01*
X-21094066Y7689204D01*
X-21035245Y7617082D01*
X-21034554Y7616226D01*
X-21003262Y7577027D01*
X-21000758Y7574523D01*
X-21000116Y7573805D01*
X-20996415Y7569472D01*
X-20969065Y7535938D01*
X-20964318Y7532011D01*
X-20964316Y7532009D01*
X-20933738Y7506713D01*
X-20924958Y7498723D01*
X-12756855Y-669379D01*
X-12747753Y-679522D01*
X-12724032Y-709025D01*
X-12719304Y-712992D01*
X-12685579Y-741291D01*
X-12681931Y-744472D01*
X-12680119Y-746115D01*
X-12677925Y-748309D01*
X-12644651Y-775642D01*
X-12643853Y-776304D01*
X-12572526Y-836154D01*
X-12567856Y-838722D01*
X-12563739Y-842103D01*
X-12543921Y-852729D01*
X-12481914Y-885977D01*
X-12480755Y-886606D01*
X-12404619Y-928462D01*
X-12404611Y-928465D01*
X-12399213Y-931433D01*
X-12394131Y-933045D01*
X-12389437Y-935562D01*
X-12316229Y-957945D01*
X-12300523Y-962747D01*
X-12299265Y-963139D01*
X-12210694Y-991235D01*
X-12205403Y-991829D01*
X-12200302Y-993388D01*
X-12107737Y-1002790D01*
X-12106550Y-1002916D01*
X-12077162Y-1006213D01*
X-12060270Y-1008108D01*
X-12060265Y-1008108D01*
X-12056773Y-1008500D01*
X-12053248Y-1008500D01*
X-12052263Y-1008555D01*
X-12046568Y-1009003D01*
X-12034658Y-1010213D01*
X-12009666Y-1012752D01*
X-12009661Y-1012752D01*
X-12003538Y-1013374D01*
X-11957892Y-1009059D01*
X-11946033Y-1008500D01*
X-2561843Y-1008500D01*
X-2548236Y-1009237D01*
X-2516738Y-1012659D01*
X-2516733Y-1012659D01*
X-2510612Y-1013324D01*
X-2484362Y-1011027D01*
X-2460612Y-1008950D01*
X-2455786Y-1008621D01*
X-2453314Y-1008500D01*
X-2450231Y-1008500D01*
X-2438262Y-1007326D01*
X-2407494Y-1004310D01*
X-2406181Y-1004188D01*
X-2361916Y-1000315D01*
X-2313587Y-996087D01*
X-2308468Y-994600D01*
X-2303167Y-994080D01*
X-2214166Y-967209D01*
X-2213033Y-966874D01*
X-2129586Y-942630D01*
X-2129582Y-942628D01*
X-2123664Y-940909D01*
X-2118932Y-938456D01*
X-2113831Y-936916D01*
X-2106833Y-933195D01*
X-2031740Y-893269D01*
X-2030574Y-892657D01*
X-1953547Y-852729D01*
X-1948074Y-849892D01*
X-1943911Y-846569D01*
X-1939204Y-844066D01*
X-1867082Y-785245D01*
X-1866226Y-784554D01*
X-1827027Y-753262D01*
X-1824523Y-750758D01*
X-1823805Y-750116D01*
X-1819472Y-746415D01*
X-1785938Y-719065D01*
X-1756712Y-683737D01*
X-1748723Y-674958D01*
X-253875Y819891D01*
X-251691Y822075D01*
X-157898Y936261D01*
X-64438Y1110563D01*
X-6613Y1299698D01*
X-736Y1357551D01*
X12752Y1490334D01*
X12752Y1490339D01*
X13374Y1496462D01*
X7631Y1557217D01*
X21134Y1626918D01*
X70176Y1678254D01*
X109462Y1692843D01*
X111738Y1693277D01*
X119650Y1693775D01*
X205545Y1721684D01*
X276512Y1723712D01*
X288184Y1719472D01*
X295512Y1717091D01*
X302682Y1713717D01*
X310465Y1712232D01*
X310466Y1712232D01*
X452111Y1685212D01*
X459906Y1683725D01*
X548400Y1689292D01*
X611738Y1693277D01*
X611740Y1693277D01*
X619650Y1693775D01*
X706241Y1721910D01*
X777206Y1723938D01*
X788110Y1719977D01*
X788124Y1720021D01*
X810622Y1712711D01*
X952152Y1685713D01*
X967849Y1684726D01*
X1111643Y1693772D01*
X1127093Y1696719D01*
X1204884Y1721995D01*
X1275852Y1724022D01*
X1290038Y1718870D01*
X1295508Y1717093D01*
X1302682Y1713717D01*
X1407222Y1693775D01*
X1449485Y1685713D01*
X1459906Y1683725D01*
X1548400Y1689292D01*
X1611738Y1693277D01*
X1611740Y1693277D01*
X1619650Y1693775D01*
X1627186Y1696224D01*
X1627188Y1696224D01*
X1695995Y1718581D01*
X1705545Y1721684D01*
X1776512Y1723712D01*
X1788184Y1719472D01*
X1795512Y1717091D01*
X1802682Y1713717D01*
X1810465Y1712232D01*
X1810466Y1712232D01*
X1952111Y1685212D01*
X1959906Y1683725D01*
X2048400Y1689292D01*
X2111738Y1693277D01*
X2111740Y1693277D01*
X2119650Y1693775D01*
X2206241Y1721910D01*
X2277206Y1723938D01*
X2288110Y1719977D01*
X2288124Y1720021D01*
X2310622Y1712711D01*
X2452152Y1685713D01*
X2467849Y1684726D01*
X2611643Y1693772D01*
X2627093Y1696719D01*
X2705476Y1722187D01*
X2776444Y1724214D01*
X2792172Y1718502D01*
X2796506Y1717094D01*
X2803682Y1713717D01*
X2908222Y1693775D01*
X2950485Y1685713D01*
X2960906Y1683725D01*
X3049400Y1689292D01*
X3112738Y1693277D01*
X3112740Y1693277D01*
X3120650Y1693775D01*
X3128186Y1696224D01*
X3128188Y1696224D01*
X3196995Y1718581D01*
X3206545Y1721684D01*
X3277512Y1723712D01*
X3289184Y1719472D01*
X3296512Y1717091D01*
X3303682Y1713717D01*
X3311465Y1712232D01*
X3311466Y1712232D01*
X3453111Y1685212D01*
X3460906Y1683725D01*
X3549400Y1689292D01*
X3612738Y1693277D01*
X3612740Y1693277D01*
X3620650Y1693775D01*
X3707241Y1721910D01*
X3778206Y1723938D01*
X3789110Y1719977D01*
X3789124Y1720021D01*
X3811622Y1712711D01*
X3953152Y1685713D01*
X3968849Y1684726D01*
X4112643Y1693772D01*
X4128093Y1696719D01*
X4205884Y1721995D01*
X4276852Y1724022D01*
X4291038Y1718870D01*
X4296508Y1717093D01*
X4303682Y1713717D01*
X4408222Y1693775D01*
X4450485Y1685713D01*
X4460906Y1683725D01*
X4549400Y1689292D01*
X4612738Y1693277D01*
X4612740Y1693277D01*
X4620650Y1693775D01*
X4628186Y1696224D01*
X4628188Y1696224D01*
X4765333Y1740785D01*
X4765336Y1740786D01*
X4772875Y1743236D01*
X4908018Y1829000D01*
X5017586Y1945679D01*
X5094695Y2085940D01*
X5134500Y2240970D01*
X5134500Y2320442D01*
X5154502Y2388563D01*
X5208158Y2435056D01*
X5225347Y2441439D01*
X5266412Y2453370D01*
X5266411Y2453370D01*
X5272336Y2455091D01*
X5277068Y2457544D01*
X5282169Y2459084D01*
X5287612Y2461978D01*
X5364260Y2502731D01*
X5365426Y2503343D01*
X5442453Y2543271D01*
X5447926Y2546108D01*
X5452089Y2549431D01*
X5456796Y2551934D01*
X5528918Y2610755D01*
X5529774Y2611446D01*
X5568973Y2642738D01*
X5571477Y2645242D01*
X5572195Y2645884D01*
X5576528Y2649585D01*
X5610062Y2676935D01*
X5639288Y2712263D01*
X5647277Y2721042D01*
X5776405Y2850170D01*
X5838717Y2884196D01*
X5909532Y2879131D01*
X5966368Y2836584D01*
X5991179Y2770064D01*
X5991500Y2761075D01*
X5991500Y1607001D01*
X5991749Y1604214D01*
X5991749Y1604208D01*
X5995943Y1557217D01*
X6006383Y1440238D01*
X6065663Y1223549D01*
X6162378Y1020782D01*
X6293471Y838346D01*
X6454799Y682008D01*
X6641262Y556710D01*
X6846967Y466412D01*
X6852418Y465103D01*
X6852422Y465102D01*
X7059954Y415278D01*
X7065411Y413968D01*
X7149475Y409121D01*
X7284083Y401360D01*
X7284086Y401360D01*
X7289690Y401037D01*
X7512715Y428025D01*
X7727435Y494082D01*
X7732415Y496652D01*
X7732419Y496654D01*
X7922081Y594546D01*
X7922082Y594546D01*
X7927064Y597118D01*
X8105292Y733877D01*
X8256485Y900036D01*
X8326331Y1011380D01*
X8372885Y1085595D01*
X8375864Y1090344D01*
X8459656Y1298783D01*
X8505213Y1518767D01*
X8508500Y1575775D01*
X8508500Y3520999D01*
X8505551Y3554048D01*
X8494116Y3682167D01*
X8493617Y3687762D01*
X8434337Y3904451D01*
X8337622Y4107218D01*
X8206529Y4289654D01*
X8045201Y4445992D01*
X7858738Y4571290D01*
X7853599Y4573546D01*
X7776529Y4607378D01*
X7722194Y4653074D01*
X7701189Y4720892D01*
X7720184Y4789301D01*
X7738080Y4811846D01*
X14130829Y11204595D01*
X14193141Y11238621D01*
X14219924Y11241500D01*
X17438157Y11241500D01*
X17451764Y11240763D01*
X17483262Y11237341D01*
X17483267Y11237341D01*
X17489388Y11236676D01*
X17515638Y11238973D01*
X17539388Y11241050D01*
X17544214Y11241379D01*
X17546686Y11241500D01*
X17549769Y11241500D01*
X17561738Y11242674D01*
X17592506Y11245690D01*
X17593819Y11245812D01*
X17638084Y11249685D01*
X17686413Y11253913D01*
X17691532Y11255400D01*
X17696833Y11255920D01*
X17785834Y11282791D01*
X17786967Y11283126D01*
X17870414Y11307370D01*
X17870418Y11307372D01*
X17876336Y11309091D01*
X17881068Y11311544D01*
X17886169Y11313084D01*
X17891612Y11315978D01*
X17968260Y11356731D01*
X17969426Y11357343D01*
X18046453Y11397271D01*
X18051926Y11400108D01*
X18056089Y11403431D01*
X18060796Y11405934D01*
X18132918Y11464755D01*
X18133774Y11465446D01*
X18172973Y11496738D01*
X18175477Y11499242D01*
X18176195Y11499884D01*
X18180528Y11503585D01*
X18214062Y11530935D01*
X18243288Y11566263D01*
X18251277Y11575042D01*
X21195379Y14519145D01*
X21205522Y14528247D01*
X21230218Y14548103D01*
X21235025Y14551968D01*
X21267320Y14590456D01*
X21270478Y14594075D01*
X21272124Y14595890D01*
X21274309Y14598075D01*
X21276264Y14600455D01*
X21276273Y14600465D01*
X21301549Y14631236D01*
X21302391Y14632251D01*
X21350180Y14689204D01*
X21362154Y14703474D01*
X21364723Y14708148D01*
X21368102Y14712261D01*
X21411975Y14794085D01*
X21412584Y14795207D01*
X21454464Y14871386D01*
X21454465Y14871388D01*
X21457433Y14876787D01*
X21459045Y14881869D01*
X21461562Y14886563D01*
X21488762Y14975531D01*
X21489108Y14976642D01*
X21502040Y15017405D01*
X21517235Y15065306D01*
X21517829Y15070602D01*
X21519387Y15075698D01*
X21528790Y15168257D01*
X21528911Y15169393D01*
X21534500Y15219227D01*
X21534500Y15222754D01*
X21534555Y15223739D01*
X21535002Y15229419D01*
X21539374Y15272462D01*
X21535059Y15318109D01*
X21534500Y15329967D01*
X21534500Y15712015D01*
X21553241Y15778132D01*
X21564274Y15796030D01*
X21564276Y15796033D01*
X21568115Y15802262D01*
X21623797Y15970139D01*
X21634500Y16074600D01*
X21634500Y17425400D01*
X21623526Y17531166D01*
X21619749Y17542489D01*
X21569868Y17691998D01*
X21567550Y17698946D01*
X21474478Y17849348D01*
X21349303Y17974305D01*
X21246826Y18037473D01*
X21204968Y18063275D01*
X21204966Y18063276D01*
X21198738Y18067115D01*
X21118995Y18093564D01*
X21037389Y18120632D01*
X21037387Y18120632D01*
X21030861Y18122797D01*
X21024025Y18123497D01*
X21024022Y18123498D01*
X20980969Y18127909D01*
X20926400Y18133500D01*
X20125600Y18133500D01*
X20122354Y18133163D01*
X20122350Y18133163D01*
X20106276Y18131495D01*
X20036454Y18144360D01*
X20004177Y18167727D01*
X18680132Y19491773D01*
X18672592Y19500059D01*
X18668480Y19506538D01*
X18618828Y19553164D01*
X18615987Y19555918D01*
X18596250Y19575655D01*
X18593053Y19578135D01*
X18584031Y19585840D01*
X18557580Y19610679D01*
X18551801Y19616106D01*
X18544855Y19619925D01*
X18544852Y19619927D01*
X18534046Y19625868D01*
X18517527Y19636719D01*
X18517063Y19637079D01*
X18501521Y19649134D01*
X18494252Y19652279D01*
X18494248Y19652282D01*
X18460943Y19666694D01*
X18450293Y19671911D01*
X18411540Y19693215D01*
X18391917Y19698253D01*
X18373214Y19704657D01*
X18361900Y19709553D01*
X18361899Y19709553D01*
X18354625Y19712701D01*
X18346802Y19713940D01*
X18346792Y19713943D01*
X18310956Y19719619D01*
X18299336Y19722025D01*
X18264191Y19731048D01*
X18264190Y19731048D01*
X18256510Y19733020D01*
X18236256Y19733020D01*
X18216545Y19734571D01*
X18204366Y19736500D01*
X18196537Y19737740D01*
X18160940Y19734375D01*
X18152519Y19733579D01*
X18140661Y19733020D01*
X17536520Y19733020D01*
X17468399Y19753022D01*
X17421906Y19806678D01*
X17411210Y19845849D01*
X17394232Y20007385D01*
X17394232Y20007387D01*
X17393542Y20013948D01*
X17334527Y20195576D01*
X17239040Y20360964D01*
X17222882Y20378910D01*
X17115675Y20497975D01*
X17115674Y20497976D01*
X17111253Y20502886D01*
X16956752Y20615138D01*
X16950724Y20617822D01*
X16950722Y20617823D01*
X16788319Y20690129D01*
X16788318Y20690129D01*
X16782288Y20692814D01*
X16688888Y20712667D01*
X16601944Y20731148D01*
X16601939Y20731148D01*
X16595487Y20732520D01*
X16404513Y20732520D01*
X16398061Y20731148D01*
X16398056Y20731148D01*
X16311112Y20712667D01*
X16217712Y20692814D01*
X16211682Y20690129D01*
X16211681Y20690129D01*
X16049278Y20617823D01*
X16049276Y20617822D01*
X16043248Y20615138D01*
X16037907Y20611258D01*
X16037906Y20611257D01*
X15936122Y20537306D01*
X15888747Y20502886D01*
X15884332Y20497983D01*
X15879420Y20493560D01*
X15878295Y20494809D01*
X15824986Y20461969D01*
X15791800Y20457520D01*
X15435457Y20457520D01*
X15367336Y20477522D01*
X15320843Y20531178D01*
X15310739Y20601452D01*
X15340233Y20666032D01*
X15346284Y20672538D01*
X15420134Y20746517D01*
X15425305Y20751697D01*
X15518115Y20902262D01*
X15573797Y21070139D01*
X15584500Y21174600D01*
X15584500Y22365500D01*
X15604502Y22433621D01*
X15658158Y22480114D01*
X15710500Y22491500D01*
X29365500Y22491500D01*
X29433621Y22471498D01*
X29480114Y22417842D01*
X29491500Y22365500D01*
X29491500Y-5865500D01*
X29471498Y-5933621D01*
X29417842Y-5980114D01*
X29365500Y-5991500D01*
X-29365500Y-5991500D01*
X-29433621Y-5971498D01*
X-29480114Y-5917842D01*
X-29491500Y-5865500D01*
X-29491500Y-4052999D01*
X-8508500Y-4052999D01*
X-8508251Y-4055786D01*
X-8508251Y-4055792D01*
X-8501991Y-4125929D01*
X-8493617Y-4219762D01*
X-8434337Y-4436451D01*
X-8337622Y-4639218D01*
X-8206529Y-4821654D01*
X-8045201Y-4977992D01*
X-7858738Y-5103290D01*
X-7653033Y-5193588D01*
X-7647582Y-5194897D01*
X-7647578Y-5194898D01*
X-7440046Y-5244722D01*
X-7434589Y-5246032D01*
X-7350525Y-5250879D01*
X-7215917Y-5258640D01*
X-7215914Y-5258640D01*
X-7210310Y-5258963D01*
X-6987285Y-5231975D01*
X-6772565Y-5165918D01*
X-6767585Y-5163348D01*
X-6767581Y-5163346D01*
X-6577919Y-5065454D01*
X-6577918Y-5065454D01*
X-6572936Y-5062882D01*
X-6394708Y-4926123D01*
X-6243515Y-4759964D01*
X-6124136Y-4569656D01*
X-6040344Y-4361217D01*
X-5994787Y-4141233D01*
X-5991500Y-4084225D01*
X-5991500Y-4052999D01*
X5991500Y-4052999D01*
X5991749Y-4055786D01*
X5991749Y-4055792D01*
X5998009Y-4125929D01*
X6006383Y-4219762D01*
X6065663Y-4436451D01*
X6162378Y-4639218D01*
X6293471Y-4821654D01*
X6454799Y-4977992D01*
X6641262Y-5103290D01*
X6846967Y-5193588D01*
X6852418Y-5194897D01*
X6852422Y-5194898D01*
X7059954Y-5244722D01*
X7065411Y-5246032D01*
X7149475Y-5250879D01*
X7284083Y-5258640D01*
X7284086Y-5258640D01*
X7289690Y-5258963D01*
X7512715Y-5231975D01*
X7727435Y-5165918D01*
X7732415Y-5163348D01*
X7732419Y-5163346D01*
X7922081Y-5065454D01*
X7922082Y-5065454D01*
X7927064Y-5062882D01*
X8105292Y-4926123D01*
X8256485Y-4759964D01*
X8375864Y-4569656D01*
X8459656Y-4361217D01*
X8505213Y-4141233D01*
X8508500Y-4084225D01*
X8508500Y-2739001D01*
X8505551Y-2705952D01*
X8494116Y-2577833D01*
X8493617Y-2572238D01*
X8434337Y-2355549D01*
X8337622Y-2152782D01*
X8206529Y-1970346D01*
X8045201Y-1814008D01*
X7858738Y-1688710D01*
X7653033Y-1598412D01*
X7647582Y-1597103D01*
X7647578Y-1597102D01*
X7440046Y-1547278D01*
X7440045Y-1547278D01*
X7434589Y-1545968D01*
X7350525Y-1541121D01*
X7215917Y-1533360D01*
X7215914Y-1533360D01*
X7210310Y-1533037D01*
X6987285Y-1560025D01*
X6772565Y-1626082D01*
X6767585Y-1628652D01*
X6767581Y-1628654D01*
X6577919Y-1726546D01*
X6572936Y-1729118D01*
X6394708Y-1865877D01*
X6243515Y-2032036D01*
X6124136Y-2222344D01*
X6040344Y-2430783D01*
X5994787Y-2650767D01*
X5991500Y-2707775D01*
X5991500Y-4052999D01*
X-5991500Y-4052999D01*
X-5991500Y-2739001D01*
X-5994449Y-2705952D01*
X-6005884Y-2577833D01*
X-6006383Y-2572238D01*
X-6065663Y-2355549D01*
X-6162378Y-2152782D01*
X-6293471Y-1970346D01*
X-6454799Y-1814008D01*
X-6641262Y-1688710D01*
X-6846967Y-1598412D01*
X-6852418Y-1597103D01*
X-6852422Y-1597102D01*
X-7059954Y-1547278D01*
X-7059955Y-1547278D01*
X-7065411Y-1545968D01*
X-7149475Y-1541121D01*
X-7284083Y-1533360D01*
X-7284086Y-1533360D01*
X-7289690Y-1533037D01*
X-7512715Y-1560025D01*
X-7727435Y-1626082D01*
X-7732415Y-1628652D01*
X-7732419Y-1628654D01*
X-7922081Y-1726546D01*
X-7927064Y-1729118D01*
X-8105292Y-1865877D01*
X-8256485Y-2032036D01*
X-8375864Y-2222344D01*
X-8459656Y-2430783D01*
X-8505213Y-2650767D01*
X-8508500Y-2707775D01*
X-8508500Y-4052999D01*
X-29491500Y-4052999D01*
X-29491500Y22365500D01*
X-29471498Y22433621D01*
X-29417842Y22480114D01*
X-29365500Y22491500D01*
X-15418500Y22491500D01*
X-15350379Y22471498D01*
G37*
%TD.AperFunction*%
%TA.AperFunction,Conductor*%
G36*
X-5179912Y4721498D02*
G01*
X-5133419Y4667842D01*
X-5123315Y4597568D01*
X-5125990Y4584175D01*
X-5134500Y4551030D01*
X-5134500Y2281144D01*
X-5119474Y2162203D01*
X-5060552Y2013383D01*
X-4966472Y1883893D01*
X-4843144Y1781867D01*
X-4835977Y1778494D01*
X-4835973Y1778492D01*
X-4773879Y1749274D01*
X-4698318Y1713717D01*
X-4593778Y1693775D01*
X-4551515Y1685713D01*
X-4541094Y1683725D01*
X-4452600Y1689292D01*
X-4389262Y1693277D01*
X-4389260Y1693277D01*
X-4381350Y1693775D01*
X-4373814Y1696224D01*
X-4373812Y1696224D01*
X-4305005Y1718581D01*
X-4295455Y1721684D01*
X-4224488Y1723712D01*
X-4212816Y1719472D01*
X-4205488Y1717091D01*
X-4198318Y1713717D01*
X-4190535Y1712232D01*
X-4190534Y1712232D01*
X-4048889Y1685212D01*
X-4041094Y1683725D01*
X-3952600Y1689292D01*
X-3889262Y1693277D01*
X-3889260Y1693277D01*
X-3881350Y1693775D01*
X-3794759Y1721910D01*
X-3723794Y1723938D01*
X-3712890Y1719977D01*
X-3712876Y1720021D01*
X-3690378Y1712711D01*
X-3548848Y1685713D01*
X-3533151Y1684726D01*
X-3389357Y1693772D01*
X-3373907Y1696719D01*
X-3296116Y1721995D01*
X-3225148Y1724022D01*
X-3210962Y1718870D01*
X-3205492Y1717093D01*
X-3198318Y1713717D01*
X-3093778Y1693775D01*
X-3051515Y1685713D01*
X-3041094Y1683725D01*
X-2952600Y1689292D01*
X-2889262Y1693277D01*
X-2889260Y1693277D01*
X-2881350Y1693775D01*
X-2873814Y1696224D01*
X-2873812Y1696224D01*
X-2794863Y1721876D01*
X-2723895Y1723903D01*
X-2710687Y1719105D01*
X-2704489Y1717092D01*
X-2697318Y1713717D01*
X-2540094Y1683725D01*
X-2536067Y1683978D01*
X-2470968Y1660333D01*
X-2427934Y1603865D01*
X-2422261Y1533095D01*
X-2456511Y1469724D01*
X-2880829Y1045405D01*
X-2943142Y1011380D01*
X-2969925Y1008500D01*
X-5970586Y1008500D01*
X-6038707Y1028502D01*
X-6085200Y1082158D01*
X-6095304Y1152432D01*
X-6087493Y1181496D01*
X-6042440Y1293569D01*
X-6040344Y1298783D01*
X-5994787Y1518767D01*
X-5991500Y1575775D01*
X-5991500Y3520999D01*
X-5994449Y3554048D01*
X-6005884Y3682167D01*
X-6006383Y3687762D01*
X-6065663Y3904451D01*
X-6162378Y4107218D01*
X-6293471Y4289654D01*
X-6454799Y4445992D01*
X-6551419Y4510918D01*
X-6596804Y4565514D01*
X-6605467Y4635980D01*
X-6574659Y4699944D01*
X-6514159Y4737097D01*
X-6481143Y4741500D01*
X-5248033Y4741500D01*
X-5179912Y4721498D01*
G37*
%TD.AperFunction*%
%TD*%
M02*
