%TF.GenerationSoftware,KiCad,Pcbnew,(6.0.5)*%
%TF.CreationDate,2022-06-06T17:16:28-06:00*%
%TF.ProjectId,15Pin_Fanout,31355069-6e5f-4466-916e-6f75742e6b69,rev?*%
%TF.SameCoordinates,Original*%
%TF.FileFunction,Legend,Top*%
%TF.FilePolarity,Positive*%
%FSLAX46Y46*%
G04 Gerber Fmt 4.6, Leading zero omitted, Abs format (unit mm)*
G04 Created by KiCad (PCBNEW (6.0.5)) date 2022-06-06 17:16:28*
%MOMM*%
%LPD*%
G01*
G04 APERTURE LIST*
%ADD10C,0.150000*%
%ADD11C,0.120000*%
%ADD12C,0.254000*%
%ADD13C,0.200000*%
G04 APERTURE END LIST*
D10*
X13261904Y-1842380D02*
X13261904Y-842380D01*
X13261904Y-1318571D02*
X13833333Y-1318571D01*
X13833333Y-1842380D02*
X13833333Y-842380D01*
X14309523Y-1842380D02*
X14309523Y-842380D01*
X14547619Y-842380D01*
X14690476Y-890000D01*
X14785714Y-985238D01*
X14833333Y-1080476D01*
X14880952Y-1270952D01*
X14880952Y-1413809D01*
X14833333Y-1604285D01*
X14785714Y-1699523D01*
X14690476Y-1794761D01*
X14547619Y-1842380D01*
X14309523Y-1842380D01*
X15309523Y-1842380D02*
X15309523Y-842380D01*
X15642857Y-1556666D01*
X15976190Y-842380D01*
X15976190Y-1842380D01*
X16452380Y-1842380D02*
X16452380Y-842380D01*
X16690476Y-1937619D02*
X17452380Y-1937619D01*
X17976190Y-842380D02*
X17976190Y-1556666D01*
X17928571Y-1699523D01*
X17833333Y-1794761D01*
X17690476Y-1842380D01*
X17595238Y-1842380D01*
X18404761Y-1794761D02*
X18547619Y-1842380D01*
X18785714Y-1842380D01*
X18880952Y-1794761D01*
X18928571Y-1747142D01*
X18976190Y-1651904D01*
X18976190Y-1556666D01*
X18928571Y-1461428D01*
X18880952Y-1413809D01*
X18785714Y-1366190D01*
X18595238Y-1318571D01*
X18500000Y-1270952D01*
X18452380Y-1223333D01*
X18404761Y-1128095D01*
X18404761Y-1032857D01*
X18452380Y-937619D01*
X18500000Y-890000D01*
X18595238Y-842380D01*
X18833333Y-842380D01*
X18976190Y-890000D01*
X19261904Y-842380D02*
X19833333Y-842380D01*
X19547619Y-1842380D02*
X19547619Y-842380D01*
X19928571Y-1937619D02*
X20690476Y-1937619D01*
X21452380Y-1842380D02*
X20880952Y-1842380D01*
X21166666Y-1842380D02*
X21166666Y-842380D01*
X21071428Y-985238D01*
X20976190Y-1080476D01*
X20880952Y-1128095D01*
X22357142Y-842380D02*
X21880952Y-842380D01*
X21833333Y-1318571D01*
X21880952Y-1270952D01*
X21976190Y-1223333D01*
X22214285Y-1223333D01*
X22309523Y-1270952D01*
X22357142Y-1318571D01*
X22404761Y-1413809D01*
X22404761Y-1651904D01*
X22357142Y-1747142D01*
X22309523Y-1794761D01*
X22214285Y-1842380D01*
X21976190Y-1842380D01*
X21880952Y-1794761D01*
X21833333Y-1747142D01*
X22833333Y-1842380D02*
X22833333Y-842380D01*
X23214285Y-842380D01*
X23309523Y-890000D01*
X23357142Y-937619D01*
X23404761Y-1032857D01*
X23404761Y-1175714D01*
X23357142Y-1270952D01*
X23309523Y-1318571D01*
X23214285Y-1366190D01*
X22833333Y-1366190D01*
X23833333Y-1842380D02*
X23833333Y-1175714D01*
X23833333Y-842380D02*
X23785714Y-890000D01*
X23833333Y-937619D01*
X23880952Y-890000D01*
X23833333Y-842380D01*
X23833333Y-937619D01*
X24309523Y-1175714D02*
X24309523Y-1842380D01*
X24309523Y-1270952D02*
X24357142Y-1223333D01*
X24452380Y-1175714D01*
X24595238Y-1175714D01*
X24690476Y-1223333D01*
X24738095Y-1318571D01*
X24738095Y-1842380D01*
X13095238Y-3452380D02*
X12761904Y-2976190D01*
X12523809Y-3452380D02*
X12523809Y-2452380D01*
X12904761Y-2452380D01*
X12999999Y-2500000D01*
X13047619Y-2547619D01*
X13095238Y-2642857D01*
X13095238Y-2785714D01*
X13047619Y-2880952D01*
X12999999Y-2928571D01*
X12904761Y-2976190D01*
X12523809Y-2976190D01*
X13428571Y-2785714D02*
X13666666Y-3452380D01*
X13904761Y-2785714D02*
X13666666Y-3452380D01*
X13571428Y-3690476D01*
X13523809Y-3738095D01*
X13428571Y-3785714D01*
X14714285Y-3452380D02*
X14714285Y-2928571D01*
X14666666Y-2833333D01*
X14571428Y-2785714D01*
X14380952Y-2785714D01*
X14285714Y-2833333D01*
X14714285Y-3404761D02*
X14619047Y-3452380D01*
X14380952Y-3452380D01*
X14285714Y-3404761D01*
X14238095Y-3309523D01*
X14238095Y-3214285D01*
X14285714Y-3119047D01*
X14380952Y-3071428D01*
X14619047Y-3071428D01*
X14714285Y-3023809D01*
X15190476Y-2785714D02*
X15190476Y-3452380D01*
X15190476Y-2880952D02*
X15238095Y-2833333D01*
X15333333Y-2785714D01*
X15476190Y-2785714D01*
X15571428Y-2833333D01*
X15619047Y-2928571D01*
X15619047Y-3452380D01*
X16857142Y-3452380D02*
X16857142Y-2452380D01*
X17190476Y-3166666D01*
X17523809Y-2452380D01*
X17523809Y-3452380D01*
X18142857Y-3452380D02*
X18047619Y-3404761D01*
X17999999Y-3357142D01*
X17952380Y-3261904D01*
X17952380Y-2976190D01*
X17999999Y-2880952D01*
X18047619Y-2833333D01*
X18142857Y-2785714D01*
X18285714Y-2785714D01*
X18380952Y-2833333D01*
X18428571Y-2880952D01*
X18476190Y-2976190D01*
X18476190Y-3261904D01*
X18428571Y-3357142D01*
X18380952Y-3404761D01*
X18285714Y-3452380D01*
X18142857Y-3452380D01*
X18904761Y-3452380D02*
X18904761Y-2785714D01*
X18904761Y-2976190D02*
X18952380Y-2880952D01*
X18999999Y-2833333D01*
X19095238Y-2785714D01*
X19190476Y-2785714D01*
X19952380Y-2785714D02*
X19952380Y-3595238D01*
X19904761Y-3690476D01*
X19857142Y-3738095D01*
X19761904Y-3785714D01*
X19619047Y-3785714D01*
X19523809Y-3738095D01*
X19952380Y-3404761D02*
X19857142Y-3452380D01*
X19666666Y-3452380D01*
X19571428Y-3404761D01*
X19523809Y-3357142D01*
X19476190Y-3261904D01*
X19476190Y-2976190D01*
X19523809Y-2880952D01*
X19571428Y-2833333D01*
X19666666Y-2785714D01*
X19857142Y-2785714D01*
X19952380Y-2833333D01*
X20809523Y-3404761D02*
X20714285Y-3452380D01*
X20523809Y-3452380D01*
X20428571Y-3404761D01*
X20380952Y-3309523D01*
X20380952Y-2928571D01*
X20428571Y-2833333D01*
X20523809Y-2785714D01*
X20714285Y-2785714D01*
X20809523Y-2833333D01*
X20857142Y-2928571D01*
X20857142Y-3023809D01*
X20380952Y-3119047D01*
X21285714Y-2785714D02*
X21285714Y-3452380D01*
X21285714Y-2880952D02*
X21333333Y-2833333D01*
X21428571Y-2785714D01*
X21571428Y-2785714D01*
X21666666Y-2833333D01*
X21714285Y-2928571D01*
X21714285Y-3452380D01*
X22142857Y-3404761D02*
X22238095Y-3452380D01*
X22428571Y-3452380D01*
X22523809Y-3404761D01*
X22571428Y-3309523D01*
X22571428Y-3261904D01*
X22523809Y-3166666D01*
X22428571Y-3119047D01*
X22285714Y-3119047D01*
X22190476Y-3071428D01*
X22142857Y-2976190D01*
X22142857Y-2928571D01*
X22190476Y-2833333D01*
X22285714Y-2785714D01*
X22428571Y-2785714D01*
X22523809Y-2833333D01*
X22857142Y-2785714D02*
X23238095Y-2785714D01*
X23000000Y-2452380D02*
X23000000Y-3309523D01*
X23047619Y-3404761D01*
X23142857Y-3452380D01*
X23238095Y-3452380D01*
X23952380Y-3404761D02*
X23857142Y-3452380D01*
X23666666Y-3452380D01*
X23571428Y-3404761D01*
X23523809Y-3309523D01*
X23523809Y-2928571D01*
X23571428Y-2833333D01*
X23666666Y-2785714D01*
X23857142Y-2785714D01*
X23952380Y-2833333D01*
X23999999Y-2928571D01*
X23999999Y-3023809D01*
X23523809Y-3119047D01*
X24428571Y-3452380D02*
X24428571Y-2785714D01*
X24428571Y-2976190D02*
X24476190Y-2880952D01*
X24523809Y-2833333D01*
X24619047Y-2785714D01*
X24714285Y-2785714D01*
X25047619Y-2785714D02*
X25047619Y-3452380D01*
X25047619Y-2880952D02*
X25095238Y-2833333D01*
X25190476Y-2785714D01*
X25333333Y-2785714D01*
X25428571Y-2833333D01*
X25476190Y-2928571D01*
X25476190Y-3452380D01*
X16285714Y-4062380D02*
X16095238Y-4062380D01*
X16000000Y-4110000D01*
X15952380Y-4157619D01*
X15857142Y-4300476D01*
X15809523Y-4490952D01*
X15809523Y-4871904D01*
X15857142Y-4967142D01*
X15904761Y-5014761D01*
X16000000Y-5062380D01*
X16190476Y-5062380D01*
X16285714Y-5014761D01*
X16333333Y-4967142D01*
X16380952Y-4871904D01*
X16380952Y-4633809D01*
X16333333Y-4538571D01*
X16285714Y-4490952D01*
X16190476Y-4443333D01*
X16000000Y-4443333D01*
X15904761Y-4490952D01*
X15857142Y-4538571D01*
X15809523Y-4633809D01*
X17523809Y-4014761D02*
X16666666Y-5300476D01*
X18285714Y-4062380D02*
X18095238Y-4062380D01*
X18000000Y-4110000D01*
X17952380Y-4157619D01*
X17857142Y-4300476D01*
X17809523Y-4490952D01*
X17809523Y-4871904D01*
X17857142Y-4967142D01*
X17904761Y-5014761D01*
X18000000Y-5062380D01*
X18190476Y-5062380D01*
X18285714Y-5014761D01*
X18333333Y-4967142D01*
X18380952Y-4871904D01*
X18380952Y-4633809D01*
X18333333Y-4538571D01*
X18285714Y-4490952D01*
X18190476Y-4443333D01*
X18000000Y-4443333D01*
X17904761Y-4490952D01*
X17857142Y-4538571D01*
X17809523Y-4633809D01*
X18761904Y-4157619D02*
X18809523Y-4110000D01*
X18904761Y-4062380D01*
X19142857Y-4062380D01*
X19238095Y-4110000D01*
X19285714Y-4157619D01*
X19333333Y-4252857D01*
X19333333Y-4348095D01*
X19285714Y-4490952D01*
X18714285Y-5062380D01*
X19333333Y-5062380D01*
X19952380Y-4062380D02*
X20047619Y-4062380D01*
X20142857Y-4110000D01*
X20190476Y-4157619D01*
X20238095Y-4252857D01*
X20285714Y-4443333D01*
X20285714Y-4681428D01*
X20238095Y-4871904D01*
X20190476Y-4967142D01*
X20142857Y-5014761D01*
X20047619Y-5062380D01*
X19952380Y-5062380D01*
X19857142Y-5014761D01*
X19809523Y-4967142D01*
X19761904Y-4871904D01*
X19714285Y-4681428D01*
X19714285Y-4443333D01*
X19761904Y-4252857D01*
X19809523Y-4157619D01*
X19857142Y-4110000D01*
X19952380Y-4062380D01*
X20666666Y-4157619D02*
X20714285Y-4110000D01*
X20809523Y-4062380D01*
X21047619Y-4062380D01*
X21142857Y-4110000D01*
X21190476Y-4157619D01*
X21238095Y-4252857D01*
X21238095Y-4348095D01*
X21190476Y-4490952D01*
X20619047Y-5062380D01*
X21238095Y-5062380D01*
X21619047Y-4157619D02*
X21666666Y-4110000D01*
X21761904Y-4062380D01*
X22000000Y-4062380D01*
X22095238Y-4110000D01*
X22142857Y-4157619D01*
X22190476Y-4252857D01*
X22190476Y-4348095D01*
X22142857Y-4490952D01*
X21571428Y-5062380D01*
X22190476Y-5062380D01*
%TO.C,J3*%
X-3807333Y14747619D02*
X-3807333Y14033333D01*
X-3854952Y13890476D01*
X-3950190Y13795238D01*
X-4093047Y13747619D01*
X-4188285Y13747619D01*
X-3426380Y14747619D02*
X-2807333Y14747619D01*
X-3140666Y14366666D01*
X-2997809Y14366666D01*
X-2902571Y14319047D01*
X-2854952Y14271428D01*
X-2807333Y14176190D01*
X-2807333Y13938095D01*
X-2854952Y13842857D01*
X-2902571Y13795238D01*
X-2997809Y13747619D01*
X-3283523Y13747619D01*
X-3378761Y13795238D01*
X-3426380Y13842857D01*
%TO.C,J5*%
X3392666Y14747619D02*
X3392666Y14033333D01*
X3345047Y13890476D01*
X3249809Y13795238D01*
X3106952Y13747619D01*
X3011714Y13747619D01*
X4345047Y14747619D02*
X3868857Y14747619D01*
X3821238Y14271428D01*
X3868857Y14319047D01*
X3964095Y14366666D01*
X4202190Y14366666D01*
X4297428Y14319047D01*
X4345047Y14271428D01*
X4392666Y14176190D01*
X4392666Y13938095D01*
X4345047Y13842857D01*
X4297428Y13795238D01*
X4202190Y13747619D01*
X3964095Y13747619D01*
X3868857Y13795238D01*
X3821238Y13842857D01*
%TO.C,J6*%
X11342666Y16567619D02*
X11342666Y15853333D01*
X11295047Y15710476D01*
X11199809Y15615238D01*
X11056952Y15567619D01*
X10961714Y15567619D01*
X12247428Y16567619D02*
X12056952Y16567619D01*
X11961714Y16520000D01*
X11914095Y16472380D01*
X11818857Y16329523D01*
X11771238Y16139047D01*
X11771238Y15758095D01*
X11818857Y15662857D01*
X11866476Y15615238D01*
X11961714Y15567619D01*
X12152190Y15567619D01*
X12247428Y15615238D01*
X12295047Y15662857D01*
X12342666Y15758095D01*
X12342666Y15996190D01*
X12295047Y16091428D01*
X12247428Y16139047D01*
X12152190Y16186666D01*
X11961714Y16186666D01*
X11866476Y16139047D01*
X11818857Y16091428D01*
X11771238Y15996190D01*
%TO.C,J4*%
X-19583333Y14747619D02*
X-19583333Y14033333D01*
X-19630952Y13890476D01*
X-19726190Y13795238D01*
X-19869047Y13747619D01*
X-19964285Y13747619D01*
X-18678571Y14414285D02*
X-18678571Y13747619D01*
X-18916666Y14795238D02*
X-19154761Y14080952D01*
X-18535714Y14080952D01*
%TO.C,J7*%
X-11717333Y16567619D02*
X-11717333Y15853333D01*
X-11764952Y15710476D01*
X-11860190Y15615238D01*
X-12003047Y15567619D01*
X-12098285Y15567619D01*
X-11336380Y16567619D02*
X-10669714Y16567619D01*
X-11098285Y15567619D01*
%TO.C,J2*%
X19192666Y14747619D02*
X19192666Y14033333D01*
X19145047Y13890476D01*
X19049809Y13795238D01*
X18906952Y13747619D01*
X18811714Y13747619D01*
X19621238Y14652380D02*
X19668857Y14700000D01*
X19764095Y14747619D01*
X20002190Y14747619D01*
X20097428Y14700000D01*
X20145047Y14652380D01*
X20192666Y14557142D01*
X20192666Y14461904D01*
X20145047Y14319047D01*
X19573619Y13747619D01*
X20192666Y13747619D01*
%TO.C,J1*%
X621309Y3754619D02*
X621309Y3040333D01*
X573690Y2897476D01*
X478452Y2802238D01*
X335595Y2754619D01*
X240357Y2754619D01*
X1621309Y2754619D02*
X1049880Y2754619D01*
X1335595Y2754619D02*
X1335595Y3754619D01*
X1240357Y3611761D01*
X1145119Y3516523D01*
X1049880Y3468904D01*
D11*
%TO.C,J3*%
X-1334000Y15290000D02*
X-414000Y15290000D01*
X-2174000Y19250000D02*
X-1174000Y19250000D01*
X-6534000Y23110000D02*
X-6534000Y15290000D01*
X-1614000Y16890000D02*
X-1334000Y16890000D01*
X-4774000Y19250000D02*
X-5774000Y19250000D01*
X-1614000Y16890000D02*
X-1614000Y15675000D01*
X-3974000Y18750000D02*
X-3974000Y23110000D01*
X-5774000Y20850000D02*
X-4774000Y20850000D01*
X-2974000Y18750000D02*
X-3974000Y18750000D01*
X-2174000Y20850000D02*
X-2174000Y19250000D01*
X-4774000Y20850000D02*
X-4774000Y19250000D01*
X-1174000Y19250000D02*
X-1174000Y20850000D01*
X-1334000Y16890000D02*
X-1334000Y15290000D01*
X-414000Y16890000D02*
X-1334000Y16890000D01*
X-5614000Y15290000D02*
X-5614000Y16890000D01*
X-5774000Y19250000D02*
X-5774000Y20850000D01*
X-5614000Y16890000D02*
X-5334000Y16890000D01*
X-1174000Y20850000D02*
X-2174000Y20850000D01*
X-6534000Y16890000D02*
X-5614000Y16890000D01*
X-1674000Y20850000D02*
X-1674000Y23110000D01*
X-414000Y23110000D02*
X-6534000Y23110000D01*
X-2174000Y20850000D02*
X-2174000Y23110000D01*
X-414000Y15290000D02*
X-414000Y23110000D01*
X-2974000Y23110000D02*
X-2974000Y18750000D01*
X-6534000Y15290000D02*
X-5614000Y15290000D01*
%TO.C,J5*%
X666000Y23110000D02*
X666000Y15290000D01*
X1426000Y19250000D02*
X1426000Y20850000D01*
X5866000Y16890000D02*
X5866000Y15290000D01*
X4226000Y23110000D02*
X4226000Y18750000D01*
X6786000Y23110000D02*
X666000Y23110000D01*
X2426000Y19250000D02*
X1426000Y19250000D01*
X6026000Y19250000D02*
X6026000Y20850000D01*
X666000Y16890000D02*
X1586000Y16890000D01*
X1426000Y20850000D02*
X2426000Y20850000D01*
X5026000Y19250000D02*
X6026000Y19250000D01*
X5586000Y16890000D02*
X5586000Y15675000D01*
X5526000Y20850000D02*
X5526000Y23110000D01*
X5026000Y20850000D02*
X5026000Y23110000D01*
X5586000Y16890000D02*
X5866000Y16890000D01*
X4226000Y18750000D02*
X3226000Y18750000D01*
X6026000Y20850000D02*
X5026000Y20850000D01*
X6786000Y15290000D02*
X6786000Y23110000D01*
X1586000Y16890000D02*
X1866000Y16890000D01*
X1586000Y15290000D02*
X1586000Y16890000D01*
X5026000Y20850000D02*
X5026000Y19250000D01*
X6786000Y16890000D02*
X5866000Y16890000D01*
X666000Y15290000D02*
X1586000Y15290000D01*
X2426000Y20850000D02*
X2426000Y19250000D01*
X5866000Y15290000D02*
X6786000Y15290000D01*
X3226000Y18750000D02*
X3226000Y23110000D01*
%TO.C,J6*%
X13736000Y18215000D02*
X13736000Y17225000D01*
X14786000Y20715000D02*
X14786000Y18215000D01*
X14786000Y18215000D02*
X13736000Y18215000D01*
X13616000Y22685000D02*
X9736000Y22685000D01*
X8566000Y18215000D02*
X9616000Y18215000D01*
X8566000Y20715000D02*
X8566000Y18215000D01*
%TO.C,J4*%
X-16190000Y16890000D02*
X-17110000Y16890000D01*
X-17390000Y16890000D02*
X-17110000Y16890000D01*
X-18750000Y18750000D02*
X-19750000Y18750000D01*
X-20550000Y19250000D02*
X-21550000Y19250000D01*
X-17110000Y15290000D02*
X-16190000Y15290000D01*
X-22310000Y23110000D02*
X-22310000Y15290000D01*
X-22310000Y15290000D02*
X-21390000Y15290000D01*
X-21550000Y20850000D02*
X-20550000Y20850000D01*
X-16950000Y20850000D02*
X-17950000Y20850000D01*
X-18750000Y23110000D02*
X-18750000Y18750000D01*
X-17950000Y20850000D02*
X-17950000Y23110000D01*
X-21550000Y19250000D02*
X-21550000Y20850000D01*
X-17950000Y20850000D02*
X-17950000Y19250000D01*
X-21390000Y15290000D02*
X-21390000Y16890000D01*
X-20550000Y20850000D02*
X-20550000Y19250000D01*
X-17110000Y16890000D02*
X-17110000Y15290000D01*
X-17950000Y19250000D02*
X-16950000Y19250000D01*
X-16190000Y23110000D02*
X-22310000Y23110000D01*
X-17450000Y20850000D02*
X-17450000Y23110000D01*
X-22310000Y16890000D02*
X-21390000Y16890000D01*
X-17390000Y16890000D02*
X-17390000Y15675000D01*
X-16950000Y19250000D02*
X-16950000Y20850000D01*
X-16190000Y15290000D02*
X-16190000Y23110000D01*
X-21390000Y16890000D02*
X-21110000Y16890000D01*
X-19750000Y18750000D02*
X-19750000Y23110000D01*
%TO.C,J7*%
X-14494000Y18215000D02*
X-13444000Y18215000D01*
X-9324000Y18215000D02*
X-9324000Y17225000D01*
X-8274000Y18215000D02*
X-9324000Y18215000D01*
X-9444000Y22685000D02*
X-13324000Y22685000D01*
X-8274000Y20715000D02*
X-8274000Y18215000D01*
X-14494000Y20715000D02*
X-14494000Y18215000D01*
%TO.C,J2*%
X18226000Y20850000D02*
X18226000Y19250000D01*
X21386000Y16890000D02*
X21666000Y16890000D01*
X17226000Y20850000D02*
X18226000Y20850000D01*
X20026000Y18750000D02*
X19026000Y18750000D01*
X20826000Y20850000D02*
X20826000Y23110000D01*
X17226000Y19250000D02*
X17226000Y20850000D01*
X18226000Y19250000D02*
X17226000Y19250000D01*
X16466000Y23110000D02*
X16466000Y15290000D01*
X16466000Y15290000D02*
X17386000Y15290000D01*
X20826000Y19250000D02*
X21826000Y19250000D01*
X21666000Y15290000D02*
X22586000Y15290000D01*
X21386000Y16890000D02*
X21386000Y15675000D01*
X21666000Y16890000D02*
X21666000Y15290000D01*
X19026000Y18750000D02*
X19026000Y23110000D01*
X22586000Y16890000D02*
X21666000Y16890000D01*
X16466000Y16890000D02*
X17386000Y16890000D01*
X20826000Y20850000D02*
X20826000Y19250000D01*
X21326000Y20850000D02*
X21326000Y23110000D01*
X22586000Y15290000D02*
X22586000Y23110000D01*
X21826000Y19250000D02*
X21826000Y20850000D01*
X21826000Y20850000D02*
X20826000Y20850000D01*
X22586000Y23110000D02*
X16466000Y23110000D01*
X17386000Y15290000D02*
X17386000Y16890000D01*
X17386000Y16890000D02*
X17666000Y16890000D01*
X20026000Y23110000D02*
X20026000Y18750000D01*
D12*
%TO.C,J1*%
X-3000000Y-1904000D02*
X-4000000Y-1904000D01*
D13*
X-7500000Y-1875000D02*
X-7500000Y743000D01*
X6080000Y2575000D02*
X6145000Y2575000D01*
X7500000Y-8036000D02*
X7500000Y-4917000D01*
X6080000Y2565000D02*
X6080000Y2575000D01*
X4830000Y2565000D02*
X6080000Y2565000D01*
X-7500000Y-8036000D02*
X-7500000Y-4917000D01*
X3200000Y-2504000D02*
X3800000Y-2504000D01*
D12*
X4000000Y-1904000D02*
X4500000Y-5404000D01*
D13*
X6145000Y3563000D02*
X6352000Y3563000D01*
X-3200000Y-2504000D02*
X-3800000Y-2504000D01*
X-6120000Y2592000D02*
X-4837000Y2592000D01*
D12*
X3000000Y-1904000D02*
X4000000Y-1904000D01*
D13*
X7500000Y-1876000D02*
X7500000Y743000D01*
D12*
X2500000Y-5404000D02*
X3000000Y-1904000D01*
D13*
X-6120000Y3545000D02*
X-6120000Y2592000D01*
X-7500000Y-8036000D02*
X7500000Y-8036000D01*
X6352000Y3563000D02*
X6352000Y3556000D01*
X6145000Y2575000D02*
X6145000Y3563000D01*
X-6107000Y3557000D02*
X-6107000Y3545000D01*
D12*
X-4000000Y-1904000D02*
X-4500000Y-5404000D01*
D13*
X-6107000Y3545000D02*
X-6120000Y3545000D01*
D12*
X-2500000Y-5404000D02*
X-3000000Y-1904000D01*
D13*
X-6350000Y3557000D02*
X-6107000Y3557000D01*
%TD*%
M02*
