M48
; DRILL file {KiCad (6.0.5)} date Mon Jun  6 17:16:29 2022
; FORMAT={-:-/ absolute / inch / decimal}
; #@! TF.CreationDate,2022-06-06T17:16:29-06:00
; #@! TF.GenerationSoftware,Kicad,Pcbnew,(6.0.5)
; #@! TF.FileFunction,Plated,1,2,PTH
FMAT,2
INCH
; #@! TA.AperFunction,Plated,PTH,ViaDrill
T1C0.0157
; #@! TA.AperFunction,Plated,PTH,ComponentDrill
T2C0.0295
; #@! TA.AperFunction,Plated,PTH,ComponentDrill
T3C0.0354
%
G90
G05
T1
X-0.4331Y0.6532
X-0.1083Y0.0591
X0.0393Y0.0689
X0.6496Y0.7805
T2
X-0.7972Y0.6594
X-0.7185Y0.6594
X-0.1761Y0.6594
X-0.0974Y0.6594
X0.1073Y0.6594
X0.1861Y0.6594
X0.7294Y0.6594
X0.8081Y0.6594
T3
G00X-0.2854Y0.1364
M15
G01X-0.2854Y0.0655
M16
G05
G00X-0.2854Y-0.1101
M15
G01X-0.2854Y-0.1573
M16
G05
G00X0.2854Y0.1364
M15
G01X0.2854Y0.0655
M16
G05
G00X0.2854Y-0.1101
M15
G01X0.2854Y-0.1573
M16
G05
T0
M30
