%TF.GenerationSoftware,KiCad,Pcbnew,(6.0.5)*%
%TF.CreationDate,2022-06-06T17:16:28-06:00*%
%TF.ProjectId,15Pin_Fanout,31355069-6e5f-4466-916e-6f75742e6b69,rev?*%
%TF.SameCoordinates,Original*%
%TF.FileFunction,Soldermask,Top*%
%TF.FilePolarity,Negative*%
%FSLAX46Y46*%
G04 Gerber Fmt 4.6, Leading zero omitted, Abs format (unit mm)*
G04 Created by KiCad (PCBNEW (6.0.5)) date 2022-06-06 17:16:28*
%MOMM*%
%LPD*%
G01*
G04 APERTURE LIST*
G04 Aperture macros list*
%AMRoundRect*
0 Rectangle with rounded corners*
0 $1 Rounding radius*
0 $2 $3 $4 $5 $6 $7 $8 $9 X,Y pos of 4 corners*
0 Add a 4 corners polygon primitive as box body*
4,1,4,$2,$3,$4,$5,$6,$7,$8,$9,$2,$3,0*
0 Add four circle primitives for the rounded corners*
1,1,$1+$1,$2,$3*
1,1,$1+$1,$4,$5*
1,1,$1+$1,$6,$7*
1,1,$1+$1,$8,$9*
0 Add four rect primitives between the rounded corners*
20,1,$1+$1,$2,$3,$4,$5,0*
20,1,$1+$1,$4,$5,$6,$7,0*
20,1,$1+$1,$6,$7,$8,$9,0*
20,1,$1+$1,$8,$9,$2,$3,0*%
G04 Aperture macros list end*
%ADD10RoundRect,0.250000X0.350000X0.625000X-0.350000X0.625000X-0.350000X-0.625000X0.350000X-0.625000X0*%
%ADD11O,1.200000X1.750000*%
%ADD12RoundRect,0.150000X0.150000X0.625000X-0.150000X0.625000X-0.150000X-0.625000X0.150000X-0.625000X0*%
%ADD13RoundRect,0.250000X0.350000X0.650000X-0.350000X0.650000X-0.350000X-0.650000X0.350000X-0.650000X0*%
%ADD14O,0.250000X2.400000*%
%ADD15O,1.500000X2.700000*%
%ADD16O,1.500000X3.300000*%
G04 APERTURE END LIST*
D10*
%TO.C,J3*%
X-2474000Y16750000D03*
D11*
X-4474000Y16750000D03*
%TD*%
D10*
%TO.C,J5*%
X4726000Y16750000D03*
D11*
X2726000Y16750000D03*
%TD*%
D12*
%TO.C,J6*%
X13176000Y18000000D03*
X12176000Y18000000D03*
X11176000Y18000000D03*
X10176000Y18000000D03*
D13*
X14476000Y21875000D03*
X8876000Y21875000D03*
%TD*%
D10*
%TO.C,J4*%
X-18250000Y16750000D03*
D11*
X-20250000Y16750000D03*
%TD*%
D12*
%TO.C,J7*%
X-9884000Y18000000D03*
X-10884000Y18000000D03*
X-11884000Y18000000D03*
X-12884000Y18000000D03*
D13*
X-8584000Y21875000D03*
X-14184000Y21875000D03*
%TD*%
D10*
%TO.C,J2*%
X20526000Y16750000D03*
D11*
X18526000Y16750000D03*
%TD*%
D14*
%TO.C,J1*%
X4501000Y3396000D03*
X4001000Y3396000D03*
X3501000Y3396000D03*
X3001000Y3396000D03*
X2500000Y3396000D03*
X2000000Y3396000D03*
X1500000Y3396000D03*
X1000000Y3396000D03*
X500000Y3396000D03*
X0Y3396000D03*
X-500000Y3396000D03*
X-1000000Y3396000D03*
X-1500000Y3396000D03*
X-2000000Y3396000D03*
X-2500000Y3396000D03*
X-3001000Y3396000D03*
X-3501000Y3396000D03*
X-4001000Y3396000D03*
X-4501000Y3396000D03*
D15*
X7250000Y-3396000D03*
X-7250000Y-3396000D03*
D16*
X7250000Y2564000D03*
X-7250000Y2564000D03*
%TD*%
M02*
