%TF.GenerationSoftware,KiCad,Pcbnew,(6.0.5)*%
%TF.CreationDate,2022-06-06T17:16:28-06:00*%
%TF.ProjectId,15Pin_Fanout,31355069-6e5f-4466-916e-6f75742e6b69,rev?*%
%TF.SameCoordinates,Original*%
%TF.FileFunction,Legend,Bot*%
%TF.FilePolarity,Positive*%
%FSLAX46Y46*%
G04 Gerber Fmt 4.6, Leading zero omitted, Abs format (unit mm)*
G04 Created by KiCad (PCBNEW (6.0.5)) date 2022-06-06 17:16:28*
%MOMM*%
%LPD*%
G01*
G04 APERTURE LIST*
%ADD10C,0.150000*%
G04 APERTURE END LIST*
D10*
X24738095Y-1842380D02*
X24738095Y-842380D01*
X24738095Y-1318571D02*
X24166666Y-1318571D01*
X24166666Y-1842380D02*
X24166666Y-842380D01*
X23690476Y-1842380D02*
X23690476Y-842380D01*
X23452380Y-842380D01*
X23309523Y-890000D01*
X23214285Y-985238D01*
X23166666Y-1080476D01*
X23119047Y-1270952D01*
X23119047Y-1413809D01*
X23166666Y-1604285D01*
X23214285Y-1699523D01*
X23309523Y-1794761D01*
X23452380Y-1842380D01*
X23690476Y-1842380D01*
X22690476Y-1842380D02*
X22690476Y-842380D01*
X22357142Y-1556666D01*
X22023809Y-842380D01*
X22023809Y-1842380D01*
X21547619Y-1842380D02*
X21547619Y-842380D01*
X21309523Y-1937619D02*
X20547619Y-1937619D01*
X20023809Y-842380D02*
X20023809Y-1556666D01*
X20071428Y-1699523D01*
X20166666Y-1794761D01*
X20309523Y-1842380D01*
X20404761Y-1842380D01*
X19595238Y-1794761D02*
X19452380Y-1842380D01*
X19214285Y-1842380D01*
X19119047Y-1794761D01*
X19071428Y-1747142D01*
X19023809Y-1651904D01*
X19023809Y-1556666D01*
X19071428Y-1461428D01*
X19119047Y-1413809D01*
X19214285Y-1366190D01*
X19404761Y-1318571D01*
X19500000Y-1270952D01*
X19547619Y-1223333D01*
X19595238Y-1128095D01*
X19595238Y-1032857D01*
X19547619Y-937619D01*
X19500000Y-890000D01*
X19404761Y-842380D01*
X19166666Y-842380D01*
X19023809Y-890000D01*
X18738095Y-842380D02*
X18166666Y-842380D01*
X18452380Y-1842380D02*
X18452380Y-842380D01*
X18071428Y-1937619D02*
X17309523Y-1937619D01*
X16547619Y-1842380D02*
X17119047Y-1842380D01*
X16833333Y-1842380D02*
X16833333Y-842380D01*
X16928571Y-985238D01*
X17023809Y-1080476D01*
X17119047Y-1128095D01*
X15642857Y-842380D02*
X16119047Y-842380D01*
X16166666Y-1318571D01*
X16119047Y-1270952D01*
X16023809Y-1223333D01*
X15785714Y-1223333D01*
X15690476Y-1270952D01*
X15642857Y-1318571D01*
X15595238Y-1413809D01*
X15595238Y-1651904D01*
X15642857Y-1747142D01*
X15690476Y-1794761D01*
X15785714Y-1842380D01*
X16023809Y-1842380D01*
X16119047Y-1794761D01*
X16166666Y-1747142D01*
X15166666Y-1842380D02*
X15166666Y-842380D01*
X14785714Y-842380D01*
X14690476Y-890000D01*
X14642857Y-937619D01*
X14595238Y-1032857D01*
X14595238Y-1175714D01*
X14642857Y-1270952D01*
X14690476Y-1318571D01*
X14785714Y-1366190D01*
X15166666Y-1366190D01*
X14166666Y-1842380D02*
X14166666Y-1175714D01*
X14166666Y-842380D02*
X14214285Y-890000D01*
X14166666Y-937619D01*
X14119047Y-890000D01*
X14166666Y-842380D01*
X14166666Y-937619D01*
X13690476Y-1175714D02*
X13690476Y-1842380D01*
X13690476Y-1270952D02*
X13642857Y-1223333D01*
X13547619Y-1175714D01*
X13404761Y-1175714D01*
X13309523Y-1223333D01*
X13261904Y-1318571D01*
X13261904Y-1842380D01*
X24904761Y-3452380D02*
X25238095Y-2976190D01*
X25476190Y-3452380D02*
X25476190Y-2452380D01*
X25095238Y-2452380D01*
X25000000Y-2500000D01*
X24952380Y-2547619D01*
X24904761Y-2642857D01*
X24904761Y-2785714D01*
X24952380Y-2880952D01*
X25000000Y-2928571D01*
X25095238Y-2976190D01*
X25476190Y-2976190D01*
X24571428Y-2785714D02*
X24333333Y-3452380D01*
X24095238Y-2785714D02*
X24333333Y-3452380D01*
X24428571Y-3690476D01*
X24476190Y-3738095D01*
X24571428Y-3785714D01*
X23285714Y-3452380D02*
X23285714Y-2928571D01*
X23333333Y-2833333D01*
X23428571Y-2785714D01*
X23619047Y-2785714D01*
X23714285Y-2833333D01*
X23285714Y-3404761D02*
X23380952Y-3452380D01*
X23619047Y-3452380D01*
X23714285Y-3404761D01*
X23761904Y-3309523D01*
X23761904Y-3214285D01*
X23714285Y-3119047D01*
X23619047Y-3071428D01*
X23380952Y-3071428D01*
X23285714Y-3023809D01*
X22809523Y-2785714D02*
X22809523Y-3452380D01*
X22809523Y-2880952D02*
X22761904Y-2833333D01*
X22666666Y-2785714D01*
X22523809Y-2785714D01*
X22428571Y-2833333D01*
X22380952Y-2928571D01*
X22380952Y-3452380D01*
X21142857Y-3452380D02*
X21142857Y-2452380D01*
X20809523Y-3166666D01*
X20476190Y-2452380D01*
X20476190Y-3452380D01*
X19857142Y-3452380D02*
X19952380Y-3404761D01*
X20000000Y-3357142D01*
X20047619Y-3261904D01*
X20047619Y-2976190D01*
X20000000Y-2880952D01*
X19952380Y-2833333D01*
X19857142Y-2785714D01*
X19714285Y-2785714D01*
X19619047Y-2833333D01*
X19571428Y-2880952D01*
X19523809Y-2976190D01*
X19523809Y-3261904D01*
X19571428Y-3357142D01*
X19619047Y-3404761D01*
X19714285Y-3452380D01*
X19857142Y-3452380D01*
X19095238Y-3452380D02*
X19095238Y-2785714D01*
X19095238Y-2976190D02*
X19047619Y-2880952D01*
X19000000Y-2833333D01*
X18904761Y-2785714D01*
X18809523Y-2785714D01*
X18047619Y-2785714D02*
X18047619Y-3595238D01*
X18095238Y-3690476D01*
X18142857Y-3738095D01*
X18238095Y-3785714D01*
X18380952Y-3785714D01*
X18476190Y-3738095D01*
X18047619Y-3404761D02*
X18142857Y-3452380D01*
X18333333Y-3452380D01*
X18428571Y-3404761D01*
X18476190Y-3357142D01*
X18523809Y-3261904D01*
X18523809Y-2976190D01*
X18476190Y-2880952D01*
X18428571Y-2833333D01*
X18333333Y-2785714D01*
X18142857Y-2785714D01*
X18047619Y-2833333D01*
X17190476Y-3404761D02*
X17285714Y-3452380D01*
X17476190Y-3452380D01*
X17571428Y-3404761D01*
X17619047Y-3309523D01*
X17619047Y-2928571D01*
X17571428Y-2833333D01*
X17476190Y-2785714D01*
X17285714Y-2785714D01*
X17190476Y-2833333D01*
X17142857Y-2928571D01*
X17142857Y-3023809D01*
X17619047Y-3119047D01*
X16714285Y-2785714D02*
X16714285Y-3452380D01*
X16714285Y-2880952D02*
X16666666Y-2833333D01*
X16571428Y-2785714D01*
X16428571Y-2785714D01*
X16333333Y-2833333D01*
X16285714Y-2928571D01*
X16285714Y-3452380D01*
X15857142Y-3404761D02*
X15761904Y-3452380D01*
X15571428Y-3452380D01*
X15476190Y-3404761D01*
X15428571Y-3309523D01*
X15428571Y-3261904D01*
X15476190Y-3166666D01*
X15571428Y-3119047D01*
X15714285Y-3119047D01*
X15809523Y-3071428D01*
X15857142Y-2976190D01*
X15857142Y-2928571D01*
X15809523Y-2833333D01*
X15714285Y-2785714D01*
X15571428Y-2785714D01*
X15476190Y-2833333D01*
X15142857Y-2785714D02*
X14761904Y-2785714D01*
X15000000Y-2452380D02*
X15000000Y-3309523D01*
X14952380Y-3404761D01*
X14857142Y-3452380D01*
X14761904Y-3452380D01*
X14047619Y-3404761D02*
X14142857Y-3452380D01*
X14333333Y-3452380D01*
X14428571Y-3404761D01*
X14476190Y-3309523D01*
X14476190Y-2928571D01*
X14428571Y-2833333D01*
X14333333Y-2785714D01*
X14142857Y-2785714D01*
X14047619Y-2833333D01*
X14000000Y-2928571D01*
X14000000Y-3023809D01*
X14476190Y-3119047D01*
X13571428Y-3452380D02*
X13571428Y-2785714D01*
X13571428Y-2976190D02*
X13523809Y-2880952D01*
X13476190Y-2833333D01*
X13380952Y-2785714D01*
X13285714Y-2785714D01*
X12952380Y-2785714D02*
X12952380Y-3452380D01*
X12952380Y-2880952D02*
X12904761Y-2833333D01*
X12809523Y-2785714D01*
X12666666Y-2785714D01*
X12571428Y-2833333D01*
X12523809Y-2928571D01*
X12523809Y-3452380D01*
X21714285Y-4062380D02*
X21904761Y-4062380D01*
X22000000Y-4110000D01*
X22047619Y-4157619D01*
X22142857Y-4300476D01*
X22190476Y-4490952D01*
X22190476Y-4871904D01*
X22142857Y-4967142D01*
X22095238Y-5014761D01*
X22000000Y-5062380D01*
X21809523Y-5062380D01*
X21714285Y-5014761D01*
X21666666Y-4967142D01*
X21619047Y-4871904D01*
X21619047Y-4633809D01*
X21666666Y-4538571D01*
X21714285Y-4490952D01*
X21809523Y-4443333D01*
X22000000Y-4443333D01*
X22095238Y-4490952D01*
X22142857Y-4538571D01*
X22190476Y-4633809D01*
X20476190Y-4014761D02*
X21333333Y-5300476D01*
X19714285Y-4062380D02*
X19904761Y-4062380D01*
X20000000Y-4110000D01*
X20047619Y-4157619D01*
X20142857Y-4300476D01*
X20190476Y-4490952D01*
X20190476Y-4871904D01*
X20142857Y-4967142D01*
X20095238Y-5014761D01*
X20000000Y-5062380D01*
X19809523Y-5062380D01*
X19714285Y-5014761D01*
X19666666Y-4967142D01*
X19619047Y-4871904D01*
X19619047Y-4633809D01*
X19666666Y-4538571D01*
X19714285Y-4490952D01*
X19809523Y-4443333D01*
X20000000Y-4443333D01*
X20095238Y-4490952D01*
X20142857Y-4538571D01*
X20190476Y-4633809D01*
X19238095Y-4157619D02*
X19190476Y-4110000D01*
X19095238Y-4062380D01*
X18857142Y-4062380D01*
X18761904Y-4110000D01*
X18714285Y-4157619D01*
X18666666Y-4252857D01*
X18666666Y-4348095D01*
X18714285Y-4490952D01*
X19285714Y-5062380D01*
X18666666Y-5062380D01*
X18047619Y-4062380D02*
X17952380Y-4062380D01*
X17857142Y-4110000D01*
X17809523Y-4157619D01*
X17761904Y-4252857D01*
X17714285Y-4443333D01*
X17714285Y-4681428D01*
X17761904Y-4871904D01*
X17809523Y-4967142D01*
X17857142Y-5014761D01*
X17952380Y-5062380D01*
X18047619Y-5062380D01*
X18142857Y-5014761D01*
X18190476Y-4967142D01*
X18238095Y-4871904D01*
X18285714Y-4681428D01*
X18285714Y-4443333D01*
X18238095Y-4252857D01*
X18190476Y-4157619D01*
X18142857Y-4110000D01*
X18047619Y-4062380D01*
X17333333Y-4157619D02*
X17285714Y-4110000D01*
X17190476Y-4062380D01*
X16952380Y-4062380D01*
X16857142Y-4110000D01*
X16809523Y-4157619D01*
X16761904Y-4252857D01*
X16761904Y-4348095D01*
X16809523Y-4490952D01*
X17380952Y-5062380D01*
X16761904Y-5062380D01*
X16380952Y-4157619D02*
X16333333Y-4110000D01*
X16238095Y-4062380D01*
X16000000Y-4062380D01*
X15904761Y-4110000D01*
X15857142Y-4157619D01*
X15809523Y-4252857D01*
X15809523Y-4348095D01*
X15857142Y-4490952D01*
X16428571Y-5062380D01*
X15809523Y-5062380D01*
M02*
