%TF.GenerationSoftware,KiCad,Pcbnew,(6.0.5)*%
%TF.CreationDate,2022-06-07T13:58:20-06:00*%
%TF.ProjectId,21Pin_Fanout,32315069-6e5f-4466-916e-6f75742e6b69,rev?*%
%TF.SameCoordinates,Original*%
%TF.FileFunction,Copper,L2,Bot*%
%TF.FilePolarity,Positive*%
%FSLAX46Y46*%
G04 Gerber Fmt 4.6, Leading zero omitted, Abs format (unit mm)*
G04 Created by KiCad (PCBNEW (6.0.5)) date 2022-06-07 13:58:20*
%MOMM*%
%LPD*%
G01*
G04 APERTURE LIST*
G04 Aperture macros list*
%AMRoundRect*
0 Rectangle with rounded corners*
0 $1 Rounding radius*
0 $2 $3 $4 $5 $6 $7 $8 $9 X,Y pos of 4 corners*
0 Add a 4 corners polygon primitive as box body*
4,1,4,$2,$3,$4,$5,$6,$7,$8,$9,$2,$3,0*
0 Add four circle primitives for the rounded corners*
1,1,$1+$1,$2,$3*
1,1,$1+$1,$4,$5*
1,1,$1+$1,$6,$7*
1,1,$1+$1,$8,$9*
0 Add four rect primitives between the rounded corners*
20,1,$1+$1,$2,$3,$4,$5,0*
20,1,$1+$1,$4,$5,$6,$7,0*
20,1,$1+$1,$6,$7,$8,$9,0*
20,1,$1+$1,$8,$9,$2,$3,0*%
G04 Aperture macros list end*
%TA.AperFunction,ComponentPad*%
%ADD10RoundRect,0.250000X0.350000X0.625000X-0.350000X0.625000X-0.350000X-0.625000X0.350000X-0.625000X0*%
%TD*%
%TA.AperFunction,ComponentPad*%
%ADD11O,1.200000X1.750000*%
%TD*%
%TA.AperFunction,ComponentPad*%
%ADD12O,1.500000X2.700000*%
%TD*%
%TA.AperFunction,ComponentPad*%
%ADD13O,1.500000X3.300000*%
%TD*%
%TA.AperFunction,ViaPad*%
%ADD14C,0.800000*%
%TD*%
G04 APERTURE END LIST*
D10*
%TO.P,J3,1,Pin_1*%
%TO.N,Net-(J1-Pad10)*%
X-10950000Y19250000D03*
D11*
%TO.P,J3,2,Pin_2*%
%TO.N,Net-(J1-Pad12)*%
X-12950000Y19250000D03*
%TD*%
D10*
%TO.P,J2,1,Pin_1*%
%TO.N,Net-(J1-Pad7)*%
X-2250000Y19250000D03*
D11*
%TO.P,J2,2,Pin_2*%
%TO.N,Net-(J1-Pad9)*%
X-4250000Y19250000D03*
%TD*%
D12*
%TO.P,J1,20*%
%TO.N,N/C*%
X7250000Y-3396000D03*
%TO.P,J1,21*%
X-7250000Y-3396000D03*
D13*
%TO.P,J1,22*%
X7250000Y2564000D03*
%TO.P,J1,23*%
X-7250000Y2564000D03*
%TD*%
D14*
%TO.N,GND*%
X-3500000Y5500000D03*
X4225500Y7250000D03*
X2724500Y12000000D03*
X-431834Y10568166D03*
X-2899299Y10350701D03*
%TD*%
%TA.AperFunction,Conductor*%
%TO.N,GND*%
G36*
X17433621Y23721498D02*
G01*
X17480114Y23667842D01*
X17491500Y23615500D01*
X17491500Y15384500D01*
X17471498Y15316379D01*
X17417842Y15269886D01*
X17365500Y15258500D01*
X8508623Y15258500D01*
X8507853Y15258502D01*
X8507037Y15258507D01*
X8430279Y15258976D01*
X8407918Y15252585D01*
X8401847Y15250850D01*
X8385085Y15247272D01*
X8355813Y15243080D01*
X8347645Y15239366D01*
X8347644Y15239366D01*
X8332438Y15232452D01*
X8314914Y15226004D01*
X8290229Y15218949D01*
X8282635Y15214157D01*
X8282632Y15214156D01*
X8265220Y15203170D01*
X8250137Y15195031D01*
X8223218Y15182792D01*
X8216416Y15176931D01*
X8203765Y15166030D01*
X8188761Y15154927D01*
X8167042Y15141224D01*
X8161103Y15134499D01*
X8161099Y15134496D01*
X8147468Y15119062D01*
X8135276Y15107018D01*
X8119673Y15093573D01*
X8119671Y15093570D01*
X8112873Y15087713D01*
X8107993Y15080184D01*
X8107992Y15080183D01*
X8098906Y15066165D01*
X8087615Y15051291D01*
X8076569Y15038783D01*
X8070622Y15032049D01*
X8064312Y15018609D01*
X8058058Y15005289D01*
X8049737Y14990309D01*
X8038529Y14973017D01*
X8038527Y14973012D01*
X8033648Y14965485D01*
X8031078Y14956892D01*
X8031076Y14956887D01*
X8026289Y14940880D01*
X8019628Y14923436D01*
X8012533Y14908324D01*
X8008719Y14900200D01*
X8007338Y14891333D01*
X8007338Y14891332D01*
X8004170Y14870985D01*
X8000387Y14854268D01*
X7994485Y14834534D01*
X7994484Y14834528D01*
X7991914Y14825934D01*
X7991859Y14816963D01*
X7991859Y14816962D01*
X7991704Y14791503D01*
X7991671Y14790711D01*
X7991500Y14789614D01*
X7991500Y14758623D01*
X7991498Y14757853D01*
X7991024Y14680279D01*
X7991408Y14678935D01*
X7991500Y14677590D01*
X7991500Y4705927D01*
X7971498Y4637806D01*
X7917842Y4591313D01*
X7847568Y4581209D01*
X7814855Y4590554D01*
X7658180Y4659330D01*
X7658167Y4659335D01*
X7653033Y4661588D01*
X7647582Y4662897D01*
X7647578Y4662898D01*
X7440046Y4712722D01*
X7440045Y4712722D01*
X7434589Y4714032D01*
X7350525Y4718879D01*
X7215917Y4726640D01*
X7215914Y4726640D01*
X7210310Y4726963D01*
X6987285Y4699975D01*
X6772565Y4633918D01*
X6767585Y4631348D01*
X6767581Y4631346D01*
X6577919Y4533454D01*
X6572936Y4530882D01*
X6394708Y4394123D01*
X6243515Y4227964D01*
X6124136Y4037656D01*
X6040344Y3829217D01*
X5994787Y3609233D01*
X5991500Y3552225D01*
X5991500Y1607001D01*
X5991749Y1604214D01*
X5991749Y1604208D01*
X5998009Y1534071D01*
X6006383Y1440238D01*
X6065663Y1223549D01*
X6162378Y1020782D01*
X6293471Y838346D01*
X6454799Y682008D01*
X6641262Y556710D01*
X6846967Y466412D01*
X6852418Y465103D01*
X6852422Y465102D01*
X7025503Y423549D01*
X7065411Y413968D01*
X7149475Y409121D01*
X7284083Y401360D01*
X7284086Y401360D01*
X7289690Y401037D01*
X7512715Y428025D01*
X7727435Y494082D01*
X7732415Y496652D01*
X7732419Y496654D01*
X7807710Y535515D01*
X7877417Y548984D01*
X7943341Y522629D01*
X7984550Y464816D01*
X7991500Y423549D01*
X7991500Y-1554073D01*
X7971498Y-1622194D01*
X7917842Y-1668687D01*
X7847568Y-1678791D01*
X7814855Y-1669446D01*
X7658180Y-1600670D01*
X7658167Y-1600665D01*
X7653033Y-1598412D01*
X7647582Y-1597103D01*
X7647578Y-1597102D01*
X7440046Y-1547278D01*
X7440045Y-1547278D01*
X7434589Y-1545968D01*
X7350525Y-1541121D01*
X7215917Y-1533360D01*
X7215914Y-1533360D01*
X7210310Y-1533037D01*
X6987285Y-1560025D01*
X6772565Y-1626082D01*
X6767585Y-1628652D01*
X6767581Y-1628654D01*
X6577919Y-1726546D01*
X6572936Y-1729118D01*
X6394708Y-1865877D01*
X6243515Y-2032036D01*
X6124136Y-2222344D01*
X6040344Y-2430783D01*
X5994787Y-2650767D01*
X5991500Y-2707775D01*
X5991500Y-4052999D01*
X5991749Y-4055786D01*
X5991749Y-4055792D01*
X5998009Y-4125929D01*
X6006383Y-4219762D01*
X6065663Y-4436451D01*
X6162378Y-4639218D01*
X6293471Y-4821654D01*
X6454799Y-4977992D01*
X6641262Y-5103290D01*
X6846967Y-5193588D01*
X6852418Y-5194897D01*
X6852422Y-5194898D01*
X7025503Y-5236451D01*
X7065411Y-5246032D01*
X7149475Y-5250879D01*
X7284083Y-5258640D01*
X7284086Y-5258640D01*
X7289690Y-5258963D01*
X7512715Y-5231975D01*
X7727435Y-5165918D01*
X7732415Y-5163348D01*
X7732419Y-5163346D01*
X7807710Y-5124485D01*
X7877417Y-5111016D01*
X7943341Y-5137371D01*
X7984550Y-5195184D01*
X7991500Y-5236451D01*
X7991500Y-6115500D01*
X7971498Y-6183621D01*
X7917842Y-6230114D01*
X7865500Y-6241500D01*
X-7865500Y-6241500D01*
X-7933621Y-6221498D01*
X-7980114Y-6167842D01*
X-7991500Y-6115500D01*
X-7991500Y-5237927D01*
X-7971498Y-5169806D01*
X-7917842Y-5123313D01*
X-7847568Y-5113209D01*
X-7814855Y-5122554D01*
X-7658180Y-5191330D01*
X-7658167Y-5191335D01*
X-7653033Y-5193588D01*
X-7647582Y-5194897D01*
X-7647578Y-5194898D01*
X-7474497Y-5236451D01*
X-7434589Y-5246032D01*
X-7350525Y-5250879D01*
X-7215917Y-5258640D01*
X-7215914Y-5258640D01*
X-7210310Y-5258963D01*
X-6987285Y-5231975D01*
X-6772565Y-5165918D01*
X-6767585Y-5163348D01*
X-6767581Y-5163346D01*
X-6577919Y-5065454D01*
X-6577918Y-5065454D01*
X-6572936Y-5062882D01*
X-6394708Y-4926123D01*
X-6243515Y-4759964D01*
X-6124136Y-4569656D01*
X-6040344Y-4361217D01*
X-5994787Y-4141233D01*
X-5991500Y-4084225D01*
X-5991500Y-2739001D01*
X-5994449Y-2705952D01*
X-6005884Y-2577833D01*
X-6006383Y-2572238D01*
X-6065663Y-2355549D01*
X-6162378Y-2152782D01*
X-6293471Y-1970346D01*
X-6454799Y-1814008D01*
X-6641262Y-1688710D01*
X-6846967Y-1598412D01*
X-6852418Y-1597103D01*
X-6852422Y-1597102D01*
X-7059954Y-1547278D01*
X-7059955Y-1547278D01*
X-7065411Y-1545968D01*
X-7149475Y-1541121D01*
X-7284083Y-1533360D01*
X-7284086Y-1533360D01*
X-7289690Y-1533037D01*
X-7512715Y-1560025D01*
X-7727435Y-1626082D01*
X-7732415Y-1628652D01*
X-7732419Y-1628654D01*
X-7807710Y-1667515D01*
X-7877417Y-1680984D01*
X-7943341Y-1654629D01*
X-7984550Y-1596816D01*
X-7991500Y-1555549D01*
X-7991500Y422073D01*
X-7971498Y490194D01*
X-7917842Y536687D01*
X-7847568Y546791D01*
X-7814855Y537446D01*
X-7658180Y468670D01*
X-7658167Y468665D01*
X-7653033Y466412D01*
X-7647582Y465103D01*
X-7647578Y465102D01*
X-7474497Y423549D01*
X-7434589Y413968D01*
X-7350525Y409121D01*
X-7215917Y401360D01*
X-7215914Y401360D01*
X-7210310Y401037D01*
X-6987285Y428025D01*
X-6772565Y494082D01*
X-6767585Y496652D01*
X-6767581Y496654D01*
X-6577919Y594546D01*
X-6577918Y594546D01*
X-6572936Y597118D01*
X-6394708Y733877D01*
X-6243515Y900036D01*
X-6124136Y1090344D01*
X-6040344Y1298783D01*
X-5994787Y1518767D01*
X-5991500Y1575775D01*
X-5991500Y3520999D01*
X-5994449Y3554048D01*
X-6005884Y3682167D01*
X-6006383Y3687762D01*
X-6065663Y3904451D01*
X-6162378Y4107218D01*
X-6293471Y4289654D01*
X-6454799Y4445992D01*
X-6641262Y4571290D01*
X-6846967Y4661588D01*
X-6852418Y4662897D01*
X-6852422Y4662898D01*
X-7059954Y4712722D01*
X-7059955Y4712722D01*
X-7065411Y4714032D01*
X-7149475Y4718879D01*
X-7284083Y4726640D01*
X-7284086Y4726640D01*
X-7289690Y4726963D01*
X-7512715Y4699975D01*
X-7727435Y4633918D01*
X-7732415Y4631348D01*
X-7732419Y4631346D01*
X-7807710Y4592485D01*
X-7877417Y4579016D01*
X-7943341Y4605371D01*
X-7984550Y4663184D01*
X-7991500Y4704451D01*
X-7991500Y14741377D01*
X-7991498Y14742147D01*
X-7991200Y14790898D01*
X-7991024Y14819721D01*
X-7999150Y14848153D01*
X-8002728Y14864915D01*
X-8005648Y14885302D01*
X-8006920Y14894187D01*
X-8017549Y14917564D01*
X-8023996Y14935087D01*
X-8028584Y14951138D01*
X-8031051Y14959771D01*
X-8035844Y14967368D01*
X-8046830Y14984780D01*
X-8054970Y14999865D01*
X-8057436Y15005289D01*
X-8067208Y15026782D01*
X-8083970Y15046235D01*
X-8095073Y15061239D01*
X-8108776Y15082958D01*
X-8115501Y15088897D01*
X-8115504Y15088901D01*
X-8130938Y15102532D01*
X-8142982Y15114724D01*
X-8156427Y15130327D01*
X-8156430Y15130329D01*
X-8162287Y15137127D01*
X-8175991Y15146010D01*
X-8183835Y15151094D01*
X-8198709Y15162385D01*
X-8211217Y15173431D01*
X-8211218Y15173432D01*
X-8217951Y15179378D01*
X-8244713Y15191943D01*
X-8259691Y15200263D01*
X-8276983Y15211471D01*
X-8276988Y15211473D01*
X-8284515Y15216352D01*
X-8293108Y15218922D01*
X-8293113Y15218924D01*
X-8309120Y15223711D01*
X-8326564Y15230372D01*
X-8341676Y15237467D01*
X-8341678Y15237468D01*
X-8349800Y15241281D01*
X-8358667Y15242662D01*
X-8358668Y15242662D01*
X-8369522Y15244352D01*
X-8379017Y15245830D01*
X-8395732Y15249613D01*
X-8415466Y15255515D01*
X-8415472Y15255516D01*
X-8424066Y15258086D01*
X-8433037Y15258141D01*
X-8433038Y15258141D01*
X-8443097Y15258202D01*
X-8458506Y15258296D01*
X-8459289Y15258329D01*
X-8460386Y15258500D01*
X-8491377Y15258500D01*
X-8492147Y15258502D01*
X-8565785Y15258952D01*
X-8565786Y15258952D01*
X-8569721Y15258976D01*
X-8571065Y15258592D01*
X-8572410Y15258500D01*
X-15115500Y15258500D01*
X-15183621Y15278502D01*
X-15230114Y15332158D01*
X-15241500Y15384500D01*
X-15241500Y18922154D01*
X-14058500Y18922154D01*
X-14043452Y18764434D01*
X-13983908Y18561466D01*
X-13981164Y18556139D01*
X-13981164Y18556138D01*
X-13933509Y18463611D01*
X-13887058Y18373420D01*
X-13756396Y18207080D01*
X-13751865Y18203148D01*
X-13751862Y18203145D01*
X-13665942Y18128588D01*
X-13596637Y18068448D01*
X-13591451Y18065448D01*
X-13591447Y18065445D01*
X-13495043Y18009674D01*
X-13413546Y17962527D01*
X-13213729Y17893139D01*
X-13207794Y17892278D01*
X-13207792Y17892278D01*
X-13010336Y17863648D01*
X-13010333Y17863648D01*
X-13004396Y17862787D01*
X-12793101Y17872567D01*
X-12661923Y17904181D01*
X-12593299Y17920719D01*
X-12593297Y17920720D01*
X-12587466Y17922125D01*
X-12582008Y17924607D01*
X-12582004Y17924608D01*
X-12466959Y17976916D01*
X-12394913Y18009674D01*
X-12222389Y18132054D01*
X-12218247Y18136381D01*
X-12218241Y18136386D01*
X-12131194Y18227317D01*
X-12069639Y18262694D01*
X-11998730Y18259175D01*
X-11940979Y18217879D01*
X-11933035Y18206496D01*
X-11898478Y18150652D01*
X-11773303Y18025695D01*
X-11767073Y18021855D01*
X-11767072Y18021854D01*
X-11629910Y17937306D01*
X-11622738Y17932885D01*
X-11597783Y17924608D01*
X-11461389Y17879368D01*
X-11461387Y17879368D01*
X-11454861Y17877203D01*
X-11448025Y17876503D01*
X-11448022Y17876502D01*
X-11409614Y17872567D01*
X-11350400Y17866500D01*
X-10549600Y17866500D01*
X-10546354Y17866837D01*
X-10546350Y17866837D01*
X-10450692Y17876762D01*
X-10450688Y17876763D01*
X-10443834Y17877474D01*
X-10437298Y17879655D01*
X-10437296Y17879655D01*
X-10302557Y17924608D01*
X-10276054Y17933450D01*
X-10125652Y18026522D01*
X-10000695Y18151697D01*
X-9963648Y18211798D01*
X-9911725Y18296032D01*
X-9911724Y18296034D01*
X-9907885Y18302262D01*
X-9852203Y18470139D01*
X-9841500Y18574600D01*
X-9841500Y18922154D01*
X-5358500Y18922154D01*
X-5343452Y18764434D01*
X-5283908Y18561466D01*
X-5281164Y18556139D01*
X-5281164Y18556138D01*
X-5233509Y18463611D01*
X-5187058Y18373420D01*
X-5056396Y18207080D01*
X-5051865Y18203148D01*
X-5051862Y18203145D01*
X-4965942Y18128588D01*
X-4896637Y18068448D01*
X-4891451Y18065448D01*
X-4891447Y18065445D01*
X-4795043Y18009674D01*
X-4713546Y17962527D01*
X-4513729Y17893139D01*
X-4507794Y17892278D01*
X-4507792Y17892278D01*
X-4310336Y17863648D01*
X-4310333Y17863648D01*
X-4304396Y17862787D01*
X-4093101Y17872567D01*
X-3961923Y17904181D01*
X-3893299Y17920719D01*
X-3893297Y17920720D01*
X-3887466Y17922125D01*
X-3882008Y17924607D01*
X-3882004Y17924608D01*
X-3766959Y17976916D01*
X-3694913Y18009674D01*
X-3522389Y18132054D01*
X-3518247Y18136381D01*
X-3518241Y18136386D01*
X-3431194Y18227317D01*
X-3369639Y18262694D01*
X-3298730Y18259175D01*
X-3240979Y18217879D01*
X-3233035Y18206496D01*
X-3198478Y18150652D01*
X-3073303Y18025695D01*
X-3067073Y18021855D01*
X-3067072Y18021854D01*
X-2929910Y17937306D01*
X-2922738Y17932885D01*
X-2897783Y17924608D01*
X-2761389Y17879368D01*
X-2761387Y17879368D01*
X-2754861Y17877203D01*
X-2748025Y17876503D01*
X-2748022Y17876502D01*
X-2709614Y17872567D01*
X-2650400Y17866500D01*
X-1849600Y17866500D01*
X-1846354Y17866837D01*
X-1846350Y17866837D01*
X-1750692Y17876762D01*
X-1750688Y17876763D01*
X-1743834Y17877474D01*
X-1737298Y17879655D01*
X-1737296Y17879655D01*
X-1602557Y17924608D01*
X-1576054Y17933450D01*
X-1425652Y18026522D01*
X-1300695Y18151697D01*
X-1263648Y18211798D01*
X-1211725Y18296032D01*
X-1211724Y18296034D01*
X-1207885Y18302262D01*
X-1152203Y18470139D01*
X-1141500Y18574600D01*
X-1141500Y19925400D01*
X-1152474Y20031166D01*
X-1156251Y20042489D01*
X-1206132Y20191998D01*
X-1208450Y20198946D01*
X-1301522Y20349348D01*
X-1426697Y20474305D01*
X-1529174Y20537473D01*
X-1571032Y20563275D01*
X-1571034Y20563276D01*
X-1577262Y20567115D01*
X-1737746Y20620345D01*
X-1738611Y20620632D01*
X-1738613Y20620632D01*
X-1745139Y20622797D01*
X-1751975Y20623497D01*
X-1751978Y20623498D01*
X-1795031Y20627909D01*
X-1849600Y20633500D01*
X-2650400Y20633500D01*
X-2653646Y20633163D01*
X-2653650Y20633163D01*
X-2749308Y20623238D01*
X-2749312Y20623237D01*
X-2756166Y20622526D01*
X-2762702Y20620345D01*
X-2762704Y20620345D01*
X-2885787Y20579281D01*
X-2923946Y20566550D01*
X-3074348Y20473478D01*
X-3199305Y20348303D01*
X-3203145Y20342073D01*
X-3203146Y20342072D01*
X-3231074Y20296764D01*
X-3283846Y20249271D01*
X-3353918Y20237847D01*
X-3419042Y20266121D01*
X-3437418Y20285045D01*
X-3443604Y20292920D01*
X-3448135Y20296852D01*
X-3448138Y20296855D01*
X-3598833Y20427621D01*
X-3603363Y20431552D01*
X-3608549Y20434552D01*
X-3608553Y20434555D01*
X-3781258Y20534467D01*
X-3786454Y20537473D01*
X-3986271Y20606861D01*
X-3992206Y20607722D01*
X-3992208Y20607722D01*
X-4189664Y20636352D01*
X-4189667Y20636352D01*
X-4195604Y20637213D01*
X-4406899Y20627433D01*
X-4538077Y20595819D01*
X-4606701Y20579281D01*
X-4606703Y20579280D01*
X-4612534Y20577875D01*
X-4617992Y20575393D01*
X-4617996Y20575392D01*
X-4733041Y20523084D01*
X-4805087Y20490326D01*
X-4977611Y20367946D01*
X-5123881Y20215150D01*
X-5238620Y20037452D01*
X-5317686Y19841263D01*
X-5358228Y19633663D01*
X-5358500Y19628101D01*
X-5358500Y18922154D01*
X-9841500Y18922154D01*
X-9841500Y19925400D01*
X-9852474Y20031166D01*
X-9856251Y20042489D01*
X-9906132Y20191998D01*
X-9908450Y20198946D01*
X-10001522Y20349348D01*
X-10126697Y20474305D01*
X-10229174Y20537473D01*
X-10271032Y20563275D01*
X-10271034Y20563276D01*
X-10277262Y20567115D01*
X-10437746Y20620345D01*
X-10438611Y20620632D01*
X-10438613Y20620632D01*
X-10445139Y20622797D01*
X-10451975Y20623497D01*
X-10451978Y20623498D01*
X-10495031Y20627909D01*
X-10549600Y20633500D01*
X-11350400Y20633500D01*
X-11353646Y20633163D01*
X-11353650Y20633163D01*
X-11449308Y20623238D01*
X-11449312Y20623237D01*
X-11456166Y20622526D01*
X-11462702Y20620345D01*
X-11462704Y20620345D01*
X-11585787Y20579281D01*
X-11623946Y20566550D01*
X-11774348Y20473478D01*
X-11899305Y20348303D01*
X-11903145Y20342073D01*
X-11903146Y20342072D01*
X-11931074Y20296764D01*
X-11983846Y20249271D01*
X-12053918Y20237847D01*
X-12119042Y20266121D01*
X-12137418Y20285045D01*
X-12143604Y20292920D01*
X-12148135Y20296852D01*
X-12148138Y20296855D01*
X-12298833Y20427621D01*
X-12303363Y20431552D01*
X-12308549Y20434552D01*
X-12308553Y20434555D01*
X-12481258Y20534467D01*
X-12486454Y20537473D01*
X-12686271Y20606861D01*
X-12692206Y20607722D01*
X-12692208Y20607722D01*
X-12889664Y20636352D01*
X-12889667Y20636352D01*
X-12895604Y20637213D01*
X-13106899Y20627433D01*
X-13238077Y20595819D01*
X-13306701Y20579281D01*
X-13306703Y20579280D01*
X-13312534Y20577875D01*
X-13317992Y20575393D01*
X-13317996Y20575392D01*
X-13433041Y20523084D01*
X-13505087Y20490326D01*
X-13677611Y20367946D01*
X-13823881Y20215150D01*
X-13938620Y20037452D01*
X-14017686Y19841263D01*
X-14058228Y19633663D01*
X-14058500Y19628101D01*
X-14058500Y18922154D01*
X-15241500Y18922154D01*
X-15241500Y23615500D01*
X-15221498Y23683621D01*
X-15167842Y23730114D01*
X-15115500Y23741500D01*
X17365500Y23741500D01*
X17433621Y23721498D01*
G37*
%TD.AperFunction*%
%TD*%
M02*
