%TF.GenerationSoftware,KiCad,Pcbnew,(6.0.5)*%
%TF.CreationDate,2022-06-07T13:58:21-06:00*%
%TF.ProjectId,21Pin_Fanout,32315069-6e5f-4466-916e-6f75742e6b69,rev?*%
%TF.SameCoordinates,Original*%
%TF.FileFunction,Legend,Bot*%
%TF.FilePolarity,Positive*%
%FSLAX46Y46*%
G04 Gerber Fmt 4.6, Leading zero omitted, Abs format (unit mm)*
G04 Created by KiCad (PCBNEW (6.0.5)) date 2022-06-07 13:58:21*
%MOMM*%
%LPD*%
G01*
G04 APERTURE LIST*
%ADD10C,0.125000*%
G04 APERTURE END LIST*
D10*
X6654761Y9078809D02*
X6654761Y9578809D01*
X6654761Y9340714D02*
X6369047Y9340714D01*
X6369047Y9078809D02*
X6369047Y9578809D01*
X6130952Y9078809D02*
X6130952Y9578809D01*
X6011904Y9578809D01*
X5940476Y9555000D01*
X5892857Y9507380D01*
X5869047Y9459761D01*
X5845238Y9364523D01*
X5845238Y9293095D01*
X5869047Y9197857D01*
X5892857Y9150238D01*
X5940476Y9102619D01*
X6011904Y9078809D01*
X6130952Y9078809D01*
X5630952Y9078809D02*
X5630952Y9578809D01*
X5464285Y9221666D01*
X5297619Y9578809D01*
X5297619Y9078809D01*
X5059523Y9078809D02*
X5059523Y9578809D01*
X4940476Y9031190D02*
X4559523Y9031190D01*
X4297619Y9578809D02*
X4297619Y9221666D01*
X4321428Y9150238D01*
X4369047Y9102619D01*
X4440476Y9078809D01*
X4488095Y9078809D01*
X4083333Y9102619D02*
X4011904Y9078809D01*
X3892857Y9078809D01*
X3845238Y9102619D01*
X3821428Y9126428D01*
X3797619Y9174047D01*
X3797619Y9221666D01*
X3821428Y9269285D01*
X3845238Y9293095D01*
X3892857Y9316904D01*
X3988095Y9340714D01*
X4035714Y9364523D01*
X4059523Y9388333D01*
X4083333Y9435952D01*
X4083333Y9483571D01*
X4059523Y9531190D01*
X4035714Y9555000D01*
X3988095Y9578809D01*
X3869047Y9578809D01*
X3797619Y9555000D01*
X3654761Y9578809D02*
X3369047Y9578809D01*
X3511904Y9078809D02*
X3511904Y9578809D01*
X3321428Y9031190D02*
X2940476Y9031190D01*
X2845238Y9531190D02*
X2821428Y9555000D01*
X2773809Y9578809D01*
X2654761Y9578809D01*
X2607142Y9555000D01*
X2583333Y9531190D01*
X2559523Y9483571D01*
X2559523Y9435952D01*
X2583333Y9364523D01*
X2869047Y9078809D01*
X2559523Y9078809D01*
X2083333Y9078809D02*
X2369047Y9078809D01*
X2226190Y9078809D02*
X2226190Y9578809D01*
X2273809Y9507380D01*
X2321428Y9459761D01*
X2369047Y9435952D01*
X1869047Y9078809D02*
X1869047Y9578809D01*
X1678571Y9578809D01*
X1630952Y9555000D01*
X1607142Y9531190D01*
X1583333Y9483571D01*
X1583333Y9412142D01*
X1607142Y9364523D01*
X1630952Y9340714D01*
X1678571Y9316904D01*
X1869047Y9316904D01*
X1369047Y9078809D02*
X1369047Y9412142D01*
X1369047Y9578809D02*
X1392857Y9555000D01*
X1369047Y9531190D01*
X1345238Y9555000D01*
X1369047Y9578809D01*
X1369047Y9531190D01*
X1130952Y9412142D02*
X1130952Y9078809D01*
X1130952Y9364523D02*
X1107142Y9388333D01*
X1059523Y9412142D01*
X988095Y9412142D01*
X940476Y9388333D01*
X916666Y9340714D01*
X916666Y9078809D01*
X797619Y9031190D02*
X416666Y9031190D01*
X297619Y9078809D02*
X297619Y9578809D01*
X178571Y9578809D01*
X107142Y9555000D01*
X59523Y9507380D01*
X35714Y9459761D01*
X11904Y9364523D01*
X11904Y9293095D01*
X35714Y9197857D01*
X59523Y9150238D01*
X107142Y9102619D01*
X178571Y9078809D01*
X297619Y9078809D01*
X-202380Y9078809D02*
X-202380Y9412142D01*
X-202380Y9578809D02*
X-178571Y9555000D01*
X-202380Y9531190D01*
X-226190Y9555000D01*
X-202380Y9578809D01*
X-202380Y9531190D01*
X-511904Y9078809D02*
X-464285Y9102619D01*
X-440476Y9126428D01*
X-416666Y9174047D01*
X-416666Y9316904D01*
X-440476Y9364523D01*
X-464285Y9388333D01*
X-511904Y9412142D01*
X-583333Y9412142D01*
X-630952Y9388333D01*
X-654761Y9364523D01*
X-678571Y9316904D01*
X-678571Y9174047D01*
X-654761Y9126428D01*
X-630952Y9102619D01*
X-583333Y9078809D01*
X-511904Y9078809D01*
X-1107142Y9078809D02*
X-1107142Y9578809D01*
X-1107142Y9102619D02*
X-1059523Y9078809D01*
X-964285Y9078809D01*
X-916666Y9102619D01*
X-892857Y9126428D01*
X-869047Y9174047D01*
X-869047Y9316904D01*
X-892857Y9364523D01*
X-916666Y9388333D01*
X-964285Y9412142D01*
X-1059523Y9412142D01*
X-1107142Y9388333D01*
X-1535714Y9102619D02*
X-1488095Y9078809D01*
X-1392857Y9078809D01*
X-1345238Y9102619D01*
X-1321428Y9150238D01*
X-1321428Y9340714D01*
X-1345238Y9388333D01*
X-1392857Y9412142D01*
X-1488095Y9412142D01*
X-1535714Y9388333D01*
X-1559523Y9340714D01*
X-1559523Y9293095D01*
X-1321428Y9245476D01*
X-1749999Y9102619D02*
X-1797619Y9078809D01*
X-1892857Y9078809D01*
X-1940476Y9102619D01*
X-1964285Y9150238D01*
X-1964285Y9174047D01*
X-1940476Y9221666D01*
X-1892857Y9245476D01*
X-1821428Y9245476D01*
X-1773809Y9269285D01*
X-1749999Y9316904D01*
X-1749999Y9340714D01*
X-1773809Y9388333D01*
X-1821428Y9412142D01*
X-1892857Y9412142D01*
X-1940476Y9388333D01*
X-2964285Y9078809D02*
X-2940476Y9078809D01*
X-2892857Y9102619D01*
X-2821428Y9174047D01*
X-2702380Y9316904D01*
X-2654761Y9388333D01*
X-2630952Y9459761D01*
X-2630952Y9507380D01*
X-2654761Y9555000D01*
X-2702380Y9578809D01*
X-2726190Y9578809D01*
X-2773809Y9555000D01*
X-2797619Y9507380D01*
X-2797619Y9483571D01*
X-2773809Y9435952D01*
X-2749999Y9412142D01*
X-2607142Y9316904D01*
X-2583333Y9293095D01*
X-2559523Y9245476D01*
X-2559523Y9174047D01*
X-2583333Y9126428D01*
X-2607142Y9102619D01*
X-2654761Y9078809D01*
X-2726190Y9078809D01*
X-2773809Y9102619D01*
X-2797619Y9126428D01*
X-2869047Y9221666D01*
X-2892857Y9293095D01*
X-2892857Y9340714D01*
X-3559523Y9078809D02*
X-3559523Y9578809D01*
X-3559523Y9340714D02*
X-3845238Y9340714D01*
X-3845238Y9078809D02*
X-3845238Y9578809D01*
X-4273809Y9102619D02*
X-4226190Y9078809D01*
X-4130952Y9078809D01*
X-4083333Y9102619D01*
X-4059523Y9150238D01*
X-4059523Y9340714D01*
X-4083333Y9388333D01*
X-4130952Y9412142D01*
X-4226190Y9412142D01*
X-4273809Y9388333D01*
X-4297619Y9340714D01*
X-4297619Y9293095D01*
X-4059523Y9245476D01*
X-4726190Y9078809D02*
X-4726190Y9340714D01*
X-4702380Y9388333D01*
X-4654761Y9412142D01*
X-4559523Y9412142D01*
X-4511904Y9388333D01*
X-4726190Y9102619D02*
X-4678571Y9078809D01*
X-4559523Y9078809D01*
X-4511904Y9102619D01*
X-4488095Y9150238D01*
X-4488095Y9197857D01*
X-4511904Y9245476D01*
X-4559523Y9269285D01*
X-4678571Y9269285D01*
X-4726190Y9293095D01*
X-4892857Y9412142D02*
X-5083333Y9412142D01*
X-4964285Y9578809D02*
X-4964285Y9150238D01*
X-4988095Y9102619D01*
X-5035714Y9078809D01*
X-5083333Y9078809D01*
X-5440476Y9102619D02*
X-5392857Y9078809D01*
X-5297619Y9078809D01*
X-5249999Y9102619D01*
X-5226190Y9150238D01*
X-5226190Y9340714D01*
X-5249999Y9388333D01*
X-5297619Y9412142D01*
X-5392857Y9412142D01*
X-5440476Y9388333D01*
X-5464285Y9340714D01*
X-5464285Y9293095D01*
X-5226190Y9245476D01*
X-5678571Y9078809D02*
X-5678571Y9412142D01*
X-5678571Y9316904D02*
X-5702380Y9364523D01*
X-5726190Y9388333D01*
X-5773809Y9412142D01*
X-5821428Y9412142D01*
X-5964285Y9102619D02*
X-6011904Y9078809D01*
X-6107142Y9078809D01*
X-6154761Y9102619D01*
X-6178571Y9150238D01*
X-6178571Y9174047D01*
X-6154761Y9221666D01*
X-6107142Y9245476D01*
X-6035714Y9245476D01*
X-5988095Y9269285D01*
X-5964285Y9316904D01*
X-5964285Y9340714D01*
X-5988095Y9388333D01*
X-6035714Y9412142D01*
X-6107142Y9412142D01*
X-6154761Y9388333D01*
X3202380Y8273809D02*
X3369047Y8511904D01*
X3488095Y8273809D02*
X3488095Y8773809D01*
X3297619Y8773809D01*
X3250000Y8750000D01*
X3226190Y8726190D01*
X3202380Y8678571D01*
X3202380Y8607142D01*
X3226190Y8559523D01*
X3250000Y8535714D01*
X3297619Y8511904D01*
X3488095Y8511904D01*
X3035714Y8607142D02*
X2916666Y8273809D01*
X2797619Y8607142D02*
X2916666Y8273809D01*
X2964285Y8154761D01*
X2988095Y8130952D01*
X3035714Y8107142D01*
X2392857Y8273809D02*
X2392857Y8535714D01*
X2416666Y8583333D01*
X2464285Y8607142D01*
X2559523Y8607142D01*
X2607142Y8583333D01*
X2392857Y8297619D02*
X2440476Y8273809D01*
X2559523Y8273809D01*
X2607142Y8297619D01*
X2630952Y8345238D01*
X2630952Y8392857D01*
X2607142Y8440476D01*
X2559523Y8464285D01*
X2440476Y8464285D01*
X2392857Y8488095D01*
X2154761Y8607142D02*
X2154761Y8273809D01*
X2154761Y8559523D02*
X2130952Y8583333D01*
X2083333Y8607142D01*
X2011904Y8607142D01*
X1964285Y8583333D01*
X1940476Y8535714D01*
X1940476Y8273809D01*
X1321428Y8273809D02*
X1321428Y8773809D01*
X1154761Y8416666D01*
X988095Y8773809D01*
X988095Y8273809D01*
X678571Y8273809D02*
X726190Y8297619D01*
X750000Y8321428D01*
X773809Y8369047D01*
X773809Y8511904D01*
X750000Y8559523D01*
X726190Y8583333D01*
X678571Y8607142D01*
X607142Y8607142D01*
X559523Y8583333D01*
X535714Y8559523D01*
X511904Y8511904D01*
X511904Y8369047D01*
X535714Y8321428D01*
X559523Y8297619D01*
X607142Y8273809D01*
X678571Y8273809D01*
X297619Y8273809D02*
X297619Y8607142D01*
X297619Y8511904D02*
X273809Y8559523D01*
X250000Y8583333D01*
X202380Y8607142D01*
X154761Y8607142D01*
X-226190Y8607142D02*
X-226190Y8202380D01*
X-202380Y8154761D01*
X-178571Y8130952D01*
X-130952Y8107142D01*
X-59523Y8107142D01*
X-11904Y8130952D01*
X-226190Y8297619D02*
X-178571Y8273809D01*
X-83333Y8273809D01*
X-35714Y8297619D01*
X-11904Y8321428D01*
X11904Y8369047D01*
X11904Y8511904D01*
X-11904Y8559523D01*
X-35714Y8583333D01*
X-83333Y8607142D01*
X-178571Y8607142D01*
X-226190Y8583333D01*
X-654761Y8297619D02*
X-607142Y8273809D01*
X-511904Y8273809D01*
X-464285Y8297619D01*
X-440476Y8345238D01*
X-440476Y8535714D01*
X-464285Y8583333D01*
X-511904Y8607142D01*
X-607142Y8607142D01*
X-654761Y8583333D01*
X-678571Y8535714D01*
X-678571Y8488095D01*
X-440476Y8440476D01*
X-892857Y8607142D02*
X-892857Y8273809D01*
X-892857Y8559523D02*
X-916666Y8583333D01*
X-964285Y8607142D01*
X-1035714Y8607142D01*
X-1083333Y8583333D01*
X-1107142Y8535714D01*
X-1107142Y8273809D01*
X-1321428Y8297619D02*
X-1369047Y8273809D01*
X-1464285Y8273809D01*
X-1511904Y8297619D01*
X-1535714Y8345238D01*
X-1535714Y8369047D01*
X-1511904Y8416666D01*
X-1464285Y8440476D01*
X-1392857Y8440476D01*
X-1345238Y8464285D01*
X-1321428Y8511904D01*
X-1321428Y8535714D01*
X-1345238Y8583333D01*
X-1392857Y8607142D01*
X-1464285Y8607142D01*
X-1511904Y8583333D01*
X-1678571Y8607142D02*
X-1869047Y8607142D01*
X-1749999Y8773809D02*
X-1749999Y8345238D01*
X-1773809Y8297619D01*
X-1821428Y8273809D01*
X-1869047Y8273809D01*
X-2226190Y8297619D02*
X-2178571Y8273809D01*
X-2083333Y8273809D01*
X-2035714Y8297619D01*
X-2011904Y8345238D01*
X-2011904Y8535714D01*
X-2035714Y8583333D01*
X-2083333Y8607142D01*
X-2178571Y8607142D01*
X-2226190Y8583333D01*
X-2249999Y8535714D01*
X-2249999Y8488095D01*
X-2011904Y8440476D01*
X-2464285Y8273809D02*
X-2464285Y8607142D01*
X-2464285Y8511904D02*
X-2488095Y8559523D01*
X-2511904Y8583333D01*
X-2559523Y8607142D01*
X-2607142Y8607142D01*
X-2773809Y8607142D02*
X-2773809Y8273809D01*
X-2773809Y8559523D02*
X-2797619Y8583333D01*
X-2845238Y8607142D01*
X-2916666Y8607142D01*
X-2964285Y8583333D01*
X-2988095Y8535714D01*
X-2988095Y8273809D01*
X1607142Y7968809D02*
X1702380Y7968809D01*
X1750000Y7945000D01*
X1773809Y7921190D01*
X1821428Y7849761D01*
X1845238Y7754523D01*
X1845238Y7564047D01*
X1821428Y7516428D01*
X1797619Y7492619D01*
X1750000Y7468809D01*
X1654761Y7468809D01*
X1607142Y7492619D01*
X1583333Y7516428D01*
X1559523Y7564047D01*
X1559523Y7683095D01*
X1583333Y7730714D01*
X1607142Y7754523D01*
X1654761Y7778333D01*
X1750000Y7778333D01*
X1797619Y7754523D01*
X1821428Y7730714D01*
X1845238Y7683095D01*
X988095Y7992619D02*
X1416666Y7349761D01*
X607142Y7968809D02*
X702380Y7968809D01*
X750000Y7945000D01*
X773809Y7921190D01*
X821428Y7849761D01*
X845238Y7754523D01*
X845238Y7564047D01*
X821428Y7516428D01*
X797619Y7492619D01*
X750000Y7468809D01*
X654761Y7468809D01*
X607142Y7492619D01*
X583333Y7516428D01*
X559523Y7564047D01*
X559523Y7683095D01*
X583333Y7730714D01*
X607142Y7754523D01*
X654761Y7778333D01*
X750000Y7778333D01*
X797619Y7754523D01*
X821428Y7730714D01*
X845238Y7683095D01*
X369047Y7921190D02*
X345238Y7945000D01*
X297619Y7968809D01*
X178571Y7968809D01*
X130952Y7945000D01*
X107142Y7921190D01*
X83333Y7873571D01*
X83333Y7825952D01*
X107142Y7754523D01*
X392857Y7468809D01*
X83333Y7468809D01*
X-226190Y7968809D02*
X-273809Y7968809D01*
X-321428Y7945000D01*
X-345238Y7921190D01*
X-369047Y7873571D01*
X-392857Y7778333D01*
X-392857Y7659285D01*
X-369047Y7564047D01*
X-345238Y7516428D01*
X-321428Y7492619D01*
X-273809Y7468809D01*
X-226190Y7468809D01*
X-178571Y7492619D01*
X-154761Y7516428D01*
X-130952Y7564047D01*
X-107142Y7659285D01*
X-107142Y7778333D01*
X-130952Y7873571D01*
X-154761Y7921190D01*
X-178571Y7945000D01*
X-226190Y7968809D01*
X-583333Y7921190D02*
X-607142Y7945000D01*
X-654761Y7968809D01*
X-773809Y7968809D01*
X-821428Y7945000D01*
X-845238Y7921190D01*
X-869047Y7873571D01*
X-869047Y7825952D01*
X-845238Y7754523D01*
X-559523Y7468809D01*
X-869047Y7468809D01*
X-1059523Y7921190D02*
X-1083333Y7945000D01*
X-1130952Y7968809D01*
X-1250000Y7968809D01*
X-1297619Y7945000D01*
X-1321428Y7921190D01*
X-1345238Y7873571D01*
X-1345238Y7825952D01*
X-1321428Y7754523D01*
X-1035714Y7468809D01*
X-1345238Y7468809D01*
M02*
