%TF.GenerationSoftware,KiCad,Pcbnew,(6.0.5)*%
%TF.CreationDate,2022-06-07T13:58:21-06:00*%
%TF.ProjectId,21Pin_Fanout,32315069-6e5f-4466-916e-6f75742e6b69,rev?*%
%TF.SameCoordinates,Original*%
%TF.FileFunction,Legend,Top*%
%TF.FilePolarity,Positive*%
%FSLAX46Y46*%
G04 Gerber Fmt 4.6, Leading zero omitted, Abs format (unit mm)*
G04 Created by KiCad (PCBNEW (6.0.5)) date 2022-06-07 13:58:21*
%MOMM*%
%LPD*%
G01*
G04 APERTURE LIST*
%ADD10C,0.150000*%
%ADD11C,0.120000*%
%ADD12C,0.254000*%
%ADD13C,0.200000*%
G04 APERTURE END LIST*
D10*
%TO.C,J6*%
X13316666Y17817619D02*
X13316666Y17103333D01*
X13269047Y16960476D01*
X13173809Y16865238D01*
X13030952Y16817619D01*
X12935714Y16817619D01*
X14221428Y17817619D02*
X14030952Y17817619D01*
X13935714Y17770000D01*
X13888095Y17722380D01*
X13792857Y17579523D01*
X13745238Y17389047D01*
X13745238Y17008095D01*
X13792857Y16912857D01*
X13840476Y16865238D01*
X13935714Y16817619D01*
X14126190Y16817619D01*
X14221428Y16865238D01*
X14269047Y16912857D01*
X14316666Y17008095D01*
X14316666Y17246190D01*
X14269047Y17341428D01*
X14221428Y17389047D01*
X14126190Y17436666D01*
X13935714Y17436666D01*
X13840476Y17389047D01*
X13792857Y17341428D01*
X13745238Y17246190D01*
%TO.C,J3*%
X-12283333Y17247619D02*
X-12283333Y16533333D01*
X-12330952Y16390476D01*
X-12426190Y16295238D01*
X-12569047Y16247619D01*
X-12664285Y16247619D01*
X-11902380Y17247619D02*
X-11283333Y17247619D01*
X-11616666Y16866666D01*
X-11473809Y16866666D01*
X-11378571Y16819047D01*
X-11330952Y16771428D01*
X-11283333Y16676190D01*
X-11283333Y16438095D01*
X-11330952Y16342857D01*
X-11378571Y16295238D01*
X-11473809Y16247619D01*
X-11759523Y16247619D01*
X-11854761Y16295238D01*
X-11902380Y16342857D01*
%TO.C,J2*%
X-3583333Y17247619D02*
X-3583333Y16533333D01*
X-3630952Y16390476D01*
X-3726190Y16295238D01*
X-3869047Y16247619D01*
X-3964285Y16247619D01*
X-3154761Y17152380D02*
X-3107142Y17200000D01*
X-3011904Y17247619D01*
X-2773809Y17247619D01*
X-2678571Y17200000D01*
X-2630952Y17152380D01*
X-2583333Y17057142D01*
X-2583333Y16961904D01*
X-2630952Y16819047D01*
X-3202380Y16247619D01*
X-2583333Y16247619D01*
%TO.C,J7*%
X5066666Y17817619D02*
X5066666Y17103333D01*
X5019047Y16960476D01*
X4923809Y16865238D01*
X4780952Y16817619D01*
X4685714Y16817619D01*
X5447619Y17817619D02*
X6114285Y17817619D01*
X5685714Y16817619D01*
%TO.C,J1*%
X621309Y3754619D02*
X621309Y3040333D01*
X573690Y2897476D01*
X478452Y2802238D01*
X335595Y2754619D01*
X240357Y2754619D01*
X1621309Y2754619D02*
X1049880Y2754619D01*
X1335595Y2754619D02*
X1335595Y3754619D01*
X1240357Y3611761D01*
X1145119Y3516523D01*
X1049880Y3468904D01*
D11*
%TO.C,J6*%
X16760000Y21965000D02*
X16760000Y19465000D01*
X10540000Y21965000D02*
X10540000Y19465000D01*
X15710000Y19465000D02*
X15710000Y18475000D01*
X10540000Y19465000D02*
X11590000Y19465000D01*
X16760000Y19465000D02*
X15710000Y19465000D01*
X15590000Y23935000D02*
X11710000Y23935000D01*
%TO.C,J3*%
X-13250000Y23350000D02*
X-13250000Y21750000D01*
X-9650000Y23350000D02*
X-10650000Y23350000D01*
X-12450000Y21250000D02*
X-12450000Y25610000D01*
X-10090000Y19390000D02*
X-10090000Y18175000D01*
X-9810000Y19390000D02*
X-9810000Y17790000D01*
X-14090000Y17790000D02*
X-14090000Y19390000D01*
X-10090000Y19390000D02*
X-9810000Y19390000D01*
X-14250000Y23350000D02*
X-13250000Y23350000D01*
X-14250000Y21750000D02*
X-14250000Y23350000D01*
X-10650000Y21750000D02*
X-9650000Y21750000D01*
X-15010000Y17790000D02*
X-14090000Y17790000D01*
X-8890000Y19390000D02*
X-9810000Y19390000D01*
X-15010000Y25610000D02*
X-15010000Y17790000D01*
X-9650000Y21750000D02*
X-9650000Y23350000D01*
X-11450000Y25610000D02*
X-11450000Y21250000D01*
X-10650000Y23350000D02*
X-10650000Y21750000D01*
X-8890000Y25610000D02*
X-15010000Y25610000D01*
X-10650000Y23350000D02*
X-10650000Y25610000D01*
X-15010000Y19390000D02*
X-14090000Y19390000D01*
X-9810000Y17790000D02*
X-8890000Y17790000D01*
X-11450000Y21250000D02*
X-12450000Y21250000D01*
X-8890000Y17790000D02*
X-8890000Y25610000D01*
X-10150000Y23350000D02*
X-10150000Y25610000D01*
X-14090000Y19390000D02*
X-13810000Y19390000D01*
X-13250000Y21750000D02*
X-14250000Y21750000D01*
%TO.C,J2*%
X-2750000Y21250000D02*
X-3750000Y21250000D01*
X-950000Y21750000D02*
X-950000Y23350000D01*
X-5550000Y21750000D02*
X-5550000Y23350000D01*
X-5390000Y17790000D02*
X-5390000Y19390000D01*
X-1950000Y23350000D02*
X-1950000Y21750000D01*
X-1110000Y19390000D02*
X-1110000Y17790000D01*
X-190000Y25610000D02*
X-6310000Y25610000D01*
X-6310000Y25610000D02*
X-6310000Y17790000D01*
X-1390000Y19390000D02*
X-1110000Y19390000D01*
X-1110000Y17790000D02*
X-190000Y17790000D01*
X-190000Y19390000D02*
X-1110000Y19390000D01*
X-3750000Y21250000D02*
X-3750000Y25610000D01*
X-4550000Y23350000D02*
X-4550000Y21750000D01*
X-190000Y17790000D02*
X-190000Y25610000D01*
X-1950000Y21750000D02*
X-950000Y21750000D01*
X-6310000Y19390000D02*
X-5390000Y19390000D01*
X-1950000Y23350000D02*
X-1950000Y25610000D01*
X-6310000Y17790000D02*
X-5390000Y17790000D01*
X-5390000Y19390000D02*
X-5110000Y19390000D01*
X-1450000Y23350000D02*
X-1450000Y25610000D01*
X-4550000Y21750000D02*
X-5550000Y21750000D01*
X-950000Y23350000D02*
X-1950000Y23350000D01*
X-5550000Y23350000D02*
X-4550000Y23350000D01*
X-2750000Y25610000D02*
X-2750000Y21250000D01*
X-1390000Y19390000D02*
X-1390000Y18175000D01*
%TO.C,J7*%
X2290000Y19465000D02*
X3340000Y19465000D01*
X8510000Y21965000D02*
X8510000Y19465000D01*
X2290000Y21965000D02*
X2290000Y19465000D01*
X7340000Y23935000D02*
X3460000Y23935000D01*
X7460000Y19465000D02*
X7460000Y18475000D01*
X8510000Y19465000D02*
X7460000Y19465000D01*
D12*
%TO.C,J1*%
X4000000Y-1904000D02*
X4500000Y-5404000D01*
D13*
X6145000Y2575000D02*
X6145000Y3563000D01*
X6352000Y3563000D02*
X6352000Y3556000D01*
X-6107000Y3545000D02*
X-6120000Y3545000D01*
X7500000Y-1876000D02*
X7500000Y743000D01*
X-6350000Y3557000D02*
X-6107000Y3557000D01*
X4830000Y2565000D02*
X6080000Y2565000D01*
X-3200000Y-2504000D02*
X-3800000Y-2504000D01*
X6080000Y2565000D02*
X6080000Y2575000D01*
X-7500000Y-1875000D02*
X-7500000Y743000D01*
X-6107000Y3557000D02*
X-6107000Y3545000D01*
X-6120000Y2592000D02*
X-4837000Y2592000D01*
X7500000Y-8036000D02*
X7500000Y-4917000D01*
X6145000Y3563000D02*
X6352000Y3563000D01*
X3200000Y-2504000D02*
X3800000Y-2504000D01*
D12*
X-3000000Y-1904000D02*
X-4000000Y-1904000D01*
D13*
X-6120000Y3545000D02*
X-6120000Y2592000D01*
D12*
X2500000Y-5404000D02*
X3000000Y-1904000D01*
D13*
X-7500000Y-8036000D02*
X-7500000Y-4917000D01*
X6080000Y2575000D02*
X6145000Y2575000D01*
D12*
X-2500000Y-5404000D02*
X-3000000Y-1904000D01*
D13*
X-7500000Y-8036000D02*
X7500000Y-8036000D01*
D12*
X3000000Y-1904000D02*
X4000000Y-1904000D01*
X-4000000Y-1904000D02*
X-4500000Y-5404000D01*
%TD*%
M02*
