%TF.GenerationSoftware,KiCad,Pcbnew,(6.0.5)*%
%TF.CreationDate,2022-06-07T13:58:20-06:00*%
%TF.ProjectId,21Pin_Fanout,32315069-6e5f-4466-916e-6f75742e6b69,rev?*%
%TF.SameCoordinates,Original*%
%TF.FileFunction,Copper,L1,Top*%
%TF.FilePolarity,Positive*%
%FSLAX46Y46*%
G04 Gerber Fmt 4.6, Leading zero omitted, Abs format (unit mm)*
G04 Created by KiCad (PCBNEW (6.0.5)) date 2022-06-07 13:58:20*
%MOMM*%
%LPD*%
G01*
G04 APERTURE LIST*
G04 Aperture macros list*
%AMRoundRect*
0 Rectangle with rounded corners*
0 $1 Rounding radius*
0 $2 $3 $4 $5 $6 $7 $8 $9 X,Y pos of 4 corners*
0 Add a 4 corners polygon primitive as box body*
4,1,4,$2,$3,$4,$5,$6,$7,$8,$9,$2,$3,0*
0 Add four circle primitives for the rounded corners*
1,1,$1+$1,$2,$3*
1,1,$1+$1,$4,$5*
1,1,$1+$1,$6,$7*
1,1,$1+$1,$8,$9*
0 Add four rect primitives between the rounded corners*
20,1,$1+$1,$2,$3,$4,$5,0*
20,1,$1+$1,$4,$5,$6,$7,0*
20,1,$1+$1,$6,$7,$8,$9,0*
20,1,$1+$1,$8,$9,$2,$3,0*%
G04 Aperture macros list end*
%TA.AperFunction,SMDPad,CuDef*%
%ADD10RoundRect,0.150000X0.150000X0.625000X-0.150000X0.625000X-0.150000X-0.625000X0.150000X-0.625000X0*%
%TD*%
%TA.AperFunction,SMDPad,CuDef*%
%ADD11RoundRect,0.250000X0.350000X0.650000X-0.350000X0.650000X-0.350000X-0.650000X0.350000X-0.650000X0*%
%TD*%
%TA.AperFunction,ComponentPad*%
%ADD12RoundRect,0.250000X0.350000X0.625000X-0.350000X0.625000X-0.350000X-0.625000X0.350000X-0.625000X0*%
%TD*%
%TA.AperFunction,ComponentPad*%
%ADD13O,1.200000X1.750000*%
%TD*%
%TA.AperFunction,SMDPad,CuDef*%
%ADD14O,0.250000X2.400000*%
%TD*%
%TA.AperFunction,ComponentPad*%
%ADD15O,1.500000X2.700000*%
%TD*%
%TA.AperFunction,ComponentPad*%
%ADD16O,1.500000X3.300000*%
%TD*%
%TA.AperFunction,ViaPad*%
%ADD17C,0.800000*%
%TD*%
%TA.AperFunction,Conductor*%
%ADD18C,0.250000*%
%TD*%
G04 APERTURE END LIST*
D10*
%TO.P,J6,1,Pin_1*%
%TO.N,unconnected-(J6-Pad1)*%
X15150000Y19250000D03*
%TO.P,J6,2,Pin_2*%
%TO.N,Net-(J1-Pad1)*%
X14150000Y19250000D03*
%TO.P,J6,3,Pin_3*%
%TO.N,Net-(J1-Pad3)*%
X13150000Y19250000D03*
%TO.P,J6,4,Pin_4*%
%TO.N,unconnected-(J6-Pad4)*%
X12150000Y19250000D03*
D11*
%TO.P,J6,MP*%
%TO.N,N/C*%
X16450000Y23125000D03*
X10850000Y23125000D03*
%TD*%
D12*
%TO.P,J3,1,Pin_1*%
%TO.N,Net-(J1-Pad10)*%
X-10950000Y19250000D03*
D13*
%TO.P,J3,2,Pin_2*%
%TO.N,Net-(J1-Pad12)*%
X-12950000Y19250000D03*
%TD*%
D12*
%TO.P,J2,1,Pin_1*%
%TO.N,Net-(J1-Pad7)*%
X-2250000Y19250000D03*
D13*
%TO.P,J2,2,Pin_2*%
%TO.N,Net-(J1-Pad9)*%
X-4250000Y19250000D03*
%TD*%
D10*
%TO.P,J7,1,Pin_1*%
%TO.N,unconnected-(J7-Pad1)*%
X6900000Y19250000D03*
%TO.P,J7,2,Pin_2*%
%TO.N,Net-(J1-Pad4)*%
X5900000Y19250000D03*
%TO.P,J7,3,Pin_3*%
%TO.N,Net-(J1-Pad6)*%
X4900000Y19250000D03*
%TO.P,J7,4,Pin_4*%
%TO.N,unconnected-(J7-Pad4)*%
X3900000Y19250000D03*
D11*
%TO.P,J7,MP*%
%TO.N,N/C*%
X8200000Y23125000D03*
X2600000Y23125000D03*
%TD*%
D14*
%TO.P,J1,1,D2+*%
%TO.N,Net-(J1-Pad1)*%
X4501000Y3396000D03*
%TO.P,J1,2,D2S*%
%TO.N,GND*%
X4001000Y3396000D03*
%TO.P,J1,3,D2-*%
%TO.N,Net-(J1-Pad3)*%
X3501000Y3396000D03*
%TO.P,J1,4,D1+*%
%TO.N,Net-(J1-Pad4)*%
X3001000Y3396000D03*
%TO.P,J1,5,D1S*%
%TO.N,GND*%
X2500000Y3396000D03*
%TO.P,J1,6,D1-*%
%TO.N,Net-(J1-Pad6)*%
X2000000Y3396000D03*
%TO.P,J1,7,D0+*%
%TO.N,Net-(J1-Pad7)*%
X1500000Y3396000D03*
%TO.P,J1,8,D0S*%
%TO.N,GND*%
X1000000Y3396000D03*
%TO.P,J1,9,D0-*%
%TO.N,Net-(J1-Pad9)*%
X500000Y3396000D03*
%TO.P,J1,10,CK+*%
%TO.N,Net-(J1-Pad10)*%
X0Y3396000D03*
%TO.P,J1,11,CKS*%
%TO.N,GND*%
X-500000Y3396000D03*
%TO.P,J1,12,CK-*%
%TO.N,Net-(J1-Pad12)*%
X-1000000Y3396000D03*
%TO.P,J1,13,CEC*%
%TO.N,unconnected-(J1-Pad13)*%
X-1500000Y3396000D03*
%TO.P,J1,14,UTILITY*%
%TO.N,unconnected-(J1-Pad14)*%
X-2000000Y3396000D03*
%TO.P,J1,15,SCL*%
%TO.N,unconnected-(J1-Pad15)*%
X-2500000Y3396000D03*
%TO.P,J1,16,SDA*%
%TO.N,unconnected-(J1-Pad16)*%
X-3001000Y3396000D03*
%TO.P,J1,17,GND*%
%TO.N,GND*%
X-3501000Y3396000D03*
%TO.P,J1,18,+5V*%
%TO.N,unconnected-(J1-Pad18)*%
X-4001000Y3396000D03*
%TO.P,J1,19,HPD*%
%TO.N,unconnected-(J1-Pad19)*%
X-4501000Y3396000D03*
D15*
%TO.P,J1,20*%
%TO.N,N/C*%
X7250000Y-3396000D03*
%TO.P,J1,21*%
X-7250000Y-3396000D03*
D16*
%TO.P,J1,22*%
X7250000Y2564000D03*
%TO.P,J1,23*%
X-7250000Y2564000D03*
%TD*%
D17*
%TO.N,GND*%
X-3500000Y5500000D03*
X4225500Y7250000D03*
X2724500Y12000000D03*
X-431834Y10568166D03*
X-2899299Y10350701D03*
%TD*%
D18*
%TO.N,GND*%
X-3501000Y5499000D02*
X-3500000Y5500000D01*
X-3501000Y3396000D02*
X-3501000Y5499000D01*
%TO.N,Net-(J1-Pad1)*%
X5000000Y6750000D02*
X5000000Y11500000D01*
X5500000Y12000000D02*
X11050480Y17550480D01*
X5000000Y11500000D02*
X5500000Y12000000D01*
X4501000Y6251000D02*
X5000000Y6750000D01*
X4501000Y3396000D02*
X4501000Y6251000D01*
%TO.N,GND*%
X4001000Y7025500D02*
X4225500Y7250000D01*
X4001000Y3396000D02*
X4001000Y7025500D01*
%TO.N,Net-(J1-Pad3)*%
X3898531Y11513700D02*
X3898531Y16166741D01*
X3898531Y16166741D02*
X4240895Y16509105D01*
X3501000Y3396000D02*
X3501000Y11116168D01*
X3501000Y11116168D02*
X3898531Y11513700D01*
X4240895Y16509105D02*
X5731790Y18000000D01*
%TO.N,Net-(J1-Pad4)*%
X5900000Y18803928D02*
X5900000Y19250000D01*
X3449011Y11699897D02*
X3449011Y12300989D01*
X3449011Y12300989D02*
X3000000Y12750000D01*
X3000000Y15903928D02*
X5900000Y18803928D01*
X3001000Y11251886D02*
X3449011Y11699897D01*
X3000000Y12750000D02*
X3000000Y15903928D01*
X3001000Y3396000D02*
X3001000Y11251886D01*
%TO.N,GND*%
X2500000Y11775500D02*
X2724500Y12000000D01*
X2500000Y3396000D02*
X2500000Y11775500D01*
%TO.N,Net-(J1-Pad6)*%
X2000000Y15903928D02*
X4900000Y18803928D01*
X2000000Y3396000D02*
X2000000Y15903928D01*
X4900000Y18803928D02*
X4900000Y19250000D01*
%TO.N,Net-(J1-Pad7)*%
X-2500000Y19000000D02*
X-2250000Y19250000D01*
X-2500000Y13750000D02*
X-2500000Y19000000D01*
X1500000Y9750000D02*
X-2500000Y13750000D01*
X1500000Y3396000D02*
X1500000Y9750000D01*
%TO.N,GND*%
X1000000Y9136332D02*
X-431834Y10568166D01*
X1000000Y3396000D02*
X1000000Y9136332D01*
%TO.N,Net-(J1-Pad9)*%
X-4250000Y13361733D02*
X-4250000Y14000000D01*
X500000Y8611733D02*
X-4250000Y13361733D01*
X500000Y3396000D02*
X500000Y8611733D01*
X-4250000Y14000000D02*
X-4250000Y19250000D01*
%TO.N,Net-(J1-Pad10)*%
X-3674788Y11075212D02*
X-10950000Y18350424D01*
X-2599196Y11075212D02*
X-3674788Y11075212D01*
X0Y8476016D02*
X-2599196Y11075212D01*
X0Y3396000D02*
X0Y8476016D01*
X-10950000Y18350424D02*
X-10950000Y19250000D01*
%TO.N,GND*%
X-500000Y7951402D02*
X-2899299Y10350701D01*
X-500000Y3396000D02*
X-500000Y7951402D01*
%TO.N,Net-(J1-Pad12)*%
X-1000000Y7426804D02*
X-12823196Y19250000D01*
X-1000000Y3396000D02*
X-1000000Y7426804D01*
X-12823196Y19250000D02*
X-12950000Y19250000D01*
%TO.N,Net-(J1-Pad1)*%
X13325960Y17550480D02*
X14150000Y18374520D01*
X11050480Y17550480D02*
X13325960Y17550480D01*
X14150000Y18374520D02*
X14150000Y19250000D01*
%TO.N,Net-(J1-Pad3)*%
X13000000Y18000000D02*
X13000000Y19100000D01*
X13000000Y19100000D02*
X13150000Y19250000D01*
X5731790Y18000000D02*
X13000000Y18000000D01*
%TD*%
%TA.AperFunction,Conductor*%
%TO.N,GND*%
G36*
X7909532Y13409462D02*
G01*
X7966368Y13366915D01*
X7991179Y13300395D01*
X7991500Y13291406D01*
X7991500Y4705927D01*
X7971498Y4637806D01*
X7917842Y4591313D01*
X7847568Y4581209D01*
X7814855Y4590554D01*
X7658180Y4659330D01*
X7658167Y4659335D01*
X7653033Y4661588D01*
X7647582Y4662897D01*
X7647578Y4662898D01*
X7440046Y4712722D01*
X7440045Y4712722D01*
X7434589Y4714032D01*
X7350525Y4718879D01*
X7215917Y4726640D01*
X7215914Y4726640D01*
X7210310Y4726963D01*
X6987285Y4699975D01*
X6772565Y4633918D01*
X6767585Y4631348D01*
X6767581Y4631346D01*
X6626850Y4558709D01*
X6572936Y4530882D01*
X6394708Y4394123D01*
X6243515Y4227964D01*
X6124136Y4037656D01*
X6040344Y3829217D01*
X5994787Y3609233D01*
X5991500Y3552225D01*
X5991500Y1607001D01*
X5991749Y1604214D01*
X5991749Y1604208D01*
X5998009Y1534071D01*
X6006383Y1440238D01*
X6065663Y1223549D01*
X6162378Y1020782D01*
X6293471Y838346D01*
X6454799Y682008D01*
X6641262Y556710D01*
X6846967Y466412D01*
X6852418Y465103D01*
X6852422Y465102D01*
X7025503Y423549D01*
X7065411Y413968D01*
X7149475Y409121D01*
X7284083Y401360D01*
X7284086Y401360D01*
X7289690Y401037D01*
X7512715Y428025D01*
X7727435Y494082D01*
X7732415Y496652D01*
X7732419Y496654D01*
X7807710Y535515D01*
X7877417Y548984D01*
X7943341Y522629D01*
X7984550Y464816D01*
X7991500Y423549D01*
X7991500Y-1554073D01*
X7971498Y-1622194D01*
X7917842Y-1668687D01*
X7847568Y-1678791D01*
X7814855Y-1669446D01*
X7658180Y-1600670D01*
X7658167Y-1600665D01*
X7653033Y-1598412D01*
X7647582Y-1597103D01*
X7647578Y-1597102D01*
X7440046Y-1547278D01*
X7440045Y-1547278D01*
X7434589Y-1545968D01*
X7350525Y-1541121D01*
X7215917Y-1533360D01*
X7215914Y-1533360D01*
X7210310Y-1533037D01*
X6987285Y-1560025D01*
X6772565Y-1626082D01*
X6767585Y-1628652D01*
X6767581Y-1628654D01*
X6577919Y-1726546D01*
X6572936Y-1729118D01*
X6394708Y-1865877D01*
X6243515Y-2032036D01*
X6124136Y-2222344D01*
X6040344Y-2430783D01*
X5994787Y-2650767D01*
X5991500Y-2707775D01*
X5991500Y-4052999D01*
X5991749Y-4055786D01*
X5991749Y-4055792D01*
X5998009Y-4125929D01*
X6006383Y-4219762D01*
X6065663Y-4436451D01*
X6162378Y-4639218D01*
X6293471Y-4821654D01*
X6454799Y-4977992D01*
X6641262Y-5103290D01*
X6846967Y-5193588D01*
X6852418Y-5194897D01*
X6852422Y-5194898D01*
X7025503Y-5236451D01*
X7065411Y-5246032D01*
X7149475Y-5250879D01*
X7284083Y-5258640D01*
X7284086Y-5258640D01*
X7289690Y-5258963D01*
X7512715Y-5231975D01*
X7727435Y-5165918D01*
X7732415Y-5163348D01*
X7732419Y-5163346D01*
X7807710Y-5124485D01*
X7877417Y-5111016D01*
X7943341Y-5137371D01*
X7984550Y-5195184D01*
X7991500Y-5236451D01*
X7991500Y-6115500D01*
X7971498Y-6183621D01*
X7917842Y-6230114D01*
X7865500Y-6241500D01*
X-7865500Y-6241500D01*
X-7933621Y-6221498D01*
X-7980114Y-6167842D01*
X-7991500Y-6115500D01*
X-7991500Y-5237927D01*
X-7971498Y-5169806D01*
X-7917842Y-5123313D01*
X-7847568Y-5113209D01*
X-7814855Y-5122554D01*
X-7658180Y-5191330D01*
X-7658167Y-5191335D01*
X-7653033Y-5193588D01*
X-7647582Y-5194897D01*
X-7647578Y-5194898D01*
X-7474497Y-5236451D01*
X-7434589Y-5246032D01*
X-7350525Y-5250879D01*
X-7215917Y-5258640D01*
X-7215914Y-5258640D01*
X-7210310Y-5258963D01*
X-6987285Y-5231975D01*
X-6772565Y-5165918D01*
X-6767585Y-5163348D01*
X-6767581Y-5163346D01*
X-6577919Y-5065454D01*
X-6577918Y-5065454D01*
X-6572936Y-5062882D01*
X-6394708Y-4926123D01*
X-6243515Y-4759964D01*
X-6124136Y-4569656D01*
X-6040344Y-4361217D01*
X-5994787Y-4141233D01*
X-5991500Y-4084225D01*
X-5991500Y-2739001D01*
X-5994449Y-2705952D01*
X-6005884Y-2577833D01*
X-6006383Y-2572238D01*
X-6065663Y-2355549D01*
X-6162378Y-2152782D01*
X-6293471Y-1970346D01*
X-6454799Y-1814008D01*
X-6641262Y-1688710D01*
X-6846967Y-1598412D01*
X-6852418Y-1597103D01*
X-6852422Y-1597102D01*
X-7059954Y-1547278D01*
X-7059955Y-1547278D01*
X-7065411Y-1545968D01*
X-7149475Y-1541121D01*
X-7284083Y-1533360D01*
X-7284086Y-1533360D01*
X-7289690Y-1533037D01*
X-7512715Y-1560025D01*
X-7727435Y-1626082D01*
X-7732415Y-1628652D01*
X-7732419Y-1628654D01*
X-7807710Y-1667515D01*
X-7877417Y-1680984D01*
X-7943341Y-1654629D01*
X-7984550Y-1596816D01*
X-7991500Y-1555549D01*
X-7991500Y422073D01*
X-7971498Y490194D01*
X-7917842Y536687D01*
X-7847568Y546791D01*
X-7814855Y537446D01*
X-7658180Y468670D01*
X-7658167Y468665D01*
X-7653033Y466412D01*
X-7647582Y465103D01*
X-7647578Y465102D01*
X-7474497Y423549D01*
X-7434589Y413968D01*
X-7350525Y409121D01*
X-7215917Y401360D01*
X-7215914Y401360D01*
X-7210310Y401037D01*
X-6987285Y428025D01*
X-6772565Y494082D01*
X-6767585Y496652D01*
X-6767581Y496654D01*
X-6577919Y594546D01*
X-6577918Y594546D01*
X-6572936Y597118D01*
X-6394708Y733877D01*
X-6243515Y900036D01*
X-6124136Y1090344D01*
X-6040344Y1298783D01*
X-5994787Y1518767D01*
X-5991500Y1575775D01*
X-5991500Y3520999D01*
X-5994449Y3554048D01*
X-6005884Y3682167D01*
X-6006383Y3687762D01*
X-6065663Y3904451D01*
X-6162378Y4107218D01*
X-6293471Y4289654D01*
X-6454799Y4445992D01*
X-6641262Y4571290D01*
X-6846967Y4661588D01*
X-6852418Y4662897D01*
X-6852422Y4662898D01*
X-7059954Y4712722D01*
X-7059955Y4712722D01*
X-7065411Y4714032D01*
X-7149475Y4718879D01*
X-7284083Y4726640D01*
X-7284086Y4726640D01*
X-7289690Y4726963D01*
X-7512715Y4699975D01*
X-7727435Y4633918D01*
X-7732415Y4631348D01*
X-7732419Y4631346D01*
X-7807710Y4592485D01*
X-7877417Y4579016D01*
X-7943341Y4605371D01*
X-7984550Y4663184D01*
X-7991500Y4704451D01*
X-7991500Y13218210D01*
X-7971498Y13286331D01*
X-7917842Y13332824D01*
X-7847568Y13342928D01*
X-7782988Y13313434D01*
X-7776405Y13307305D01*
X-1670405Y7201305D01*
X-1636379Y7138993D01*
X-1633500Y7112210D01*
X-1633500Y5195692D01*
X-1653502Y5127571D01*
X-1707158Y5081078D01*
X-1777432Y5070974D01*
X-1796644Y5075442D01*
X-1802682Y5078283D01*
X-1810470Y5079769D01*
X-1810471Y5079769D01*
X-1952121Y5106790D01*
X-1952122Y5106790D01*
X-1959906Y5108275D01*
X-2048400Y5102708D01*
X-2111738Y5098723D01*
X-2111740Y5098723D01*
X-2119650Y5098225D01*
X-2127186Y5095776D01*
X-2127188Y5095776D01*
X-2128711Y5095281D01*
X-2200291Y5072023D01*
X-2205545Y5070316D01*
X-2276512Y5068288D01*
X-2288184Y5072528D01*
X-2295512Y5074909D01*
X-2302682Y5078283D01*
X-2310465Y5079768D01*
X-2310466Y5079768D01*
X-2452121Y5106790D01*
X-2452122Y5106790D01*
X-2459906Y5108275D01*
X-2548400Y5102708D01*
X-2611738Y5098723D01*
X-2611740Y5098723D01*
X-2619650Y5098225D01*
X-2627186Y5095776D01*
X-2627188Y5095776D01*
X-2706137Y5070124D01*
X-2777105Y5068097D01*
X-2790313Y5072895D01*
X-2796511Y5074908D01*
X-2803682Y5078283D01*
X-2935305Y5103391D01*
X-2953121Y5106790D01*
X-2953122Y5106790D01*
X-2960906Y5108275D01*
X-3049400Y5102708D01*
X-3112738Y5098723D01*
X-3112740Y5098723D01*
X-3120650Y5098225D01*
X-3207241Y5070090D01*
X-3278206Y5068062D01*
X-3289110Y5072023D01*
X-3289124Y5071979D01*
X-3311622Y5079289D01*
X-3453152Y5106287D01*
X-3468849Y5107274D01*
X-3612643Y5098228D01*
X-3628093Y5095281D01*
X-3705884Y5070005D01*
X-3776852Y5067978D01*
X-3791038Y5073130D01*
X-3796508Y5074907D01*
X-3803682Y5078283D01*
X-3935305Y5103391D01*
X-3953121Y5106790D01*
X-3953122Y5106790D01*
X-3960906Y5108275D01*
X-4049400Y5102708D01*
X-4112738Y5098723D01*
X-4112740Y5098723D01*
X-4120650Y5098225D01*
X-4128186Y5095776D01*
X-4128188Y5095776D01*
X-4129711Y5095281D01*
X-4201291Y5072023D01*
X-4206545Y5070316D01*
X-4277512Y5068288D01*
X-4289184Y5072528D01*
X-4296512Y5074909D01*
X-4303682Y5078283D01*
X-4311465Y5079768D01*
X-4311466Y5079768D01*
X-4453121Y5106790D01*
X-4453122Y5106790D01*
X-4460906Y5108275D01*
X-4549400Y5102708D01*
X-4612738Y5098723D01*
X-4612740Y5098723D01*
X-4620650Y5098225D01*
X-4628186Y5095776D01*
X-4628188Y5095776D01*
X-4765333Y5051215D01*
X-4765336Y5051214D01*
X-4772875Y5048764D01*
X-4908018Y4963000D01*
X-5017586Y4846321D01*
X-5094695Y4706060D01*
X-5134500Y4551030D01*
X-5134500Y2281144D01*
X-5119474Y2162203D01*
X-5060552Y2013383D01*
X-4966472Y1883893D01*
X-4843144Y1781867D01*
X-4835977Y1778494D01*
X-4835973Y1778492D01*
X-4773879Y1749274D01*
X-4698318Y1713717D01*
X-4593778Y1693775D01*
X-4551515Y1685713D01*
X-4541094Y1683725D01*
X-4452600Y1689292D01*
X-4389262Y1693277D01*
X-4389260Y1693277D01*
X-4381350Y1693775D01*
X-4373814Y1696224D01*
X-4373812Y1696224D01*
X-4305248Y1718502D01*
X-4295455Y1721684D01*
X-4224488Y1723712D01*
X-4212816Y1719472D01*
X-4205488Y1717091D01*
X-4198318Y1713717D01*
X-4190535Y1712232D01*
X-4190534Y1712232D01*
X-4048879Y1685210D01*
X-4041094Y1683725D01*
X-3952600Y1689292D01*
X-3889262Y1693277D01*
X-3889260Y1693277D01*
X-3881350Y1693775D01*
X-3794759Y1721910D01*
X-3723794Y1723938D01*
X-3712890Y1719977D01*
X-3712876Y1720021D01*
X-3690378Y1712711D01*
X-3548848Y1685713D01*
X-3533151Y1684726D01*
X-3389357Y1693772D01*
X-3373907Y1696719D01*
X-3296116Y1721995D01*
X-3225148Y1724022D01*
X-3210962Y1718870D01*
X-3205492Y1717093D01*
X-3198318Y1713717D01*
X-3093778Y1693775D01*
X-3051515Y1685713D01*
X-3041094Y1683725D01*
X-2952600Y1689292D01*
X-2889262Y1693277D01*
X-2889260Y1693277D01*
X-2881350Y1693775D01*
X-2873814Y1696224D01*
X-2873812Y1696224D01*
X-2794863Y1721876D01*
X-2723895Y1723903D01*
X-2710687Y1719105D01*
X-2704489Y1717092D01*
X-2697318Y1713717D01*
X-2592778Y1693775D01*
X-2550515Y1685713D01*
X-2540094Y1683725D01*
X-2451600Y1689292D01*
X-2388262Y1693277D01*
X-2388260Y1693277D01*
X-2380350Y1693775D01*
X-2372814Y1696224D01*
X-2372812Y1696224D01*
X-2304248Y1718502D01*
X-2294455Y1721684D01*
X-2223488Y1723712D01*
X-2211816Y1719472D01*
X-2204488Y1717091D01*
X-2197318Y1713717D01*
X-2189535Y1712232D01*
X-2189534Y1712232D01*
X-2047879Y1685210D01*
X-2040094Y1683725D01*
X-1951600Y1689292D01*
X-1888262Y1693277D01*
X-1888260Y1693277D01*
X-1880350Y1693775D01*
X-1872814Y1696224D01*
X-1872812Y1696224D01*
X-1804248Y1718502D01*
X-1794455Y1721684D01*
X-1723488Y1723712D01*
X-1711816Y1719472D01*
X-1704488Y1717091D01*
X-1697318Y1713717D01*
X-1689535Y1712232D01*
X-1689534Y1712232D01*
X-1547879Y1685210D01*
X-1540094Y1683725D01*
X-1451600Y1689292D01*
X-1388262Y1693277D01*
X-1388260Y1693277D01*
X-1380350Y1693775D01*
X-1372814Y1696224D01*
X-1372812Y1696224D01*
X-1304248Y1718502D01*
X-1294455Y1721684D01*
X-1223488Y1723712D01*
X-1211816Y1719472D01*
X-1204488Y1717091D01*
X-1197318Y1713717D01*
X-1189535Y1712232D01*
X-1189534Y1712232D01*
X-1047879Y1685210D01*
X-1040094Y1683725D01*
X-951600Y1689292D01*
X-888262Y1693277D01*
X-888260Y1693277D01*
X-880350Y1693775D01*
X-793759Y1721910D01*
X-722794Y1723938D01*
X-711890Y1719977D01*
X-711876Y1720021D01*
X-689378Y1712711D01*
X-547848Y1685713D01*
X-532151Y1684726D01*
X-388357Y1693772D01*
X-372907Y1696719D01*
X-295116Y1721995D01*
X-224148Y1724022D01*
X-209962Y1718870D01*
X-204492Y1717093D01*
X-197318Y1713717D01*
X-92778Y1693775D01*
X-50515Y1685713D01*
X-40094Y1683725D01*
X48400Y1689292D01*
X111738Y1693277D01*
X111740Y1693277D01*
X119650Y1693775D01*
X127186Y1696224D01*
X127188Y1696224D01*
X195752Y1718502D01*
X205545Y1721684D01*
X276512Y1723712D01*
X288184Y1719472D01*
X295512Y1717091D01*
X302682Y1713717D01*
X310465Y1712232D01*
X310466Y1712232D01*
X452121Y1685210D01*
X459906Y1683725D01*
X548400Y1689292D01*
X611738Y1693277D01*
X611740Y1693277D01*
X619650Y1693775D01*
X706241Y1721910D01*
X777206Y1723938D01*
X788110Y1719977D01*
X788124Y1720021D01*
X810622Y1712711D01*
X952152Y1685713D01*
X967849Y1684726D01*
X1111643Y1693772D01*
X1127093Y1696719D01*
X1204884Y1721995D01*
X1275852Y1724022D01*
X1290038Y1718870D01*
X1295508Y1717093D01*
X1302682Y1713717D01*
X1407222Y1693775D01*
X1449485Y1685713D01*
X1459906Y1683725D01*
X1548400Y1689292D01*
X1611738Y1693277D01*
X1611740Y1693277D01*
X1619650Y1693775D01*
X1627186Y1696224D01*
X1627188Y1696224D01*
X1695752Y1718502D01*
X1705545Y1721684D01*
X1776512Y1723712D01*
X1788184Y1719472D01*
X1795512Y1717091D01*
X1802682Y1713717D01*
X1810465Y1712232D01*
X1810466Y1712232D01*
X1952121Y1685210D01*
X1959906Y1683725D01*
X2048400Y1689292D01*
X2111738Y1693277D01*
X2111740Y1693277D01*
X2119650Y1693775D01*
X2206241Y1721910D01*
X2277206Y1723938D01*
X2288110Y1719977D01*
X2288124Y1720021D01*
X2310622Y1712711D01*
X2452152Y1685713D01*
X2467849Y1684726D01*
X2611643Y1693772D01*
X2627093Y1696719D01*
X2705476Y1722187D01*
X2776444Y1724214D01*
X2792172Y1718502D01*
X2796506Y1717094D01*
X2803682Y1713717D01*
X2908222Y1693775D01*
X2950485Y1685713D01*
X2960906Y1683725D01*
X3049400Y1689292D01*
X3112738Y1693277D01*
X3112740Y1693277D01*
X3120650Y1693775D01*
X3128186Y1696224D01*
X3128188Y1696224D01*
X3196752Y1718502D01*
X3206545Y1721684D01*
X3277512Y1723712D01*
X3289184Y1719472D01*
X3296512Y1717091D01*
X3303682Y1713717D01*
X3311465Y1712232D01*
X3311466Y1712232D01*
X3453121Y1685210D01*
X3460906Y1683725D01*
X3549400Y1689292D01*
X3612738Y1693277D01*
X3612740Y1693277D01*
X3620650Y1693775D01*
X3707241Y1721910D01*
X3778206Y1723938D01*
X3789110Y1719977D01*
X3789124Y1720021D01*
X3811622Y1712711D01*
X3953152Y1685713D01*
X3968849Y1684726D01*
X4112643Y1693772D01*
X4128093Y1696719D01*
X4205884Y1721995D01*
X4276852Y1724022D01*
X4291038Y1718870D01*
X4296508Y1717093D01*
X4303682Y1713717D01*
X4408222Y1693775D01*
X4450485Y1685713D01*
X4460906Y1683725D01*
X4549400Y1689292D01*
X4612738Y1693277D01*
X4612740Y1693277D01*
X4620650Y1693775D01*
X4628186Y1696224D01*
X4628188Y1696224D01*
X4765333Y1740785D01*
X4765336Y1740786D01*
X4772875Y1743236D01*
X4908018Y1829000D01*
X5017586Y1945679D01*
X5094695Y2085940D01*
X5134500Y2240970D01*
X5134500Y5936406D01*
X5154502Y6004527D01*
X5171405Y6025501D01*
X5392247Y6246343D01*
X5400537Y6253887D01*
X5407018Y6258000D01*
X5453659Y6307668D01*
X5456413Y6310509D01*
X5476135Y6330231D01*
X5478612Y6333424D01*
X5486317Y6342445D01*
X5511159Y6368900D01*
X5516586Y6374679D01*
X5520407Y6381629D01*
X5526346Y6392432D01*
X5537202Y6408959D01*
X5544757Y6418698D01*
X5544758Y6418700D01*
X5549614Y6424960D01*
X5567174Y6465540D01*
X5572391Y6476188D01*
X5589875Y6507991D01*
X5589876Y6507993D01*
X5593695Y6514940D01*
X5598733Y6534563D01*
X5605137Y6553266D01*
X5610033Y6564580D01*
X5610033Y6564581D01*
X5613181Y6571855D01*
X5614420Y6579678D01*
X5614423Y6579688D01*
X5620099Y6615524D01*
X5622505Y6627144D01*
X5631528Y6662289D01*
X5631528Y6662290D01*
X5633500Y6669970D01*
X5633500Y6690224D01*
X5635051Y6709935D01*
X5636980Y6722114D01*
X5638220Y6729943D01*
X5634059Y6773962D01*
X5633500Y6785819D01*
X5633500Y11185405D01*
X5653502Y11253526D01*
X5670405Y11274501D01*
X5976135Y11580230D01*
X5976148Y11580244D01*
X7776405Y13380501D01*
X7838717Y13414527D01*
X7909532Y13409462D01*
G37*
%TD.AperFunction*%
%TD*%
M02*
