%TF.GenerationSoftware,KiCad,Pcbnew,(6.0.6)*%
%TF.CreationDate,2022-06-22T16:16:20-06:00*%
%TF.ProjectId,21Pin_Fanout_Diodes,32315069-6e5f-4466-916e-6f75745f4469,rev?*%
%TF.SameCoordinates,Original*%
%TF.FileFunction,Legend,Top*%
%TF.FilePolarity,Positive*%
%FSLAX46Y46*%
G04 Gerber Fmt 4.6, Leading zero omitted, Abs format (unit mm)*
G04 Created by KiCad (PCBNEW (6.0.6)) date 2022-06-22 16:16:20*
%MOMM*%
%LPD*%
G01*
G04 APERTURE LIST*
%ADD10C,0.150000*%
%ADD11C,0.120000*%
%ADD12C,0.254000*%
%ADD13C,0.200000*%
G04 APERTURE END LIST*
D10*
%TO.C,J9*%
X-12083333Y16317619D02*
X-12083333Y15603333D01*
X-12130952Y15460476D01*
X-12226190Y15365238D01*
X-12369047Y15317619D01*
X-12464285Y15317619D01*
X-11559523Y15317619D02*
X-11369047Y15317619D01*
X-11273809Y15365238D01*
X-11226190Y15412857D01*
X-11130952Y15555714D01*
X-11083333Y15746190D01*
X-11083333Y16127142D01*
X-11130952Y16222380D01*
X-11178571Y16270000D01*
X-11273809Y16317619D01*
X-11464285Y16317619D01*
X-11559523Y16270000D01*
X-11607142Y16222380D01*
X-11654761Y16127142D01*
X-11654761Y15889047D01*
X-11607142Y15793809D01*
X-11559523Y15746190D01*
X-11464285Y15698571D01*
X-11273809Y15698571D01*
X-11178571Y15746190D01*
X-11130952Y15793809D01*
X-11083333Y15889047D01*
%TO.C,J8*%
X-3733333Y16317619D02*
X-3733333Y15603333D01*
X-3780952Y15460476D01*
X-3876190Y15365238D01*
X-4019047Y15317619D01*
X-4114285Y15317619D01*
X-3114285Y15889047D02*
X-3209523Y15936666D01*
X-3257142Y15984285D01*
X-3304761Y16079523D01*
X-3304761Y16127142D01*
X-3257142Y16222380D01*
X-3209523Y16270000D01*
X-3114285Y16317619D01*
X-2923809Y16317619D01*
X-2828571Y16270000D01*
X-2780952Y16222380D01*
X-2733333Y16127142D01*
X-2733333Y16079523D01*
X-2780952Y15984285D01*
X-2828571Y15936666D01*
X-2923809Y15889047D01*
X-3114285Y15889047D01*
X-3209523Y15841428D01*
X-3257142Y15793809D01*
X-3304761Y15698571D01*
X-3304761Y15508095D01*
X-3257142Y15412857D01*
X-3209523Y15365238D01*
X-3114285Y15317619D01*
X-2923809Y15317619D01*
X-2828571Y15365238D01*
X-2780952Y15412857D01*
X-2733333Y15508095D01*
X-2733333Y15698571D01*
X-2780952Y15793809D01*
X-2828571Y15841428D01*
X-2923809Y15889047D01*
%TO.C,J7*%
X4766666Y16317619D02*
X4766666Y15603333D01*
X4719047Y15460476D01*
X4623809Y15365238D01*
X4480952Y15317619D01*
X4385714Y15317619D01*
X5147619Y16317619D02*
X5814285Y16317619D01*
X5385714Y15317619D01*
%TO.C,J1*%
X621309Y3754619D02*
X621309Y3040333D01*
X573690Y2897476D01*
X478452Y2802238D01*
X335595Y2754619D01*
X240357Y2754619D01*
X1621309Y2754619D02*
X1049880Y2754619D01*
X1335595Y2754619D02*
X1335595Y3754619D01*
X1240357Y3611761D01*
X1145119Y3516523D01*
X1049880Y3468904D01*
%TO.C,J6*%
X13166666Y16317619D02*
X13166666Y15603333D01*
X13119047Y15460476D01*
X13023809Y15365238D01*
X12880952Y15317619D01*
X12785714Y15317619D01*
X14071428Y16317619D02*
X13880952Y16317619D01*
X13785714Y16270000D01*
X13738095Y16222380D01*
X13642857Y16079523D01*
X13595238Y15889047D01*
X13595238Y15508095D01*
X13642857Y15412857D01*
X13690476Y15365238D01*
X13785714Y15317619D01*
X13976190Y15317619D01*
X14071428Y15365238D01*
X14119047Y15412857D01*
X14166666Y15508095D01*
X14166666Y15746190D01*
X14119047Y15841428D01*
X14071428Y15889047D01*
X13976190Y15936666D01*
X13785714Y15936666D01*
X13690476Y15889047D01*
X13642857Y15841428D01*
X13595238Y15746190D01*
D11*
%TO.C,J9*%
X-8640000Y20465000D02*
X-8640000Y17965000D01*
X-8640000Y17965000D02*
X-9690000Y17965000D01*
X-9690000Y17965000D02*
X-9690000Y16975000D01*
X-9810000Y22435000D02*
X-13690000Y22435000D01*
X-14860000Y20465000D02*
X-14860000Y17965000D01*
X-14860000Y17965000D02*
X-13810000Y17965000D01*
%TO.C,J8*%
X-6510000Y20465000D02*
X-6510000Y17965000D01*
X-290000Y20465000D02*
X-290000Y17965000D01*
X-1340000Y17965000D02*
X-1340000Y16975000D01*
X-290000Y17965000D02*
X-1340000Y17965000D01*
X-6510000Y17965000D02*
X-5460000Y17965000D01*
X-1460000Y22435000D02*
X-5340000Y22435000D01*
%TO.C,J7*%
X7040000Y22435000D02*
X3160000Y22435000D01*
X8210000Y20465000D02*
X8210000Y17965000D01*
X1990000Y20465000D02*
X1990000Y17965000D01*
X7160000Y17965000D02*
X7160000Y16975000D01*
X1990000Y17965000D02*
X3040000Y17965000D01*
X8210000Y17965000D02*
X7160000Y17965000D01*
D12*
%TO.C,J1*%
X4000000Y-1904000D02*
X4500000Y-5404000D01*
D13*
X6145000Y2575000D02*
X6145000Y3563000D01*
X6352000Y3563000D02*
X6352000Y3556000D01*
X-6107000Y3545000D02*
X-6120000Y3545000D01*
X7500000Y-1876000D02*
X7500000Y743000D01*
X-6350000Y3557000D02*
X-6107000Y3557000D01*
X4830000Y2565000D02*
X6080000Y2565000D01*
X-3200000Y-2504000D02*
X-3800000Y-2504000D01*
X6080000Y2565000D02*
X6080000Y2575000D01*
X-7500000Y-1875000D02*
X-7500000Y743000D01*
X-6107000Y3557000D02*
X-6107000Y3545000D01*
X-6120000Y2592000D02*
X-4837000Y2592000D01*
X7500000Y-8036000D02*
X7500000Y-4917000D01*
X6145000Y3563000D02*
X6352000Y3563000D01*
X3200000Y-2504000D02*
X3800000Y-2504000D01*
D12*
X-3000000Y-1904000D02*
X-4000000Y-1904000D01*
D13*
X-6120000Y3545000D02*
X-6120000Y2592000D01*
D12*
X2500000Y-5404000D02*
X3000000Y-1904000D01*
D13*
X-7500000Y-8036000D02*
X-7500000Y-4917000D01*
X6080000Y2575000D02*
X6145000Y2575000D01*
D12*
X-2500000Y-5404000D02*
X-3000000Y-1904000D01*
D13*
X-7500000Y-8036000D02*
X7500000Y-8036000D01*
D12*
X3000000Y-1904000D02*
X4000000Y-1904000D01*
X-4000000Y-1904000D02*
X-4500000Y-5404000D01*
D11*
%TO.C,J6*%
X10390000Y20465000D02*
X10390000Y17965000D01*
X15560000Y17965000D02*
X15560000Y16975000D01*
X16610000Y17965000D02*
X15560000Y17965000D01*
X10390000Y17965000D02*
X11440000Y17965000D01*
X15440000Y22435000D02*
X11560000Y22435000D01*
X16610000Y20465000D02*
X16610000Y17965000D01*
%TD*%
M02*
