%TF.GenerationSoftware,KiCad,Pcbnew,(6.0.5)*%
%TF.CreationDate,2022-06-07T13:54:38-06:00*%
%TF.ProjectId,21Pin_Fanout,32315069-6e5f-4466-916e-6f75742e6b69,rev?*%
%TF.SameCoordinates,Original*%
%TF.FileFunction,Copper,L2,Bot*%
%TF.FilePolarity,Positive*%
%FSLAX46Y46*%
G04 Gerber Fmt 4.6, Leading zero omitted, Abs format (unit mm)*
G04 Created by KiCad (PCBNEW (6.0.5)) date 2022-06-07 13:54:39*
%MOMM*%
%LPD*%
G01*
G04 APERTURE LIST*
%TA.AperFunction,ComponentPad*%
%ADD10O,1.500000X3.300000*%
%TD*%
%TA.AperFunction,ComponentPad*%
%ADD11O,1.500000X2.700000*%
%TD*%
%TA.AperFunction,ViaPad*%
%ADD12C,0.800000*%
%TD*%
G04 APERTURE END LIST*
D10*
%TO.P,J1,23*%
%TO.N,N/C*%
X-7250000Y2564000D03*
%TO.P,J1,22*%
X7250000Y2564000D03*
D11*
%TO.P,J1,21*%
X-7250000Y-3396000D03*
%TO.P,J1,20*%
X7250000Y-3396000D03*
%TD*%
D12*
%TO.N,GND*%
X4225500Y7000000D03*
X2724500Y12250000D03*
X-1770236Y13479764D03*
X-1487701Y10512299D03*
X-4000000Y5500000D03*
%TD*%
%TA.AperFunction,Conductor*%
%TO.N,GND*%
G36*
X17183621Y22221498D02*
G01*
X17230114Y22167842D01*
X17241500Y22115500D01*
X17241500Y15384500D01*
X17221498Y15316379D01*
X17167842Y15269886D01*
X17115500Y15258500D01*
X8508623Y15258500D01*
X8507853Y15258502D01*
X8507037Y15258507D01*
X8430279Y15258976D01*
X8407918Y15252585D01*
X8401847Y15250850D01*
X8385085Y15247272D01*
X8355813Y15243080D01*
X8347645Y15239366D01*
X8347644Y15239366D01*
X8332438Y15232452D01*
X8314914Y15226004D01*
X8290229Y15218949D01*
X8282635Y15214157D01*
X8282632Y15214156D01*
X8265220Y15203170D01*
X8250137Y15195031D01*
X8223218Y15182792D01*
X8216416Y15176931D01*
X8203765Y15166030D01*
X8188761Y15154927D01*
X8167042Y15141224D01*
X8161103Y15134499D01*
X8161099Y15134496D01*
X8147468Y15119062D01*
X8135276Y15107018D01*
X8119673Y15093573D01*
X8119671Y15093570D01*
X8112873Y15087713D01*
X8107993Y15080184D01*
X8107992Y15080183D01*
X8098906Y15066165D01*
X8087615Y15051291D01*
X8076569Y15038783D01*
X8070622Y15032049D01*
X8064312Y15018609D01*
X8058058Y15005289D01*
X8049737Y14990309D01*
X8038529Y14973017D01*
X8038527Y14973012D01*
X8033648Y14965485D01*
X8031078Y14956892D01*
X8031076Y14956887D01*
X8026289Y14940880D01*
X8019628Y14923436D01*
X8012533Y14908324D01*
X8008719Y14900200D01*
X8007338Y14891333D01*
X8007338Y14891332D01*
X8004170Y14870985D01*
X8000387Y14854268D01*
X7994485Y14834534D01*
X7994484Y14834528D01*
X7991914Y14825934D01*
X7991859Y14816963D01*
X7991859Y14816962D01*
X7991704Y14791503D01*
X7991671Y14790711D01*
X7991500Y14789614D01*
X7991500Y14758623D01*
X7991498Y14757853D01*
X7991024Y14680279D01*
X7991408Y14678935D01*
X7991500Y14677590D01*
X7991500Y4705927D01*
X7971498Y4637806D01*
X7917842Y4591313D01*
X7847568Y4581209D01*
X7814855Y4590554D01*
X7658180Y4659330D01*
X7658167Y4659335D01*
X7653033Y4661588D01*
X7647582Y4662897D01*
X7647578Y4662898D01*
X7440046Y4712722D01*
X7440045Y4712722D01*
X7434589Y4714032D01*
X7350525Y4718879D01*
X7215917Y4726640D01*
X7215914Y4726640D01*
X7210310Y4726963D01*
X6987285Y4699975D01*
X6772565Y4633918D01*
X6767585Y4631348D01*
X6767581Y4631346D01*
X6577919Y4533454D01*
X6572936Y4530882D01*
X6394708Y4394123D01*
X6243515Y4227964D01*
X6124136Y4037656D01*
X6040344Y3829217D01*
X5994787Y3609233D01*
X5991500Y3552225D01*
X5991500Y1607001D01*
X5991749Y1604214D01*
X5991749Y1604208D01*
X5998009Y1534071D01*
X6006383Y1440238D01*
X6065663Y1223549D01*
X6162378Y1020782D01*
X6293471Y838346D01*
X6454799Y682008D01*
X6641262Y556710D01*
X6846967Y466412D01*
X6852418Y465103D01*
X6852422Y465102D01*
X7025503Y423549D01*
X7065411Y413968D01*
X7149475Y409121D01*
X7284083Y401360D01*
X7284086Y401360D01*
X7289690Y401037D01*
X7512715Y428025D01*
X7727435Y494082D01*
X7732415Y496652D01*
X7732419Y496654D01*
X7807710Y535515D01*
X7877417Y548984D01*
X7943341Y522629D01*
X7984550Y464816D01*
X7991500Y423549D01*
X7991500Y-1554073D01*
X7971498Y-1622194D01*
X7917842Y-1668687D01*
X7847568Y-1678791D01*
X7814855Y-1669446D01*
X7658180Y-1600670D01*
X7658167Y-1600665D01*
X7653033Y-1598412D01*
X7647582Y-1597103D01*
X7647578Y-1597102D01*
X7440046Y-1547278D01*
X7440045Y-1547278D01*
X7434589Y-1545968D01*
X7350525Y-1541121D01*
X7215917Y-1533360D01*
X7215914Y-1533360D01*
X7210310Y-1533037D01*
X6987285Y-1560025D01*
X6772565Y-1626082D01*
X6767585Y-1628652D01*
X6767581Y-1628654D01*
X6577919Y-1726546D01*
X6572936Y-1729118D01*
X6394708Y-1865877D01*
X6243515Y-2032036D01*
X6124136Y-2222344D01*
X6040344Y-2430783D01*
X5994787Y-2650767D01*
X5991500Y-2707775D01*
X5991500Y-4052999D01*
X5991749Y-4055786D01*
X5991749Y-4055792D01*
X5998009Y-4125929D01*
X6006383Y-4219762D01*
X6065663Y-4436451D01*
X6162378Y-4639218D01*
X6293471Y-4821654D01*
X6454799Y-4977992D01*
X6641262Y-5103290D01*
X6846967Y-5193588D01*
X6852418Y-5194897D01*
X6852422Y-5194898D01*
X7025503Y-5236451D01*
X7065411Y-5246032D01*
X7149475Y-5250879D01*
X7284083Y-5258640D01*
X7284086Y-5258640D01*
X7289690Y-5258963D01*
X7512715Y-5231975D01*
X7727435Y-5165918D01*
X7732415Y-5163348D01*
X7732419Y-5163346D01*
X7807710Y-5124485D01*
X7877417Y-5111016D01*
X7943341Y-5137371D01*
X7984550Y-5195184D01*
X7991500Y-5236451D01*
X7991500Y-6115500D01*
X7971498Y-6183621D01*
X7917842Y-6230114D01*
X7865500Y-6241500D01*
X-7865500Y-6241500D01*
X-7933621Y-6221498D01*
X-7980114Y-6167842D01*
X-7991500Y-6115500D01*
X-7991500Y-5237927D01*
X-7971498Y-5169806D01*
X-7917842Y-5123313D01*
X-7847568Y-5113209D01*
X-7814855Y-5122554D01*
X-7658180Y-5191330D01*
X-7658167Y-5191335D01*
X-7653033Y-5193588D01*
X-7647582Y-5194897D01*
X-7647578Y-5194898D01*
X-7474497Y-5236451D01*
X-7434589Y-5246032D01*
X-7350525Y-5250879D01*
X-7215917Y-5258640D01*
X-7215914Y-5258640D01*
X-7210310Y-5258963D01*
X-6987285Y-5231975D01*
X-6772565Y-5165918D01*
X-6767585Y-5163348D01*
X-6767581Y-5163346D01*
X-6577919Y-5065454D01*
X-6577918Y-5065454D01*
X-6572936Y-5062882D01*
X-6394708Y-4926123D01*
X-6243515Y-4759964D01*
X-6124136Y-4569656D01*
X-6040344Y-4361217D01*
X-5994787Y-4141233D01*
X-5991500Y-4084225D01*
X-5991500Y-2739001D01*
X-5994449Y-2705952D01*
X-6005884Y-2577833D01*
X-6006383Y-2572238D01*
X-6065663Y-2355549D01*
X-6162378Y-2152782D01*
X-6293471Y-1970346D01*
X-6454799Y-1814008D01*
X-6641262Y-1688710D01*
X-6846967Y-1598412D01*
X-6852418Y-1597103D01*
X-6852422Y-1597102D01*
X-7059954Y-1547278D01*
X-7059955Y-1547278D01*
X-7065411Y-1545968D01*
X-7149475Y-1541121D01*
X-7284083Y-1533360D01*
X-7284086Y-1533360D01*
X-7289690Y-1533037D01*
X-7512715Y-1560025D01*
X-7727435Y-1626082D01*
X-7732415Y-1628652D01*
X-7732419Y-1628654D01*
X-7807710Y-1667515D01*
X-7877417Y-1680984D01*
X-7943341Y-1654629D01*
X-7984550Y-1596816D01*
X-7991500Y-1555549D01*
X-7991500Y422073D01*
X-7971498Y490194D01*
X-7917842Y536687D01*
X-7847568Y546791D01*
X-7814855Y537446D01*
X-7658180Y468670D01*
X-7658167Y468665D01*
X-7653033Y466412D01*
X-7647582Y465103D01*
X-7647578Y465102D01*
X-7474497Y423549D01*
X-7434589Y413968D01*
X-7350525Y409121D01*
X-7215917Y401360D01*
X-7215914Y401360D01*
X-7210310Y401037D01*
X-6987285Y428025D01*
X-6772565Y494082D01*
X-6767585Y496652D01*
X-6767581Y496654D01*
X-6577919Y594546D01*
X-6577918Y594546D01*
X-6572936Y597118D01*
X-6394708Y733877D01*
X-6243515Y900036D01*
X-6124136Y1090344D01*
X-6040344Y1298783D01*
X-5994787Y1518767D01*
X-5991500Y1575775D01*
X-5991500Y3520999D01*
X-5994449Y3554048D01*
X-6005884Y3682167D01*
X-6006383Y3687762D01*
X-6065663Y3904451D01*
X-6162378Y4107218D01*
X-6293471Y4289654D01*
X-6454799Y4445992D01*
X-6641262Y4571290D01*
X-6846967Y4661588D01*
X-6852418Y4662897D01*
X-6852422Y4662898D01*
X-7059954Y4712722D01*
X-7059955Y4712722D01*
X-7065411Y4714032D01*
X-7149475Y4718879D01*
X-7284083Y4726640D01*
X-7284086Y4726640D01*
X-7289690Y4726963D01*
X-7512715Y4699975D01*
X-7727435Y4633918D01*
X-7732415Y4631348D01*
X-7732419Y4631346D01*
X-7807710Y4592485D01*
X-7877417Y4579016D01*
X-7943341Y4605371D01*
X-7984550Y4663184D01*
X-7991500Y4704451D01*
X-7991500Y14741377D01*
X-7991498Y14742147D01*
X-7991200Y14790898D01*
X-7991024Y14819721D01*
X-7999150Y14848153D01*
X-8002728Y14864915D01*
X-8005648Y14885302D01*
X-8006920Y14894187D01*
X-8017549Y14917564D01*
X-8023996Y14935087D01*
X-8028584Y14951138D01*
X-8031051Y14959771D01*
X-8035844Y14967368D01*
X-8046830Y14984780D01*
X-8054970Y14999865D01*
X-8057436Y15005289D01*
X-8067208Y15026782D01*
X-8083970Y15046235D01*
X-8095073Y15061239D01*
X-8108776Y15082958D01*
X-8115501Y15088897D01*
X-8115504Y15088901D01*
X-8130938Y15102532D01*
X-8142982Y15114724D01*
X-8156427Y15130327D01*
X-8156430Y15130329D01*
X-8162287Y15137127D01*
X-8175991Y15146010D01*
X-8183835Y15151094D01*
X-8198709Y15162385D01*
X-8211217Y15173431D01*
X-8211218Y15173432D01*
X-8217951Y15179378D01*
X-8244713Y15191943D01*
X-8259691Y15200263D01*
X-8276983Y15211471D01*
X-8276988Y15211473D01*
X-8284515Y15216352D01*
X-8293108Y15218922D01*
X-8293113Y15218924D01*
X-8309120Y15223711D01*
X-8326564Y15230372D01*
X-8341676Y15237467D01*
X-8341678Y15237468D01*
X-8349800Y15241281D01*
X-8358667Y15242662D01*
X-8358668Y15242662D01*
X-8369522Y15244352D01*
X-8379017Y15245830D01*
X-8395732Y15249613D01*
X-8415466Y15255515D01*
X-8415472Y15255516D01*
X-8424066Y15258086D01*
X-8433037Y15258141D01*
X-8433038Y15258141D01*
X-8443097Y15258202D01*
X-8458506Y15258296D01*
X-8459289Y15258329D01*
X-8460386Y15258500D01*
X-8491377Y15258500D01*
X-8492147Y15258502D01*
X-8565785Y15258952D01*
X-8565786Y15258952D01*
X-8569721Y15258976D01*
X-8571065Y15258592D01*
X-8572410Y15258500D01*
X-15365500Y15258500D01*
X-15433621Y15278502D01*
X-15480114Y15332158D01*
X-15491500Y15384500D01*
X-15491500Y22115500D01*
X-15471498Y22183621D01*
X-15417842Y22230114D01*
X-15365500Y22241500D01*
X17115500Y22241500D01*
X17183621Y22221498D01*
G37*
%TD.AperFunction*%
%TD*%
M02*
