%TF.GenerationSoftware,KiCad,Pcbnew,(6.0.5)*%
%TF.CreationDate,2022-06-07T12:40:07-06:00*%
%TF.ProjectId,21Pin_Fanout,32315069-6e5f-4466-916e-6f75742e6b69,rev?*%
%TF.SameCoordinates,Original*%
%TF.FileFunction,Legend,Bot*%
%TF.FilePolarity,Positive*%
%FSLAX46Y46*%
G04 Gerber Fmt 4.6, Leading zero omitted, Abs format (unit mm)*
G04 Created by KiCad (PCBNEW (6.0.5)) date 2022-06-07 12:40:07*
%MOMM*%
%LPD*%
G01*
G04 APERTURE LIST*
%ADD10C,0.150000*%
G04 APERTURE END LIST*
D10*
X6696428Y8868214D02*
X6696428Y9618214D01*
X6696428Y9261071D02*
X6267857Y9261071D01*
X6267857Y8868214D02*
X6267857Y9618214D01*
X5910714Y8868214D02*
X5910714Y9618214D01*
X5732142Y9618214D01*
X5625000Y9582500D01*
X5553571Y9511071D01*
X5517857Y9439642D01*
X5482142Y9296785D01*
X5482142Y9189642D01*
X5517857Y9046785D01*
X5553571Y8975357D01*
X5625000Y8903928D01*
X5732142Y8868214D01*
X5910714Y8868214D01*
X5160714Y8868214D02*
X5160714Y9618214D01*
X4910714Y9082500D01*
X4660714Y9618214D01*
X4660714Y8868214D01*
X4303571Y8868214D02*
X4303571Y9618214D01*
X4125000Y8796785D02*
X3553571Y8796785D01*
X3160714Y9618214D02*
X3160714Y9082500D01*
X3196428Y8975357D01*
X3267857Y8903928D01*
X3375000Y8868214D01*
X3446428Y8868214D01*
X2839285Y8903928D02*
X2732142Y8868214D01*
X2553571Y8868214D01*
X2482142Y8903928D01*
X2446428Y8939642D01*
X2410714Y9011071D01*
X2410714Y9082500D01*
X2446428Y9153928D01*
X2482142Y9189642D01*
X2553571Y9225357D01*
X2696428Y9261071D01*
X2767857Y9296785D01*
X2803571Y9332500D01*
X2839285Y9403928D01*
X2839285Y9475357D01*
X2803571Y9546785D01*
X2767857Y9582500D01*
X2696428Y9618214D01*
X2517857Y9618214D01*
X2410714Y9582500D01*
X2196428Y9618214D02*
X1767857Y9618214D01*
X1982142Y8868214D02*
X1982142Y9618214D01*
X1696428Y8796785D02*
X1125000Y8796785D01*
X982142Y9546785D02*
X946428Y9582500D01*
X875000Y9618214D01*
X696428Y9618214D01*
X625000Y9582500D01*
X589285Y9546785D01*
X553571Y9475357D01*
X553571Y9403928D01*
X589285Y9296785D01*
X1017857Y8868214D01*
X553571Y8868214D01*
X-160714Y8868214D02*
X267857Y8868214D01*
X53571Y8868214D02*
X53571Y9618214D01*
X125000Y9511071D01*
X196428Y9439642D01*
X267857Y9403928D01*
X-482142Y8868214D02*
X-482142Y9618214D01*
X-767857Y9618214D01*
X-839285Y9582500D01*
X-874999Y9546785D01*
X-910714Y9475357D01*
X-910714Y9368214D01*
X-874999Y9296785D01*
X-839285Y9261071D01*
X-767857Y9225357D01*
X-482142Y9225357D01*
X-1232142Y8868214D02*
X-1232142Y9368214D01*
X-1232142Y9618214D02*
X-1196428Y9582500D01*
X-1232142Y9546785D01*
X-1267857Y9582500D01*
X-1232142Y9618214D01*
X-1232142Y9546785D01*
X-1589285Y9368214D02*
X-1589285Y8868214D01*
X-1589285Y9296785D02*
X-1624999Y9332500D01*
X-1696428Y9368214D01*
X-1803571Y9368214D01*
X-1874999Y9332500D01*
X-1910714Y9261071D01*
X-1910714Y8868214D01*
X-2089285Y8796785D02*
X-2660714Y8796785D01*
X-2839285Y8868214D02*
X-2839285Y9618214D01*
X-3017857Y9618214D01*
X-3124999Y9582500D01*
X-3196428Y9511071D01*
X-3232142Y9439642D01*
X-3267857Y9296785D01*
X-3267857Y9189642D01*
X-3232142Y9046785D01*
X-3196428Y8975357D01*
X-3124999Y8903928D01*
X-3017857Y8868214D01*
X-2839285Y8868214D01*
X-3589285Y8868214D02*
X-3589285Y9368214D01*
X-3589285Y9618214D02*
X-3553571Y9582500D01*
X-3589285Y9546785D01*
X-3624999Y9582500D01*
X-3589285Y9618214D01*
X-3589285Y9546785D01*
X-4053571Y8868214D02*
X-3982142Y8903928D01*
X-3946428Y8939642D01*
X-3910714Y9011071D01*
X-3910714Y9225357D01*
X-3946428Y9296785D01*
X-3982142Y9332500D01*
X-4053571Y9368214D01*
X-4160714Y9368214D01*
X-4232142Y9332500D01*
X-4267857Y9296785D01*
X-4303571Y9225357D01*
X-4303571Y9011071D01*
X-4267857Y8939642D01*
X-4232142Y8903928D01*
X-4160714Y8868214D01*
X-4053571Y8868214D01*
X-4946428Y8868214D02*
X-4946428Y9618214D01*
X-4946428Y8903928D02*
X-4874999Y8868214D01*
X-4732142Y8868214D01*
X-4660714Y8903928D01*
X-4624999Y8939642D01*
X-4589285Y9011071D01*
X-4589285Y9225357D01*
X-4624999Y9296785D01*
X-4660714Y9332500D01*
X-4732142Y9368214D01*
X-4874999Y9368214D01*
X-4946428Y9332500D01*
X-5589285Y8903928D02*
X-5517857Y8868214D01*
X-5374999Y8868214D01*
X-5303571Y8903928D01*
X-5267857Y8975357D01*
X-5267857Y9261071D01*
X-5303571Y9332500D01*
X-5374999Y9368214D01*
X-5517857Y9368214D01*
X-5589285Y9332500D01*
X-5624999Y9261071D01*
X-5624999Y9189642D01*
X-5267857Y9118214D01*
X-5910714Y8903928D02*
X-5982142Y8868214D01*
X-6124999Y8868214D01*
X-6196428Y8903928D01*
X-6232142Y8975357D01*
X-6232142Y9011071D01*
X-6196428Y9082500D01*
X-6124999Y9118214D01*
X-6017857Y9118214D01*
X-5946428Y9153928D01*
X-5910714Y9225357D01*
X-5910714Y9261071D01*
X-5946428Y9332500D01*
X-6017857Y9368214D01*
X-6124999Y9368214D01*
X-6196428Y9332500D01*
X4678571Y7660714D02*
X4928571Y8017857D01*
X5107142Y7660714D02*
X5107142Y8410714D01*
X4821428Y8410714D01*
X4750000Y8375000D01*
X4714285Y8339285D01*
X4678571Y8267857D01*
X4678571Y8160714D01*
X4714285Y8089285D01*
X4750000Y8053571D01*
X4821428Y8017857D01*
X5107142Y8017857D01*
X4428571Y8160714D02*
X4250000Y7660714D01*
X4071428Y8160714D02*
X4250000Y7660714D01*
X4321428Y7482142D01*
X4357142Y7446428D01*
X4428571Y7410714D01*
X3464285Y7660714D02*
X3464285Y8053571D01*
X3500000Y8125000D01*
X3571428Y8160714D01*
X3714285Y8160714D01*
X3785714Y8125000D01*
X3464285Y7696428D02*
X3535714Y7660714D01*
X3714285Y7660714D01*
X3785714Y7696428D01*
X3821428Y7767857D01*
X3821428Y7839285D01*
X3785714Y7910714D01*
X3714285Y7946428D01*
X3535714Y7946428D01*
X3464285Y7982142D01*
X3107142Y8160714D02*
X3107142Y7660714D01*
X3107142Y8089285D02*
X3071428Y8125000D01*
X3000000Y8160714D01*
X2892857Y8160714D01*
X2821428Y8125000D01*
X2785714Y8053571D01*
X2785714Y7660714D01*
X1857142Y7660714D02*
X1857142Y8410714D01*
X1607142Y7875000D01*
X1357142Y8410714D01*
X1357142Y7660714D01*
X892857Y7660714D02*
X964285Y7696428D01*
X1000000Y7732142D01*
X1035714Y7803571D01*
X1035714Y8017857D01*
X1000000Y8089285D01*
X964285Y8125000D01*
X892857Y8160714D01*
X785714Y8160714D01*
X714285Y8125000D01*
X678571Y8089285D01*
X642857Y8017857D01*
X642857Y7803571D01*
X678571Y7732142D01*
X714285Y7696428D01*
X785714Y7660714D01*
X892857Y7660714D01*
X321428Y7660714D02*
X321428Y8160714D01*
X321428Y8017857D02*
X285714Y8089285D01*
X250000Y8125000D01*
X178571Y8160714D01*
X107142Y8160714D01*
X-464285Y8160714D02*
X-464285Y7553571D01*
X-428571Y7482142D01*
X-392857Y7446428D01*
X-321428Y7410714D01*
X-214285Y7410714D01*
X-142857Y7446428D01*
X-464285Y7696428D02*
X-392857Y7660714D01*
X-249999Y7660714D01*
X-178571Y7696428D01*
X-142857Y7732142D01*
X-107142Y7803571D01*
X-107142Y8017857D01*
X-142857Y8089285D01*
X-178571Y8125000D01*
X-249999Y8160714D01*
X-392857Y8160714D01*
X-464285Y8125000D01*
X-1107142Y7696428D02*
X-1035714Y7660714D01*
X-892857Y7660714D01*
X-821428Y7696428D01*
X-785714Y7767857D01*
X-785714Y8053571D01*
X-821428Y8125000D01*
X-892857Y8160714D01*
X-1035714Y8160714D01*
X-1107142Y8125000D01*
X-1142857Y8053571D01*
X-1142857Y7982142D01*
X-785714Y7910714D01*
X-1464285Y8160714D02*
X-1464285Y7660714D01*
X-1464285Y8089285D02*
X-1499999Y8125000D01*
X-1571428Y8160714D01*
X-1678571Y8160714D01*
X-1749999Y8125000D01*
X-1785714Y8053571D01*
X-1785714Y7660714D01*
X-2107142Y7696428D02*
X-2178571Y7660714D01*
X-2321428Y7660714D01*
X-2392857Y7696428D01*
X-2428571Y7767857D01*
X-2428571Y7803571D01*
X-2392857Y7875000D01*
X-2321428Y7910714D01*
X-2214285Y7910714D01*
X-2142857Y7946428D01*
X-2107142Y8017857D01*
X-2107142Y8053571D01*
X-2142857Y8125000D01*
X-2214285Y8160714D01*
X-2321428Y8160714D01*
X-2392857Y8125000D01*
X-2642857Y8160714D02*
X-2928571Y8160714D01*
X-2749999Y8410714D02*
X-2749999Y7767857D01*
X-2785714Y7696428D01*
X-2857142Y7660714D01*
X-2928571Y7660714D01*
X-3464285Y7696428D02*
X-3392857Y7660714D01*
X-3249999Y7660714D01*
X-3178571Y7696428D01*
X-3142857Y7767857D01*
X-3142857Y8053571D01*
X-3178571Y8125000D01*
X-3249999Y8160714D01*
X-3392857Y8160714D01*
X-3464285Y8125000D01*
X-3499999Y8053571D01*
X-3499999Y7982142D01*
X-3142857Y7910714D01*
X-3821428Y7660714D02*
X-3821428Y8160714D01*
X-3821428Y8017857D02*
X-3857142Y8089285D01*
X-3892857Y8125000D01*
X-3964285Y8160714D01*
X-4035714Y8160714D01*
X-4285714Y8160714D02*
X-4285714Y7660714D01*
X-4285714Y8089285D02*
X-4321428Y8125000D01*
X-4392857Y8160714D01*
X-4499999Y8160714D01*
X-4571428Y8125000D01*
X-4607142Y8053571D01*
X-4607142Y7660714D01*
X2285714Y7203214D02*
X2428571Y7203214D01*
X2500000Y7167500D01*
X2535714Y7131785D01*
X2607142Y7024642D01*
X2642857Y6881785D01*
X2642857Y6596071D01*
X2607142Y6524642D01*
X2571428Y6488928D01*
X2500000Y6453214D01*
X2357142Y6453214D01*
X2285714Y6488928D01*
X2250000Y6524642D01*
X2214285Y6596071D01*
X2214285Y6774642D01*
X2250000Y6846071D01*
X2285714Y6881785D01*
X2357142Y6917500D01*
X2500000Y6917500D01*
X2571428Y6881785D01*
X2607142Y6846071D01*
X2642857Y6774642D01*
X1357142Y7238928D02*
X1999999Y6274642D01*
X785714Y7203214D02*
X928571Y7203214D01*
X1000000Y7167500D01*
X1035714Y7131785D01*
X1107142Y7024642D01*
X1142857Y6881785D01*
X1142857Y6596071D01*
X1107142Y6524642D01*
X1071428Y6488928D01*
X1000000Y6453214D01*
X857142Y6453214D01*
X785714Y6488928D01*
X750000Y6524642D01*
X714285Y6596071D01*
X714285Y6774642D01*
X750000Y6846071D01*
X785714Y6881785D01*
X857142Y6917500D01*
X1000000Y6917500D01*
X1071428Y6881785D01*
X1107142Y6846071D01*
X1142857Y6774642D01*
X428571Y7131785D02*
X392857Y7167500D01*
X321428Y7203214D01*
X142857Y7203214D01*
X71428Y7167500D01*
X35714Y7131785D01*
X0Y7060357D01*
X0Y6988928D01*
X35714Y6881785D01*
X464285Y6453214D01*
X0Y6453214D01*
X-464285Y7203214D02*
X-535714Y7203214D01*
X-607142Y7167500D01*
X-642857Y7131785D01*
X-678571Y7060357D01*
X-714285Y6917500D01*
X-714285Y6738928D01*
X-678571Y6596071D01*
X-642857Y6524642D01*
X-607142Y6488928D01*
X-535714Y6453214D01*
X-464285Y6453214D01*
X-392857Y6488928D01*
X-357142Y6524642D01*
X-321428Y6596071D01*
X-285714Y6738928D01*
X-285714Y6917500D01*
X-321428Y7060357D01*
X-357142Y7131785D01*
X-392857Y7167500D01*
X-464285Y7203214D01*
X-999999Y7131785D02*
X-1035714Y7167500D01*
X-1107142Y7203214D01*
X-1285714Y7203214D01*
X-1357142Y7167500D01*
X-1392857Y7131785D01*
X-1428571Y7060357D01*
X-1428571Y6988928D01*
X-1392857Y6881785D01*
X-964285Y6453214D01*
X-1428571Y6453214D01*
X-1714285Y7131785D02*
X-1749999Y7167500D01*
X-1821428Y7203214D01*
X-1999999Y7203214D01*
X-2071428Y7167500D01*
X-2107142Y7131785D01*
X-2142857Y7060357D01*
X-2142857Y6988928D01*
X-2107142Y6881785D01*
X-1678571Y6453214D01*
X-2142857Y6453214D01*
M02*
