%TF.GenerationSoftware,KiCad,Pcbnew,(6.0.6)*%
%TF.CreationDate,2022-06-22T15:59:21-06:00*%
%TF.ProjectId,21Pin_Fanout_Heater_&_Extra,32315069-6e5f-4466-916e-6f75745f4865,rev?*%
%TF.SameCoordinates,Original*%
%TF.FileFunction,Legend,Bot*%
%TF.FilePolarity,Positive*%
%FSLAX46Y46*%
G04 Gerber Fmt 4.6, Leading zero omitted, Abs format (unit mm)*
G04 Created by KiCad (PCBNEW (6.0.6)) date 2022-06-22 15:59:21*
%MOMM*%
%LPD*%
G01*
G04 APERTURE LIST*
%ADD10C,0.125000*%
G04 APERTURE END LIST*
D10*
X6369047Y-421190D02*
X6369047Y78809D01*
X6369047Y-159285D02*
X6083333Y-159285D01*
X6083333Y-421190D02*
X6083333Y78809D01*
X5845238Y-421190D02*
X5845238Y78809D01*
X5726190Y78809D01*
X5654761Y55000D01*
X5607142Y7380D01*
X5583333Y-40238D01*
X5559523Y-135476D01*
X5559523Y-206904D01*
X5583333Y-302142D01*
X5607142Y-349761D01*
X5654761Y-397380D01*
X5726190Y-421190D01*
X5845238Y-421190D01*
X5345238Y-421190D02*
X5345238Y78809D01*
X5178571Y-278333D01*
X5011904Y78809D01*
X5011904Y-421190D01*
X4773809Y-421190D02*
X4773809Y78809D01*
X4654761Y-468809D02*
X4273809Y-468809D01*
X4011904Y78809D02*
X4011904Y-278333D01*
X4035714Y-349761D01*
X4083333Y-397380D01*
X4154761Y-421190D01*
X4202380Y-421190D01*
X3797619Y-397380D02*
X3726190Y-421190D01*
X3607142Y-421190D01*
X3559523Y-397380D01*
X3535714Y-373571D01*
X3511904Y-325952D01*
X3511904Y-278333D01*
X3535714Y-230714D01*
X3559523Y-206904D01*
X3607142Y-183095D01*
X3702380Y-159285D01*
X3750000Y-135476D01*
X3773809Y-111666D01*
X3797619Y-64047D01*
X3797619Y-16428D01*
X3773809Y31190D01*
X3750000Y55000D01*
X3702380Y78809D01*
X3583333Y78809D01*
X3511904Y55000D01*
X3369047Y78809D02*
X3083333Y78809D01*
X3226190Y-421190D02*
X3226190Y78809D01*
X3035714Y-468809D02*
X2654761Y-468809D01*
X2559523Y31190D02*
X2535714Y55000D01*
X2488095Y78809D01*
X2369047Y78809D01*
X2321428Y55000D01*
X2297619Y31190D01*
X2273809Y-16428D01*
X2273809Y-64047D01*
X2297619Y-135476D01*
X2583333Y-421190D01*
X2273809Y-421190D01*
X1797619Y-421190D02*
X2083333Y-421190D01*
X1940476Y-421190D02*
X1940476Y78809D01*
X1988095Y7380D01*
X2035714Y-40238D01*
X2083333Y-64047D01*
X1583333Y-421190D02*
X1583333Y78809D01*
X1392857Y78809D01*
X1345238Y55000D01*
X1321428Y31190D01*
X1297619Y-16428D01*
X1297619Y-87857D01*
X1321428Y-135476D01*
X1345238Y-159285D01*
X1392857Y-183095D01*
X1583333Y-183095D01*
X1083333Y-421190D02*
X1083333Y-87857D01*
X1083333Y78809D02*
X1107142Y55000D01*
X1083333Y31190D01*
X1059523Y55000D01*
X1083333Y78809D01*
X1083333Y31190D01*
X845238Y-87857D02*
X845238Y-421190D01*
X845238Y-135476D02*
X821428Y-111666D01*
X773809Y-87857D01*
X702380Y-87857D01*
X654761Y-111666D01*
X630952Y-159285D01*
X630952Y-421190D01*
X511904Y-468809D02*
X130952Y-468809D01*
X11904Y-421190D02*
X11904Y78809D01*
X11904Y-159285D02*
X-273809Y-159285D01*
X-273809Y-421190D02*
X-273809Y78809D01*
X-702380Y-397380D02*
X-654761Y-421190D01*
X-559523Y-421190D01*
X-511904Y-397380D01*
X-488095Y-349761D01*
X-488095Y-159285D01*
X-511904Y-111666D01*
X-559523Y-87857D01*
X-654761Y-87857D01*
X-702380Y-111666D01*
X-726190Y-159285D01*
X-726190Y-206904D01*
X-488095Y-254523D01*
X-1154761Y-421190D02*
X-1154761Y-159285D01*
X-1130952Y-111666D01*
X-1083333Y-87857D01*
X-988095Y-87857D01*
X-940476Y-111666D01*
X-1154761Y-397380D02*
X-1107142Y-421190D01*
X-988095Y-421190D01*
X-940476Y-397380D01*
X-916666Y-349761D01*
X-916666Y-302142D01*
X-940476Y-254523D01*
X-988095Y-230714D01*
X-1107142Y-230714D01*
X-1154761Y-206904D01*
X-1321428Y-87857D02*
X-1511904Y-87857D01*
X-1392857Y78809D02*
X-1392857Y-349761D01*
X-1416666Y-397380D01*
X-1464285Y-421190D01*
X-1511904Y-421190D01*
X-1869047Y-397380D02*
X-1821428Y-421190D01*
X-1726190Y-421190D01*
X-1678571Y-397380D01*
X-1654761Y-349761D01*
X-1654761Y-159285D01*
X-1678571Y-111666D01*
X-1726190Y-87857D01*
X-1821428Y-87857D01*
X-1869047Y-111666D01*
X-1892857Y-159285D01*
X-1892857Y-206904D01*
X-1654761Y-254523D01*
X-2107142Y-421190D02*
X-2107142Y-87857D01*
X-2107142Y-183095D02*
X-2130952Y-135476D01*
X-2154761Y-111666D01*
X-2202380Y-87857D01*
X-2249999Y-87857D01*
X-2392857Y-397380D02*
X-2440476Y-421190D01*
X-2535714Y-421190D01*
X-2583333Y-397380D01*
X-2607142Y-349761D01*
X-2607142Y-325952D01*
X-2583333Y-278333D01*
X-2535714Y-254523D01*
X-2464285Y-254523D01*
X-2416666Y-230714D01*
X-2392857Y-183095D01*
X-2392857Y-159285D01*
X-2416666Y-111666D01*
X-2464285Y-87857D01*
X-2535714Y-87857D01*
X-2583333Y-111666D01*
X-3607142Y-421190D02*
X-3583333Y-421190D01*
X-3535714Y-397380D01*
X-3464285Y-325952D01*
X-3345238Y-183095D01*
X-3297619Y-111666D01*
X-3273809Y-40238D01*
X-3273809Y7380D01*
X-3297619Y55000D01*
X-3345238Y78809D01*
X-3369047Y78809D01*
X-3416666Y55000D01*
X-3440476Y7380D01*
X-3440476Y-16428D01*
X-3416666Y-64047D01*
X-3392857Y-87857D01*
X-3249999Y-183095D01*
X-3226190Y-206904D01*
X-3202380Y-254523D01*
X-3202380Y-325952D01*
X-3226190Y-373571D01*
X-3249999Y-397380D01*
X-3297619Y-421190D01*
X-3369047Y-421190D01*
X-3416666Y-397380D01*
X-3440476Y-373571D01*
X-3511904Y-278333D01*
X-3535714Y-206904D01*
X-3535714Y-159285D01*
X-4202380Y-159285D02*
X-4369047Y-159285D01*
X-4440476Y-421190D02*
X-4202380Y-421190D01*
X-4202380Y78809D01*
X-4440476Y78809D01*
X-4607142Y-421190D02*
X-4869047Y-87857D01*
X-4607142Y-87857D02*
X-4869047Y-421190D01*
X-4988095Y-87857D02*
X-5178571Y-87857D01*
X-5059523Y78809D02*
X-5059523Y-349761D01*
X-5083333Y-397380D01*
X-5130952Y-421190D01*
X-5178571Y-421190D01*
X-5345238Y-421190D02*
X-5345238Y-87857D01*
X-5345238Y-183095D02*
X-5369047Y-135476D01*
X-5392857Y-111666D01*
X-5440476Y-87857D01*
X-5488095Y-87857D01*
X-5869047Y-421190D02*
X-5869047Y-159285D01*
X-5845238Y-111666D01*
X-5797619Y-87857D01*
X-5702380Y-87857D01*
X-5654761Y-111666D01*
X-5869047Y-397380D02*
X-5821428Y-421190D01*
X-5702380Y-421190D01*
X-5654761Y-397380D01*
X-5630952Y-349761D01*
X-5630952Y-302142D01*
X-5654761Y-254523D01*
X-5702380Y-230714D01*
X-5821428Y-230714D01*
X-5869047Y-206904D01*
X3202380Y-1226190D02*
X3369047Y-988095D01*
X3488095Y-1226190D02*
X3488095Y-726190D01*
X3297619Y-726190D01*
X3250000Y-750000D01*
X3226190Y-773809D01*
X3202380Y-821428D01*
X3202380Y-892857D01*
X3226190Y-940476D01*
X3250000Y-964285D01*
X3297619Y-988095D01*
X3488095Y-988095D01*
X3035714Y-892857D02*
X2916666Y-1226190D01*
X2797619Y-892857D02*
X2916666Y-1226190D01*
X2964285Y-1345238D01*
X2988095Y-1369047D01*
X3035714Y-1392857D01*
X2392857Y-1226190D02*
X2392857Y-964285D01*
X2416666Y-916666D01*
X2464285Y-892857D01*
X2559523Y-892857D01*
X2607142Y-916666D01*
X2392857Y-1202380D02*
X2440476Y-1226190D01*
X2559523Y-1226190D01*
X2607142Y-1202380D01*
X2630952Y-1154761D01*
X2630952Y-1107142D01*
X2607142Y-1059523D01*
X2559523Y-1035714D01*
X2440476Y-1035714D01*
X2392857Y-1011904D01*
X2154761Y-892857D02*
X2154761Y-1226190D01*
X2154761Y-940476D02*
X2130952Y-916666D01*
X2083333Y-892857D01*
X2011904Y-892857D01*
X1964285Y-916666D01*
X1940476Y-964285D01*
X1940476Y-1226190D01*
X1321428Y-1226190D02*
X1321428Y-726190D01*
X1154761Y-1083333D01*
X988095Y-726190D01*
X988095Y-1226190D01*
X678571Y-1226190D02*
X726190Y-1202380D01*
X750000Y-1178571D01*
X773809Y-1130952D01*
X773809Y-988095D01*
X750000Y-940476D01*
X726190Y-916666D01*
X678571Y-892857D01*
X607142Y-892857D01*
X559523Y-916666D01*
X535714Y-940476D01*
X511904Y-988095D01*
X511904Y-1130952D01*
X535714Y-1178571D01*
X559523Y-1202380D01*
X607142Y-1226190D01*
X678571Y-1226190D01*
X297619Y-1226190D02*
X297619Y-892857D01*
X297619Y-988095D02*
X273809Y-940476D01*
X250000Y-916666D01*
X202380Y-892857D01*
X154761Y-892857D01*
X-226190Y-892857D02*
X-226190Y-1297619D01*
X-202380Y-1345238D01*
X-178571Y-1369047D01*
X-130952Y-1392857D01*
X-59523Y-1392857D01*
X-11904Y-1369047D01*
X-226190Y-1202380D02*
X-178571Y-1226190D01*
X-83333Y-1226190D01*
X-35714Y-1202380D01*
X-11904Y-1178571D01*
X11904Y-1130952D01*
X11904Y-988095D01*
X-11904Y-940476D01*
X-35714Y-916666D01*
X-83333Y-892857D01*
X-178571Y-892857D01*
X-226190Y-916666D01*
X-654761Y-1202380D02*
X-607142Y-1226190D01*
X-511904Y-1226190D01*
X-464285Y-1202380D01*
X-440476Y-1154761D01*
X-440476Y-964285D01*
X-464285Y-916666D01*
X-511904Y-892857D01*
X-607142Y-892857D01*
X-654761Y-916666D01*
X-678571Y-964285D01*
X-678571Y-1011904D01*
X-440476Y-1059523D01*
X-892857Y-892857D02*
X-892857Y-1226190D01*
X-892857Y-940476D02*
X-916666Y-916666D01*
X-964285Y-892857D01*
X-1035714Y-892857D01*
X-1083333Y-916666D01*
X-1107142Y-964285D01*
X-1107142Y-1226190D01*
X-1321428Y-1202380D02*
X-1369047Y-1226190D01*
X-1464285Y-1226190D01*
X-1511904Y-1202380D01*
X-1535714Y-1154761D01*
X-1535714Y-1130952D01*
X-1511904Y-1083333D01*
X-1464285Y-1059523D01*
X-1392857Y-1059523D01*
X-1345238Y-1035714D01*
X-1321428Y-988095D01*
X-1321428Y-964285D01*
X-1345238Y-916666D01*
X-1392857Y-892857D01*
X-1464285Y-892857D01*
X-1511904Y-916666D01*
X-1678571Y-892857D02*
X-1869047Y-892857D01*
X-1749999Y-726190D02*
X-1749999Y-1154761D01*
X-1773809Y-1202380D01*
X-1821428Y-1226190D01*
X-1869047Y-1226190D01*
X-2226190Y-1202380D02*
X-2178571Y-1226190D01*
X-2083333Y-1226190D01*
X-2035714Y-1202380D01*
X-2011904Y-1154761D01*
X-2011904Y-964285D01*
X-2035714Y-916666D01*
X-2083333Y-892857D01*
X-2178571Y-892857D01*
X-2226190Y-916666D01*
X-2249999Y-964285D01*
X-2249999Y-1011904D01*
X-2011904Y-1059523D01*
X-2464285Y-1226190D02*
X-2464285Y-892857D01*
X-2464285Y-988095D02*
X-2488095Y-940476D01*
X-2511904Y-916666D01*
X-2559523Y-892857D01*
X-2607142Y-892857D01*
X-2773809Y-892857D02*
X-2773809Y-1226190D01*
X-2773809Y-940476D02*
X-2797619Y-916666D01*
X-2845238Y-892857D01*
X-2916666Y-892857D01*
X-2964285Y-916666D01*
X-2988095Y-964285D01*
X-2988095Y-1226190D01*
X1607142Y-1531190D02*
X1702380Y-1531190D01*
X1750000Y-1555000D01*
X1773809Y-1578809D01*
X1821428Y-1650238D01*
X1845238Y-1745476D01*
X1845238Y-1935952D01*
X1821428Y-1983571D01*
X1797619Y-2007380D01*
X1750000Y-2031190D01*
X1654761Y-2031190D01*
X1607142Y-2007380D01*
X1583333Y-1983571D01*
X1559523Y-1935952D01*
X1559523Y-1816904D01*
X1583333Y-1769285D01*
X1607142Y-1745476D01*
X1654761Y-1721666D01*
X1750000Y-1721666D01*
X1797619Y-1745476D01*
X1821428Y-1769285D01*
X1845238Y-1816904D01*
X988095Y-1507380D02*
X1416666Y-2150238D01*
X607142Y-1531190D02*
X702380Y-1531190D01*
X750000Y-1555000D01*
X773809Y-1578809D01*
X821428Y-1650238D01*
X845238Y-1745476D01*
X845238Y-1935952D01*
X821428Y-1983571D01*
X797619Y-2007380D01*
X750000Y-2031190D01*
X654761Y-2031190D01*
X607142Y-2007380D01*
X583333Y-1983571D01*
X559523Y-1935952D01*
X559523Y-1816904D01*
X583333Y-1769285D01*
X607142Y-1745476D01*
X654761Y-1721666D01*
X750000Y-1721666D01*
X797619Y-1745476D01*
X821428Y-1769285D01*
X845238Y-1816904D01*
X369047Y-1578809D02*
X345238Y-1555000D01*
X297619Y-1531190D01*
X178571Y-1531190D01*
X130952Y-1555000D01*
X107142Y-1578809D01*
X83333Y-1626428D01*
X83333Y-1674047D01*
X107142Y-1745476D01*
X392857Y-2031190D01*
X83333Y-2031190D01*
X-226190Y-1531190D02*
X-273809Y-1531190D01*
X-321428Y-1555000D01*
X-345238Y-1578809D01*
X-369047Y-1626428D01*
X-392857Y-1721666D01*
X-392857Y-1840714D01*
X-369047Y-1935952D01*
X-345238Y-1983571D01*
X-321428Y-2007380D01*
X-273809Y-2031190D01*
X-226190Y-2031190D01*
X-178571Y-2007380D01*
X-154761Y-1983571D01*
X-130952Y-1935952D01*
X-107142Y-1840714D01*
X-107142Y-1721666D01*
X-130952Y-1626428D01*
X-154761Y-1578809D01*
X-178571Y-1555000D01*
X-226190Y-1531190D01*
X-583333Y-1578809D02*
X-607142Y-1555000D01*
X-654761Y-1531190D01*
X-773809Y-1531190D01*
X-821428Y-1555000D01*
X-845238Y-1578809D01*
X-869047Y-1626428D01*
X-869047Y-1674047D01*
X-845238Y-1745476D01*
X-559523Y-2031190D01*
X-869047Y-2031190D01*
X-1059523Y-1578809D02*
X-1083333Y-1555000D01*
X-1130952Y-1531190D01*
X-1250000Y-1531190D01*
X-1297619Y-1555000D01*
X-1321428Y-1578809D01*
X-1345238Y-1626428D01*
X-1345238Y-1674047D01*
X-1321428Y-1745476D01*
X-1035714Y-2031190D01*
X-1345238Y-2031190D01*
M02*
