%TF.GenerationSoftware,KiCad,Pcbnew,(6.0.5)*%
%TF.CreationDate,2022-06-07T12:46:05-06:00*%
%TF.ProjectId,21Pin_Fanout,32315069-6e5f-4466-916e-6f75742e6b69,rev?*%
%TF.SameCoordinates,Original*%
%TF.FileFunction,Copper,L2,Bot*%
%TF.FilePolarity,Positive*%
%FSLAX46Y46*%
G04 Gerber Fmt 4.6, Leading zero omitted, Abs format (unit mm)*
G04 Created by KiCad (PCBNEW (6.0.5)) date 2022-06-07 12:46:05*
%MOMM*%
%LPD*%
G01*
G04 APERTURE LIST*
G04 Aperture macros list*
%AMRoundRect*
0 Rectangle with rounded corners*
0 $1 Rounding radius*
0 $2 $3 $4 $5 $6 $7 $8 $9 X,Y pos of 4 corners*
0 Add a 4 corners polygon primitive as box body*
4,1,4,$2,$3,$4,$5,$6,$7,$8,$9,$2,$3,0*
0 Add four circle primitives for the rounded corners*
1,1,$1+$1,$2,$3*
1,1,$1+$1,$4,$5*
1,1,$1+$1,$6,$7*
1,1,$1+$1,$8,$9*
0 Add four rect primitives between the rounded corners*
20,1,$1+$1,$2,$3,$4,$5,0*
20,1,$1+$1,$4,$5,$6,$7,0*
20,1,$1+$1,$6,$7,$8,$9,0*
20,1,$1+$1,$8,$9,$2,$3,0*%
G04 Aperture macros list end*
%TA.AperFunction,ComponentPad*%
%ADD10RoundRect,0.250000X0.350000X0.625000X-0.350000X0.625000X-0.350000X-0.625000X0.350000X-0.625000X0*%
%TD*%
%TA.AperFunction,ComponentPad*%
%ADD11O,1.200000X1.750000*%
%TD*%
%TA.AperFunction,ComponentPad*%
%ADD12O,1.500000X2.700000*%
%TD*%
%TA.AperFunction,ComponentPad*%
%ADD13O,1.500000X3.300000*%
%TD*%
%TA.AperFunction,ViaPad*%
%ADD14C,0.800000*%
%TD*%
G04 APERTURE END LIST*
D10*
%TO.P,J3,1,Pin_1*%
%TO.N,Net-(J1-Pad10)*%
X-10450000Y26500000D03*
D11*
%TO.P,J3,2,Pin_2*%
%TO.N,Net-(J1-Pad12)*%
X-12450000Y26500000D03*
%TD*%
D10*
%TO.P,J2,1,Pin_1*%
%TO.N,Net-(J1-Pad7)*%
X-2000000Y26500000D03*
D11*
%TO.P,J2,2,Pin_2*%
%TO.N,Net-(J1-Pad9)*%
X-4000000Y26500000D03*
%TD*%
D10*
%TO.P,J4,1,Pin_1*%
%TO.N,Net-(J1-Pad1)*%
X14750000Y26500000D03*
D11*
%TO.P,J4,2,Pin_2*%
%TO.N,Net-(J1-Pad3)*%
X12750000Y26500000D03*
%TD*%
D10*
%TO.P,J5,1,Pin_1*%
%TO.N,Net-(J1-Pad4)*%
X6450000Y26500000D03*
D11*
%TO.P,J5,2,Pin_2*%
%TO.N,Net-(J1-Pad6)*%
X4450000Y26500000D03*
%TD*%
D12*
%TO.P,J1,20*%
%TO.N,N/C*%
X7250000Y-3396000D03*
%TO.P,J1,21*%
X-7250000Y-3396000D03*
D13*
%TO.P,J1,22*%
X7250000Y2564000D03*
%TO.P,J1,23*%
X-7250000Y2564000D03*
%TD*%
D14*
%TO.N,GND*%
X-2000000Y1000000D03*
%TD*%
%TA.AperFunction,Conductor*%
%TO.N,GND*%
G36*
X17183621Y30971498D02*
G01*
X17230114Y30917842D01*
X17241500Y30865500D01*
X17241500Y21884500D01*
X17221498Y21816379D01*
X17167842Y21769886D01*
X17115500Y21758500D01*
X8508623Y21758500D01*
X8507853Y21758502D01*
X8507037Y21758507D01*
X8430279Y21758976D01*
X8407918Y21752585D01*
X8401847Y21750850D01*
X8385085Y21747272D01*
X8355813Y21743080D01*
X8347645Y21739366D01*
X8347644Y21739366D01*
X8332438Y21732452D01*
X8314914Y21726004D01*
X8290229Y21718949D01*
X8282635Y21714157D01*
X8282632Y21714156D01*
X8265220Y21703170D01*
X8250137Y21695031D01*
X8223218Y21682792D01*
X8216416Y21676931D01*
X8203765Y21666030D01*
X8188761Y21654927D01*
X8167042Y21641224D01*
X8161103Y21634499D01*
X8161099Y21634496D01*
X8147468Y21619062D01*
X8135276Y21607018D01*
X8119673Y21593573D01*
X8119671Y21593570D01*
X8112873Y21587713D01*
X8107993Y21580184D01*
X8107992Y21580183D01*
X8098906Y21566165D01*
X8087615Y21551291D01*
X8076569Y21538783D01*
X8070622Y21532049D01*
X8064312Y21518609D01*
X8058058Y21505289D01*
X8049737Y21490309D01*
X8038529Y21473017D01*
X8038527Y21473012D01*
X8033648Y21465485D01*
X8031078Y21456892D01*
X8031076Y21456887D01*
X8026289Y21440880D01*
X8019628Y21423436D01*
X8012533Y21408324D01*
X8008719Y21400200D01*
X8007338Y21391333D01*
X8007338Y21391332D01*
X8004170Y21370985D01*
X8000387Y21354268D01*
X7994485Y21334534D01*
X7994484Y21334528D01*
X7991914Y21325934D01*
X7991859Y21316963D01*
X7991859Y21316962D01*
X7991704Y21291503D01*
X7991671Y21290711D01*
X7991500Y21289614D01*
X7991500Y21258623D01*
X7991498Y21257853D01*
X7991024Y21180279D01*
X7991408Y21178935D01*
X7991500Y21177590D01*
X7991500Y4705927D01*
X7971498Y4637806D01*
X7917842Y4591313D01*
X7847568Y4581209D01*
X7814855Y4590554D01*
X7658180Y4659330D01*
X7658167Y4659335D01*
X7653033Y4661588D01*
X7647582Y4662897D01*
X7647578Y4662898D01*
X7440046Y4712722D01*
X7440045Y4712722D01*
X7434589Y4714032D01*
X7350525Y4718879D01*
X7215917Y4726640D01*
X7215914Y4726640D01*
X7210310Y4726963D01*
X6987285Y4699975D01*
X6772565Y4633918D01*
X6767585Y4631348D01*
X6767581Y4631346D01*
X6577919Y4533454D01*
X6572936Y4530882D01*
X6394708Y4394123D01*
X6243515Y4227964D01*
X6124136Y4037656D01*
X6040344Y3829217D01*
X5994787Y3609233D01*
X5991500Y3552225D01*
X5991500Y1607001D01*
X5991749Y1604214D01*
X5991749Y1604208D01*
X5998009Y1534071D01*
X6006383Y1440238D01*
X6065663Y1223549D01*
X6162378Y1020782D01*
X6293471Y838346D01*
X6454799Y682008D01*
X6641262Y556710D01*
X6846967Y466412D01*
X6852418Y465103D01*
X6852422Y465102D01*
X7025503Y423549D01*
X7065411Y413968D01*
X7149475Y409121D01*
X7284083Y401360D01*
X7284086Y401360D01*
X7289690Y401037D01*
X7512715Y428025D01*
X7727435Y494082D01*
X7732415Y496652D01*
X7732419Y496654D01*
X7807710Y535515D01*
X7877417Y548984D01*
X7943341Y522629D01*
X7984550Y464816D01*
X7991500Y423549D01*
X7991500Y-1554073D01*
X7971498Y-1622194D01*
X7917842Y-1668687D01*
X7847568Y-1678791D01*
X7814855Y-1669446D01*
X7658180Y-1600670D01*
X7658167Y-1600665D01*
X7653033Y-1598412D01*
X7647582Y-1597103D01*
X7647578Y-1597102D01*
X7440046Y-1547278D01*
X7440045Y-1547278D01*
X7434589Y-1545968D01*
X7350525Y-1541121D01*
X7215917Y-1533360D01*
X7215914Y-1533360D01*
X7210310Y-1533037D01*
X6987285Y-1560025D01*
X6772565Y-1626082D01*
X6767585Y-1628652D01*
X6767581Y-1628654D01*
X6577919Y-1726546D01*
X6572936Y-1729118D01*
X6394708Y-1865877D01*
X6243515Y-2032036D01*
X6124136Y-2222344D01*
X6040344Y-2430783D01*
X5994787Y-2650767D01*
X5991500Y-2707775D01*
X5991500Y-4052999D01*
X5991749Y-4055786D01*
X5991749Y-4055792D01*
X5998009Y-4125929D01*
X6006383Y-4219762D01*
X6065663Y-4436451D01*
X6162378Y-4639218D01*
X6293471Y-4821654D01*
X6454799Y-4977992D01*
X6641262Y-5103290D01*
X6846967Y-5193588D01*
X6852418Y-5194897D01*
X6852422Y-5194898D01*
X7025503Y-5236451D01*
X7065411Y-5246032D01*
X7149475Y-5250879D01*
X7284083Y-5258640D01*
X7284086Y-5258640D01*
X7289690Y-5258963D01*
X7512715Y-5231975D01*
X7727435Y-5165918D01*
X7732415Y-5163348D01*
X7732419Y-5163346D01*
X7807710Y-5124485D01*
X7877417Y-5111016D01*
X7943341Y-5137371D01*
X7984550Y-5195184D01*
X7991500Y-5236451D01*
X7991500Y-6115500D01*
X7971498Y-6183621D01*
X7917842Y-6230114D01*
X7865500Y-6241500D01*
X-7865500Y-6241500D01*
X-7933621Y-6221498D01*
X-7980114Y-6167842D01*
X-7991500Y-6115500D01*
X-7991500Y-5237927D01*
X-7971498Y-5169806D01*
X-7917842Y-5123313D01*
X-7847568Y-5113209D01*
X-7814855Y-5122554D01*
X-7658180Y-5191330D01*
X-7658167Y-5191335D01*
X-7653033Y-5193588D01*
X-7647582Y-5194897D01*
X-7647578Y-5194898D01*
X-7474497Y-5236451D01*
X-7434589Y-5246032D01*
X-7350525Y-5250879D01*
X-7215917Y-5258640D01*
X-7215914Y-5258640D01*
X-7210310Y-5258963D01*
X-6987285Y-5231975D01*
X-6772565Y-5165918D01*
X-6767585Y-5163348D01*
X-6767581Y-5163346D01*
X-6577919Y-5065454D01*
X-6577918Y-5065454D01*
X-6572936Y-5062882D01*
X-6394708Y-4926123D01*
X-6243515Y-4759964D01*
X-6124136Y-4569656D01*
X-6040344Y-4361217D01*
X-5994787Y-4141233D01*
X-5991500Y-4084225D01*
X-5991500Y-2739001D01*
X-5994449Y-2705952D01*
X-6005884Y-2577833D01*
X-6006383Y-2572238D01*
X-6065663Y-2355549D01*
X-6162378Y-2152782D01*
X-6293471Y-1970346D01*
X-6454799Y-1814008D01*
X-6641262Y-1688710D01*
X-6846967Y-1598412D01*
X-6852418Y-1597103D01*
X-6852422Y-1597102D01*
X-7059954Y-1547278D01*
X-7059955Y-1547278D01*
X-7065411Y-1545968D01*
X-7149475Y-1541121D01*
X-7284083Y-1533360D01*
X-7284086Y-1533360D01*
X-7289690Y-1533037D01*
X-7512715Y-1560025D01*
X-7727435Y-1626082D01*
X-7732415Y-1628652D01*
X-7732419Y-1628654D01*
X-7807710Y-1667515D01*
X-7877417Y-1680984D01*
X-7943341Y-1654629D01*
X-7984550Y-1596816D01*
X-7991500Y-1555549D01*
X-7991500Y422073D01*
X-7971498Y490194D01*
X-7917842Y536687D01*
X-7847568Y546791D01*
X-7814855Y537446D01*
X-7658180Y468670D01*
X-7658167Y468665D01*
X-7653033Y466412D01*
X-7647582Y465103D01*
X-7647578Y465102D01*
X-7474497Y423549D01*
X-7434589Y413968D01*
X-7350525Y409121D01*
X-7215917Y401360D01*
X-7215914Y401360D01*
X-7210310Y401037D01*
X-6987285Y428025D01*
X-6772565Y494082D01*
X-6767585Y496652D01*
X-6767581Y496654D01*
X-6577919Y594546D01*
X-6577918Y594546D01*
X-6572936Y597118D01*
X-6394708Y733877D01*
X-6243515Y900036D01*
X-6124136Y1090344D01*
X-6040344Y1298783D01*
X-5994787Y1518767D01*
X-5991500Y1575775D01*
X-5991500Y3520999D01*
X-5994449Y3554048D01*
X-6005884Y3682167D01*
X-6006383Y3687762D01*
X-6065663Y3904451D01*
X-6162378Y4107218D01*
X-6293471Y4289654D01*
X-6454799Y4445992D01*
X-6641262Y4571290D01*
X-6846967Y4661588D01*
X-6852418Y4662897D01*
X-6852422Y4662898D01*
X-7059954Y4712722D01*
X-7059955Y4712722D01*
X-7065411Y4714032D01*
X-7149475Y4718879D01*
X-7284083Y4726640D01*
X-7284086Y4726640D01*
X-7289690Y4726963D01*
X-7512715Y4699975D01*
X-7727435Y4633918D01*
X-7732415Y4631348D01*
X-7732419Y4631346D01*
X-7807710Y4592485D01*
X-7877417Y4579016D01*
X-7943341Y4605371D01*
X-7984550Y4663184D01*
X-7991500Y4704451D01*
X-7991500Y21241377D01*
X-7991498Y21242147D01*
X-7991200Y21290898D01*
X-7991024Y21319721D01*
X-7999150Y21348153D01*
X-8002728Y21364915D01*
X-8005648Y21385302D01*
X-8006920Y21394187D01*
X-8017549Y21417564D01*
X-8023996Y21435087D01*
X-8028584Y21451138D01*
X-8031051Y21459771D01*
X-8035844Y21467368D01*
X-8046830Y21484780D01*
X-8054970Y21499865D01*
X-8057436Y21505289D01*
X-8067208Y21526782D01*
X-8083970Y21546235D01*
X-8095073Y21561239D01*
X-8108776Y21582958D01*
X-8115501Y21588897D01*
X-8115504Y21588901D01*
X-8130938Y21602532D01*
X-8142982Y21614724D01*
X-8156427Y21630327D01*
X-8156430Y21630329D01*
X-8162287Y21637127D01*
X-8175991Y21646010D01*
X-8183835Y21651094D01*
X-8198709Y21662385D01*
X-8211217Y21673431D01*
X-8211218Y21673432D01*
X-8217951Y21679378D01*
X-8244713Y21691943D01*
X-8259691Y21700263D01*
X-8276983Y21711471D01*
X-8276988Y21711473D01*
X-8284515Y21716352D01*
X-8293108Y21718922D01*
X-8293113Y21718924D01*
X-8309120Y21723711D01*
X-8326564Y21730372D01*
X-8341676Y21737467D01*
X-8341678Y21737468D01*
X-8349800Y21741281D01*
X-8358667Y21742662D01*
X-8358668Y21742662D01*
X-8369522Y21744352D01*
X-8379017Y21745830D01*
X-8395732Y21749613D01*
X-8415466Y21755515D01*
X-8415472Y21755516D01*
X-8424066Y21758086D01*
X-8433037Y21758141D01*
X-8433038Y21758141D01*
X-8443097Y21758202D01*
X-8458506Y21758296D01*
X-8459289Y21758329D01*
X-8460386Y21758500D01*
X-8491377Y21758500D01*
X-8492147Y21758502D01*
X-8565785Y21758952D01*
X-8565786Y21758952D01*
X-8569721Y21758976D01*
X-8571065Y21758592D01*
X-8572410Y21758500D01*
X-14865500Y21758500D01*
X-14933621Y21778502D01*
X-14980114Y21832158D01*
X-14991500Y21884500D01*
X-14991500Y26172154D01*
X-13558500Y26172154D01*
X-13543452Y26014434D01*
X-13483908Y25811466D01*
X-13481164Y25806139D01*
X-13481164Y25806138D01*
X-13433509Y25713611D01*
X-13387058Y25623420D01*
X-13256396Y25457080D01*
X-13251865Y25453148D01*
X-13251862Y25453145D01*
X-13165942Y25378588D01*
X-13096637Y25318448D01*
X-13091451Y25315448D01*
X-13091447Y25315445D01*
X-12995043Y25259674D01*
X-12913546Y25212527D01*
X-12713729Y25143139D01*
X-12707794Y25142278D01*
X-12707792Y25142278D01*
X-12510336Y25113648D01*
X-12510333Y25113648D01*
X-12504396Y25112787D01*
X-12293101Y25122567D01*
X-12161923Y25154181D01*
X-12093299Y25170719D01*
X-12093297Y25170720D01*
X-12087466Y25172125D01*
X-12082008Y25174607D01*
X-12082004Y25174608D01*
X-11966959Y25226916D01*
X-11894913Y25259674D01*
X-11722389Y25382054D01*
X-11718247Y25386381D01*
X-11718241Y25386386D01*
X-11631194Y25477317D01*
X-11569639Y25512694D01*
X-11498730Y25509175D01*
X-11440979Y25467879D01*
X-11433035Y25456496D01*
X-11398478Y25400652D01*
X-11273303Y25275695D01*
X-11267073Y25271855D01*
X-11267072Y25271854D01*
X-11129910Y25187306D01*
X-11122738Y25182885D01*
X-11097783Y25174608D01*
X-10961389Y25129368D01*
X-10961387Y25129368D01*
X-10954861Y25127203D01*
X-10948025Y25126503D01*
X-10948022Y25126502D01*
X-10909614Y25122567D01*
X-10850400Y25116500D01*
X-10049600Y25116500D01*
X-10046354Y25116837D01*
X-10046350Y25116837D01*
X-9950692Y25126762D01*
X-9950688Y25126763D01*
X-9943834Y25127474D01*
X-9937298Y25129655D01*
X-9937296Y25129655D01*
X-9802557Y25174608D01*
X-9776054Y25183450D01*
X-9625652Y25276522D01*
X-9500695Y25401697D01*
X-9463648Y25461798D01*
X-9411725Y25546032D01*
X-9411724Y25546034D01*
X-9407885Y25552262D01*
X-9352203Y25720139D01*
X-9341500Y25824600D01*
X-9341500Y26172154D01*
X-5108500Y26172154D01*
X-5093452Y26014434D01*
X-5033908Y25811466D01*
X-5031164Y25806139D01*
X-5031164Y25806138D01*
X-4983509Y25713611D01*
X-4937058Y25623420D01*
X-4806396Y25457080D01*
X-4801865Y25453148D01*
X-4801862Y25453145D01*
X-4715942Y25378588D01*
X-4646637Y25318448D01*
X-4641451Y25315448D01*
X-4641447Y25315445D01*
X-4545043Y25259674D01*
X-4463546Y25212527D01*
X-4263729Y25143139D01*
X-4257794Y25142278D01*
X-4257792Y25142278D01*
X-4060336Y25113648D01*
X-4060333Y25113648D01*
X-4054396Y25112787D01*
X-3843101Y25122567D01*
X-3711923Y25154181D01*
X-3643299Y25170719D01*
X-3643297Y25170720D01*
X-3637466Y25172125D01*
X-3632008Y25174607D01*
X-3632004Y25174608D01*
X-3516959Y25226916D01*
X-3444913Y25259674D01*
X-3272389Y25382054D01*
X-3268247Y25386381D01*
X-3268241Y25386386D01*
X-3181194Y25477317D01*
X-3119639Y25512694D01*
X-3048730Y25509175D01*
X-2990979Y25467879D01*
X-2983035Y25456496D01*
X-2948478Y25400652D01*
X-2823303Y25275695D01*
X-2817073Y25271855D01*
X-2817072Y25271854D01*
X-2679910Y25187306D01*
X-2672738Y25182885D01*
X-2647783Y25174608D01*
X-2511389Y25129368D01*
X-2511387Y25129368D01*
X-2504861Y25127203D01*
X-2498025Y25126503D01*
X-2498022Y25126502D01*
X-2459614Y25122567D01*
X-2400400Y25116500D01*
X-1599600Y25116500D01*
X-1596354Y25116837D01*
X-1596350Y25116837D01*
X-1500692Y25126762D01*
X-1500688Y25126763D01*
X-1493834Y25127474D01*
X-1487298Y25129655D01*
X-1487296Y25129655D01*
X-1352557Y25174608D01*
X-1326054Y25183450D01*
X-1175652Y25276522D01*
X-1050695Y25401697D01*
X-1013648Y25461798D01*
X-961725Y25546032D01*
X-961724Y25546034D01*
X-957885Y25552262D01*
X-902203Y25720139D01*
X-891500Y25824600D01*
X-891500Y26172154D01*
X3341500Y26172154D01*
X3356548Y26014434D01*
X3416092Y25811466D01*
X3418836Y25806139D01*
X3418836Y25806138D01*
X3466491Y25713611D01*
X3512942Y25623420D01*
X3643604Y25457080D01*
X3648135Y25453148D01*
X3648138Y25453145D01*
X3734058Y25378588D01*
X3803363Y25318448D01*
X3808549Y25315448D01*
X3808553Y25315445D01*
X3904957Y25259674D01*
X3986454Y25212527D01*
X4186271Y25143139D01*
X4192206Y25142278D01*
X4192208Y25142278D01*
X4389664Y25113648D01*
X4389667Y25113648D01*
X4395604Y25112787D01*
X4606899Y25122567D01*
X4738077Y25154181D01*
X4806701Y25170719D01*
X4806703Y25170720D01*
X4812534Y25172125D01*
X4817992Y25174607D01*
X4817996Y25174608D01*
X4933041Y25226916D01*
X5005087Y25259674D01*
X5177611Y25382054D01*
X5181753Y25386381D01*
X5181759Y25386386D01*
X5268806Y25477317D01*
X5330361Y25512694D01*
X5401270Y25509175D01*
X5459021Y25467879D01*
X5466965Y25456496D01*
X5501522Y25400652D01*
X5626697Y25275695D01*
X5632927Y25271855D01*
X5632928Y25271854D01*
X5770090Y25187306D01*
X5777262Y25182885D01*
X5802217Y25174608D01*
X5938611Y25129368D01*
X5938613Y25129368D01*
X5945139Y25127203D01*
X5951975Y25126503D01*
X5951978Y25126502D01*
X5990386Y25122567D01*
X6049600Y25116500D01*
X6850400Y25116500D01*
X6853646Y25116837D01*
X6853650Y25116837D01*
X6949308Y25126762D01*
X6949312Y25126763D01*
X6956166Y25127474D01*
X6962702Y25129655D01*
X6962704Y25129655D01*
X7097443Y25174608D01*
X7123946Y25183450D01*
X7274348Y25276522D01*
X7399305Y25401697D01*
X7436352Y25461798D01*
X7488275Y25546032D01*
X7488276Y25546034D01*
X7492115Y25552262D01*
X7547797Y25720139D01*
X7558500Y25824600D01*
X7558500Y26172154D01*
X11641500Y26172154D01*
X11656548Y26014434D01*
X11716092Y25811466D01*
X11718836Y25806139D01*
X11718836Y25806138D01*
X11766491Y25713611D01*
X11812942Y25623420D01*
X11943604Y25457080D01*
X11948135Y25453148D01*
X11948138Y25453145D01*
X12034058Y25378588D01*
X12103363Y25318448D01*
X12108549Y25315448D01*
X12108553Y25315445D01*
X12204957Y25259674D01*
X12286454Y25212527D01*
X12486271Y25143139D01*
X12492206Y25142278D01*
X12492208Y25142278D01*
X12689664Y25113648D01*
X12689667Y25113648D01*
X12695604Y25112787D01*
X12906899Y25122567D01*
X13038077Y25154181D01*
X13106701Y25170719D01*
X13106703Y25170720D01*
X13112534Y25172125D01*
X13117992Y25174607D01*
X13117996Y25174608D01*
X13233041Y25226916D01*
X13305087Y25259674D01*
X13477611Y25382054D01*
X13481753Y25386381D01*
X13481759Y25386386D01*
X13568806Y25477317D01*
X13630361Y25512694D01*
X13701270Y25509175D01*
X13759021Y25467879D01*
X13766965Y25456496D01*
X13801522Y25400652D01*
X13926697Y25275695D01*
X13932927Y25271855D01*
X13932928Y25271854D01*
X14070090Y25187306D01*
X14077262Y25182885D01*
X14102217Y25174608D01*
X14238611Y25129368D01*
X14238613Y25129368D01*
X14245139Y25127203D01*
X14251975Y25126503D01*
X14251978Y25126502D01*
X14290386Y25122567D01*
X14349600Y25116500D01*
X15150400Y25116500D01*
X15153646Y25116837D01*
X15153650Y25116837D01*
X15249308Y25126762D01*
X15249312Y25126763D01*
X15256166Y25127474D01*
X15262702Y25129655D01*
X15262704Y25129655D01*
X15397443Y25174608D01*
X15423946Y25183450D01*
X15574348Y25276522D01*
X15699305Y25401697D01*
X15736352Y25461798D01*
X15788275Y25546032D01*
X15788276Y25546034D01*
X15792115Y25552262D01*
X15847797Y25720139D01*
X15858500Y25824600D01*
X15858500Y27175400D01*
X15847526Y27281166D01*
X15843749Y27292489D01*
X15793868Y27441998D01*
X15791550Y27448946D01*
X15698478Y27599348D01*
X15573303Y27724305D01*
X15470826Y27787473D01*
X15428968Y27813275D01*
X15428966Y27813276D01*
X15422738Y27817115D01*
X15262254Y27870345D01*
X15261389Y27870632D01*
X15261387Y27870632D01*
X15254861Y27872797D01*
X15248025Y27873497D01*
X15248022Y27873498D01*
X15204969Y27877909D01*
X15150400Y27883500D01*
X14349600Y27883500D01*
X14346354Y27883163D01*
X14346350Y27883163D01*
X14250692Y27873238D01*
X14250688Y27873237D01*
X14243834Y27872526D01*
X14237298Y27870345D01*
X14237296Y27870345D01*
X14114213Y27829281D01*
X14076054Y27816550D01*
X13925652Y27723478D01*
X13800695Y27598303D01*
X13796855Y27592073D01*
X13796854Y27592072D01*
X13768926Y27546764D01*
X13716154Y27499271D01*
X13646082Y27487847D01*
X13580958Y27516121D01*
X13562582Y27535045D01*
X13556396Y27542920D01*
X13551865Y27546852D01*
X13551862Y27546855D01*
X13401167Y27677621D01*
X13396637Y27681552D01*
X13391451Y27684552D01*
X13391447Y27684555D01*
X13218742Y27784467D01*
X13213546Y27787473D01*
X13013729Y27856861D01*
X13007794Y27857722D01*
X13007792Y27857722D01*
X12810336Y27886352D01*
X12810333Y27886352D01*
X12804396Y27887213D01*
X12593101Y27877433D01*
X12461923Y27845819D01*
X12393299Y27829281D01*
X12393297Y27829280D01*
X12387466Y27827875D01*
X12382008Y27825393D01*
X12382004Y27825392D01*
X12266959Y27773084D01*
X12194913Y27740326D01*
X12022389Y27617946D01*
X11876119Y27465150D01*
X11761380Y27287452D01*
X11682314Y27091263D01*
X11641772Y26883663D01*
X11641500Y26878101D01*
X11641500Y26172154D01*
X7558500Y26172154D01*
X7558500Y27175400D01*
X7547526Y27281166D01*
X7543749Y27292489D01*
X7493868Y27441998D01*
X7491550Y27448946D01*
X7398478Y27599348D01*
X7273303Y27724305D01*
X7170826Y27787473D01*
X7128968Y27813275D01*
X7128966Y27813276D01*
X7122738Y27817115D01*
X6962254Y27870345D01*
X6961389Y27870632D01*
X6961387Y27870632D01*
X6954861Y27872797D01*
X6948025Y27873497D01*
X6948022Y27873498D01*
X6904969Y27877909D01*
X6850400Y27883500D01*
X6049600Y27883500D01*
X6046354Y27883163D01*
X6046350Y27883163D01*
X5950692Y27873238D01*
X5950688Y27873237D01*
X5943834Y27872526D01*
X5937298Y27870345D01*
X5937296Y27870345D01*
X5814213Y27829281D01*
X5776054Y27816550D01*
X5625652Y27723478D01*
X5500695Y27598303D01*
X5496855Y27592073D01*
X5496854Y27592072D01*
X5468926Y27546764D01*
X5416154Y27499271D01*
X5346082Y27487847D01*
X5280958Y27516121D01*
X5262582Y27535045D01*
X5256396Y27542920D01*
X5251865Y27546852D01*
X5251862Y27546855D01*
X5101167Y27677621D01*
X5096637Y27681552D01*
X5091451Y27684552D01*
X5091447Y27684555D01*
X4918742Y27784467D01*
X4913546Y27787473D01*
X4713729Y27856861D01*
X4707794Y27857722D01*
X4707792Y27857722D01*
X4510336Y27886352D01*
X4510333Y27886352D01*
X4504396Y27887213D01*
X4293101Y27877433D01*
X4161923Y27845819D01*
X4093299Y27829281D01*
X4093297Y27829280D01*
X4087466Y27827875D01*
X4082008Y27825393D01*
X4082004Y27825392D01*
X3966959Y27773084D01*
X3894913Y27740326D01*
X3722389Y27617946D01*
X3576119Y27465150D01*
X3461380Y27287452D01*
X3382314Y27091263D01*
X3341772Y26883663D01*
X3341500Y26878101D01*
X3341500Y26172154D01*
X-891500Y26172154D01*
X-891500Y27175400D01*
X-902474Y27281166D01*
X-906251Y27292489D01*
X-956132Y27441998D01*
X-958450Y27448946D01*
X-1051522Y27599348D01*
X-1176697Y27724305D01*
X-1279174Y27787473D01*
X-1321032Y27813275D01*
X-1321034Y27813276D01*
X-1327262Y27817115D01*
X-1487746Y27870345D01*
X-1488611Y27870632D01*
X-1488613Y27870632D01*
X-1495139Y27872797D01*
X-1501975Y27873497D01*
X-1501978Y27873498D01*
X-1545031Y27877909D01*
X-1599600Y27883500D01*
X-2400400Y27883500D01*
X-2403646Y27883163D01*
X-2403650Y27883163D01*
X-2499308Y27873238D01*
X-2499312Y27873237D01*
X-2506166Y27872526D01*
X-2512702Y27870345D01*
X-2512704Y27870345D01*
X-2635787Y27829281D01*
X-2673946Y27816550D01*
X-2824348Y27723478D01*
X-2949305Y27598303D01*
X-2953145Y27592073D01*
X-2953146Y27592072D01*
X-2981074Y27546764D01*
X-3033846Y27499271D01*
X-3103918Y27487847D01*
X-3169042Y27516121D01*
X-3187418Y27535045D01*
X-3193604Y27542920D01*
X-3198135Y27546852D01*
X-3198138Y27546855D01*
X-3348833Y27677621D01*
X-3353363Y27681552D01*
X-3358549Y27684552D01*
X-3358553Y27684555D01*
X-3531258Y27784467D01*
X-3536454Y27787473D01*
X-3736271Y27856861D01*
X-3742206Y27857722D01*
X-3742208Y27857722D01*
X-3939664Y27886352D01*
X-3939667Y27886352D01*
X-3945604Y27887213D01*
X-4156899Y27877433D01*
X-4288077Y27845819D01*
X-4356701Y27829281D01*
X-4356703Y27829280D01*
X-4362534Y27827875D01*
X-4367992Y27825393D01*
X-4367996Y27825392D01*
X-4483041Y27773084D01*
X-4555087Y27740326D01*
X-4727611Y27617946D01*
X-4873881Y27465150D01*
X-4988620Y27287452D01*
X-5067686Y27091263D01*
X-5108228Y26883663D01*
X-5108500Y26878101D01*
X-5108500Y26172154D01*
X-9341500Y26172154D01*
X-9341500Y27175400D01*
X-9352474Y27281166D01*
X-9356251Y27292489D01*
X-9406132Y27441998D01*
X-9408450Y27448946D01*
X-9501522Y27599348D01*
X-9626697Y27724305D01*
X-9729174Y27787473D01*
X-9771032Y27813275D01*
X-9771034Y27813276D01*
X-9777262Y27817115D01*
X-9937746Y27870345D01*
X-9938611Y27870632D01*
X-9938613Y27870632D01*
X-9945139Y27872797D01*
X-9951975Y27873497D01*
X-9951978Y27873498D01*
X-9995031Y27877909D01*
X-10049600Y27883500D01*
X-10850400Y27883500D01*
X-10853646Y27883163D01*
X-10853650Y27883163D01*
X-10949308Y27873238D01*
X-10949312Y27873237D01*
X-10956166Y27872526D01*
X-10962702Y27870345D01*
X-10962704Y27870345D01*
X-11085787Y27829281D01*
X-11123946Y27816550D01*
X-11274348Y27723478D01*
X-11399305Y27598303D01*
X-11403145Y27592073D01*
X-11403146Y27592072D01*
X-11431074Y27546764D01*
X-11483846Y27499271D01*
X-11553918Y27487847D01*
X-11619042Y27516121D01*
X-11637418Y27535045D01*
X-11643604Y27542920D01*
X-11648135Y27546852D01*
X-11648138Y27546855D01*
X-11798833Y27677621D01*
X-11803363Y27681552D01*
X-11808549Y27684552D01*
X-11808553Y27684555D01*
X-11981258Y27784467D01*
X-11986454Y27787473D01*
X-12186271Y27856861D01*
X-12192206Y27857722D01*
X-12192208Y27857722D01*
X-12389664Y27886352D01*
X-12389667Y27886352D01*
X-12395604Y27887213D01*
X-12606899Y27877433D01*
X-12738077Y27845819D01*
X-12806701Y27829281D01*
X-12806703Y27829280D01*
X-12812534Y27827875D01*
X-12817992Y27825393D01*
X-12817996Y27825392D01*
X-12933041Y27773084D01*
X-13005087Y27740326D01*
X-13177611Y27617946D01*
X-13323881Y27465150D01*
X-13438620Y27287452D01*
X-13517686Y27091263D01*
X-13558228Y26883663D01*
X-13558500Y26878101D01*
X-13558500Y26172154D01*
X-14991500Y26172154D01*
X-14991500Y30865500D01*
X-14971498Y30933621D01*
X-14917842Y30980114D01*
X-14865500Y30991500D01*
X17115500Y30991500D01*
X17183621Y30971498D01*
G37*
%TD.AperFunction*%
%TD*%
M02*
