%TF.GenerationSoftware,KiCad,Pcbnew,(6.0.5)*%
%TF.CreationDate,2022-06-07T12:51:26-06:00*%
%TF.ProjectId,21Pin_Fanout,32315069-6e5f-4466-916e-6f75742e6b69,rev?*%
%TF.SameCoordinates,Original*%
%TF.FileFunction,Copper,L1,Top*%
%TF.FilePolarity,Positive*%
%FSLAX46Y46*%
G04 Gerber Fmt 4.6, Leading zero omitted, Abs format (unit mm)*
G04 Created by KiCad (PCBNEW (6.0.5)) date 2022-06-07 12:51:26*
%MOMM*%
%LPD*%
G01*
G04 APERTURE LIST*
G04 Aperture macros list*
%AMRoundRect*
0 Rectangle with rounded corners*
0 $1 Rounding radius*
0 $2 $3 $4 $5 $6 $7 $8 $9 X,Y pos of 4 corners*
0 Add a 4 corners polygon primitive as box body*
4,1,4,$2,$3,$4,$5,$6,$7,$8,$9,$2,$3,0*
0 Add four circle primitives for the rounded corners*
1,1,$1+$1,$2,$3*
1,1,$1+$1,$4,$5*
1,1,$1+$1,$6,$7*
1,1,$1+$1,$8,$9*
0 Add four rect primitives between the rounded corners*
20,1,$1+$1,$2,$3,$4,$5,0*
20,1,$1+$1,$4,$5,$6,$7,0*
20,1,$1+$1,$6,$7,$8,$9,0*
20,1,$1+$1,$8,$9,$2,$3,0*%
G04 Aperture macros list end*
%TA.AperFunction,ComponentPad*%
%ADD10RoundRect,0.250000X0.350000X0.625000X-0.350000X0.625000X-0.350000X-0.625000X0.350000X-0.625000X0*%
%TD*%
%TA.AperFunction,ComponentPad*%
%ADD11O,1.200000X1.750000*%
%TD*%
%TA.AperFunction,SMDPad,CuDef*%
%ADD12O,0.250000X2.400000*%
%TD*%
%TA.AperFunction,ComponentPad*%
%ADD13O,1.500000X2.700000*%
%TD*%
%TA.AperFunction,ComponentPad*%
%ADD14O,1.500000X3.300000*%
%TD*%
%TA.AperFunction,ViaPad*%
%ADD15C,0.800000*%
%TD*%
%TA.AperFunction,Conductor*%
%ADD16C,0.250000*%
%TD*%
G04 APERTURE END LIST*
D10*
%TO.P,J3,1,Pin_1*%
%TO.N,Net-(J1-Pad10)*%
X-10450000Y26500000D03*
D11*
%TO.P,J3,2,Pin_2*%
%TO.N,Net-(J1-Pad12)*%
X-12450000Y26500000D03*
%TD*%
D10*
%TO.P,J2,1,Pin_1*%
%TO.N,Net-(J1-Pad7)*%
X-2000000Y26500000D03*
D11*
%TO.P,J2,2,Pin_2*%
%TO.N,Net-(J1-Pad9)*%
X-4000000Y26500000D03*
%TD*%
D10*
%TO.P,J4,1,Pin_1*%
%TO.N,Net-(J1-Pad1)*%
X14750000Y26500000D03*
D11*
%TO.P,J4,2,Pin_2*%
%TO.N,Net-(J1-Pad3)*%
X12750000Y26500000D03*
%TD*%
D10*
%TO.P,J5,1,Pin_1*%
%TO.N,Net-(J1-Pad4)*%
X6450000Y26500000D03*
D11*
%TO.P,J5,2,Pin_2*%
%TO.N,Net-(J1-Pad6)*%
X4450000Y26500000D03*
%TD*%
D12*
%TO.P,J1,1,D2+*%
%TO.N,Net-(J1-Pad1)*%
X4501000Y3396000D03*
%TO.P,J1,2,D2S*%
%TO.N,GND*%
X4001000Y3396000D03*
%TO.P,J1,3,D2-*%
%TO.N,Net-(J1-Pad3)*%
X3501000Y3396000D03*
%TO.P,J1,4,D1+*%
%TO.N,Net-(J1-Pad4)*%
X3001000Y3396000D03*
%TO.P,J1,5,D1S*%
%TO.N,GND*%
X2500000Y3396000D03*
%TO.P,J1,6,D1-*%
%TO.N,Net-(J1-Pad6)*%
X2000000Y3396000D03*
%TO.P,J1,7,D0+*%
%TO.N,Net-(J1-Pad7)*%
X1500000Y3396000D03*
%TO.P,J1,8,D0S*%
%TO.N,GND*%
X1000000Y3396000D03*
%TO.P,J1,9,D0-*%
%TO.N,Net-(J1-Pad9)*%
X500000Y3396000D03*
%TO.P,J1,10,CK+*%
%TO.N,Net-(J1-Pad10)*%
X0Y3396000D03*
%TO.P,J1,11,CKS*%
%TO.N,GND*%
X-500000Y3396000D03*
%TO.P,J1,12,CK-*%
%TO.N,Net-(J1-Pad12)*%
X-1000000Y3396000D03*
%TO.P,J1,13,CEC*%
%TO.N,unconnected-(J1-Pad13)*%
X-1500000Y3396000D03*
%TO.P,J1,14,UTILITY*%
%TO.N,unconnected-(J1-Pad14)*%
X-2000000Y3396000D03*
%TO.P,J1,15,SCL*%
%TO.N,unconnected-(J1-Pad15)*%
X-2500000Y3396000D03*
%TO.P,J1,16,SDA*%
%TO.N,unconnected-(J1-Pad16)*%
X-3001000Y3396000D03*
%TO.P,J1,17,GND*%
%TO.N,GND*%
X-3501000Y3396000D03*
%TO.P,J1,18,+5V*%
%TO.N,unconnected-(J1-Pad18)*%
X-4001000Y3396000D03*
%TO.P,J1,19,HPD*%
%TO.N,unconnected-(J1-Pad19)*%
X-4501000Y3396000D03*
D13*
%TO.P,J1,20*%
%TO.N,N/C*%
X7250000Y-3396000D03*
%TO.P,J1,21*%
X-7250000Y-3396000D03*
D14*
%TO.P,J1,22*%
X7250000Y2564000D03*
%TO.P,J1,23*%
X-7250000Y2564000D03*
%TD*%
D15*
%TO.N,GND*%
X-2000000Y1000000D03*
%TD*%
D16*
%TO.N,Net-(J1-Pad1)*%
X14750000Y26500000D02*
X11932141Y23682141D01*
X4501000Y21115282D02*
X4501000Y3396000D01*
X7067859Y23682141D02*
X4501000Y21115282D01*
X11932141Y23682141D02*
X7067859Y23682141D01*
%TO.N,GND*%
X-2121480Y1871480D02*
X-2121480Y1121480D01*
X-813803Y1871480D02*
X-500000Y2185283D01*
X2500000Y1946000D02*
X2696000Y1750000D01*
X1000000Y1946000D02*
X1074520Y1871480D01*
X1000000Y3396000D02*
X1000000Y1946000D01*
X-2121480Y1871480D02*
X-813803Y1871480D01*
X-3501000Y3396000D02*
X-3501000Y1946000D01*
X-500000Y1946000D02*
X-425480Y1871480D01*
X-500000Y2185283D02*
X-500000Y3396000D01*
X2500000Y3396000D02*
X2500000Y1946000D01*
X-3426480Y1871480D02*
X-2121480Y1871480D01*
X4001000Y2185283D02*
X4001000Y3396000D01*
X2696000Y1750000D02*
X3565717Y1750000D01*
X1000000Y2134803D02*
X1000000Y3396000D01*
X736677Y1871480D02*
X1000000Y2134803D01*
X-2121480Y1121480D02*
X-2000000Y1000000D01*
X-500000Y3396000D02*
X-500000Y1946000D01*
X-3501000Y1946000D02*
X-3426480Y1871480D01*
X-425480Y1871480D02*
X736677Y1871480D01*
X2186197Y1871480D02*
X2500000Y2185283D01*
X2500000Y2185283D02*
X2500000Y3396000D01*
X1074520Y1871480D02*
X2186197Y1871480D01*
X3565717Y1750000D02*
X4001000Y2185283D01*
%TO.N,Net-(J1-Pad3)*%
X3501000Y3396000D02*
X3501000Y20751000D01*
X3501000Y20751000D02*
X9250000Y26500000D01*
X9250000Y26500000D02*
X12750000Y26500000D01*
%TO.N,Net-(J1-Pad4)*%
X3001000Y23051000D02*
X3001000Y3396000D01*
X6450000Y26500000D02*
X3001000Y23051000D01*
%TO.N,Net-(J1-Pad6)*%
X2000000Y3396000D02*
X2000000Y24050000D01*
X2000000Y24050000D02*
X4450000Y26500000D01*
%TO.N,Net-(J1-Pad7)*%
X-2000000Y26500000D02*
X1500000Y23000000D01*
X1500000Y23000000D02*
X1500000Y3396000D01*
%TO.N,Net-(J1-Pad9)*%
X-4000000Y26500000D02*
X500000Y22000000D01*
X500000Y22000000D02*
X500000Y3396000D01*
%TO.N,Net-(J1-Pad10)*%
X0Y16050000D02*
X-10450000Y26500000D01*
X0Y3396000D02*
X0Y16050000D01*
%TO.N,Net-(J1-Pad12)*%
X-1000000Y15050000D02*
X-1000000Y3396000D01*
X-12450000Y26500000D02*
X-1000000Y15050000D01*
%TD*%
%TA.AperFunction,Conductor*%
%TO.N,GND*%
G36*
X17183621Y30971498D02*
G01*
X17230114Y30917842D01*
X17241500Y30865500D01*
X17241500Y21884500D01*
X17221498Y21816379D01*
X17167842Y21769886D01*
X17115500Y21758500D01*
X8508623Y21758500D01*
X8507853Y21758502D01*
X8507037Y21758507D01*
X8430279Y21758976D01*
X8407918Y21752585D01*
X8401847Y21750850D01*
X8385085Y21747272D01*
X8355813Y21743080D01*
X8347645Y21739366D01*
X8347644Y21739366D01*
X8332438Y21732452D01*
X8314914Y21726004D01*
X8290229Y21718949D01*
X8282635Y21714157D01*
X8282632Y21714156D01*
X8265220Y21703170D01*
X8250137Y21695031D01*
X8223218Y21682792D01*
X8216416Y21676931D01*
X8203765Y21666030D01*
X8188761Y21654927D01*
X8167042Y21641224D01*
X8161103Y21634499D01*
X8161099Y21634496D01*
X8147468Y21619062D01*
X8135276Y21607018D01*
X8119673Y21593573D01*
X8119671Y21593570D01*
X8112873Y21587713D01*
X8107993Y21580184D01*
X8107992Y21580183D01*
X8098906Y21566165D01*
X8087615Y21551291D01*
X8076569Y21538783D01*
X8070622Y21532049D01*
X8058058Y21505289D01*
X8049737Y21490309D01*
X8038529Y21473017D01*
X8038527Y21473012D01*
X8033648Y21465485D01*
X8031078Y21456892D01*
X8031076Y21456887D01*
X8026289Y21440880D01*
X8019628Y21423436D01*
X8008719Y21400200D01*
X8007338Y21391333D01*
X8007338Y21391332D01*
X8004170Y21370985D01*
X8000387Y21354268D01*
X7994485Y21334534D01*
X7994484Y21334528D01*
X7991914Y21325934D01*
X7991859Y21316963D01*
X7991859Y21316962D01*
X7991704Y21291503D01*
X7991671Y21290711D01*
X7991500Y21289614D01*
X7991500Y21258623D01*
X7991498Y21257853D01*
X7991024Y21180279D01*
X7991408Y21178935D01*
X7991500Y21177590D01*
X7991500Y4705927D01*
X7971498Y4637806D01*
X7917842Y4591313D01*
X7847568Y4581209D01*
X7814855Y4590554D01*
X7658180Y4659330D01*
X7658167Y4659335D01*
X7653033Y4661588D01*
X7647582Y4662897D01*
X7647578Y4662898D01*
X7440046Y4712722D01*
X7440045Y4712722D01*
X7434589Y4714032D01*
X7350525Y4718879D01*
X7215917Y4726640D01*
X7215914Y4726640D01*
X7210310Y4726963D01*
X6987285Y4699975D01*
X6772565Y4633918D01*
X6767585Y4631348D01*
X6767581Y4631346D01*
X6626850Y4558709D01*
X6572936Y4530882D01*
X6394708Y4394123D01*
X6243515Y4227964D01*
X6124136Y4037656D01*
X6040344Y3829217D01*
X5994787Y3609233D01*
X5991500Y3552225D01*
X5991500Y1607001D01*
X5991749Y1604214D01*
X5991749Y1604208D01*
X5998009Y1534071D01*
X6006383Y1440238D01*
X6065663Y1223549D01*
X6162378Y1020782D01*
X6293471Y838346D01*
X6454799Y682008D01*
X6641262Y556710D01*
X6846967Y466412D01*
X6852418Y465103D01*
X6852422Y465102D01*
X7025503Y423549D01*
X7065411Y413968D01*
X7149475Y409121D01*
X7284083Y401360D01*
X7284086Y401360D01*
X7289690Y401037D01*
X7512715Y428025D01*
X7727435Y494082D01*
X7732415Y496652D01*
X7732419Y496654D01*
X7807710Y535515D01*
X7877417Y548984D01*
X7943341Y522629D01*
X7984550Y464816D01*
X7991500Y423549D01*
X7991500Y-1554073D01*
X7971498Y-1622194D01*
X7917842Y-1668687D01*
X7847568Y-1678791D01*
X7814855Y-1669446D01*
X7658180Y-1600670D01*
X7658167Y-1600665D01*
X7653033Y-1598412D01*
X7647582Y-1597103D01*
X7647578Y-1597102D01*
X7440046Y-1547278D01*
X7440045Y-1547278D01*
X7434589Y-1545968D01*
X7350525Y-1541121D01*
X7215917Y-1533360D01*
X7215914Y-1533360D01*
X7210310Y-1533037D01*
X6987285Y-1560025D01*
X6772565Y-1626082D01*
X6767585Y-1628652D01*
X6767581Y-1628654D01*
X6577919Y-1726546D01*
X6572936Y-1729118D01*
X6394708Y-1865877D01*
X6243515Y-2032036D01*
X6124136Y-2222344D01*
X6040344Y-2430783D01*
X5994787Y-2650767D01*
X5991500Y-2707775D01*
X5991500Y-4052999D01*
X5991749Y-4055786D01*
X5991749Y-4055792D01*
X5998009Y-4125929D01*
X6006383Y-4219762D01*
X6065663Y-4436451D01*
X6162378Y-4639218D01*
X6293471Y-4821654D01*
X6454799Y-4977992D01*
X6641262Y-5103290D01*
X6846967Y-5193588D01*
X6852418Y-5194897D01*
X6852422Y-5194898D01*
X7025503Y-5236451D01*
X7065411Y-5246032D01*
X7149475Y-5250879D01*
X7284083Y-5258640D01*
X7284086Y-5258640D01*
X7289690Y-5258963D01*
X7512715Y-5231975D01*
X7727435Y-5165918D01*
X7732415Y-5163348D01*
X7732419Y-5163346D01*
X7807710Y-5124485D01*
X7877417Y-5111016D01*
X7943341Y-5137371D01*
X7984550Y-5195184D01*
X7991500Y-5236451D01*
X7991500Y-6115500D01*
X7971498Y-6183621D01*
X7917842Y-6230114D01*
X7865500Y-6241500D01*
X-7865500Y-6241500D01*
X-7933621Y-6221498D01*
X-7980114Y-6167842D01*
X-7991500Y-6115500D01*
X-7991500Y-5237927D01*
X-7971498Y-5169806D01*
X-7917842Y-5123313D01*
X-7847568Y-5113209D01*
X-7814855Y-5122554D01*
X-7658180Y-5191330D01*
X-7658167Y-5191335D01*
X-7653033Y-5193588D01*
X-7647582Y-5194897D01*
X-7647578Y-5194898D01*
X-7474497Y-5236451D01*
X-7434589Y-5246032D01*
X-7350525Y-5250879D01*
X-7215917Y-5258640D01*
X-7215914Y-5258640D01*
X-7210310Y-5258963D01*
X-6987285Y-5231975D01*
X-6772565Y-5165918D01*
X-6767585Y-5163348D01*
X-6767581Y-5163346D01*
X-6577919Y-5065454D01*
X-6577918Y-5065454D01*
X-6572936Y-5062882D01*
X-6394708Y-4926123D01*
X-6243515Y-4759964D01*
X-6124136Y-4569656D01*
X-6040344Y-4361217D01*
X-5994787Y-4141233D01*
X-5991500Y-4084225D01*
X-5991500Y-2739001D01*
X-5994449Y-2705952D01*
X-6005884Y-2577833D01*
X-6006383Y-2572238D01*
X-6065663Y-2355549D01*
X-6162378Y-2152782D01*
X-6293471Y-1970346D01*
X-6454799Y-1814008D01*
X-6641262Y-1688710D01*
X-6846967Y-1598412D01*
X-6852418Y-1597103D01*
X-6852422Y-1597102D01*
X-7059954Y-1547278D01*
X-7059955Y-1547278D01*
X-7065411Y-1545968D01*
X-7149475Y-1541121D01*
X-7284083Y-1533360D01*
X-7284086Y-1533360D01*
X-7289690Y-1533037D01*
X-7512715Y-1560025D01*
X-7727435Y-1626082D01*
X-7732415Y-1628652D01*
X-7732419Y-1628654D01*
X-7807710Y-1667515D01*
X-7877417Y-1680984D01*
X-7943341Y-1654629D01*
X-7984550Y-1596816D01*
X-7991500Y-1555549D01*
X-7991500Y422073D01*
X-7971498Y490194D01*
X-7917842Y536687D01*
X-7847568Y546791D01*
X-7814855Y537446D01*
X-7658180Y468670D01*
X-7658167Y468665D01*
X-7653033Y466412D01*
X-7647582Y465103D01*
X-7647578Y465102D01*
X-7474497Y423549D01*
X-7434589Y413968D01*
X-7350525Y409121D01*
X-7215917Y401360D01*
X-7215914Y401360D01*
X-7210310Y401037D01*
X-6987285Y428025D01*
X-6772565Y494082D01*
X-6767585Y496652D01*
X-6767581Y496654D01*
X-6577919Y594546D01*
X-6577918Y594546D01*
X-6572936Y597118D01*
X-6394708Y733877D01*
X-6243515Y900036D01*
X-6124136Y1090344D01*
X-6040344Y1298783D01*
X-5994787Y1518767D01*
X-5991500Y1575775D01*
X-5991500Y3520999D01*
X-5994449Y3554048D01*
X-6005884Y3682167D01*
X-6006383Y3687762D01*
X-6065663Y3904451D01*
X-6162378Y4107218D01*
X-6293471Y4289654D01*
X-6454799Y4445992D01*
X-6641262Y4571290D01*
X-6846967Y4661588D01*
X-6852418Y4662897D01*
X-6852422Y4662898D01*
X-7059954Y4712722D01*
X-7059955Y4712722D01*
X-7065411Y4714032D01*
X-7149475Y4718879D01*
X-7284083Y4726640D01*
X-7284086Y4726640D01*
X-7289690Y4726963D01*
X-7512715Y4699975D01*
X-7727435Y4633918D01*
X-7732415Y4631348D01*
X-7732419Y4631346D01*
X-7807710Y4592485D01*
X-7877417Y4579016D01*
X-7943341Y4605371D01*
X-7984550Y4663184D01*
X-7991500Y4704451D01*
X-7991500Y20841406D01*
X-7971498Y20909527D01*
X-7917842Y20956020D01*
X-7847568Y20966124D01*
X-7782988Y20936630D01*
X-7776405Y20930501D01*
X-1670405Y14824501D01*
X-1636379Y14762189D01*
X-1633500Y14735406D01*
X-1633500Y5195692D01*
X-1653502Y5127571D01*
X-1707158Y5081078D01*
X-1777432Y5070974D01*
X-1796644Y5075442D01*
X-1802682Y5078283D01*
X-1810470Y5079769D01*
X-1810471Y5079769D01*
X-1952121Y5106790D01*
X-1952122Y5106790D01*
X-1959906Y5108275D01*
X-2048400Y5102708D01*
X-2111738Y5098723D01*
X-2111740Y5098723D01*
X-2119650Y5098225D01*
X-2127186Y5095776D01*
X-2127188Y5095776D01*
X-2128711Y5095281D01*
X-2200291Y5072023D01*
X-2205545Y5070316D01*
X-2276512Y5068288D01*
X-2288184Y5072528D01*
X-2295512Y5074909D01*
X-2302682Y5078283D01*
X-2310465Y5079768D01*
X-2310466Y5079768D01*
X-2452121Y5106790D01*
X-2452122Y5106790D01*
X-2459906Y5108275D01*
X-2548400Y5102708D01*
X-2611738Y5098723D01*
X-2611740Y5098723D01*
X-2619650Y5098225D01*
X-2627186Y5095776D01*
X-2627188Y5095776D01*
X-2706137Y5070124D01*
X-2777105Y5068097D01*
X-2790313Y5072895D01*
X-2796511Y5074908D01*
X-2803682Y5078283D01*
X-2935305Y5103391D01*
X-2953121Y5106790D01*
X-2953122Y5106790D01*
X-2960906Y5108275D01*
X-3049400Y5102708D01*
X-3112738Y5098723D01*
X-3112740Y5098723D01*
X-3120650Y5098225D01*
X-3207241Y5070090D01*
X-3278206Y5068062D01*
X-3289110Y5072023D01*
X-3289124Y5071979D01*
X-3311622Y5079289D01*
X-3453152Y5106287D01*
X-3468849Y5107274D01*
X-3612643Y5098228D01*
X-3628093Y5095281D01*
X-3705884Y5070005D01*
X-3776852Y5067978D01*
X-3791038Y5073130D01*
X-3796508Y5074907D01*
X-3803682Y5078283D01*
X-3935305Y5103391D01*
X-3953121Y5106790D01*
X-3953122Y5106790D01*
X-3960906Y5108275D01*
X-4049400Y5102708D01*
X-4112738Y5098723D01*
X-4112740Y5098723D01*
X-4120650Y5098225D01*
X-4128186Y5095776D01*
X-4128188Y5095776D01*
X-4129711Y5095281D01*
X-4201291Y5072023D01*
X-4206545Y5070316D01*
X-4277512Y5068288D01*
X-4289184Y5072528D01*
X-4296512Y5074909D01*
X-4303682Y5078283D01*
X-4311465Y5079768D01*
X-4311466Y5079768D01*
X-4453121Y5106790D01*
X-4453122Y5106790D01*
X-4460906Y5108275D01*
X-4549400Y5102708D01*
X-4612738Y5098723D01*
X-4612740Y5098723D01*
X-4620650Y5098225D01*
X-4628186Y5095776D01*
X-4628188Y5095776D01*
X-4765333Y5051215D01*
X-4765336Y5051214D01*
X-4772875Y5048764D01*
X-4908018Y4963000D01*
X-5017586Y4846321D01*
X-5094695Y4706060D01*
X-5134500Y4551030D01*
X-5134500Y2281144D01*
X-5119474Y2162203D01*
X-5060552Y2013383D01*
X-4966472Y1883893D01*
X-4843144Y1781867D01*
X-4835977Y1778494D01*
X-4835973Y1778492D01*
X-4773879Y1749274D01*
X-4698318Y1713717D01*
X-4593778Y1693775D01*
X-4551515Y1685713D01*
X-4541094Y1683725D01*
X-4452600Y1689292D01*
X-4389262Y1693277D01*
X-4389260Y1693277D01*
X-4381350Y1693775D01*
X-4373814Y1696224D01*
X-4373812Y1696224D01*
X-4305248Y1718502D01*
X-4295455Y1721684D01*
X-4224488Y1723712D01*
X-4212816Y1719472D01*
X-4205488Y1717091D01*
X-4198318Y1713717D01*
X-4190535Y1712232D01*
X-4190534Y1712232D01*
X-4048879Y1685210D01*
X-4041094Y1683725D01*
X-3952600Y1689292D01*
X-3889262Y1693277D01*
X-3889260Y1693277D01*
X-3881350Y1693775D01*
X-3794759Y1721910D01*
X-3723794Y1723938D01*
X-3712890Y1719977D01*
X-3712876Y1720021D01*
X-3690378Y1712711D01*
X-3548848Y1685713D01*
X-3533151Y1684726D01*
X-3389357Y1693772D01*
X-3373907Y1696719D01*
X-3296116Y1721995D01*
X-3225148Y1724022D01*
X-3210962Y1718870D01*
X-3205492Y1717093D01*
X-3198318Y1713717D01*
X-3093778Y1693775D01*
X-3051515Y1685713D01*
X-3041094Y1683725D01*
X-2952600Y1689292D01*
X-2889262Y1693277D01*
X-2889260Y1693277D01*
X-2881350Y1693775D01*
X-2873814Y1696224D01*
X-2873812Y1696224D01*
X-2794863Y1721876D01*
X-2723895Y1723903D01*
X-2710687Y1719105D01*
X-2704489Y1717092D01*
X-2697318Y1713717D01*
X-2592778Y1693775D01*
X-2550515Y1685713D01*
X-2540094Y1683725D01*
X-2451600Y1689292D01*
X-2388262Y1693277D01*
X-2388260Y1693277D01*
X-2380350Y1693775D01*
X-2372814Y1696224D01*
X-2372812Y1696224D01*
X-2304248Y1718502D01*
X-2294455Y1721684D01*
X-2223488Y1723712D01*
X-2211816Y1719472D01*
X-2204488Y1717091D01*
X-2197318Y1713717D01*
X-2189535Y1712232D01*
X-2189534Y1712232D01*
X-2047879Y1685210D01*
X-2040094Y1683725D01*
X-1951600Y1689292D01*
X-1888262Y1693277D01*
X-1888260Y1693277D01*
X-1880350Y1693775D01*
X-1872814Y1696224D01*
X-1872812Y1696224D01*
X-1804248Y1718502D01*
X-1794455Y1721684D01*
X-1723488Y1723712D01*
X-1711816Y1719472D01*
X-1704488Y1717091D01*
X-1697318Y1713717D01*
X-1689535Y1712232D01*
X-1689534Y1712232D01*
X-1547879Y1685210D01*
X-1540094Y1683725D01*
X-1451600Y1689292D01*
X-1388262Y1693277D01*
X-1388260Y1693277D01*
X-1380350Y1693775D01*
X-1372814Y1696224D01*
X-1372812Y1696224D01*
X-1304248Y1718502D01*
X-1294455Y1721684D01*
X-1223488Y1723712D01*
X-1211816Y1719472D01*
X-1204488Y1717091D01*
X-1197318Y1713717D01*
X-1189535Y1712232D01*
X-1189534Y1712232D01*
X-1047879Y1685210D01*
X-1040094Y1683725D01*
X-951600Y1689292D01*
X-888262Y1693277D01*
X-888260Y1693277D01*
X-880350Y1693775D01*
X-793759Y1721910D01*
X-722794Y1723938D01*
X-711890Y1719977D01*
X-711876Y1720021D01*
X-689378Y1712711D01*
X-547848Y1685713D01*
X-532151Y1684726D01*
X-388357Y1693772D01*
X-372907Y1696719D01*
X-295116Y1721995D01*
X-224148Y1724022D01*
X-209962Y1718870D01*
X-204492Y1717093D01*
X-197318Y1713717D01*
X-92778Y1693775D01*
X-50515Y1685713D01*
X-40094Y1683725D01*
X48400Y1689292D01*
X111738Y1693277D01*
X111740Y1693277D01*
X119650Y1693775D01*
X127186Y1696224D01*
X127188Y1696224D01*
X195752Y1718502D01*
X205545Y1721684D01*
X276512Y1723712D01*
X288184Y1719472D01*
X295512Y1717091D01*
X302682Y1713717D01*
X310465Y1712232D01*
X310466Y1712232D01*
X452121Y1685210D01*
X459906Y1683725D01*
X548400Y1689292D01*
X611738Y1693277D01*
X611740Y1693277D01*
X619650Y1693775D01*
X706241Y1721910D01*
X777206Y1723938D01*
X788110Y1719977D01*
X788124Y1720021D01*
X810622Y1712711D01*
X952152Y1685713D01*
X967849Y1684726D01*
X1111643Y1693772D01*
X1127093Y1696719D01*
X1204884Y1721995D01*
X1275852Y1724022D01*
X1290038Y1718870D01*
X1295508Y1717093D01*
X1302682Y1713717D01*
X1407222Y1693775D01*
X1449485Y1685713D01*
X1459906Y1683725D01*
X1548400Y1689292D01*
X1611738Y1693277D01*
X1611740Y1693277D01*
X1619650Y1693775D01*
X1627186Y1696224D01*
X1627188Y1696224D01*
X1695752Y1718502D01*
X1705545Y1721684D01*
X1776512Y1723712D01*
X1788184Y1719472D01*
X1795512Y1717091D01*
X1802682Y1713717D01*
X1810465Y1712232D01*
X1810466Y1712232D01*
X1952121Y1685210D01*
X1959906Y1683725D01*
X2048400Y1689292D01*
X2111738Y1693277D01*
X2111740Y1693277D01*
X2119650Y1693775D01*
X2206241Y1721910D01*
X2277206Y1723938D01*
X2288110Y1719977D01*
X2288124Y1720021D01*
X2310622Y1712711D01*
X2452152Y1685713D01*
X2467849Y1684726D01*
X2611643Y1693772D01*
X2627093Y1696719D01*
X2705476Y1722187D01*
X2776444Y1724214D01*
X2792172Y1718502D01*
X2796506Y1717094D01*
X2803682Y1713717D01*
X2908222Y1693775D01*
X2950485Y1685713D01*
X2960906Y1683725D01*
X3049400Y1689292D01*
X3112738Y1693277D01*
X3112740Y1693277D01*
X3120650Y1693775D01*
X3128186Y1696224D01*
X3128188Y1696224D01*
X3196752Y1718502D01*
X3206545Y1721684D01*
X3277512Y1723712D01*
X3289184Y1719472D01*
X3296512Y1717091D01*
X3303682Y1713717D01*
X3311465Y1712232D01*
X3311466Y1712232D01*
X3453121Y1685210D01*
X3460906Y1683725D01*
X3549400Y1689292D01*
X3612738Y1693277D01*
X3612740Y1693277D01*
X3620650Y1693775D01*
X3707241Y1721910D01*
X3778206Y1723938D01*
X3789110Y1719977D01*
X3789124Y1720021D01*
X3811622Y1712711D01*
X3953152Y1685713D01*
X3968849Y1684726D01*
X4112643Y1693772D01*
X4128093Y1696719D01*
X4205884Y1721995D01*
X4276852Y1724022D01*
X4291038Y1718870D01*
X4296508Y1717093D01*
X4303682Y1713717D01*
X4408222Y1693775D01*
X4450485Y1685713D01*
X4460906Y1683725D01*
X4549400Y1689292D01*
X4612738Y1693277D01*
X4612740Y1693277D01*
X4620650Y1693775D01*
X4628186Y1696224D01*
X4628188Y1696224D01*
X4765333Y1740785D01*
X4765336Y1740786D01*
X4772875Y1743236D01*
X4908018Y1829000D01*
X5017586Y1945679D01*
X5094695Y2085940D01*
X5134500Y2240970D01*
X5134500Y20800688D01*
X5154502Y20868809D01*
X5171405Y20889783D01*
X7293359Y23011736D01*
X7355671Y23045762D01*
X7382454Y23048641D01*
X11853374Y23048641D01*
X11864557Y23048114D01*
X11872050Y23046439D01*
X11879976Y23046688D01*
X11879977Y23046688D01*
X11940127Y23048579D01*
X11944086Y23048641D01*
X11971997Y23048641D01*
X11975932Y23049138D01*
X11975997Y23049146D01*
X11987834Y23050079D01*
X12020092Y23051093D01*
X12024111Y23051219D01*
X12032030Y23051468D01*
X12051484Y23057120D01*
X12070841Y23061128D01*
X12083071Y23062673D01*
X12083072Y23062673D01*
X12090938Y23063667D01*
X12098309Y23066586D01*
X12098311Y23066586D01*
X12132053Y23079945D01*
X12143283Y23083790D01*
X12178124Y23093912D01*
X12178125Y23093912D01*
X12185734Y23096123D01*
X12192553Y23100156D01*
X12192558Y23100158D01*
X12203169Y23106434D01*
X12220917Y23115129D01*
X12239758Y23122589D01*
X12275528Y23148577D01*
X12285448Y23155093D01*
X12316676Y23173561D01*
X12316679Y23173563D01*
X12323503Y23177599D01*
X12337824Y23191920D01*
X12352858Y23204761D01*
X12362835Y23212010D01*
X12369248Y23216669D01*
X12397439Y23250746D01*
X12405429Y23259525D01*
X14228154Y25082250D01*
X14290466Y25116276D01*
X14330091Y25118499D01*
X14349600Y25116500D01*
X15150400Y25116500D01*
X15153646Y25116837D01*
X15153650Y25116837D01*
X15249308Y25126762D01*
X15249312Y25126763D01*
X15256166Y25127474D01*
X15262702Y25129655D01*
X15262704Y25129655D01*
X15416998Y25181132D01*
X15423946Y25183450D01*
X15574348Y25276522D01*
X15699305Y25401697D01*
X15792115Y25552262D01*
X15847797Y25720139D01*
X15858500Y25824600D01*
X15858500Y27175400D01*
X15847526Y27281166D01*
X15843749Y27292489D01*
X15793868Y27441998D01*
X15791550Y27448946D01*
X15698478Y27599348D01*
X15573303Y27724305D01*
X15470826Y27787473D01*
X15428968Y27813275D01*
X15428966Y27813276D01*
X15422738Y27817115D01*
X15262254Y27870345D01*
X15261389Y27870632D01*
X15261387Y27870632D01*
X15254861Y27872797D01*
X15248025Y27873497D01*
X15248022Y27873498D01*
X15204969Y27877909D01*
X15150400Y27883500D01*
X14349600Y27883500D01*
X14346354Y27883163D01*
X14346350Y27883163D01*
X14250692Y27873238D01*
X14250688Y27873237D01*
X14243834Y27872526D01*
X14237298Y27870345D01*
X14237296Y27870345D01*
X14114213Y27829281D01*
X14076054Y27816550D01*
X13925652Y27723478D01*
X13800695Y27598303D01*
X13796855Y27592073D01*
X13796854Y27592072D01*
X13768926Y27546764D01*
X13716154Y27499271D01*
X13646082Y27487847D01*
X13580958Y27516121D01*
X13562582Y27535045D01*
X13556396Y27542920D01*
X13551865Y27546852D01*
X13551862Y27546855D01*
X13401167Y27677621D01*
X13396637Y27681552D01*
X13391451Y27684552D01*
X13391447Y27684555D01*
X13218742Y27784467D01*
X13213546Y27787473D01*
X13013729Y27856861D01*
X13007794Y27857722D01*
X13007792Y27857722D01*
X12810336Y27886352D01*
X12810333Y27886352D01*
X12804396Y27887213D01*
X12593101Y27877433D01*
X12461923Y27845819D01*
X12393299Y27829281D01*
X12393297Y27829280D01*
X12387466Y27827875D01*
X12382008Y27825393D01*
X12382004Y27825392D01*
X12266959Y27773084D01*
X12194913Y27740326D01*
X12022389Y27617946D01*
X11876119Y27465150D01*
X11761380Y27287452D01*
X11759137Y27281886D01*
X11731134Y27212402D01*
X11687119Y27156696D01*
X11614268Y27133500D01*
X9328768Y27133500D01*
X9317585Y27134027D01*
X9310092Y27135702D01*
X9302166Y27135453D01*
X9302165Y27135453D01*
X9242002Y27133562D01*
X9238044Y27133500D01*
X9210144Y27133500D01*
X9206154Y27132996D01*
X9194320Y27132064D01*
X9150111Y27130674D01*
X9142497Y27128462D01*
X9142492Y27128461D01*
X9130659Y27125023D01*
X9111296Y27121012D01*
X9091203Y27118474D01*
X9083836Y27115557D01*
X9083831Y27115556D01*
X9050092Y27102198D01*
X9038865Y27098354D01*
X8996407Y27086018D01*
X8989581Y27081981D01*
X8978972Y27075707D01*
X8961224Y27067012D01*
X8942383Y27059552D01*
X8935967Y27054890D01*
X8935966Y27054890D01*
X8906613Y27033564D01*
X8896693Y27027048D01*
X8865465Y27008580D01*
X8865462Y27008578D01*
X8858638Y27004542D01*
X8844317Y26990221D01*
X8829284Y26977381D01*
X8812893Y26965472D01*
X8807842Y26959366D01*
X8784702Y26931395D01*
X8776712Y26922616D01*
X7773595Y25919499D01*
X7711283Y25885473D01*
X7640468Y25890538D01*
X7583632Y25933085D01*
X7558821Y25999605D01*
X7558500Y26008594D01*
X7558500Y27175400D01*
X7547526Y27281166D01*
X7543749Y27292489D01*
X7493868Y27441998D01*
X7491550Y27448946D01*
X7398478Y27599348D01*
X7273303Y27724305D01*
X7170826Y27787473D01*
X7128968Y27813275D01*
X7128966Y27813276D01*
X7122738Y27817115D01*
X6962254Y27870345D01*
X6961389Y27870632D01*
X6961387Y27870632D01*
X6954861Y27872797D01*
X6948025Y27873497D01*
X6948022Y27873498D01*
X6904969Y27877909D01*
X6850400Y27883500D01*
X6049600Y27883500D01*
X6046354Y27883163D01*
X6046350Y27883163D01*
X5950692Y27873238D01*
X5950688Y27873237D01*
X5943834Y27872526D01*
X5937298Y27870345D01*
X5937296Y27870345D01*
X5814213Y27829281D01*
X5776054Y27816550D01*
X5625652Y27723478D01*
X5500695Y27598303D01*
X5496855Y27592073D01*
X5496854Y27592072D01*
X5468926Y27546764D01*
X5416154Y27499271D01*
X5346082Y27487847D01*
X5280958Y27516121D01*
X5262582Y27535045D01*
X5256396Y27542920D01*
X5251865Y27546852D01*
X5251862Y27546855D01*
X5101167Y27677621D01*
X5096637Y27681552D01*
X5091451Y27684552D01*
X5091447Y27684555D01*
X4918742Y27784467D01*
X4913546Y27787473D01*
X4713729Y27856861D01*
X4707794Y27857722D01*
X4707792Y27857722D01*
X4510336Y27886352D01*
X4510333Y27886352D01*
X4504396Y27887213D01*
X4293101Y27877433D01*
X4161923Y27845819D01*
X4093299Y27829281D01*
X4093297Y27829280D01*
X4087466Y27827875D01*
X4082008Y27825393D01*
X4082004Y27825392D01*
X3966959Y27773084D01*
X3894913Y27740326D01*
X3722389Y27617946D01*
X3576119Y27465150D01*
X3461380Y27287452D01*
X3459137Y27281886D01*
X3385172Y27098354D01*
X3382314Y27091263D01*
X3341772Y26883663D01*
X3341500Y26878101D01*
X3341500Y26339595D01*
X3321498Y26271474D01*
X3304595Y26250500D01*
X1607747Y24553652D01*
X1599461Y24546112D01*
X1592982Y24542000D01*
X1587557Y24536223D01*
X1546357Y24492349D01*
X1543602Y24489507D01*
X1523865Y24469770D01*
X1521385Y24466573D01*
X1513682Y24457553D01*
X1483414Y24425321D01*
X1479595Y24418375D01*
X1479593Y24418372D01*
X1473652Y24407566D01*
X1462801Y24391047D01*
X1450386Y24375041D01*
X1447241Y24367772D01*
X1447238Y24367768D01*
X1432826Y24334463D01*
X1427609Y24323813D01*
X1406305Y24285060D01*
X1404334Y24277385D01*
X1404334Y24277384D01*
X1401267Y24265438D01*
X1394880Y24246773D01*
X1394304Y24245442D01*
X1348913Y24190853D01*
X1281213Y24169470D01*
X1212700Y24188083D01*
X1189556Y24206349D01*
X-854595Y26250500D01*
X-888621Y26312812D01*
X-891500Y26339595D01*
X-891500Y27175400D01*
X-902474Y27281166D01*
X-906251Y27292489D01*
X-956132Y27441998D01*
X-958450Y27448946D01*
X-1051522Y27599348D01*
X-1176697Y27724305D01*
X-1279174Y27787473D01*
X-1321032Y27813275D01*
X-1321034Y27813276D01*
X-1327262Y27817115D01*
X-1487746Y27870345D01*
X-1488611Y27870632D01*
X-1488613Y27870632D01*
X-1495139Y27872797D01*
X-1501975Y27873497D01*
X-1501978Y27873498D01*
X-1545031Y27877909D01*
X-1599600Y27883500D01*
X-2400400Y27883500D01*
X-2403646Y27883163D01*
X-2403650Y27883163D01*
X-2499308Y27873238D01*
X-2499312Y27873237D01*
X-2506166Y27872526D01*
X-2512702Y27870345D01*
X-2512704Y27870345D01*
X-2635787Y27829281D01*
X-2673946Y27816550D01*
X-2824348Y27723478D01*
X-2949305Y27598303D01*
X-2953145Y27592073D01*
X-2953146Y27592072D01*
X-2981074Y27546764D01*
X-3033846Y27499271D01*
X-3103918Y27487847D01*
X-3169042Y27516121D01*
X-3187418Y27535045D01*
X-3193604Y27542920D01*
X-3198135Y27546852D01*
X-3198138Y27546855D01*
X-3348833Y27677621D01*
X-3353363Y27681552D01*
X-3358549Y27684552D01*
X-3358553Y27684555D01*
X-3531258Y27784467D01*
X-3536454Y27787473D01*
X-3736271Y27856861D01*
X-3742206Y27857722D01*
X-3742208Y27857722D01*
X-3939664Y27886352D01*
X-3939667Y27886352D01*
X-3945604Y27887213D01*
X-4156899Y27877433D01*
X-4288077Y27845819D01*
X-4356701Y27829281D01*
X-4356703Y27829280D01*
X-4362534Y27827875D01*
X-4367992Y27825393D01*
X-4367996Y27825392D01*
X-4483041Y27773084D01*
X-4555087Y27740326D01*
X-4727611Y27617946D01*
X-4873881Y27465150D01*
X-4988620Y27287452D01*
X-4990863Y27281886D01*
X-5064828Y27098354D01*
X-5067686Y27091263D01*
X-5108228Y26883663D01*
X-5108500Y26878101D01*
X-5108500Y26172154D01*
X-5093452Y26014434D01*
X-5033908Y25811466D01*
X-5031164Y25806139D01*
X-5031164Y25806138D01*
X-4966497Y25680580D01*
X-4937058Y25623420D01*
X-4806396Y25457080D01*
X-4801865Y25453148D01*
X-4801862Y25453145D01*
X-4665198Y25334554D01*
X-4646637Y25318448D01*
X-4641451Y25315448D01*
X-4641447Y25315445D01*
X-4479335Y25221661D01*
X-4463546Y25212527D01*
X-4263729Y25143139D01*
X-4257794Y25142278D01*
X-4257792Y25142278D01*
X-4060336Y25113648D01*
X-4060333Y25113648D01*
X-4054396Y25112787D01*
X-3843101Y25122567D01*
X-3743017Y25146687D01*
X-3650182Y25169060D01*
X-3579271Y25165575D01*
X-3531566Y25135662D01*
X-170405Y21774500D01*
X-136379Y21712188D01*
X-133500Y21685405D01*
X-133500Y17383594D01*
X-153502Y17315473D01*
X-207158Y17268980D01*
X-277432Y17258876D01*
X-342012Y17288370D01*
X-348595Y17294499D01*
X-4739500Y21685405D01*
X-9304595Y26250500D01*
X-9338621Y26312812D01*
X-9341500Y26339595D01*
X-9341500Y27175400D01*
X-9352474Y27281166D01*
X-9356251Y27292489D01*
X-9406132Y27441998D01*
X-9408450Y27448946D01*
X-9501522Y27599348D01*
X-9626697Y27724305D01*
X-9729174Y27787473D01*
X-9771032Y27813275D01*
X-9771034Y27813276D01*
X-9777262Y27817115D01*
X-9937746Y27870345D01*
X-9938611Y27870632D01*
X-9938613Y27870632D01*
X-9945139Y27872797D01*
X-9951975Y27873497D01*
X-9951978Y27873498D01*
X-9995031Y27877909D01*
X-10049600Y27883500D01*
X-10850400Y27883500D01*
X-10853646Y27883163D01*
X-10853650Y27883163D01*
X-10949308Y27873238D01*
X-10949312Y27873237D01*
X-10956166Y27872526D01*
X-10962702Y27870345D01*
X-10962704Y27870345D01*
X-11085787Y27829281D01*
X-11123946Y27816550D01*
X-11274348Y27723478D01*
X-11399305Y27598303D01*
X-11403145Y27592073D01*
X-11403146Y27592072D01*
X-11431074Y27546764D01*
X-11483846Y27499271D01*
X-11553918Y27487847D01*
X-11619042Y27516121D01*
X-11637418Y27535045D01*
X-11643604Y27542920D01*
X-11648135Y27546852D01*
X-11648138Y27546855D01*
X-11798833Y27677621D01*
X-11803363Y27681552D01*
X-11808549Y27684552D01*
X-11808553Y27684555D01*
X-11981258Y27784467D01*
X-11986454Y27787473D01*
X-12186271Y27856861D01*
X-12192206Y27857722D01*
X-12192208Y27857722D01*
X-12389664Y27886352D01*
X-12389667Y27886352D01*
X-12395604Y27887213D01*
X-12606899Y27877433D01*
X-12738077Y27845819D01*
X-12806701Y27829281D01*
X-12806703Y27829280D01*
X-12812534Y27827875D01*
X-12817992Y27825393D01*
X-12817996Y27825392D01*
X-12933041Y27773084D01*
X-13005087Y27740326D01*
X-13177611Y27617946D01*
X-13323881Y27465150D01*
X-13438620Y27287452D01*
X-13440863Y27281886D01*
X-13514828Y27098354D01*
X-13517686Y27091263D01*
X-13558228Y26883663D01*
X-13558500Y26878101D01*
X-13558500Y26172154D01*
X-13543452Y26014434D01*
X-13483908Y25811466D01*
X-13481164Y25806139D01*
X-13481164Y25806138D01*
X-13416497Y25680580D01*
X-13387058Y25623420D01*
X-13256396Y25457080D01*
X-13251865Y25453148D01*
X-13251862Y25453145D01*
X-13115198Y25334554D01*
X-13096637Y25318448D01*
X-13091451Y25315448D01*
X-13091447Y25315445D01*
X-12929335Y25221661D01*
X-12913546Y25212527D01*
X-12713729Y25143139D01*
X-12707794Y25142278D01*
X-12707792Y25142278D01*
X-12510336Y25113648D01*
X-12510333Y25113648D01*
X-12504396Y25112787D01*
X-12293101Y25122567D01*
X-12193017Y25146687D01*
X-12100182Y25169060D01*
X-12029271Y25165575D01*
X-11981566Y25135662D01*
X-8819499Y21973595D01*
X-8785473Y21911283D01*
X-8790538Y21840468D01*
X-8833085Y21783632D01*
X-8899605Y21758821D01*
X-8908594Y21758500D01*
X-14865500Y21758500D01*
X-14933621Y21778502D01*
X-14980114Y21832158D01*
X-14991500Y21884500D01*
X-14991500Y30865500D01*
X-14971498Y30933621D01*
X-14917842Y30980114D01*
X-14865500Y30991500D01*
X17115500Y30991500D01*
X17183621Y30971498D01*
G37*
%TD.AperFunction*%
%TD*%
M02*
