%TF.GenerationSoftware,KiCad,Pcbnew,(6.0.5)*%
%TF.CreationDate,2022-06-07T14:01:26-06:00*%
%TF.ProjectId,21Pin_Fanout,32315069-6e5f-4466-916e-6f75742e6b69,rev?*%
%TF.SameCoordinates,Original*%
%TF.FileFunction,Legend,Top*%
%TF.FilePolarity,Positive*%
%FSLAX46Y46*%
G04 Gerber Fmt 4.6, Leading zero omitted, Abs format (unit mm)*
G04 Created by KiCad (PCBNEW (6.0.5)) date 2022-06-07 14:01:26*
%MOMM*%
%LPD*%
G01*
G04 APERTURE LIST*
%ADD10C,0.150000*%
%ADD11C,0.254000*%
%ADD12C,0.200000*%
%ADD13C,0.120000*%
G04 APERTURE END LIST*
D10*
%TO.C,J1*%
X621309Y3754619D02*
X621309Y3040333D01*
X573690Y2897476D01*
X478452Y2802238D01*
X335595Y2754619D01*
X240357Y2754619D01*
X1621309Y2754619D02*
X1049880Y2754619D01*
X1335595Y2754619D02*
X1335595Y3754619D01*
X1240357Y3611761D01*
X1145119Y3516523D01*
X1049880Y3468904D01*
%TO.C,J3*%
X-11783333Y24497619D02*
X-11783333Y23783333D01*
X-11830952Y23640476D01*
X-11926190Y23545238D01*
X-12069047Y23497619D01*
X-12164285Y23497619D01*
X-11402380Y24497619D02*
X-10783333Y24497619D01*
X-11116666Y24116666D01*
X-10973809Y24116666D01*
X-10878571Y24069047D01*
X-10830952Y24021428D01*
X-10783333Y23926190D01*
X-10783333Y23688095D01*
X-10830952Y23592857D01*
X-10878571Y23545238D01*
X-10973809Y23497619D01*
X-11259523Y23497619D01*
X-11354761Y23545238D01*
X-11402380Y23592857D01*
%TO.C,J2*%
X-3333333Y24497619D02*
X-3333333Y23783333D01*
X-3380952Y23640476D01*
X-3476190Y23545238D01*
X-3619047Y23497619D01*
X-3714285Y23497619D01*
X-2904761Y24402380D02*
X-2857142Y24450000D01*
X-2761904Y24497619D01*
X-2523809Y24497619D01*
X-2428571Y24450000D01*
X-2380952Y24402380D01*
X-2333333Y24307142D01*
X-2333333Y24211904D01*
X-2380952Y24069047D01*
X-2952380Y23497619D01*
X-2333333Y23497619D01*
%TO.C,J4*%
X13416666Y24497619D02*
X13416666Y23783333D01*
X13369047Y23640476D01*
X13273809Y23545238D01*
X13130952Y23497619D01*
X13035714Y23497619D01*
X14321428Y24164285D02*
X14321428Y23497619D01*
X14083333Y24545238D02*
X13845238Y23830952D01*
X14464285Y23830952D01*
%TO.C,J5*%
X5116666Y24497619D02*
X5116666Y23783333D01*
X5069047Y23640476D01*
X4973809Y23545238D01*
X4830952Y23497619D01*
X4735714Y23497619D01*
X6069047Y24497619D02*
X5592857Y24497619D01*
X5545238Y24021428D01*
X5592857Y24069047D01*
X5688095Y24116666D01*
X5926190Y24116666D01*
X6021428Y24069047D01*
X6069047Y24021428D01*
X6116666Y23926190D01*
X6116666Y23688095D01*
X6069047Y23592857D01*
X6021428Y23545238D01*
X5926190Y23497619D01*
X5688095Y23497619D01*
X5592857Y23545238D01*
X5545238Y23592857D01*
D11*
%TO.C,J1*%
X4000000Y-1904000D02*
X4500000Y-5404000D01*
D12*
X6145000Y2575000D02*
X6145000Y3563000D01*
X6352000Y3563000D02*
X6352000Y3556000D01*
X-6107000Y3545000D02*
X-6120000Y3545000D01*
X7500000Y-1876000D02*
X7500000Y743000D01*
X-6350000Y3557000D02*
X-6107000Y3557000D01*
X4830000Y2565000D02*
X6080000Y2565000D01*
X-3200000Y-2504000D02*
X-3800000Y-2504000D01*
X6080000Y2565000D02*
X6080000Y2575000D01*
X-7500000Y-1875000D02*
X-7500000Y743000D01*
X-6107000Y3557000D02*
X-6107000Y3545000D01*
X-6120000Y2592000D02*
X-4837000Y2592000D01*
X7500000Y-8036000D02*
X7500000Y-4917000D01*
X6145000Y3563000D02*
X6352000Y3563000D01*
X3200000Y-2504000D02*
X3800000Y-2504000D01*
D11*
X-3000000Y-1904000D02*
X-4000000Y-1904000D01*
D12*
X-6120000Y3545000D02*
X-6120000Y2592000D01*
D11*
X2500000Y-5404000D02*
X3000000Y-1904000D01*
D12*
X-7500000Y-8036000D02*
X-7500000Y-4917000D01*
X6080000Y2575000D02*
X6145000Y2575000D01*
D11*
X-2500000Y-5404000D02*
X-3000000Y-1904000D01*
D12*
X-7500000Y-8036000D02*
X7500000Y-8036000D01*
D11*
X3000000Y-1904000D02*
X4000000Y-1904000D01*
X-4000000Y-1904000D02*
X-4500000Y-5404000D01*
D13*
%TO.C,J3*%
X-12750000Y30600000D02*
X-12750000Y29000000D01*
X-9150000Y30600000D02*
X-10150000Y30600000D01*
X-11950000Y28500000D02*
X-11950000Y32860000D01*
X-9590000Y26640000D02*
X-9590000Y25425000D01*
X-9310000Y26640000D02*
X-9310000Y25040000D01*
X-13590000Y25040000D02*
X-13590000Y26640000D01*
X-9590000Y26640000D02*
X-9310000Y26640000D01*
X-13750000Y30600000D02*
X-12750000Y30600000D01*
X-13750000Y29000000D02*
X-13750000Y30600000D01*
X-10150000Y29000000D02*
X-9150000Y29000000D01*
X-14510000Y25040000D02*
X-13590000Y25040000D01*
X-8390000Y26640000D02*
X-9310000Y26640000D01*
X-14510000Y32860000D02*
X-14510000Y25040000D01*
X-9150000Y29000000D02*
X-9150000Y30600000D01*
X-10950000Y32860000D02*
X-10950000Y28500000D01*
X-10150000Y30600000D02*
X-10150000Y29000000D01*
X-8390000Y32860000D02*
X-14510000Y32860000D01*
X-10150000Y30600000D02*
X-10150000Y32860000D01*
X-14510000Y26640000D02*
X-13590000Y26640000D01*
X-9310000Y25040000D02*
X-8390000Y25040000D01*
X-10950000Y28500000D02*
X-11950000Y28500000D01*
X-8390000Y25040000D02*
X-8390000Y32860000D01*
X-9650000Y30600000D02*
X-9650000Y32860000D01*
X-13590000Y26640000D02*
X-13310000Y26640000D01*
X-12750000Y29000000D02*
X-13750000Y29000000D01*
%TO.C,J2*%
X-2500000Y28500000D02*
X-3500000Y28500000D01*
X-700000Y29000000D02*
X-700000Y30600000D01*
X-5300000Y29000000D02*
X-5300000Y30600000D01*
X-5140000Y25040000D02*
X-5140000Y26640000D01*
X-1700000Y30600000D02*
X-1700000Y29000000D01*
X-860000Y26640000D02*
X-860000Y25040000D01*
X60000Y32860000D02*
X-6060000Y32860000D01*
X-6060000Y32860000D02*
X-6060000Y25040000D01*
X-1140000Y26640000D02*
X-860000Y26640000D01*
X-860000Y25040000D02*
X60000Y25040000D01*
X60000Y26640000D02*
X-860000Y26640000D01*
X-3500000Y28500000D02*
X-3500000Y32860000D01*
X-4300000Y30600000D02*
X-4300000Y29000000D01*
X60000Y25040000D02*
X60000Y32860000D01*
X-1700000Y29000000D02*
X-700000Y29000000D01*
X-6060000Y26640000D02*
X-5140000Y26640000D01*
X-1700000Y30600000D02*
X-1700000Y32860000D01*
X-6060000Y25040000D02*
X-5140000Y25040000D01*
X-5140000Y26640000D02*
X-4860000Y26640000D01*
X-1200000Y30600000D02*
X-1200000Y32860000D01*
X-4300000Y29000000D02*
X-5300000Y29000000D01*
X-700000Y30600000D02*
X-1700000Y30600000D01*
X-5300000Y30600000D02*
X-4300000Y30600000D01*
X-2500000Y32860000D02*
X-2500000Y28500000D01*
X-1140000Y26640000D02*
X-1140000Y25425000D01*
%TO.C,J4*%
X11610000Y26640000D02*
X11890000Y26640000D01*
X15890000Y25040000D02*
X16810000Y25040000D01*
X13250000Y28500000D02*
X13250000Y32860000D01*
X16050000Y29000000D02*
X16050000Y30600000D01*
X15550000Y30600000D02*
X15550000Y32860000D01*
X14250000Y28500000D02*
X13250000Y28500000D01*
X16050000Y30600000D02*
X15050000Y30600000D01*
X15050000Y30600000D02*
X15050000Y29000000D01*
X11610000Y25040000D02*
X11610000Y26640000D01*
X15050000Y30600000D02*
X15050000Y32860000D01*
X15050000Y29000000D02*
X16050000Y29000000D01*
X10690000Y32860000D02*
X10690000Y25040000D01*
X12450000Y30600000D02*
X12450000Y29000000D01*
X10690000Y25040000D02*
X11610000Y25040000D01*
X16810000Y26640000D02*
X15890000Y26640000D01*
X10690000Y26640000D02*
X11610000Y26640000D01*
X16810000Y32860000D02*
X10690000Y32860000D01*
X15610000Y26640000D02*
X15890000Y26640000D01*
X15610000Y26640000D02*
X15610000Y25425000D01*
X11450000Y30600000D02*
X12450000Y30600000D01*
X16810000Y25040000D02*
X16810000Y32860000D01*
X11450000Y29000000D02*
X11450000Y30600000D01*
X14250000Y32860000D02*
X14250000Y28500000D01*
X15890000Y26640000D02*
X15890000Y25040000D01*
X12450000Y29000000D02*
X11450000Y29000000D01*
%TO.C,J5*%
X3150000Y30600000D02*
X4150000Y30600000D01*
X7310000Y26640000D02*
X7310000Y25425000D01*
X7590000Y26640000D02*
X7590000Y25040000D01*
X2390000Y32860000D02*
X2390000Y25040000D01*
X7750000Y30600000D02*
X6750000Y30600000D01*
X2390000Y26640000D02*
X3310000Y26640000D01*
X3150000Y29000000D02*
X3150000Y30600000D01*
X4950000Y28500000D02*
X4950000Y32860000D01*
X3310000Y26640000D02*
X3590000Y26640000D01*
X7750000Y29000000D02*
X7750000Y30600000D01*
X6750000Y30600000D02*
X6750000Y29000000D01*
X2390000Y25040000D02*
X3310000Y25040000D01*
X8510000Y25040000D02*
X8510000Y32860000D01*
X6750000Y30600000D02*
X6750000Y32860000D01*
X7310000Y26640000D02*
X7590000Y26640000D01*
X6750000Y29000000D02*
X7750000Y29000000D01*
X4150000Y30600000D02*
X4150000Y29000000D01*
X8510000Y26640000D02*
X7590000Y26640000D01*
X8510000Y32860000D02*
X2390000Y32860000D01*
X7250000Y30600000D02*
X7250000Y32860000D01*
X5950000Y32860000D02*
X5950000Y28500000D01*
X3310000Y25040000D02*
X3310000Y26640000D01*
X4150000Y29000000D02*
X3150000Y29000000D01*
X7590000Y25040000D02*
X8510000Y25040000D01*
X5950000Y28500000D02*
X4950000Y28500000D01*
%TD*%
M02*
