%TF.GenerationSoftware,KiCad,Pcbnew,(6.0.5)*%
%TF.CreationDate,2022-06-07T13:46:18-06:00*%
%TF.ProjectId,15Pin_Fanout,31355069-6e5f-4466-916e-6f75742e6b69,rev?*%
%TF.SameCoordinates,Original*%
%TF.FileFunction,Legend,Bot*%
%TF.FilePolarity,Positive*%
%FSLAX46Y46*%
G04 Gerber Fmt 4.6, Leading zero omitted, Abs format (unit mm)*
G04 Created by KiCad (PCBNEW (6.0.5)) date 2022-06-07 13:46:18*
%MOMM*%
%LPD*%
G01*
G04 APERTURE LIST*
%ADD10C,0.150000*%
G04 APERTURE END LIST*
D10*
X-3907619Y20154761D02*
X-4907619Y20154761D01*
X-4431428Y20154761D02*
X-4431428Y19583333D01*
X-3907619Y19583333D02*
X-4907619Y19583333D01*
X-3907619Y19107142D02*
X-4907619Y19107142D01*
X-4907619Y18869047D01*
X-4859999Y18726190D01*
X-4764761Y18630952D01*
X-4669523Y18583333D01*
X-4479047Y18535714D01*
X-4336190Y18535714D01*
X-4145714Y18583333D01*
X-4050476Y18630952D01*
X-3955238Y18726190D01*
X-3907619Y18869047D01*
X-3907619Y19107142D01*
X-3907619Y18107142D02*
X-4907619Y18107142D01*
X-4193333Y17773809D01*
X-4907619Y17440476D01*
X-3907619Y17440476D01*
X-3907619Y16964285D02*
X-4907619Y16964285D01*
X-3812380Y16726190D02*
X-3812380Y15964285D01*
X-4907619Y15440476D02*
X-4193333Y15440476D01*
X-4050476Y15488095D01*
X-3955238Y15583333D01*
X-3907619Y15726190D01*
X-3907619Y15821428D01*
X-3955238Y15011904D02*
X-3907619Y14869047D01*
X-3907619Y14630952D01*
X-3955238Y14535714D01*
X-4002857Y14488095D01*
X-4098095Y14440476D01*
X-4193333Y14440476D01*
X-4288571Y14488095D01*
X-4336190Y14535714D01*
X-4383809Y14630952D01*
X-4431428Y14821428D01*
X-4479047Y14916666D01*
X-4526666Y14964285D01*
X-4621904Y15011904D01*
X-4717142Y15011904D01*
X-4812380Y14964285D01*
X-4860000Y14916666D01*
X-4907619Y14821428D01*
X-4907619Y14583333D01*
X-4860000Y14440476D01*
X-4907619Y14154761D02*
X-4907619Y13583333D01*
X-3907619Y13869047D02*
X-4907619Y13869047D01*
X-3812380Y13488095D02*
X-3812380Y12726190D01*
X-3907619Y11964285D02*
X-3907619Y12535714D01*
X-3907619Y12250000D02*
X-4907619Y12250000D01*
X-4764761Y12345238D01*
X-4669523Y12440476D01*
X-4621904Y12535714D01*
X-4907619Y11059523D02*
X-4907619Y11535714D01*
X-4431428Y11583333D01*
X-4479047Y11535714D01*
X-4526666Y11440476D01*
X-4526666Y11202380D01*
X-4479047Y11107142D01*
X-4431428Y11059523D01*
X-4336190Y11011904D01*
X-4098095Y11011904D01*
X-4002857Y11059523D01*
X-3955238Y11107142D01*
X-3907619Y11202380D01*
X-3907619Y11440476D01*
X-3955238Y11535714D01*
X-4002857Y11583333D01*
X-3907619Y10583333D02*
X-4907619Y10583333D01*
X-4907619Y10202380D01*
X-4860000Y10107142D01*
X-4812380Y10059523D01*
X-4717142Y10011904D01*
X-4574285Y10011904D01*
X-4479047Y10059523D01*
X-4431428Y10107142D01*
X-4383809Y10202380D01*
X-4383809Y10583333D01*
X-3907619Y9583333D02*
X-4574285Y9583333D01*
X-4907619Y9583333D02*
X-4860000Y9630952D01*
X-4812380Y9583333D01*
X-4860000Y9535714D01*
X-4907619Y9583333D01*
X-4812380Y9583333D01*
X-4574285Y9107142D02*
X-3907619Y9107142D01*
X-4479047Y9107142D02*
X-4526666Y9059523D01*
X-4574285Y8964285D01*
X-4574285Y8821428D01*
X-4526666Y8726190D01*
X-4431428Y8678571D01*
X-3907619Y8678571D01*
X-3812380Y8440476D02*
X-3812380Y7678571D01*
X-3907619Y7440476D02*
X-4907619Y7440476D01*
X-4907619Y7202380D01*
X-4860000Y7059523D01*
X-4764761Y6964285D01*
X-4669523Y6916666D01*
X-4479047Y6869047D01*
X-4336190Y6869047D01*
X-4145714Y6916666D01*
X-4050476Y6964285D01*
X-3955238Y7059523D01*
X-3907619Y7202380D01*
X-3907619Y7440476D01*
X-3907619Y6440476D02*
X-4574285Y6440476D01*
X-4907619Y6440476D02*
X-4860000Y6488095D01*
X-4812380Y6440476D01*
X-4860000Y6392857D01*
X-4907619Y6440476D01*
X-4812380Y6440476D01*
X-3907619Y5821428D02*
X-3955238Y5916666D01*
X-4002857Y5964285D01*
X-4098095Y6011904D01*
X-4383809Y6011904D01*
X-4479047Y5964285D01*
X-4526666Y5916666D01*
X-4574285Y5821428D01*
X-4574285Y5678571D01*
X-4526666Y5583333D01*
X-4479047Y5535714D01*
X-4383809Y5488095D01*
X-4098095Y5488095D01*
X-4002857Y5535714D01*
X-3955238Y5583333D01*
X-3907619Y5678571D01*
X-3907619Y5821428D01*
X-3907619Y4630952D02*
X-4907619Y4630952D01*
X-3955238Y4630952D02*
X-3907619Y4726190D01*
X-3907619Y4916666D01*
X-3955238Y5011904D01*
X-4002857Y5059523D01*
X-4098095Y5107142D01*
X-4383809Y5107142D01*
X-4479047Y5059523D01*
X-4526666Y5011904D01*
X-4574285Y4916666D01*
X-4574285Y4726190D01*
X-4526666Y4630952D01*
X-3955238Y3773809D02*
X-3907619Y3869047D01*
X-3907619Y4059523D01*
X-3955238Y4154761D01*
X-4050476Y4202380D01*
X-4431428Y4202380D01*
X-4526666Y4154761D01*
X-4574285Y4059523D01*
X-4574285Y3869047D01*
X-4526666Y3773809D01*
X-4431428Y3726190D01*
X-4336190Y3726190D01*
X-4240952Y4202380D01*
X-3955238Y3345238D02*
X-3907619Y3250000D01*
X-3907619Y3059523D01*
X-3955238Y2964285D01*
X-4050476Y2916666D01*
X-4098095Y2916666D01*
X-4193333Y2964285D01*
X-4240952Y3059523D01*
X-4240952Y3202380D01*
X-4288571Y3297619D01*
X-4383809Y3345238D01*
X-4431428Y3345238D01*
X-4526666Y3297619D01*
X-4574285Y3202380D01*
X-4574285Y3059523D01*
X-4526666Y2964285D01*
X-3907619Y916666D02*
X-3907619Y964285D01*
X-3955238Y1059523D01*
X-4098095Y1202380D01*
X-4383809Y1440476D01*
X-4526666Y1535714D01*
X-4669523Y1583333D01*
X-4764761Y1583333D01*
X-4860000Y1535714D01*
X-4907619Y1440476D01*
X-4907619Y1392857D01*
X-4860000Y1297619D01*
X-4764761Y1250000D01*
X-4717142Y1250000D01*
X-4621904Y1297619D01*
X-4574285Y1345238D01*
X-4383809Y1630952D01*
X-4336190Y1678571D01*
X-4240952Y1726190D01*
X-4098095Y1726190D01*
X-4002857Y1678571D01*
X-3955238Y1630952D01*
X-3907619Y1535714D01*
X-3907619Y1392857D01*
X-3955238Y1297619D01*
X-4002857Y1250000D01*
X-4193333Y1107142D01*
X-4336190Y1059523D01*
X-4431428Y1059523D01*
X-3907619Y-273809D02*
X-4907619Y-273809D01*
X-4431428Y-273809D02*
X-4431428Y-845238D01*
X-3907619Y-845238D02*
X-4907619Y-845238D01*
X-3955238Y-1702380D02*
X-3907619Y-1607142D01*
X-3907619Y-1416666D01*
X-3955238Y-1321428D01*
X-4050476Y-1273809D01*
X-4431428Y-1273809D01*
X-4526666Y-1321428D01*
X-4574285Y-1416666D01*
X-4574285Y-1607142D01*
X-4526666Y-1702380D01*
X-4431428Y-1749999D01*
X-4336190Y-1749999D01*
X-4240952Y-1273809D01*
X-3907619Y-2607142D02*
X-4431428Y-2607142D01*
X-4526666Y-2559523D01*
X-4574285Y-2464285D01*
X-4574285Y-2273809D01*
X-4526666Y-2178571D01*
X-3955238Y-2607142D02*
X-3907619Y-2511904D01*
X-3907619Y-2273809D01*
X-3955238Y-2178571D01*
X-4050476Y-2130952D01*
X-4145714Y-2130952D01*
X-4240952Y-2178571D01*
X-4288571Y-2273809D01*
X-4288571Y-2511904D01*
X-4336190Y-2607142D01*
X-4574285Y-2940476D02*
X-4574285Y-3321428D01*
X-4907619Y-3083333D02*
X-4050476Y-3083333D01*
X-3955238Y-3130952D01*
X-3907619Y-3226190D01*
X-3907619Y-3321428D01*
X-3955238Y-4035714D02*
X-3907619Y-3940476D01*
X-3907619Y-3749999D01*
X-3955238Y-3654761D01*
X-4050476Y-3607142D01*
X-4431428Y-3607142D01*
X-4526666Y-3654761D01*
X-4574285Y-3749999D01*
X-4574285Y-3940476D01*
X-4526666Y-4035714D01*
X-4431428Y-4083333D01*
X-4336190Y-4083333D01*
X-4240952Y-3607142D01*
X-3907619Y-4511904D02*
X-4574285Y-4511904D01*
X-4383809Y-4511904D02*
X-4479047Y-4559523D01*
X-4526666Y-4607142D01*
X-4574285Y-4702380D01*
X-4574285Y-4797619D01*
X-2297619Y13654761D02*
X-2773809Y13988095D01*
X-2297619Y14226190D02*
X-3297619Y14226190D01*
X-3297619Y13845238D01*
X-3249999Y13750000D01*
X-3202380Y13702380D01*
X-3107142Y13654761D01*
X-2964285Y13654761D01*
X-2869047Y13702380D01*
X-2821428Y13750000D01*
X-2773809Y13845238D01*
X-2773809Y14226190D01*
X-2964285Y13321428D02*
X-2297619Y13083333D01*
X-2964285Y12845238D02*
X-2297619Y13083333D01*
X-2059523Y13178571D01*
X-2011904Y13226190D01*
X-1964285Y13321428D01*
X-2297619Y12035714D02*
X-2821428Y12035714D01*
X-2916666Y12083333D01*
X-2964285Y12178571D01*
X-2964285Y12369047D01*
X-2916666Y12464285D01*
X-2345238Y12035714D02*
X-2297619Y12130952D01*
X-2297619Y12369047D01*
X-2345238Y12464285D01*
X-2440476Y12511904D01*
X-2535714Y12511904D01*
X-2630952Y12464285D01*
X-2678571Y12369047D01*
X-2678571Y12130952D01*
X-2726190Y12035714D01*
X-2964285Y11559523D02*
X-2297619Y11559523D01*
X-2869047Y11559523D02*
X-2916666Y11511904D01*
X-2964285Y11416666D01*
X-2964285Y11273809D01*
X-2916666Y11178571D01*
X-2821428Y11130952D01*
X-2297619Y11130952D01*
X-2297619Y9892857D02*
X-3297619Y9892857D01*
X-2583333Y9559523D01*
X-3297619Y9226190D01*
X-2297619Y9226190D01*
X-2297619Y8607142D02*
X-2345238Y8702380D01*
X-2392857Y8750000D01*
X-2488095Y8797619D01*
X-2773809Y8797619D01*
X-2869047Y8750000D01*
X-2916666Y8702380D01*
X-2964285Y8607142D01*
X-2964285Y8464285D01*
X-2916666Y8369047D01*
X-2869047Y8321428D01*
X-2773809Y8273809D01*
X-2488095Y8273809D01*
X-2392857Y8321428D01*
X-2345238Y8369047D01*
X-2297619Y8464285D01*
X-2297619Y8607142D01*
X-2297619Y7845238D02*
X-2964285Y7845238D01*
X-2773809Y7845238D02*
X-2869047Y7797619D01*
X-2916666Y7750000D01*
X-2964285Y7654761D01*
X-2964285Y7559523D01*
X-2964285Y6797619D02*
X-2154761Y6797619D01*
X-2059523Y6845238D01*
X-2011904Y6892857D01*
X-1964285Y6988095D01*
X-1964285Y7130952D01*
X-2011904Y7226190D01*
X-2345238Y6797619D02*
X-2297619Y6892857D01*
X-2297619Y7083333D01*
X-2345238Y7178571D01*
X-2392857Y7226190D01*
X-2488095Y7273809D01*
X-2773809Y7273809D01*
X-2869047Y7226190D01*
X-2916666Y7178571D01*
X-2964285Y7083333D01*
X-2964285Y6892857D01*
X-2916666Y6797619D01*
X-2345238Y5940476D02*
X-2297619Y6035714D01*
X-2297619Y6226190D01*
X-2345238Y6321428D01*
X-2440476Y6369047D01*
X-2821428Y6369047D01*
X-2916666Y6321428D01*
X-2964285Y6226190D01*
X-2964285Y6035714D01*
X-2916666Y5940476D01*
X-2821428Y5892857D01*
X-2726190Y5892857D01*
X-2630952Y6369047D01*
X-2964285Y5464285D02*
X-2297619Y5464285D01*
X-2869047Y5464285D02*
X-2916666Y5416666D01*
X-2964285Y5321428D01*
X-2964285Y5178571D01*
X-2916666Y5083333D01*
X-2821428Y5035714D01*
X-2297619Y5035714D01*
X-2345238Y4607142D02*
X-2297619Y4511904D01*
X-2297619Y4321428D01*
X-2345238Y4226190D01*
X-2440476Y4178571D01*
X-2488095Y4178571D01*
X-2583333Y4226190D01*
X-2630952Y4321428D01*
X-2630952Y4464285D01*
X-2678571Y4559523D01*
X-2773809Y4607142D01*
X-2821428Y4607142D01*
X-2916666Y4559523D01*
X-2964285Y4464285D01*
X-2964285Y4321428D01*
X-2916666Y4226190D01*
X-2964285Y3892857D02*
X-2964285Y3511904D01*
X-3297619Y3750000D02*
X-2440476Y3750000D01*
X-2345238Y3702380D01*
X-2297619Y3607142D01*
X-2297619Y3511904D01*
X-2345238Y2797619D02*
X-2297619Y2892857D01*
X-2297619Y3083333D01*
X-2345238Y3178571D01*
X-2440476Y3226190D01*
X-2821428Y3226190D01*
X-2916666Y3178571D01*
X-2964285Y3083333D01*
X-2964285Y2892857D01*
X-2916666Y2797619D01*
X-2821428Y2750000D01*
X-2726190Y2750000D01*
X-2630952Y3226190D01*
X-2297619Y2321428D02*
X-2964285Y2321428D01*
X-2773809Y2321428D02*
X-2869047Y2273809D01*
X-2916666Y2226190D01*
X-2964285Y2130952D01*
X-2964285Y2035714D01*
X-2964285Y1702380D02*
X-2297619Y1702380D01*
X-2869047Y1702380D02*
X-2916666Y1654761D01*
X-2964285Y1559523D01*
X-2964285Y1416666D01*
X-2916666Y1321428D01*
X-2821428Y1273809D01*
X-2297619Y1273809D01*
X-1687619Y10464285D02*
X-1687619Y10654761D01*
X-1639999Y10750000D01*
X-1592380Y10797619D01*
X-1449523Y10892857D01*
X-1259047Y10940476D01*
X-878095Y10940476D01*
X-782857Y10892857D01*
X-735238Y10845238D01*
X-687619Y10750000D01*
X-687619Y10559523D01*
X-735238Y10464285D01*
X-782857Y10416666D01*
X-878095Y10369047D01*
X-1116190Y10369047D01*
X-1211428Y10416666D01*
X-1259047Y10464285D01*
X-1306666Y10559523D01*
X-1306666Y10750000D01*
X-1259047Y10845238D01*
X-1211428Y10892857D01*
X-1116190Y10940476D01*
X-1735238Y9226190D02*
X-449523Y10083333D01*
X-1687619Y8464285D02*
X-1687619Y8654761D01*
X-1640000Y8750000D01*
X-1592380Y8797619D01*
X-1449523Y8892857D01*
X-1259047Y8940476D01*
X-878095Y8940476D01*
X-782857Y8892857D01*
X-735238Y8845238D01*
X-687619Y8750000D01*
X-687619Y8559523D01*
X-735238Y8464285D01*
X-782857Y8416666D01*
X-878095Y8369047D01*
X-1116190Y8369047D01*
X-1211428Y8416666D01*
X-1259047Y8464285D01*
X-1306666Y8559523D01*
X-1306666Y8750000D01*
X-1259047Y8845238D01*
X-1211428Y8892857D01*
X-1116190Y8940476D01*
X-1592380Y7988095D02*
X-1640000Y7940476D01*
X-1687619Y7845238D01*
X-1687619Y7607142D01*
X-1640000Y7511904D01*
X-1592380Y7464285D01*
X-1497142Y7416666D01*
X-1401904Y7416666D01*
X-1259047Y7464285D01*
X-687619Y8035714D01*
X-687619Y7416666D01*
X-1687619Y6797619D02*
X-1687619Y6702380D01*
X-1640000Y6607142D01*
X-1592380Y6559523D01*
X-1497142Y6511904D01*
X-1306666Y6464285D01*
X-1068571Y6464285D01*
X-878095Y6511904D01*
X-782857Y6559523D01*
X-735238Y6607142D01*
X-687619Y6702380D01*
X-687619Y6797619D01*
X-735238Y6892857D01*
X-782857Y6940476D01*
X-878095Y6988095D01*
X-1068571Y7035714D01*
X-1306666Y7035714D01*
X-1497142Y6988095D01*
X-1592380Y6940476D01*
X-1640000Y6892857D01*
X-1687619Y6797619D01*
X-1592380Y6083333D02*
X-1640000Y6035714D01*
X-1687619Y5940476D01*
X-1687619Y5702380D01*
X-1640000Y5607142D01*
X-1592380Y5559523D01*
X-1497142Y5511904D01*
X-1401904Y5511904D01*
X-1259047Y5559523D01*
X-687619Y6130952D01*
X-687619Y5511904D01*
X-1592380Y5130952D02*
X-1640000Y5083333D01*
X-1687619Y4988095D01*
X-1687619Y4750000D01*
X-1640000Y4654761D01*
X-1592380Y4607142D01*
X-1497142Y4559523D01*
X-1401904Y4559523D01*
X-1259047Y4607142D01*
X-687619Y5178571D01*
X-687619Y4559523D01*
M02*
