%TF.GenerationSoftware,KiCad,Pcbnew,(6.0.5)*%
%TF.CreationDate,2022-06-07T12:24:32-06:00*%
%TF.ProjectId,15Pin_Fanout,31355069-6e5f-4466-916e-6f75742e6b69,rev?*%
%TF.SameCoordinates,Original*%
%TF.FileFunction,Legend,Bot*%
%TF.FilePolarity,Positive*%
%FSLAX46Y46*%
G04 Gerber Fmt 4.6, Leading zero omitted, Abs format (unit mm)*
G04 Created by KiCad (PCBNEW (6.0.5)) date 2022-06-07 12:24:32*
%MOMM*%
%LPD*%
G01*
G04 APERTURE LIST*
%ADD10C,0.150000*%
G04 APERTURE END LIST*
D10*
X-5407619Y15845238D02*
X-6407619Y15845238D01*
X-5931428Y15845238D02*
X-5931428Y15273809D01*
X-5407619Y15273809D02*
X-6407619Y15273809D01*
X-5407619Y14797619D02*
X-6407619Y14797619D01*
X-6407619Y14559523D01*
X-6360000Y14416666D01*
X-6264761Y14321428D01*
X-6169523Y14273809D01*
X-5979047Y14226190D01*
X-5836190Y14226190D01*
X-5645714Y14273809D01*
X-5550476Y14321428D01*
X-5455238Y14416666D01*
X-5407619Y14559523D01*
X-5407619Y14797619D01*
X-5407619Y13797619D02*
X-6407619Y13797619D01*
X-5693333Y13464285D01*
X-6407619Y13130952D01*
X-5407619Y13130952D01*
X-5407619Y12654761D02*
X-6407619Y12654761D01*
X-5312380Y12416666D02*
X-5312380Y11654761D01*
X-6407619Y11130952D02*
X-5693333Y11130952D01*
X-5550476Y11178571D01*
X-5455238Y11273809D01*
X-5407619Y11416666D01*
X-5407619Y11511904D01*
X-5455238Y10702380D02*
X-5407619Y10559523D01*
X-5407619Y10321428D01*
X-5455238Y10226190D01*
X-5502857Y10178571D01*
X-5598095Y10130952D01*
X-5693333Y10130952D01*
X-5788571Y10178571D01*
X-5836190Y10226190D01*
X-5883809Y10321428D01*
X-5931428Y10511904D01*
X-5979047Y10607142D01*
X-6026666Y10654761D01*
X-6121904Y10702380D01*
X-6217142Y10702380D01*
X-6312380Y10654761D01*
X-6360000Y10607142D01*
X-6407619Y10511904D01*
X-6407619Y10273809D01*
X-6360000Y10130952D01*
X-6407619Y9845238D02*
X-6407619Y9273809D01*
X-5407619Y9559523D02*
X-6407619Y9559523D01*
X-5312380Y9178571D02*
X-5312380Y8416666D01*
X-5407619Y7654761D02*
X-5407619Y8226190D01*
X-5407619Y7940476D02*
X-6407619Y7940476D01*
X-6264761Y8035714D01*
X-6169523Y8130952D01*
X-6121904Y8226190D01*
X-6407619Y6750000D02*
X-6407619Y7226190D01*
X-5931428Y7273809D01*
X-5979047Y7226190D01*
X-6026666Y7130952D01*
X-6026666Y6892857D01*
X-5979047Y6797619D01*
X-5931428Y6750000D01*
X-5836190Y6702380D01*
X-5598095Y6702380D01*
X-5502857Y6750000D01*
X-5455238Y6797619D01*
X-5407619Y6892857D01*
X-5407619Y7130952D01*
X-5455238Y7226190D01*
X-5502857Y7273809D01*
X-5407619Y6273809D02*
X-6407619Y6273809D01*
X-6407619Y5892857D01*
X-6360000Y5797619D01*
X-6312380Y5750000D01*
X-6217142Y5702380D01*
X-6074285Y5702380D01*
X-5979047Y5750000D01*
X-5931428Y5797619D01*
X-5883809Y5892857D01*
X-5883809Y6273809D01*
X-5407619Y5273809D02*
X-6074285Y5273809D01*
X-6407619Y5273809D02*
X-6360000Y5321428D01*
X-6312380Y5273809D01*
X-6360000Y5226190D01*
X-6407619Y5273809D01*
X-6312380Y5273809D01*
X-6074285Y4797619D02*
X-5407619Y4797619D01*
X-5979047Y4797619D02*
X-6026666Y4750000D01*
X-6074285Y4654761D01*
X-6074285Y4511904D01*
X-6026666Y4416666D01*
X-5931428Y4369047D01*
X-5407619Y4369047D01*
X-5312380Y4130952D02*
X-5312380Y3369047D01*
X-5407619Y3130952D02*
X-6407619Y3130952D01*
X-6407619Y2892857D01*
X-6360000Y2750000D01*
X-6264761Y2654761D01*
X-6169523Y2607142D01*
X-5979047Y2559523D01*
X-5836190Y2559523D01*
X-5645714Y2607142D01*
X-5550476Y2654761D01*
X-5455238Y2750000D01*
X-5407619Y2892857D01*
X-5407619Y3130952D01*
X-5407619Y2130952D02*
X-6074285Y2130952D01*
X-6407619Y2130952D02*
X-6360000Y2178571D01*
X-6312380Y2130952D01*
X-6360000Y2083333D01*
X-6407619Y2130952D01*
X-6312380Y2130952D01*
X-5407619Y1511904D02*
X-5455238Y1607142D01*
X-5502857Y1654761D01*
X-5598095Y1702380D01*
X-5883809Y1702380D01*
X-5979047Y1654761D01*
X-6026666Y1607142D01*
X-6074285Y1511904D01*
X-6074285Y1369047D01*
X-6026666Y1273809D01*
X-5979047Y1226190D01*
X-5883809Y1178571D01*
X-5598095Y1178571D01*
X-5502857Y1226190D01*
X-5455238Y1273809D01*
X-5407619Y1369047D01*
X-5407619Y1511904D01*
X-5407619Y321428D02*
X-6407619Y321428D01*
X-5455238Y321428D02*
X-5407619Y416666D01*
X-5407619Y607142D01*
X-5455238Y702380D01*
X-5502857Y750000D01*
X-5598095Y797619D01*
X-5883809Y797619D01*
X-5979047Y750000D01*
X-6026666Y702380D01*
X-6074285Y607142D01*
X-6074285Y416666D01*
X-6026666Y321428D01*
X-5455238Y-535714D02*
X-5407619Y-440476D01*
X-5407619Y-249999D01*
X-5455238Y-154761D01*
X-5550476Y-107142D01*
X-5931428Y-107142D01*
X-6026666Y-154761D01*
X-6074285Y-249999D01*
X-6074285Y-440476D01*
X-6026666Y-535714D01*
X-5931428Y-583333D01*
X-5836190Y-583333D01*
X-5740952Y-107142D01*
X-5455238Y-964285D02*
X-5407619Y-1059523D01*
X-5407619Y-1249999D01*
X-5455238Y-1345238D01*
X-5550476Y-1392857D01*
X-5598095Y-1392857D01*
X-5693333Y-1345238D01*
X-5740952Y-1249999D01*
X-5740952Y-1107142D01*
X-5788571Y-1011904D01*
X-5883809Y-964285D01*
X-5931428Y-964285D01*
X-6026666Y-1011904D01*
X-6074285Y-1107142D01*
X-6074285Y-1249999D01*
X-6026666Y-1345238D01*
X-3797619Y13154761D02*
X-4273809Y13488095D01*
X-3797619Y13726190D02*
X-4797619Y13726190D01*
X-4797619Y13345238D01*
X-4750000Y13250000D01*
X-4702380Y13202380D01*
X-4607142Y13154761D01*
X-4464285Y13154761D01*
X-4369047Y13202380D01*
X-4321428Y13250000D01*
X-4273809Y13345238D01*
X-4273809Y13726190D01*
X-4464285Y12821428D02*
X-3797619Y12583333D01*
X-4464285Y12345238D02*
X-3797619Y12583333D01*
X-3559523Y12678571D01*
X-3511904Y12726190D01*
X-3464285Y12821428D01*
X-3797619Y11535714D02*
X-4321428Y11535714D01*
X-4416666Y11583333D01*
X-4464285Y11678571D01*
X-4464285Y11869047D01*
X-4416666Y11964285D01*
X-3845238Y11535714D02*
X-3797619Y11630952D01*
X-3797619Y11869047D01*
X-3845238Y11964285D01*
X-3940476Y12011904D01*
X-4035714Y12011904D01*
X-4130952Y11964285D01*
X-4178571Y11869047D01*
X-4178571Y11630952D01*
X-4226190Y11535714D01*
X-4464285Y11059523D02*
X-3797619Y11059523D01*
X-4369047Y11059523D02*
X-4416666Y11011904D01*
X-4464285Y10916666D01*
X-4464285Y10773809D01*
X-4416666Y10678571D01*
X-4321428Y10630952D01*
X-3797619Y10630952D01*
X-3797619Y9392857D02*
X-4797619Y9392857D01*
X-4083333Y9059523D01*
X-4797619Y8726190D01*
X-3797619Y8726190D01*
X-3797619Y8107142D02*
X-3845238Y8202380D01*
X-3892857Y8250000D01*
X-3988095Y8297619D01*
X-4273809Y8297619D01*
X-4369047Y8250000D01*
X-4416666Y8202380D01*
X-4464285Y8107142D01*
X-4464285Y7964285D01*
X-4416666Y7869047D01*
X-4369047Y7821428D01*
X-4273809Y7773809D01*
X-3988095Y7773809D01*
X-3892857Y7821428D01*
X-3845238Y7869047D01*
X-3797619Y7964285D01*
X-3797619Y8107142D01*
X-3797619Y7345238D02*
X-4464285Y7345238D01*
X-4273809Y7345238D02*
X-4369047Y7297619D01*
X-4416666Y7250000D01*
X-4464285Y7154761D01*
X-4464285Y7059523D01*
X-4464285Y6297619D02*
X-3654761Y6297619D01*
X-3559523Y6345238D01*
X-3511904Y6392857D01*
X-3464285Y6488095D01*
X-3464285Y6630952D01*
X-3511904Y6726190D01*
X-3845238Y6297619D02*
X-3797619Y6392857D01*
X-3797619Y6583333D01*
X-3845238Y6678571D01*
X-3892857Y6726190D01*
X-3988095Y6773809D01*
X-4273809Y6773809D01*
X-4369047Y6726190D01*
X-4416666Y6678571D01*
X-4464285Y6583333D01*
X-4464285Y6392857D01*
X-4416666Y6297619D01*
X-3845238Y5440476D02*
X-3797619Y5535714D01*
X-3797619Y5726190D01*
X-3845238Y5821428D01*
X-3940476Y5869047D01*
X-4321428Y5869047D01*
X-4416666Y5821428D01*
X-4464285Y5726190D01*
X-4464285Y5535714D01*
X-4416666Y5440476D01*
X-4321428Y5392857D01*
X-4226190Y5392857D01*
X-4130952Y5869047D01*
X-4464285Y4964285D02*
X-3797619Y4964285D01*
X-4369047Y4964285D02*
X-4416666Y4916666D01*
X-4464285Y4821428D01*
X-4464285Y4678571D01*
X-4416666Y4583333D01*
X-4321428Y4535714D01*
X-3797619Y4535714D01*
X-3845238Y4107142D02*
X-3797619Y4011904D01*
X-3797619Y3821428D01*
X-3845238Y3726190D01*
X-3940476Y3678571D01*
X-3988095Y3678571D01*
X-4083333Y3726190D01*
X-4130952Y3821428D01*
X-4130952Y3964285D01*
X-4178571Y4059523D01*
X-4273809Y4107142D01*
X-4321428Y4107142D01*
X-4416666Y4059523D01*
X-4464285Y3964285D01*
X-4464285Y3821428D01*
X-4416666Y3726190D01*
X-4464285Y3392857D02*
X-4464285Y3011904D01*
X-4797619Y3250000D02*
X-3940476Y3250000D01*
X-3845238Y3202380D01*
X-3797619Y3107142D01*
X-3797619Y3011904D01*
X-3845238Y2297619D02*
X-3797619Y2392857D01*
X-3797619Y2583333D01*
X-3845238Y2678571D01*
X-3940476Y2726190D01*
X-4321428Y2726190D01*
X-4416666Y2678571D01*
X-4464285Y2583333D01*
X-4464285Y2392857D01*
X-4416666Y2297619D01*
X-4321428Y2250000D01*
X-4226190Y2250000D01*
X-4130952Y2726190D01*
X-3797619Y1821428D02*
X-4464285Y1821428D01*
X-4273809Y1821428D02*
X-4369047Y1773809D01*
X-4416666Y1726190D01*
X-4464285Y1630952D01*
X-4464285Y1535714D01*
X-4464285Y1202380D02*
X-3797619Y1202380D01*
X-4369047Y1202380D02*
X-4416666Y1154761D01*
X-4464285Y1059523D01*
X-4464285Y916666D01*
X-4416666Y821428D01*
X-4321428Y773809D01*
X-3797619Y773809D01*
X-3187619Y9964285D02*
X-3187619Y10154761D01*
X-3140000Y10250000D01*
X-3092380Y10297619D01*
X-2949523Y10392857D01*
X-2759047Y10440476D01*
X-2378095Y10440476D01*
X-2282857Y10392857D01*
X-2235238Y10345238D01*
X-2187619Y10250000D01*
X-2187619Y10059523D01*
X-2235238Y9964285D01*
X-2282857Y9916666D01*
X-2378095Y9869047D01*
X-2616190Y9869047D01*
X-2711428Y9916666D01*
X-2759047Y9964285D01*
X-2806666Y10059523D01*
X-2806666Y10250000D01*
X-2759047Y10345238D01*
X-2711428Y10392857D01*
X-2616190Y10440476D01*
X-3235238Y8726190D02*
X-1949523Y9583333D01*
X-3187619Y7964285D02*
X-3187619Y8154761D01*
X-3140000Y8250000D01*
X-3092380Y8297619D01*
X-2949523Y8392857D01*
X-2759047Y8440476D01*
X-2378095Y8440476D01*
X-2282857Y8392857D01*
X-2235238Y8345238D01*
X-2187619Y8250000D01*
X-2187619Y8059523D01*
X-2235238Y7964285D01*
X-2282857Y7916666D01*
X-2378095Y7869047D01*
X-2616190Y7869047D01*
X-2711428Y7916666D01*
X-2759047Y7964285D01*
X-2806666Y8059523D01*
X-2806666Y8250000D01*
X-2759047Y8345238D01*
X-2711428Y8392857D01*
X-2616190Y8440476D01*
X-3092380Y7488095D02*
X-3140000Y7440476D01*
X-3187619Y7345238D01*
X-3187619Y7107142D01*
X-3140000Y7011904D01*
X-3092380Y6964285D01*
X-2997142Y6916666D01*
X-2901904Y6916666D01*
X-2759047Y6964285D01*
X-2187619Y7535714D01*
X-2187619Y6916666D01*
X-3187619Y6297619D02*
X-3187619Y6202380D01*
X-3140000Y6107142D01*
X-3092380Y6059523D01*
X-2997142Y6011904D01*
X-2806666Y5964285D01*
X-2568571Y5964285D01*
X-2378095Y6011904D01*
X-2282857Y6059523D01*
X-2235238Y6107142D01*
X-2187619Y6202380D01*
X-2187619Y6297619D01*
X-2235238Y6392857D01*
X-2282857Y6440476D01*
X-2378095Y6488095D01*
X-2568571Y6535714D01*
X-2806666Y6535714D01*
X-2997142Y6488095D01*
X-3092380Y6440476D01*
X-3140000Y6392857D01*
X-3187619Y6297619D01*
X-3092380Y5583333D02*
X-3140000Y5535714D01*
X-3187619Y5440476D01*
X-3187619Y5202380D01*
X-3140000Y5107142D01*
X-3092380Y5059523D01*
X-2997142Y5011904D01*
X-2901904Y5011904D01*
X-2759047Y5059523D01*
X-2187619Y5630952D01*
X-2187619Y5011904D01*
X-3092380Y4630952D02*
X-3140000Y4583333D01*
X-3187619Y4488095D01*
X-3187619Y4250000D01*
X-3140000Y4154761D01*
X-3092380Y4107142D01*
X-2997142Y4059523D01*
X-2901904Y4059523D01*
X-2759047Y4107142D01*
X-2187619Y4678571D01*
X-2187619Y4059523D01*
M02*
