%TF.GenerationSoftware,KiCad,Pcbnew,(6.0.5)*%
%TF.CreationDate,2022-06-07T12:24:32-06:00*%
%TF.ProjectId,15Pin_Fanout,31355069-6e5f-4466-916e-6f75742e6b69,rev?*%
%TF.SameCoordinates,Original*%
%TF.FileFunction,Legend,Top*%
%TF.FilePolarity,Positive*%
%FSLAX46Y46*%
G04 Gerber Fmt 4.6, Leading zero omitted, Abs format (unit mm)*
G04 Created by KiCad (PCBNEW (6.0.5)) date 2022-06-07 12:24:32*
%MOMM*%
%LPD*%
G01*
G04 APERTURE LIST*
%ADD10C,0.150000*%
%ADD11C,0.120000*%
%ADD12C,0.254000*%
%ADD13C,0.200000*%
G04 APERTURE END LIST*
D10*
%TO.C,J3*%
X-7883333Y15097619D02*
X-7883333Y14383333D01*
X-7930952Y14240476D01*
X-8026190Y14145238D01*
X-8169047Y14097619D01*
X-8264285Y14097619D01*
X-7502380Y15097619D02*
X-6883333Y15097619D01*
X-7216666Y14716666D01*
X-7073809Y14716666D01*
X-6978571Y14669047D01*
X-6930952Y14621428D01*
X-6883333Y14526190D01*
X-6883333Y14288095D01*
X-6930952Y14192857D01*
X-6978571Y14145238D01*
X-7073809Y14097619D01*
X-7359523Y14097619D01*
X-7454761Y14145238D01*
X-7502380Y14192857D01*
%TO.C,J2*%
X-683333Y15097619D02*
X-683333Y14383333D01*
X-730952Y14240476D01*
X-826190Y14145238D01*
X-969047Y14097619D01*
X-1064285Y14097619D01*
X-254761Y15002380D02*
X-207142Y15050000D01*
X-111904Y15097619D01*
X126190Y15097619D01*
X221428Y15050000D01*
X269047Y15002380D01*
X316666Y14907142D01*
X316666Y14811904D01*
X269047Y14669047D01*
X-302380Y14097619D01*
X316666Y14097619D01*
%TO.C,J1*%
X621309Y3754619D02*
X621309Y3040333D01*
X573690Y2897476D01*
X478452Y2802238D01*
X335595Y2754619D01*
X240357Y2754619D01*
X1621309Y2754619D02*
X1049880Y2754619D01*
X1335595Y2754619D02*
X1335595Y3754619D01*
X1240357Y3611761D01*
X1145119Y3516523D01*
X1049880Y3468904D01*
%TO.C,J6*%
X6966666Y17097619D02*
X6966666Y16383333D01*
X6919047Y16240476D01*
X6823809Y16145238D01*
X6680952Y16097619D01*
X6585714Y16097619D01*
X7871428Y17097619D02*
X7680952Y17097619D01*
X7585714Y17050000D01*
X7538095Y17002380D01*
X7442857Y16859523D01*
X7395238Y16669047D01*
X7395238Y16288095D01*
X7442857Y16192857D01*
X7490476Y16145238D01*
X7585714Y16097619D01*
X7776190Y16097619D01*
X7871428Y16145238D01*
X7919047Y16192857D01*
X7966666Y16288095D01*
X7966666Y16526190D01*
X7919047Y16621428D01*
X7871428Y16669047D01*
X7776190Y16716666D01*
X7585714Y16716666D01*
X7490476Y16669047D01*
X7442857Y16621428D01*
X7395238Y16526190D01*
D11*
%TO.C,J3*%
X-5690000Y17240000D02*
X-5410000Y17240000D01*
X-5250000Y21200000D02*
X-6250000Y21200000D01*
X-8050000Y19100000D02*
X-8050000Y23460000D01*
X-4490000Y15640000D02*
X-4490000Y23460000D01*
X-5750000Y21200000D02*
X-5750000Y23460000D01*
X-6250000Y21200000D02*
X-6250000Y19600000D01*
X-7050000Y23460000D02*
X-7050000Y19100000D01*
X-4490000Y17240000D02*
X-5410000Y17240000D01*
X-5250000Y19600000D02*
X-5250000Y21200000D01*
X-4490000Y23460000D02*
X-10610000Y23460000D01*
X-9690000Y15640000D02*
X-9690000Y17240000D01*
X-9690000Y17240000D02*
X-9410000Y17240000D01*
X-5410000Y17240000D02*
X-5410000Y15640000D01*
X-6250000Y19600000D02*
X-5250000Y19600000D01*
X-8850000Y19600000D02*
X-9850000Y19600000D01*
X-6250000Y21200000D02*
X-6250000Y23460000D01*
X-10610000Y23460000D02*
X-10610000Y15640000D01*
X-10610000Y15640000D02*
X-9690000Y15640000D01*
X-7050000Y19100000D02*
X-8050000Y19100000D01*
X-10610000Y17240000D02*
X-9690000Y17240000D01*
X-5410000Y15640000D02*
X-4490000Y15640000D01*
X-8850000Y21200000D02*
X-8850000Y19600000D01*
X-9850000Y19600000D02*
X-9850000Y21200000D01*
X-5690000Y17240000D02*
X-5690000Y16025000D01*
X-9850000Y21200000D02*
X-8850000Y21200000D01*
%TO.C,J2*%
X-1650000Y21200000D02*
X-1650000Y19600000D01*
X-850000Y19100000D02*
X-850000Y23460000D01*
X-3410000Y15640000D02*
X-2490000Y15640000D01*
X-2490000Y15640000D02*
X-2490000Y17240000D01*
X-3410000Y17240000D02*
X-2490000Y17240000D01*
X950000Y19600000D02*
X1950000Y19600000D01*
X1790000Y17240000D02*
X1790000Y15640000D01*
X-2490000Y17240000D02*
X-2210000Y17240000D01*
X-2650000Y21200000D02*
X-1650000Y21200000D01*
X1450000Y21200000D02*
X1450000Y23460000D01*
X950000Y21200000D02*
X950000Y23460000D01*
X2710000Y15640000D02*
X2710000Y23460000D01*
X-1650000Y19600000D02*
X-2650000Y19600000D01*
X1510000Y17240000D02*
X1510000Y16025000D01*
X2710000Y23460000D02*
X-3410000Y23460000D01*
X1790000Y15640000D02*
X2710000Y15640000D01*
X1950000Y19600000D02*
X1950000Y21200000D01*
X150000Y23460000D02*
X150000Y19100000D01*
X150000Y19100000D02*
X-850000Y19100000D01*
X-2650000Y19600000D02*
X-2650000Y21200000D01*
X-3410000Y23460000D02*
X-3410000Y15640000D01*
X1510000Y17240000D02*
X1790000Y17240000D01*
X950000Y21200000D02*
X950000Y19600000D01*
X1950000Y21200000D02*
X950000Y21200000D01*
X2710000Y17240000D02*
X1790000Y17240000D01*
D12*
%TO.C,J1*%
X-3000000Y-1904000D02*
X-4000000Y-1904000D01*
D13*
X-7500000Y-1875000D02*
X-7500000Y743000D01*
X6080000Y2575000D02*
X6145000Y2575000D01*
X7500000Y-8036000D02*
X7500000Y-4917000D01*
X6080000Y2565000D02*
X6080000Y2575000D01*
X4830000Y2565000D02*
X6080000Y2565000D01*
X-7500000Y-8036000D02*
X-7500000Y-4917000D01*
X3200000Y-2504000D02*
X3800000Y-2504000D01*
D12*
X4000000Y-1904000D02*
X4500000Y-5404000D01*
D13*
X6145000Y3563000D02*
X6352000Y3563000D01*
X-3200000Y-2504000D02*
X-3800000Y-2504000D01*
X-6120000Y2592000D02*
X-4837000Y2592000D01*
D12*
X3000000Y-1904000D02*
X4000000Y-1904000D01*
D13*
X7500000Y-1876000D02*
X7500000Y743000D01*
D12*
X2500000Y-5404000D02*
X3000000Y-1904000D01*
D13*
X-6120000Y3545000D02*
X-6120000Y2592000D01*
X-7500000Y-8036000D02*
X7500000Y-8036000D01*
X6352000Y3563000D02*
X6352000Y3556000D01*
X6145000Y2575000D02*
X6145000Y3563000D01*
X-6107000Y3557000D02*
X-6107000Y3545000D01*
D12*
X-4000000Y-1904000D02*
X-4500000Y-5404000D01*
D13*
X-6107000Y3545000D02*
X-6120000Y3545000D01*
D12*
X-2500000Y-5404000D02*
X-3000000Y-1904000D01*
D13*
X-6350000Y3557000D02*
X-6107000Y3557000D01*
D11*
%TO.C,J6*%
X9360000Y18745000D02*
X9360000Y17755000D01*
X9240000Y23215000D02*
X5360000Y23215000D01*
X4190000Y21245000D02*
X4190000Y18745000D01*
X4190000Y18745000D02*
X5240000Y18745000D01*
X10410000Y21245000D02*
X10410000Y18745000D01*
X10410000Y18745000D02*
X9360000Y18745000D01*
%TD*%
M02*
