%TF.GenerationSoftware,KiCad,Pcbnew,(6.0.5)*%
%TF.CreationDate,2022-06-07T13:41:29-06:00*%
%TF.ProjectId,15Pin_Fanout,31355069-6e5f-4466-916e-6f75742e6b69,rev?*%
%TF.SameCoordinates,Original*%
%TF.FileFunction,Copper,L1,Top*%
%TF.FilePolarity,Positive*%
%FSLAX46Y46*%
G04 Gerber Fmt 4.6, Leading zero omitted, Abs format (unit mm)*
G04 Created by KiCad (PCBNEW (6.0.5)) date 2022-06-07 13:41:29*
%MOMM*%
%LPD*%
G01*
G04 APERTURE LIST*
G04 Aperture macros list*
%AMRoundRect*
0 Rectangle with rounded corners*
0 $1 Rounding radius*
0 $2 $3 $4 $5 $6 $7 $8 $9 X,Y pos of 4 corners*
0 Add a 4 corners polygon primitive as box body*
4,1,4,$2,$3,$4,$5,$6,$7,$8,$9,$2,$3,0*
0 Add four circle primitives for the rounded corners*
1,1,$1+$1,$2,$3*
1,1,$1+$1,$4,$5*
1,1,$1+$1,$6,$7*
1,1,$1+$1,$8,$9*
0 Add four rect primitives between the rounded corners*
20,1,$1+$1,$2,$3,$4,$5,0*
20,1,$1+$1,$4,$5,$6,$7,0*
20,1,$1+$1,$6,$7,$8,$9,0*
20,1,$1+$1,$8,$9,$2,$3,0*%
G04 Aperture macros list end*
%TA.AperFunction,SMDPad,CuDef*%
%ADD10RoundRect,0.150000X0.150000X0.625000X-0.150000X0.625000X-0.150000X-0.625000X0.150000X-0.625000X0*%
%TD*%
%TA.AperFunction,SMDPad,CuDef*%
%ADD11RoundRect,0.250000X0.350000X0.650000X-0.350000X0.650000X-0.350000X-0.650000X0.350000X-0.650000X0*%
%TD*%
%TA.AperFunction,SMDPad,CuDef*%
%ADD12O,0.250000X2.400000*%
%TD*%
%TA.AperFunction,ComponentPad*%
%ADD13O,1.500000X2.700000*%
%TD*%
%TA.AperFunction,ComponentPad*%
%ADD14O,1.500000X3.300000*%
%TD*%
%TA.AperFunction,ViaPad*%
%ADD15C,0.800000*%
%TD*%
%TA.AperFunction,Conductor*%
%ADD16C,0.250000*%
%TD*%
G04 APERTURE END LIST*
D10*
%TO.P,J6,1,Pin_1*%
%TO.N,Net-(J1-Pad4)*%
X5500000Y16500000D03*
%TO.P,J6,2,Pin_2*%
%TO.N,Net-(J1-Pad1)*%
X4500000Y16500000D03*
%TO.P,J6,3,Pin_3*%
%TO.N,Net-(J1-Pad3)*%
X3500000Y16500000D03*
%TO.P,J6,4,Pin_4*%
%TO.N,Net-(J1-Pad6)*%
X2500000Y16500000D03*
D11*
%TO.P,J6,MP*%
%TO.N,N/C*%
X6800000Y20375000D03*
X1200000Y20375000D03*
%TD*%
D10*
%TO.P,J7,1,Pin_1*%
%TO.N,Net-(J1-Pad10)*%
X-2500000Y16500000D03*
%TO.P,J7,2,Pin_2*%
%TO.N,Net-(J1-Pad7)*%
X-3500000Y16500000D03*
%TO.P,J7,3,Pin_3*%
%TO.N,Net-(J1-Pad9)*%
X-4500000Y16500000D03*
%TO.P,J7,4,Pin_4*%
%TO.N,Net-(J1-Pad12)*%
X-5500000Y16500000D03*
D11*
%TO.P,J7,MP*%
%TO.N,N/C*%
X-1200000Y20375000D03*
X-6800000Y20375000D03*
%TD*%
D12*
%TO.P,J1,1,D2+*%
%TO.N,Net-(J1-Pad1)*%
X4501000Y3396000D03*
%TO.P,J1,2,D2S*%
%TO.N,GND*%
X4001000Y3396000D03*
%TO.P,J1,3,D2-*%
%TO.N,Net-(J1-Pad3)*%
X3501000Y3396000D03*
%TO.P,J1,4,D1+*%
%TO.N,Net-(J1-Pad4)*%
X3001000Y3396000D03*
%TO.P,J1,5,D1S*%
%TO.N,GND*%
X2500000Y3396000D03*
%TO.P,J1,6,D1-*%
%TO.N,Net-(J1-Pad6)*%
X2000000Y3396000D03*
%TO.P,J1,7,D0+*%
%TO.N,Net-(J1-Pad7)*%
X1500000Y3396000D03*
%TO.P,J1,8,D0S*%
%TO.N,GND*%
X1000000Y3396000D03*
%TO.P,J1,9,D0-*%
%TO.N,Net-(J1-Pad9)*%
X500000Y3396000D03*
%TO.P,J1,10,CK+*%
%TO.N,Net-(J1-Pad10)*%
X0Y3396000D03*
%TO.P,J1,11,CKS*%
%TO.N,GND*%
X-500000Y3396000D03*
%TO.P,J1,12,CK-*%
%TO.N,Net-(J1-Pad12)*%
X-1000000Y3396000D03*
%TO.P,J1,13,CEC*%
%TO.N,unconnected-(J1-Pad13)*%
X-1500000Y3396000D03*
%TO.P,J1,14,UTILITY*%
%TO.N,unconnected-(J1-Pad14)*%
X-2000000Y3396000D03*
%TO.P,J1,15,SCL*%
%TO.N,unconnected-(J1-Pad15)*%
X-2500000Y3396000D03*
%TO.P,J1,16,SDA*%
%TO.N,unconnected-(J1-Pad16)*%
X-3001000Y3396000D03*
%TO.P,J1,17,GND*%
%TO.N,GND*%
X-3501000Y3396000D03*
%TO.P,J1,18,+5V*%
%TO.N,unconnected-(J1-Pad18)*%
X-4001000Y3396000D03*
%TO.P,J1,19,HPD*%
%TO.N,unconnected-(J1-Pad19)*%
X-4501000Y3396000D03*
D13*
%TO.P,J1,20*%
%TO.N,N/C*%
X7250000Y-3396000D03*
%TO.P,J1,21*%
X-7250000Y-3396000D03*
D14*
%TO.P,J1,22*%
X7250000Y2564000D03*
%TO.P,J1,23*%
X-7250000Y2564000D03*
%TD*%
D15*
%TO.N,GND*%
X4750000Y6500000D03*
%TO.N,Net-(J1-Pad10)*%
X-1887299Y8362701D03*
%TO.N,Net-(J1-Pad4)*%
X2724500Y9974500D03*
%TO.N,GND*%
X2724500Y6500000D03*
X137299Y8387299D03*
X-1184342Y5815658D03*
X-3501000Y5249000D03*
%TO.N,Net-(J1-Pad4)*%
X6000000Y13250000D03*
%TO.N,Net-(J1-Pad10)*%
X-1750000Y14500000D03*
%TD*%
D16*
%TO.N,Net-(J1-Pad1)*%
X5474511Y12750875D02*
X4500000Y13725386D01*
X5474511Y4369511D02*
X5474511Y12750875D01*
X4500000Y13725386D02*
X4500000Y16500000D01*
X4501000Y3396000D02*
X5474511Y4369511D01*
%TO.N,Net-(J1-Pad3)*%
X3501000Y5001000D02*
X3501000Y3396000D01*
X3898531Y5398531D02*
X3501000Y5001000D01*
X3898531Y7186707D02*
X3898531Y5398531D01*
X3500000Y7585238D02*
X3898531Y7186707D01*
X3500000Y16500000D02*
X3500000Y7585238D01*
%TO.N,GND*%
X4750000Y5595000D02*
X4750000Y6500000D01*
X4001000Y4846000D02*
X4750000Y5595000D01*
X4001000Y3396000D02*
X4001000Y4846000D01*
%TO.N,Net-(J1-Pad10)*%
X0Y6475402D02*
X-1887299Y8362701D01*
X0Y3396000D02*
X0Y6475402D01*
%TO.N,Net-(J1-Pad4)*%
X3449011Y6199897D02*
X3449011Y7000509D01*
X2699520Y7750000D02*
X2699520Y9949520D01*
X3449011Y7000509D02*
X2699520Y7750000D01*
X3001000Y5751886D02*
X3449011Y6199897D01*
X3001000Y3396000D02*
X3001000Y5751886D01*
X2699520Y9949520D02*
X2724500Y9974500D01*
%TO.N,GND*%
X2500000Y6275500D02*
X2724500Y6500000D01*
X2500000Y3396000D02*
X2500000Y6275500D01*
%TO.N,Net-(J1-Pad7)*%
X1500000Y8049212D02*
X-2086506Y11635718D01*
X-2086506Y11635718D02*
X-3500000Y11635718D01*
X-3500000Y11635718D02*
X-3500000Y16500000D01*
X1500000Y3396000D02*
X1500000Y8049212D01*
%TO.N,GND*%
X1000000Y7524598D02*
X137299Y8387299D01*
X1000000Y3396000D02*
X1000000Y7524598D01*
X-500000Y5131316D02*
X-1184342Y5815658D01*
X-500000Y3396000D02*
X-500000Y5131316D01*
X-3501000Y3396000D02*
X-3501000Y5249000D01*
%TO.N,Net-(J1-Pad1)*%
X4501000Y16499000D02*
X4500000Y16500000D01*
%TO.N,Net-(J1-Pad3)*%
X3500000Y16500000D02*
X3501000Y16499000D01*
%TO.N,Net-(J1-Pad4)*%
X6000000Y16000000D02*
X5500000Y16500000D01*
X6000000Y13250000D02*
X6000000Y16000000D01*
%TO.N,Net-(J1-Pad6)*%
X2500000Y16500000D02*
X2000000Y16000000D01*
X2000000Y16000000D02*
X2000000Y3396000D01*
%TO.N,Net-(J1-Pad9)*%
X500000Y7000000D02*
X500000Y3396000D01*
X-4500000Y12000000D02*
X500000Y7000000D01*
X-4500000Y16500000D02*
X-4500000Y12000000D01*
%TO.N,Net-(J1-Pad10)*%
X-1750000Y14500000D02*
X-1750000Y16000000D01*
X-2250000Y16500000D02*
X-2500000Y16500000D01*
X-1750000Y16000000D02*
X-2250000Y16500000D01*
%TO.N,Net-(J1-Pad12)*%
X-5500000Y16500000D02*
X-5500000Y9106717D01*
X-1000000Y4606717D02*
X-1000000Y3396000D01*
X-5500000Y9106717D02*
X-1000000Y4606717D01*
%TD*%
%TA.AperFunction,Conductor*%
%TO.N,GND*%
G36*
X-2366379Y20971498D02*
G01*
X-2319886Y20917842D01*
X-2308500Y20865500D01*
X-2308500Y19674600D01*
X-2308163Y19671354D01*
X-2308163Y19671350D01*
X-2299792Y19590678D01*
X-2297526Y19568834D01*
X-2241550Y19401054D01*
X-2148478Y19250652D01*
X-2023303Y19125695D01*
X-2017073Y19121855D01*
X-2017072Y19121854D01*
X-1879910Y19037306D01*
X-1872738Y19032885D01*
X-1792995Y19006436D01*
X-1711389Y18979368D01*
X-1711387Y18979368D01*
X-1704861Y18977203D01*
X-1698025Y18976503D01*
X-1698022Y18976502D01*
X-1654969Y18972091D01*
X-1600400Y18966500D01*
X-799600Y18966500D01*
X-796354Y18966837D01*
X-796350Y18966837D01*
X-700692Y18976762D01*
X-700688Y18976763D01*
X-693834Y18977474D01*
X-687298Y18979655D01*
X-687296Y18979655D01*
X-555194Y19023728D01*
X-526054Y19033450D01*
X-375652Y19126522D01*
X-250695Y19251697D01*
X-205492Y19325030D01*
X-161725Y19396032D01*
X-161724Y19396034D01*
X-157885Y19402262D01*
X-119624Y19517615D01*
X-79195Y19575974D01*
X-13631Y19603211D01*
X56251Y19590678D01*
X108263Y19542353D01*
X119491Y19517824D01*
X155729Y19409209D01*
X158450Y19401054D01*
X251522Y19250652D01*
X376697Y19125695D01*
X382927Y19121855D01*
X382928Y19121854D01*
X520090Y19037306D01*
X527262Y19032885D01*
X607005Y19006436D01*
X688611Y18979368D01*
X688613Y18979368D01*
X695139Y18977203D01*
X701975Y18976503D01*
X701978Y18976502D01*
X745031Y18972091D01*
X799600Y18966500D01*
X1600400Y18966500D01*
X1603646Y18966837D01*
X1603650Y18966837D01*
X1699308Y18976762D01*
X1699312Y18976763D01*
X1706166Y18977474D01*
X1712702Y18979655D01*
X1712704Y18979655D01*
X1844806Y19023728D01*
X1873946Y19033450D01*
X2024348Y19126522D01*
X2149305Y19251697D01*
X2194508Y19325030D01*
X2238275Y19396032D01*
X2238276Y19396034D01*
X2242115Y19402262D01*
X2297797Y19570139D01*
X2299902Y19590678D01*
X2308172Y19671402D01*
X2308500Y19674600D01*
X2308500Y20865500D01*
X2328502Y20933621D01*
X2382158Y20980114D01*
X2434500Y20991500D01*
X5565500Y20991500D01*
X5633621Y20971498D01*
X5680114Y20917842D01*
X5691500Y20865500D01*
X5691500Y19674600D01*
X5691837Y19671354D01*
X5691837Y19671350D01*
X5700208Y19590678D01*
X5702474Y19568834D01*
X5758450Y19401054D01*
X5851522Y19250652D01*
X5976697Y19125695D01*
X5982927Y19121855D01*
X5982928Y19121854D01*
X6120090Y19037306D01*
X6127262Y19032885D01*
X6207005Y19006436D01*
X6288611Y18979368D01*
X6288613Y18979368D01*
X6295139Y18977203D01*
X6301975Y18976503D01*
X6301978Y18976502D01*
X6345031Y18972091D01*
X6399600Y18966500D01*
X7200400Y18966500D01*
X7203646Y18966837D01*
X7203650Y18966837D01*
X7299308Y18976762D01*
X7299312Y18976763D01*
X7306166Y18977474D01*
X7312702Y18979655D01*
X7312704Y18979655D01*
X7444806Y19023728D01*
X7473946Y19033450D01*
X7624348Y19126522D01*
X7749305Y19251697D01*
X7758241Y19266193D01*
X7811013Y19313686D01*
X7881085Y19325108D01*
X7946208Y19296834D01*
X7985708Y19237840D01*
X7991500Y19200076D01*
X7991500Y4705927D01*
X7971498Y4637806D01*
X7917842Y4591313D01*
X7847568Y4581209D01*
X7814855Y4590554D01*
X7658180Y4659330D01*
X7658167Y4659335D01*
X7653033Y4661588D01*
X7647582Y4662897D01*
X7647578Y4662898D01*
X7440046Y4712722D01*
X7440045Y4712722D01*
X7434589Y4714032D01*
X7350525Y4718879D01*
X7215917Y4726640D01*
X7215914Y4726640D01*
X7210310Y4726963D01*
X6987285Y4699975D01*
X6772565Y4633918D01*
X6767585Y4631348D01*
X6767581Y4631346D01*
X6626850Y4558709D01*
X6572936Y4530882D01*
X6394708Y4394123D01*
X6331462Y4324616D01*
X6327255Y4319993D01*
X6266614Y4283071D01*
X6195639Y4284794D01*
X6136862Y4324616D01*
X6108620Y4392937D01*
X6108570Y4393466D01*
X6108011Y4405322D01*
X6108011Y12242129D01*
X6128013Y12310250D01*
X6181669Y12356743D01*
X6207814Y12365376D01*
X6282288Y12381206D01*
X6313760Y12395218D01*
X6450722Y12456197D01*
X6450724Y12456198D01*
X6456752Y12458882D01*
X6611253Y12571134D01*
X6739040Y12713056D01*
X6834527Y12878444D01*
X6893542Y13060072D01*
X6913504Y13250000D01*
X6893542Y13439928D01*
X6834527Y13621556D01*
X6827406Y13633891D01*
X6784109Y13708882D01*
X6739040Y13786944D01*
X6665863Y13868215D01*
X6635147Y13932221D01*
X6633500Y13952524D01*
X6633500Y15921232D01*
X6634027Y15932415D01*
X6635702Y15939908D01*
X6634567Y15976039D01*
X6633562Y16007998D01*
X6633500Y16011956D01*
X6633500Y16039856D01*
X6632996Y16043847D01*
X6632063Y16055689D01*
X6631548Y16072101D01*
X6630674Y16099889D01*
X6628462Y16107503D01*
X6628461Y16107508D01*
X6625023Y16119341D01*
X6621012Y16138705D01*
X6619467Y16150936D01*
X6618474Y16158797D01*
X6615557Y16166164D01*
X6615556Y16166169D01*
X6602198Y16199908D01*
X6598354Y16211135D01*
X6593633Y16227384D01*
X6586018Y16253593D01*
X6575707Y16271028D01*
X6567012Y16288776D01*
X6559552Y16307617D01*
X6533564Y16343387D01*
X6527048Y16353307D01*
X6508580Y16384535D01*
X6508578Y16384538D01*
X6504542Y16391362D01*
X6490221Y16405683D01*
X6477380Y16420717D01*
X6470132Y16430693D01*
X6465472Y16437107D01*
X6459136Y16442349D01*
X6431402Y16465292D01*
X6422622Y16473282D01*
X6345405Y16550499D01*
X6311379Y16612811D01*
X6308500Y16639594D01*
X6308500Y17191502D01*
X6305562Y17228831D01*
X6259145Y17388601D01*
X6242107Y17417411D01*
X6178491Y17524980D01*
X6178489Y17524983D01*
X6174453Y17531807D01*
X6056807Y17649453D01*
X6049983Y17653489D01*
X6049980Y17653491D01*
X5920427Y17730108D01*
X5920425Y17730109D01*
X5913601Y17734145D01*
X5905990Y17736356D01*
X5905988Y17736357D01*
X5853769Y17751528D01*
X5753831Y17780562D01*
X5747426Y17781066D01*
X5747421Y17781067D01*
X5718958Y17783307D01*
X5718950Y17783307D01*
X5716502Y17783500D01*
X5283498Y17783500D01*
X5281050Y17783307D01*
X5281042Y17783307D01*
X5252579Y17781067D01*
X5252574Y17781066D01*
X5246169Y17780562D01*
X5146231Y17751528D01*
X5094012Y17736357D01*
X5094010Y17736356D01*
X5086399Y17734145D01*
X5079576Y17730110D01*
X5079574Y17730109D01*
X5064137Y17720980D01*
X4995321Y17703522D01*
X4935863Y17720980D01*
X4920426Y17730109D01*
X4920424Y17730110D01*
X4913601Y17734145D01*
X4905990Y17736356D01*
X4905988Y17736357D01*
X4853769Y17751528D01*
X4753831Y17780562D01*
X4747426Y17781066D01*
X4747421Y17781067D01*
X4718958Y17783307D01*
X4718950Y17783307D01*
X4716502Y17783500D01*
X4283498Y17783500D01*
X4281050Y17783307D01*
X4281042Y17783307D01*
X4252579Y17781067D01*
X4252574Y17781066D01*
X4246169Y17780562D01*
X4146231Y17751528D01*
X4094012Y17736357D01*
X4094010Y17736356D01*
X4086399Y17734145D01*
X4079576Y17730110D01*
X4079574Y17730109D01*
X4064137Y17720980D01*
X3995321Y17703522D01*
X3935863Y17720980D01*
X3920426Y17730109D01*
X3920424Y17730110D01*
X3913601Y17734145D01*
X3905990Y17736356D01*
X3905988Y17736357D01*
X3853769Y17751528D01*
X3753831Y17780562D01*
X3747426Y17781066D01*
X3747421Y17781067D01*
X3718958Y17783307D01*
X3718950Y17783307D01*
X3716502Y17783500D01*
X3283498Y17783500D01*
X3281050Y17783307D01*
X3281042Y17783307D01*
X3252579Y17781067D01*
X3252574Y17781066D01*
X3246169Y17780562D01*
X3146231Y17751528D01*
X3094012Y17736357D01*
X3094010Y17736356D01*
X3086399Y17734145D01*
X3079576Y17730110D01*
X3079574Y17730109D01*
X3064137Y17720980D01*
X2995321Y17703522D01*
X2935863Y17720980D01*
X2920426Y17730109D01*
X2920424Y17730110D01*
X2913601Y17734145D01*
X2905990Y17736356D01*
X2905988Y17736357D01*
X2853769Y17751528D01*
X2753831Y17780562D01*
X2747426Y17781066D01*
X2747421Y17781067D01*
X2718958Y17783307D01*
X2718950Y17783307D01*
X2716502Y17783500D01*
X2283498Y17783500D01*
X2281050Y17783307D01*
X2281042Y17783307D01*
X2252579Y17781067D01*
X2252574Y17781066D01*
X2246169Y17780562D01*
X2146231Y17751528D01*
X2094012Y17736357D01*
X2094010Y17736356D01*
X2086399Y17734145D01*
X2079575Y17730109D01*
X2079573Y17730108D01*
X1950020Y17653491D01*
X1950017Y17653489D01*
X1943193Y17649453D01*
X1825547Y17531807D01*
X1821511Y17524983D01*
X1821509Y17524980D01*
X1757893Y17417411D01*
X1740855Y17388601D01*
X1694438Y17228831D01*
X1691500Y17191502D01*
X1691500Y16639595D01*
X1671498Y16571474D01*
X1654595Y16550500D01*
X1607747Y16503652D01*
X1599461Y16496112D01*
X1592982Y16492000D01*
X1587557Y16486223D01*
X1546357Y16442349D01*
X1543602Y16439507D01*
X1523865Y16419770D01*
X1521385Y16416573D01*
X1513682Y16407553D01*
X1483414Y16375321D01*
X1479595Y16368375D01*
X1479593Y16368372D01*
X1473652Y16357566D01*
X1462801Y16341047D01*
X1450386Y16325041D01*
X1447241Y16317772D01*
X1447238Y16317768D01*
X1432826Y16284463D01*
X1427609Y16273813D01*
X1406305Y16235060D01*
X1404334Y16227385D01*
X1404334Y16227384D01*
X1401267Y16215438D01*
X1394863Y16196734D01*
X1386819Y16178145D01*
X1385580Y16170322D01*
X1385577Y16170312D01*
X1379901Y16134476D01*
X1377495Y16122856D01*
X1366500Y16080030D01*
X1366500Y16059776D01*
X1364949Y16040066D01*
X1361780Y16020057D01*
X1362526Y16012165D01*
X1365941Y15976039D01*
X1366500Y15964181D01*
X1366500Y9382807D01*
X1346498Y9314686D01*
X1292842Y9268193D01*
X1222568Y9258089D01*
X1157988Y9287583D01*
X1151405Y9293712D01*
X-1582854Y12027971D01*
X-1590394Y12036257D01*
X-1594506Y12042736D01*
X-1644158Y12089362D01*
X-1646999Y12092116D01*
X-1666736Y12111853D01*
X-1669933Y12114333D01*
X-1678955Y12122038D01*
X-1705406Y12146877D01*
X-1711185Y12152304D01*
X-1718131Y12156123D01*
X-1718134Y12156125D01*
X-1728940Y12162066D01*
X-1745459Y12172917D01*
X-1745923Y12173277D01*
X-1761465Y12185332D01*
X-1768734Y12188477D01*
X-1768738Y12188480D01*
X-1802043Y12202892D01*
X-1812693Y12208109D01*
X-1851446Y12229413D01*
X-1871069Y12234451D01*
X-1889772Y12240855D01*
X-1901086Y12245751D01*
X-1901087Y12245751D01*
X-1908361Y12248899D01*
X-1916184Y12250138D01*
X-1916194Y12250141D01*
X-1952030Y12255817D01*
X-1963650Y12258223D01*
X-1998795Y12267246D01*
X-1998796Y12267246D01*
X-2006476Y12269218D01*
X-2026730Y12269218D01*
X-2046441Y12270769D01*
X-2058620Y12272698D01*
X-2066449Y12273938D01*
X-2074341Y12273192D01*
X-2110467Y12269777D01*
X-2122325Y12269218D01*
X-2740500Y12269218D01*
X-2808621Y12289220D01*
X-2855114Y12342876D01*
X-2866500Y12395218D01*
X-2866500Y14200735D01*
X-2846498Y14268856D01*
X-2792842Y14315349D01*
X-2722568Y14325453D01*
X-2657988Y14295959D01*
X-2620667Y14239671D01*
X-2584527Y14128444D01*
X-2489040Y13963056D01*
X-2361253Y13821134D01*
X-2206752Y13708882D01*
X-2200724Y13706198D01*
X-2200722Y13706197D01*
X-2038319Y13633891D01*
X-2032288Y13631206D01*
X-1957320Y13615271D01*
X-1851944Y13592872D01*
X-1851939Y13592872D01*
X-1845487Y13591500D01*
X-1654513Y13591500D01*
X-1648061Y13592872D01*
X-1648056Y13592872D01*
X-1542680Y13615271D01*
X-1467712Y13631206D01*
X-1461681Y13633891D01*
X-1299278Y13706197D01*
X-1299276Y13706198D01*
X-1293248Y13708882D01*
X-1138747Y13821134D01*
X-1010960Y13963056D01*
X-915473Y14128444D01*
X-856458Y14310072D01*
X-836496Y14500000D01*
X-856458Y14689928D01*
X-915473Y14871556D01*
X-1010960Y15036944D01*
X-1084137Y15118215D01*
X-1114853Y15182221D01*
X-1116500Y15202524D01*
X-1116500Y15921232D01*
X-1115973Y15932415D01*
X-1114298Y15939908D01*
X-1115433Y15976039D01*
X-1116438Y16007998D01*
X-1116500Y16011956D01*
X-1116500Y16039856D01*
X-1117004Y16043847D01*
X-1117937Y16055689D01*
X-1118452Y16072101D01*
X-1119326Y16099889D01*
X-1121538Y16107503D01*
X-1121539Y16107508D01*
X-1124977Y16119341D01*
X-1128988Y16138705D01*
X-1130533Y16150936D01*
X-1131526Y16158797D01*
X-1134443Y16166164D01*
X-1134444Y16166169D01*
X-1147802Y16199908D01*
X-1151646Y16211135D01*
X-1156367Y16227384D01*
X-1163982Y16253593D01*
X-1174293Y16271028D01*
X-1182988Y16288776D01*
X-1190448Y16307617D01*
X-1216436Y16343387D01*
X-1222952Y16353307D01*
X-1241420Y16384535D01*
X-1241422Y16384538D01*
X-1245458Y16391362D01*
X-1259779Y16405683D01*
X-1272620Y16420717D01*
X-1279868Y16430693D01*
X-1284528Y16437107D01*
X-1318593Y16465288D01*
X-1327374Y16473278D01*
X-1654596Y16800501D01*
X-1688621Y16862813D01*
X-1691500Y16889596D01*
X-1691500Y17191502D01*
X-1694438Y17228831D01*
X-1740855Y17388601D01*
X-1757893Y17417411D01*
X-1821509Y17524980D01*
X-1821511Y17524983D01*
X-1825547Y17531807D01*
X-1943193Y17649453D01*
X-1950017Y17653489D01*
X-1950020Y17653491D01*
X-2079573Y17730108D01*
X-2079575Y17730109D01*
X-2086399Y17734145D01*
X-2094010Y17736356D01*
X-2094012Y17736357D01*
X-2146231Y17751528D01*
X-2246169Y17780562D01*
X-2252574Y17781066D01*
X-2252579Y17781067D01*
X-2281042Y17783307D01*
X-2281050Y17783307D01*
X-2283498Y17783500D01*
X-2716502Y17783500D01*
X-2718950Y17783307D01*
X-2718958Y17783307D01*
X-2747421Y17781067D01*
X-2747426Y17781066D01*
X-2753831Y17780562D01*
X-2853769Y17751528D01*
X-2905988Y17736357D01*
X-2905990Y17736356D01*
X-2913601Y17734145D01*
X-2920424Y17730110D01*
X-2920426Y17730109D01*
X-2935863Y17720980D01*
X-3004679Y17703522D01*
X-3064137Y17720980D01*
X-3079574Y17730109D01*
X-3079576Y17730110D01*
X-3086399Y17734145D01*
X-3094010Y17736356D01*
X-3094012Y17736357D01*
X-3146231Y17751528D01*
X-3246169Y17780562D01*
X-3252574Y17781066D01*
X-3252579Y17781067D01*
X-3281042Y17783307D01*
X-3281050Y17783307D01*
X-3283498Y17783500D01*
X-3716502Y17783500D01*
X-3718950Y17783307D01*
X-3718958Y17783307D01*
X-3747421Y17781067D01*
X-3747426Y17781066D01*
X-3753831Y17780562D01*
X-3853769Y17751528D01*
X-3905988Y17736357D01*
X-3905990Y17736356D01*
X-3913601Y17734145D01*
X-3920424Y17730110D01*
X-3920426Y17730109D01*
X-3935863Y17720980D01*
X-4004679Y17703522D01*
X-4064137Y17720980D01*
X-4079574Y17730109D01*
X-4079576Y17730110D01*
X-4086399Y17734145D01*
X-4094010Y17736356D01*
X-4094012Y17736357D01*
X-4146231Y17751528D01*
X-4246169Y17780562D01*
X-4252574Y17781066D01*
X-4252579Y17781067D01*
X-4281042Y17783307D01*
X-4281050Y17783307D01*
X-4283498Y17783500D01*
X-4716502Y17783500D01*
X-4718950Y17783307D01*
X-4718958Y17783307D01*
X-4747421Y17781067D01*
X-4747426Y17781066D01*
X-4753831Y17780562D01*
X-4853769Y17751528D01*
X-4905988Y17736357D01*
X-4905990Y17736356D01*
X-4913601Y17734145D01*
X-4920424Y17730110D01*
X-4920426Y17730109D01*
X-4935863Y17720980D01*
X-5004679Y17703522D01*
X-5064137Y17720980D01*
X-5079574Y17730109D01*
X-5079576Y17730110D01*
X-5086399Y17734145D01*
X-5094010Y17736356D01*
X-5094012Y17736357D01*
X-5146231Y17751528D01*
X-5246169Y17780562D01*
X-5252574Y17781066D01*
X-5252579Y17781067D01*
X-5281042Y17783307D01*
X-5281050Y17783307D01*
X-5283498Y17783500D01*
X-5716502Y17783500D01*
X-5718950Y17783307D01*
X-5718958Y17783307D01*
X-5747421Y17781067D01*
X-5747426Y17781066D01*
X-5753831Y17780562D01*
X-5853769Y17751528D01*
X-5905988Y17736357D01*
X-5905990Y17736356D01*
X-5913601Y17734145D01*
X-5920425Y17730109D01*
X-5920427Y17730108D01*
X-6049980Y17653491D01*
X-6049983Y17653489D01*
X-6056807Y17649453D01*
X-6174453Y17531807D01*
X-6178489Y17524983D01*
X-6178491Y17524980D01*
X-6242107Y17417411D01*
X-6259145Y17388601D01*
X-6305562Y17228831D01*
X-6308500Y17191502D01*
X-6308500Y15808498D01*
X-6305562Y15771169D01*
X-6259145Y15611399D01*
X-6255108Y15604573D01*
X-6178491Y15475020D01*
X-6178489Y15475017D01*
X-6174453Y15468193D01*
X-6168845Y15462585D01*
X-6163989Y15456325D01*
X-6165496Y15455156D01*
X-6136379Y15401833D01*
X-6133500Y15375050D01*
X-6133500Y9185484D01*
X-6134027Y9174301D01*
X-6135702Y9166808D01*
X-6135453Y9158882D01*
X-6135453Y9158881D01*
X-6133562Y9098731D01*
X-6133500Y9094772D01*
X-6133500Y9066861D01*
X-6133003Y9062927D01*
X-6133003Y9062926D01*
X-6132995Y9062861D01*
X-6132062Y9051024D01*
X-6130673Y9006828D01*
X-6125022Y8987378D01*
X-6121013Y8968017D01*
X-6118474Y8947920D01*
X-6115555Y8940549D01*
X-6115555Y8940547D01*
X-6102196Y8906805D01*
X-6098351Y8895575D01*
X-6086018Y8853124D01*
X-6081985Y8846305D01*
X-6081983Y8846300D01*
X-6075707Y8835689D01*
X-6067012Y8817941D01*
X-6059552Y8799100D01*
X-6054890Y8792684D01*
X-6054890Y8792683D01*
X-6033564Y8763330D01*
X-6027048Y8753410D01*
X-6019105Y8739980D01*
X-6004542Y8715355D01*
X-5990221Y8701034D01*
X-5977381Y8686001D01*
X-5965472Y8669610D01*
X-5959366Y8664559D01*
X-5931395Y8641419D01*
X-5922616Y8633429D01*
X-2589756Y5300568D01*
X-2555730Y5238256D01*
X-2560795Y5167440D01*
X-2603342Y5110605D01*
X-2639910Y5091642D01*
X-2706139Y5070123D01*
X-2777106Y5068097D01*
X-2790317Y5072896D01*
X-2796509Y5074908D01*
X-2803682Y5078283D01*
X-2935305Y5103391D01*
X-2953121Y5106790D01*
X-2953122Y5106790D01*
X-2960906Y5108275D01*
X-3049400Y5102708D01*
X-3112738Y5098723D01*
X-3112740Y5098723D01*
X-3120650Y5098225D01*
X-3207241Y5070090D01*
X-3278206Y5068062D01*
X-3289110Y5072023D01*
X-3289124Y5071979D01*
X-3311622Y5079289D01*
X-3453152Y5106287D01*
X-3468849Y5107274D01*
X-3612643Y5098228D01*
X-3628093Y5095281D01*
X-3705884Y5070005D01*
X-3776852Y5067978D01*
X-3791038Y5073130D01*
X-3796508Y5074907D01*
X-3803682Y5078283D01*
X-3935305Y5103391D01*
X-3953121Y5106790D01*
X-3953122Y5106790D01*
X-3960906Y5108275D01*
X-4049400Y5102708D01*
X-4112738Y5098723D01*
X-4112740Y5098723D01*
X-4120650Y5098225D01*
X-4128186Y5095776D01*
X-4128188Y5095776D01*
X-4129711Y5095281D01*
X-4201291Y5072023D01*
X-4206545Y5070316D01*
X-4277512Y5068288D01*
X-4289184Y5072528D01*
X-4296512Y5074909D01*
X-4303682Y5078283D01*
X-4311465Y5079768D01*
X-4311466Y5079768D01*
X-4453121Y5106790D01*
X-4453122Y5106790D01*
X-4460906Y5108275D01*
X-4549400Y5102708D01*
X-4612738Y5098723D01*
X-4612740Y5098723D01*
X-4620650Y5098225D01*
X-4628186Y5095776D01*
X-4628188Y5095776D01*
X-4765333Y5051215D01*
X-4765336Y5051214D01*
X-4772875Y5048764D01*
X-4908018Y4963000D01*
X-5017586Y4846321D01*
X-5094695Y4706060D01*
X-5134500Y4551030D01*
X-5134500Y2281144D01*
X-5119474Y2162203D01*
X-5060552Y2013383D01*
X-4966472Y1883893D01*
X-4843144Y1781867D01*
X-4835977Y1778494D01*
X-4835973Y1778492D01*
X-4773879Y1749274D01*
X-4698318Y1713717D01*
X-4593778Y1693775D01*
X-4551515Y1685713D01*
X-4541094Y1683725D01*
X-4452600Y1689292D01*
X-4389262Y1693277D01*
X-4389260Y1693277D01*
X-4381350Y1693775D01*
X-4373814Y1696224D01*
X-4373812Y1696224D01*
X-4305248Y1718502D01*
X-4295455Y1721684D01*
X-4224488Y1723712D01*
X-4212816Y1719472D01*
X-4205488Y1717091D01*
X-4198318Y1713717D01*
X-4190535Y1712232D01*
X-4190534Y1712232D01*
X-4048879Y1685210D01*
X-4041094Y1683725D01*
X-3952600Y1689292D01*
X-3889262Y1693277D01*
X-3889260Y1693277D01*
X-3881350Y1693775D01*
X-3794759Y1721910D01*
X-3723794Y1723938D01*
X-3712890Y1719977D01*
X-3712876Y1720021D01*
X-3690378Y1712711D01*
X-3548848Y1685713D01*
X-3533151Y1684726D01*
X-3389357Y1693772D01*
X-3373907Y1696719D01*
X-3296116Y1721995D01*
X-3225148Y1724022D01*
X-3210962Y1718870D01*
X-3205492Y1717093D01*
X-3198318Y1713717D01*
X-3093778Y1693775D01*
X-3051515Y1685713D01*
X-3041094Y1683725D01*
X-2952600Y1689292D01*
X-2889262Y1693277D01*
X-2889260Y1693277D01*
X-2881350Y1693775D01*
X-2873814Y1696224D01*
X-2873812Y1696224D01*
X-2794863Y1721876D01*
X-2723895Y1723903D01*
X-2710687Y1719105D01*
X-2704489Y1717092D01*
X-2697318Y1713717D01*
X-2592778Y1693775D01*
X-2550515Y1685713D01*
X-2540094Y1683725D01*
X-2451600Y1689292D01*
X-2388262Y1693277D01*
X-2388260Y1693277D01*
X-2380350Y1693775D01*
X-2372814Y1696224D01*
X-2372812Y1696224D01*
X-2304248Y1718502D01*
X-2294455Y1721684D01*
X-2223488Y1723712D01*
X-2211816Y1719472D01*
X-2204488Y1717091D01*
X-2197318Y1713717D01*
X-2189535Y1712232D01*
X-2189534Y1712232D01*
X-2047879Y1685210D01*
X-2040094Y1683725D01*
X-1951600Y1689292D01*
X-1888262Y1693277D01*
X-1888260Y1693277D01*
X-1880350Y1693775D01*
X-1872814Y1696224D01*
X-1872812Y1696224D01*
X-1804248Y1718502D01*
X-1794455Y1721684D01*
X-1723488Y1723712D01*
X-1711816Y1719472D01*
X-1704488Y1717091D01*
X-1697318Y1713717D01*
X-1689535Y1712232D01*
X-1689534Y1712232D01*
X-1547879Y1685210D01*
X-1540094Y1683725D01*
X-1451600Y1689292D01*
X-1388262Y1693277D01*
X-1388260Y1693277D01*
X-1380350Y1693775D01*
X-1372814Y1696224D01*
X-1372812Y1696224D01*
X-1304248Y1718502D01*
X-1294455Y1721684D01*
X-1223488Y1723712D01*
X-1211816Y1719472D01*
X-1204488Y1717091D01*
X-1197318Y1713717D01*
X-1189535Y1712232D01*
X-1189534Y1712232D01*
X-1047879Y1685210D01*
X-1040094Y1683725D01*
X-951600Y1689292D01*
X-888262Y1693277D01*
X-888260Y1693277D01*
X-880350Y1693775D01*
X-793759Y1721910D01*
X-722794Y1723938D01*
X-711890Y1719977D01*
X-711876Y1720021D01*
X-689378Y1712711D01*
X-547848Y1685713D01*
X-532151Y1684726D01*
X-388357Y1693772D01*
X-372907Y1696719D01*
X-295116Y1721995D01*
X-224148Y1724022D01*
X-209962Y1718870D01*
X-204492Y1717093D01*
X-197318Y1713717D01*
X-92778Y1693775D01*
X-50515Y1685713D01*
X-40094Y1683725D01*
X48400Y1689292D01*
X111738Y1693277D01*
X111740Y1693277D01*
X119650Y1693775D01*
X127186Y1696224D01*
X127188Y1696224D01*
X195752Y1718502D01*
X205545Y1721684D01*
X276512Y1723712D01*
X288184Y1719472D01*
X295512Y1717091D01*
X302682Y1713717D01*
X310465Y1712232D01*
X310466Y1712232D01*
X452121Y1685210D01*
X459906Y1683725D01*
X548400Y1689292D01*
X611738Y1693277D01*
X611740Y1693277D01*
X619650Y1693775D01*
X706241Y1721910D01*
X777206Y1723938D01*
X788110Y1719977D01*
X788124Y1720021D01*
X810622Y1712711D01*
X952152Y1685713D01*
X967849Y1684726D01*
X1111643Y1693772D01*
X1127093Y1696719D01*
X1204884Y1721995D01*
X1275852Y1724022D01*
X1290038Y1718870D01*
X1295508Y1717093D01*
X1302682Y1713717D01*
X1407222Y1693775D01*
X1449485Y1685713D01*
X1459906Y1683725D01*
X1548400Y1689292D01*
X1611738Y1693277D01*
X1611740Y1693277D01*
X1619650Y1693775D01*
X1627186Y1696224D01*
X1627188Y1696224D01*
X1695752Y1718502D01*
X1705545Y1721684D01*
X1776512Y1723712D01*
X1788184Y1719472D01*
X1795512Y1717091D01*
X1802682Y1713717D01*
X1810465Y1712232D01*
X1810466Y1712232D01*
X1952121Y1685210D01*
X1959906Y1683725D01*
X2048400Y1689292D01*
X2111738Y1693277D01*
X2111740Y1693277D01*
X2119650Y1693775D01*
X2206241Y1721910D01*
X2277206Y1723938D01*
X2288110Y1719977D01*
X2288124Y1720021D01*
X2310622Y1712711D01*
X2452152Y1685713D01*
X2467849Y1684726D01*
X2611643Y1693772D01*
X2627093Y1696719D01*
X2705476Y1722187D01*
X2776444Y1724214D01*
X2792172Y1718502D01*
X2796506Y1717094D01*
X2803682Y1713717D01*
X2908222Y1693775D01*
X2950485Y1685713D01*
X2960906Y1683725D01*
X3049400Y1689292D01*
X3112738Y1693277D01*
X3112740Y1693277D01*
X3120650Y1693775D01*
X3128186Y1696224D01*
X3128188Y1696224D01*
X3196752Y1718502D01*
X3206545Y1721684D01*
X3277512Y1723712D01*
X3289184Y1719472D01*
X3296512Y1717091D01*
X3303682Y1713717D01*
X3311465Y1712232D01*
X3311466Y1712232D01*
X3453121Y1685210D01*
X3460906Y1683725D01*
X3549400Y1689292D01*
X3612738Y1693277D01*
X3612740Y1693277D01*
X3620650Y1693775D01*
X3707241Y1721910D01*
X3778206Y1723938D01*
X3789110Y1719977D01*
X3789124Y1720021D01*
X3811622Y1712711D01*
X3953152Y1685713D01*
X3968849Y1684726D01*
X4112643Y1693772D01*
X4128093Y1696719D01*
X4205884Y1721995D01*
X4276852Y1724022D01*
X4291038Y1718870D01*
X4296508Y1717093D01*
X4303682Y1713717D01*
X4408222Y1693775D01*
X4450485Y1685713D01*
X4460906Y1683725D01*
X4549400Y1689292D01*
X4612738Y1693277D01*
X4612740Y1693277D01*
X4620650Y1693775D01*
X4628186Y1696224D01*
X4628188Y1696224D01*
X4765333Y1740785D01*
X4765336Y1740786D01*
X4772875Y1743236D01*
X4908018Y1829000D01*
X5017586Y1945679D01*
X5094695Y2085940D01*
X5134500Y2240970D01*
X5134500Y3081406D01*
X5154502Y3149527D01*
X5171405Y3170501D01*
X5797335Y3796431D01*
X5859647Y3830457D01*
X5930462Y3825392D01*
X5987298Y3782845D01*
X6012109Y3716325D01*
X6009812Y3681786D01*
X5994787Y3609233D01*
X5991500Y3552225D01*
X5991500Y1607001D01*
X5991749Y1604214D01*
X5991749Y1604208D01*
X5998009Y1534071D01*
X6006383Y1440238D01*
X6065663Y1223549D01*
X6162378Y1020782D01*
X6293471Y838346D01*
X6454799Y682008D01*
X6641262Y556710D01*
X6846967Y466412D01*
X6852418Y465103D01*
X6852422Y465102D01*
X7025503Y423549D01*
X7065411Y413968D01*
X7149475Y409121D01*
X7284083Y401360D01*
X7284086Y401360D01*
X7289690Y401037D01*
X7512715Y428025D01*
X7727435Y494082D01*
X7732415Y496652D01*
X7732419Y496654D01*
X7807710Y535515D01*
X7877417Y548984D01*
X7943341Y522629D01*
X7984550Y464816D01*
X7991500Y423549D01*
X7991500Y-1554073D01*
X7971498Y-1622194D01*
X7917842Y-1668687D01*
X7847568Y-1678791D01*
X7814855Y-1669446D01*
X7658180Y-1600670D01*
X7658167Y-1600665D01*
X7653033Y-1598412D01*
X7647582Y-1597103D01*
X7647578Y-1597102D01*
X7440046Y-1547278D01*
X7440045Y-1547278D01*
X7434589Y-1545968D01*
X7350525Y-1541121D01*
X7215917Y-1533360D01*
X7215914Y-1533360D01*
X7210310Y-1533037D01*
X6987285Y-1560025D01*
X6772565Y-1626082D01*
X6767585Y-1628652D01*
X6767581Y-1628654D01*
X6577919Y-1726546D01*
X6572936Y-1729118D01*
X6394708Y-1865877D01*
X6243515Y-2032036D01*
X6124136Y-2222344D01*
X6040344Y-2430783D01*
X5994787Y-2650767D01*
X5991500Y-2707775D01*
X5991500Y-4052999D01*
X5991749Y-4055786D01*
X5991749Y-4055792D01*
X5998009Y-4125929D01*
X6006383Y-4219762D01*
X6065663Y-4436451D01*
X6162378Y-4639218D01*
X6293471Y-4821654D01*
X6454799Y-4977992D01*
X6641262Y-5103290D01*
X6846967Y-5193588D01*
X6852418Y-5194897D01*
X6852422Y-5194898D01*
X7025503Y-5236451D01*
X7065411Y-5246032D01*
X7149475Y-5250879D01*
X7284083Y-5258640D01*
X7284086Y-5258640D01*
X7289690Y-5258963D01*
X7512715Y-5231975D01*
X7727435Y-5165918D01*
X7732415Y-5163348D01*
X7732419Y-5163346D01*
X7807710Y-5124485D01*
X7877417Y-5111016D01*
X7943341Y-5137371D01*
X7984550Y-5195184D01*
X7991500Y-5236451D01*
X7991500Y-5865500D01*
X7971498Y-5933621D01*
X7917842Y-5980114D01*
X7865500Y-5991500D01*
X-7865500Y-5991500D01*
X-7933621Y-5971498D01*
X-7980114Y-5917842D01*
X-7991500Y-5865500D01*
X-7991500Y-5237927D01*
X-7971498Y-5169806D01*
X-7917842Y-5123313D01*
X-7847568Y-5113209D01*
X-7814855Y-5122554D01*
X-7658180Y-5191330D01*
X-7658167Y-5191335D01*
X-7653033Y-5193588D01*
X-7647582Y-5194897D01*
X-7647578Y-5194898D01*
X-7474497Y-5236451D01*
X-7434589Y-5246032D01*
X-7350525Y-5250879D01*
X-7215917Y-5258640D01*
X-7215914Y-5258640D01*
X-7210310Y-5258963D01*
X-6987285Y-5231975D01*
X-6772565Y-5165918D01*
X-6767585Y-5163348D01*
X-6767581Y-5163346D01*
X-6577919Y-5065454D01*
X-6577918Y-5065454D01*
X-6572936Y-5062882D01*
X-6394708Y-4926123D01*
X-6243515Y-4759964D01*
X-6124136Y-4569656D01*
X-6040344Y-4361217D01*
X-5994787Y-4141233D01*
X-5991500Y-4084225D01*
X-5991500Y-2739001D01*
X-5994449Y-2705952D01*
X-6005884Y-2577833D01*
X-6006383Y-2572238D01*
X-6065663Y-2355549D01*
X-6162378Y-2152782D01*
X-6293471Y-1970346D01*
X-6454799Y-1814008D01*
X-6641262Y-1688710D01*
X-6846967Y-1598412D01*
X-6852418Y-1597103D01*
X-6852422Y-1597102D01*
X-7059954Y-1547278D01*
X-7059955Y-1547278D01*
X-7065411Y-1545968D01*
X-7149475Y-1541121D01*
X-7284083Y-1533360D01*
X-7284086Y-1533360D01*
X-7289690Y-1533037D01*
X-7512715Y-1560025D01*
X-7727435Y-1626082D01*
X-7732415Y-1628652D01*
X-7732419Y-1628654D01*
X-7807710Y-1667515D01*
X-7877417Y-1680984D01*
X-7943341Y-1654629D01*
X-7984550Y-1596816D01*
X-7991500Y-1555549D01*
X-7991500Y422073D01*
X-7971498Y490194D01*
X-7917842Y536687D01*
X-7847568Y546791D01*
X-7814855Y537446D01*
X-7658180Y468670D01*
X-7658167Y468665D01*
X-7653033Y466412D01*
X-7647582Y465103D01*
X-7647578Y465102D01*
X-7474497Y423549D01*
X-7434589Y413968D01*
X-7350525Y409121D01*
X-7215917Y401360D01*
X-7215914Y401360D01*
X-7210310Y401037D01*
X-6987285Y428025D01*
X-6772565Y494082D01*
X-6767585Y496652D01*
X-6767581Y496654D01*
X-6577919Y594546D01*
X-6577918Y594546D01*
X-6572936Y597118D01*
X-6394708Y733877D01*
X-6243515Y900036D01*
X-6124136Y1090344D01*
X-6040344Y1298783D01*
X-5994787Y1518767D01*
X-5991500Y1575775D01*
X-5991500Y3520999D01*
X-5994449Y3554048D01*
X-5999778Y3613754D01*
X-6006383Y3687762D01*
X-6065663Y3904451D01*
X-6091025Y3957625D01*
X-6159964Y4102156D01*
X-6162378Y4107218D01*
X-6293471Y4289654D01*
X-6396999Y4389980D01*
X-6450771Y4442089D01*
X-6450774Y4442091D01*
X-6454799Y4445992D01*
X-6641262Y4571290D01*
X-6846967Y4661588D01*
X-6852418Y4662897D01*
X-6852422Y4662898D01*
X-7059954Y4712722D01*
X-7059955Y4712722D01*
X-7065411Y4714032D01*
X-7149475Y4718879D01*
X-7284083Y4726640D01*
X-7284086Y4726640D01*
X-7289690Y4726963D01*
X-7512715Y4699975D01*
X-7727435Y4633918D01*
X-7732415Y4631348D01*
X-7732419Y4631346D01*
X-7807710Y4592485D01*
X-7877417Y4579016D01*
X-7943341Y4605371D01*
X-7984550Y4663184D01*
X-7991500Y4704451D01*
X-7991500Y19200312D01*
X-7971498Y19268433D01*
X-7917842Y19314926D01*
X-7847568Y19325030D01*
X-7782988Y19295536D01*
X-7758357Y19266617D01*
X-7748478Y19250652D01*
X-7623303Y19125695D01*
X-7617073Y19121855D01*
X-7617072Y19121854D01*
X-7479910Y19037306D01*
X-7472738Y19032885D01*
X-7392995Y19006436D01*
X-7311389Y18979368D01*
X-7311387Y18979368D01*
X-7304861Y18977203D01*
X-7298025Y18976503D01*
X-7298022Y18976502D01*
X-7254969Y18972091D01*
X-7200400Y18966500D01*
X-6399600Y18966500D01*
X-6396354Y18966837D01*
X-6396350Y18966837D01*
X-6300692Y18976762D01*
X-6300688Y18976763D01*
X-6293834Y18977474D01*
X-6287298Y18979655D01*
X-6287296Y18979655D01*
X-6155194Y19023728D01*
X-6126054Y19033450D01*
X-5975652Y19126522D01*
X-5850695Y19251697D01*
X-5805492Y19325030D01*
X-5761725Y19396032D01*
X-5761724Y19396034D01*
X-5757885Y19402262D01*
X-5702203Y19570139D01*
X-5700098Y19590678D01*
X-5691828Y19671402D01*
X-5691500Y19674600D01*
X-5691500Y20865500D01*
X-5671498Y20933621D01*
X-5617842Y20980114D01*
X-5565500Y20991500D01*
X-2434500Y20991500D01*
X-2366379Y20971498D01*
G37*
%TD.AperFunction*%
%TA.AperFunction,Conductor*%
G36*
X4342012Y12987016D02*
G01*
X4348595Y12980887D01*
X4804106Y12525376D01*
X4838132Y12463064D01*
X4841011Y12436281D01*
X4841011Y5203370D01*
X4821009Y5135249D01*
X4767353Y5088756D01*
X4691402Y5079602D01*
X4627194Y5091851D01*
X4615277Y5094124D01*
X4552111Y5126537D01*
X4516496Y5187954D01*
X4514440Y5237606D01*
X4518630Y5264056D01*
X4521036Y5275675D01*
X4530059Y5310820D01*
X4530059Y5310821D01*
X4532031Y5318501D01*
X4532031Y5338755D01*
X4533582Y5358466D01*
X4535511Y5370645D01*
X4536751Y5378474D01*
X4532590Y5422493D01*
X4532031Y5434350D01*
X4532031Y7107940D01*
X4532558Y7119123D01*
X4534233Y7126616D01*
X4532093Y7194707D01*
X4532031Y7198664D01*
X4532031Y7226563D01*
X4531527Y7230554D01*
X4530594Y7242396D01*
X4529454Y7278671D01*
X4529205Y7286596D01*
X4526993Y7294210D01*
X4526992Y7294215D01*
X4523554Y7306048D01*
X4519543Y7325412D01*
X4517998Y7337643D01*
X4517005Y7345504D01*
X4514088Y7352871D01*
X4514087Y7352876D01*
X4500729Y7386615D01*
X4496885Y7397842D01*
X4494763Y7405146D01*
X4484549Y7440300D01*
X4476328Y7454201D01*
X4474238Y7457735D01*
X4465543Y7475483D01*
X4458083Y7494324D01*
X4432095Y7530094D01*
X4425579Y7540014D01*
X4423580Y7543394D01*
X4403073Y7578069D01*
X4397467Y7583676D01*
X4388751Y7592392D01*
X4375910Y7607426D01*
X4368662Y7617402D01*
X4368661Y7617403D01*
X4364003Y7623814D01*
X4329937Y7651996D01*
X4321159Y7659985D01*
X4170405Y7810739D01*
X4136379Y7873051D01*
X4133500Y7899834D01*
X4133500Y12891792D01*
X4153502Y12959913D01*
X4207158Y13006406D01*
X4277432Y13016510D01*
X4342012Y12987016D01*
G37*
%TD.AperFunction*%
%TA.AperFunction,Conductor*%
G36*
X-4657988Y11261630D02*
G01*
X-4651405Y11255501D01*
X-2554161Y9158256D01*
X-2520135Y9095944D01*
X-2525200Y9025128D01*
X-2549618Y8984852D01*
X-2626339Y8899645D01*
X-2721826Y8734257D01*
X-2780841Y8552629D01*
X-2800803Y8362701D01*
X-2780841Y8172773D01*
X-2721826Y7991145D01*
X-2626339Y7825757D01*
X-2498552Y7683835D01*
X-2344051Y7571583D01*
X-2338023Y7568899D01*
X-2338021Y7568898D01*
X-2175618Y7496592D01*
X-2169587Y7493907D01*
X-2082961Y7475494D01*
X-1989243Y7455573D01*
X-1989238Y7455573D01*
X-1982786Y7454201D01*
X-1926893Y7454201D01*
X-1858772Y7434199D01*
X-1837798Y7417296D01*
X-670405Y6249902D01*
X-636379Y6187590D01*
X-633500Y6160807D01*
X-633500Y5440311D01*
X-653502Y5372190D01*
X-707158Y5325697D01*
X-777432Y5315593D01*
X-842012Y5345087D01*
X-848595Y5351216D01*
X-2776049Y7278671D01*
X-4829595Y9332217D01*
X-4863621Y9394529D01*
X-4866500Y9421312D01*
X-4866500Y11166406D01*
X-4846498Y11234527D01*
X-4792842Y11281020D01*
X-4722568Y11291124D01*
X-4657988Y11261630D01*
G37*
%TD.AperFunction*%
%TD*%
M02*
