%TF.GenerationSoftware,KiCad,Pcbnew,(6.0.5)*%
%TF.CreationDate,2022-06-07T13:41:29-06:00*%
%TF.ProjectId,15Pin_Fanout,31355069-6e5f-4466-916e-6f75742e6b69,rev?*%
%TF.SameCoordinates,Original*%
%TF.FileFunction,Copper,L2,Bot*%
%TF.FilePolarity,Positive*%
%FSLAX46Y46*%
G04 Gerber Fmt 4.6, Leading zero omitted, Abs format (unit mm)*
G04 Created by KiCad (PCBNEW (6.0.5)) date 2022-06-07 13:41:29*
%MOMM*%
%LPD*%
G01*
G04 APERTURE LIST*
%TA.AperFunction,ComponentPad*%
%ADD10O,1.500000X2.700000*%
%TD*%
%TA.AperFunction,ComponentPad*%
%ADD11O,1.500000X3.300000*%
%TD*%
%TA.AperFunction,ViaPad*%
%ADD12C,0.800000*%
%TD*%
%TA.AperFunction,Conductor*%
%ADD13C,0.250000*%
%TD*%
G04 APERTURE END LIST*
D10*
%TO.P,J1,20*%
%TO.N,N/C*%
X7250000Y-3396000D03*
%TO.P,J1,21*%
X-7250000Y-3396000D03*
D11*
%TO.P,J1,22*%
X7250000Y2564000D03*
%TO.P,J1,23*%
X-7250000Y2564000D03*
%TD*%
D12*
%TO.N,GND*%
X4750000Y6500000D03*
%TO.N,Net-(J1-Pad10)*%
X-1887299Y8362701D03*
%TO.N,Net-(J1-Pad4)*%
X2724500Y9974500D03*
%TO.N,GND*%
X2724500Y6500000D03*
X137299Y8387299D03*
X-1184342Y5815658D03*
X-3501000Y5249000D03*
%TO.N,Net-(J1-Pad4)*%
X6000000Y13250000D03*
%TO.N,Net-(J1-Pad10)*%
X-1750000Y14500000D03*
%TD*%
D13*
%TO.N,Net-(J1-Pad10)*%
X-1887299Y14362701D02*
X-1750000Y14500000D01*
X-1887299Y8362701D02*
X-1887299Y14362701D01*
%TO.N,Net-(J1-Pad4)*%
X2724500Y9974500D02*
X6000000Y13250000D01*
%TD*%
%TA.AperFunction,Conductor*%
%TO.N,GND*%
G36*
X7933621Y20971498D02*
G01*
X7980114Y20917842D01*
X7991500Y20865500D01*
X7991500Y4705927D01*
X7971498Y4637806D01*
X7917842Y4591313D01*
X7847568Y4581209D01*
X7814855Y4590554D01*
X7658180Y4659330D01*
X7658167Y4659335D01*
X7653033Y4661588D01*
X7647582Y4662897D01*
X7647578Y4662898D01*
X7440046Y4712722D01*
X7440045Y4712722D01*
X7434589Y4714032D01*
X7350525Y4718879D01*
X7215917Y4726640D01*
X7215914Y4726640D01*
X7210310Y4726963D01*
X6987285Y4699975D01*
X6772565Y4633918D01*
X6767585Y4631348D01*
X6767581Y4631346D01*
X6577919Y4533454D01*
X6572936Y4530882D01*
X6394708Y4394123D01*
X6243515Y4227964D01*
X6124136Y4037656D01*
X6040344Y3829217D01*
X5994787Y3609233D01*
X5991500Y3552225D01*
X5991500Y1607001D01*
X5991749Y1604214D01*
X5991749Y1604208D01*
X5998009Y1534071D01*
X6006383Y1440238D01*
X6065663Y1223549D01*
X6162378Y1020782D01*
X6293471Y838346D01*
X6454799Y682008D01*
X6641262Y556710D01*
X6846967Y466412D01*
X6852418Y465103D01*
X6852422Y465102D01*
X7025503Y423549D01*
X7065411Y413968D01*
X7149475Y409121D01*
X7284083Y401360D01*
X7284086Y401360D01*
X7289690Y401037D01*
X7512715Y428025D01*
X7727435Y494082D01*
X7732415Y496652D01*
X7732419Y496654D01*
X7807710Y535515D01*
X7877417Y548984D01*
X7943341Y522629D01*
X7984550Y464816D01*
X7991500Y423549D01*
X7991500Y-1554073D01*
X7971498Y-1622194D01*
X7917842Y-1668687D01*
X7847568Y-1678791D01*
X7814855Y-1669446D01*
X7658180Y-1600670D01*
X7658167Y-1600665D01*
X7653033Y-1598412D01*
X7647582Y-1597103D01*
X7647578Y-1597102D01*
X7440046Y-1547278D01*
X7440045Y-1547278D01*
X7434589Y-1545968D01*
X7350525Y-1541121D01*
X7215917Y-1533360D01*
X7215914Y-1533360D01*
X7210310Y-1533037D01*
X6987285Y-1560025D01*
X6772565Y-1626082D01*
X6767585Y-1628652D01*
X6767581Y-1628654D01*
X6577919Y-1726546D01*
X6572936Y-1729118D01*
X6394708Y-1865877D01*
X6243515Y-2032036D01*
X6124136Y-2222344D01*
X6040344Y-2430783D01*
X5994787Y-2650767D01*
X5991500Y-2707775D01*
X5991500Y-4052999D01*
X5991749Y-4055786D01*
X5991749Y-4055792D01*
X5998009Y-4125929D01*
X6006383Y-4219762D01*
X6065663Y-4436451D01*
X6162378Y-4639218D01*
X6293471Y-4821654D01*
X6454799Y-4977992D01*
X6641262Y-5103290D01*
X6846967Y-5193588D01*
X6852418Y-5194897D01*
X6852422Y-5194898D01*
X7025503Y-5236451D01*
X7065411Y-5246032D01*
X7149475Y-5250879D01*
X7284083Y-5258640D01*
X7284086Y-5258640D01*
X7289690Y-5258963D01*
X7512715Y-5231975D01*
X7727435Y-5165918D01*
X7732415Y-5163348D01*
X7732419Y-5163346D01*
X7807710Y-5124485D01*
X7877417Y-5111016D01*
X7943341Y-5137371D01*
X7984550Y-5195184D01*
X7991500Y-5236451D01*
X7991500Y-5865500D01*
X7971498Y-5933621D01*
X7917842Y-5980114D01*
X7865500Y-5991500D01*
X-7865500Y-5991500D01*
X-7933621Y-5971498D01*
X-7980114Y-5917842D01*
X-7991500Y-5865500D01*
X-7991500Y-5237927D01*
X-7971498Y-5169806D01*
X-7917842Y-5123313D01*
X-7847568Y-5113209D01*
X-7814855Y-5122554D01*
X-7658180Y-5191330D01*
X-7658167Y-5191335D01*
X-7653033Y-5193588D01*
X-7647582Y-5194897D01*
X-7647578Y-5194898D01*
X-7474497Y-5236451D01*
X-7434589Y-5246032D01*
X-7350525Y-5250879D01*
X-7215917Y-5258640D01*
X-7215914Y-5258640D01*
X-7210310Y-5258963D01*
X-6987285Y-5231975D01*
X-6772565Y-5165918D01*
X-6767585Y-5163348D01*
X-6767581Y-5163346D01*
X-6577919Y-5065454D01*
X-6577918Y-5065454D01*
X-6572936Y-5062882D01*
X-6394708Y-4926123D01*
X-6243515Y-4759964D01*
X-6124136Y-4569656D01*
X-6040344Y-4361217D01*
X-5994787Y-4141233D01*
X-5991500Y-4084225D01*
X-5991500Y-2739001D01*
X-5994449Y-2705952D01*
X-6005884Y-2577833D01*
X-6006383Y-2572238D01*
X-6065663Y-2355549D01*
X-6162378Y-2152782D01*
X-6293471Y-1970346D01*
X-6454799Y-1814008D01*
X-6641262Y-1688710D01*
X-6846967Y-1598412D01*
X-6852418Y-1597103D01*
X-6852422Y-1597102D01*
X-7059954Y-1547278D01*
X-7059955Y-1547278D01*
X-7065411Y-1545968D01*
X-7149475Y-1541121D01*
X-7284083Y-1533360D01*
X-7284086Y-1533360D01*
X-7289690Y-1533037D01*
X-7512715Y-1560025D01*
X-7727435Y-1626082D01*
X-7732415Y-1628652D01*
X-7732419Y-1628654D01*
X-7807710Y-1667515D01*
X-7877417Y-1680984D01*
X-7943341Y-1654629D01*
X-7984550Y-1596816D01*
X-7991500Y-1555549D01*
X-7991500Y422073D01*
X-7971498Y490194D01*
X-7917842Y536687D01*
X-7847568Y546791D01*
X-7814855Y537446D01*
X-7658180Y468670D01*
X-7658167Y468665D01*
X-7653033Y466412D01*
X-7647582Y465103D01*
X-7647578Y465102D01*
X-7474497Y423549D01*
X-7434589Y413968D01*
X-7350525Y409121D01*
X-7215917Y401360D01*
X-7215914Y401360D01*
X-7210310Y401037D01*
X-6987285Y428025D01*
X-6772565Y494082D01*
X-6767585Y496652D01*
X-6767581Y496654D01*
X-6577919Y594546D01*
X-6577918Y594546D01*
X-6572936Y597118D01*
X-6394708Y733877D01*
X-6243515Y900036D01*
X-6124136Y1090344D01*
X-6040344Y1298783D01*
X-5994787Y1518767D01*
X-5991500Y1575775D01*
X-5991500Y3520999D01*
X-5994449Y3554048D01*
X-6005884Y3682167D01*
X-6006383Y3687762D01*
X-6065663Y3904451D01*
X-6162378Y4107218D01*
X-6293471Y4289654D01*
X-6454799Y4445992D01*
X-6641262Y4571290D01*
X-6846967Y4661588D01*
X-6852418Y4662897D01*
X-6852422Y4662898D01*
X-7059954Y4712722D01*
X-7059955Y4712722D01*
X-7065411Y4714032D01*
X-7149475Y4718879D01*
X-7284083Y4726640D01*
X-7284086Y4726640D01*
X-7289690Y4726963D01*
X-7512715Y4699975D01*
X-7727435Y4633918D01*
X-7732415Y4631348D01*
X-7732419Y4631346D01*
X-7807710Y4592485D01*
X-7877417Y4579016D01*
X-7943341Y4605371D01*
X-7984550Y4663184D01*
X-7991500Y4704451D01*
X-7991500Y8362701D01*
X-2800803Y8362701D01*
X-2780841Y8172773D01*
X-2721826Y7991145D01*
X-2626339Y7825757D01*
X-2498552Y7683835D01*
X-2344051Y7571583D01*
X-2338023Y7568899D01*
X-2338021Y7568898D01*
X-2175618Y7496592D01*
X-2169587Y7493907D01*
X-2076186Y7474054D01*
X-1989243Y7455573D01*
X-1989238Y7455573D01*
X-1982786Y7454201D01*
X-1791812Y7454201D01*
X-1785360Y7455573D01*
X-1785355Y7455573D01*
X-1698412Y7474054D01*
X-1605011Y7493907D01*
X-1598980Y7496592D01*
X-1436577Y7568898D01*
X-1436575Y7568899D01*
X-1430547Y7571583D01*
X-1276046Y7683835D01*
X-1148259Y7825757D01*
X-1052772Y7991145D01*
X-993757Y8172773D01*
X-973795Y8362701D01*
X-993757Y8552629D01*
X-1052772Y8734257D01*
X-1148259Y8899645D01*
X-1221436Y8980916D01*
X-1252152Y9044922D01*
X-1253799Y9065225D01*
X-1253799Y9974500D01*
X1810996Y9974500D01*
X1830958Y9784572D01*
X1889973Y9602944D01*
X1985460Y9437556D01*
X2113247Y9295634D01*
X2267748Y9183382D01*
X2273776Y9180698D01*
X2273778Y9180697D01*
X2436181Y9108391D01*
X2442212Y9105706D01*
X2535613Y9085853D01*
X2622556Y9067372D01*
X2622561Y9067372D01*
X2629013Y9066000D01*
X2819987Y9066000D01*
X2826439Y9067372D01*
X2826444Y9067372D01*
X2913387Y9085853D01*
X3006788Y9105706D01*
X3012819Y9108391D01*
X3175222Y9180697D01*
X3175224Y9180698D01*
X3181252Y9183382D01*
X3335753Y9295634D01*
X3463540Y9437556D01*
X3559027Y9602944D01*
X3618042Y9784572D01*
X3635407Y9949794D01*
X3662420Y10015450D01*
X3671622Y10025718D01*
X5950499Y12304595D01*
X6012811Y12338621D01*
X6039594Y12341500D01*
X6095487Y12341500D01*
X6101939Y12342872D01*
X6101944Y12342872D01*
X6188888Y12361353D01*
X6282288Y12381206D01*
X6288319Y12383891D01*
X6450722Y12456197D01*
X6450724Y12456198D01*
X6456752Y12458882D01*
X6611253Y12571134D01*
X6739040Y12713056D01*
X6834527Y12878444D01*
X6893542Y13060072D01*
X6913504Y13250000D01*
X6893542Y13439928D01*
X6834527Y13621556D01*
X6739040Y13786944D01*
X6703834Y13826045D01*
X6615675Y13923955D01*
X6615674Y13923956D01*
X6611253Y13928866D01*
X6456752Y14041118D01*
X6450724Y14043802D01*
X6450722Y14043803D01*
X6288319Y14116109D01*
X6288318Y14116109D01*
X6282288Y14118794D01*
X6188887Y14138647D01*
X6101944Y14157128D01*
X6101939Y14157128D01*
X6095487Y14158500D01*
X5904513Y14158500D01*
X5898061Y14157128D01*
X5898056Y14157128D01*
X5811113Y14138647D01*
X5717712Y14118794D01*
X5711682Y14116109D01*
X5711681Y14116109D01*
X5549278Y14043803D01*
X5549276Y14043802D01*
X5543248Y14041118D01*
X5388747Y13928866D01*
X5384326Y13923956D01*
X5384325Y13923955D01*
X5296167Y13826045D01*
X5260960Y13786944D01*
X5165473Y13621556D01*
X5106458Y13439928D01*
X5105768Y13433367D01*
X5105768Y13433365D01*
X5089093Y13274707D01*
X5062080Y13209050D01*
X5052878Y13198782D01*
X2774000Y10919905D01*
X2711688Y10885879D01*
X2684905Y10883000D01*
X2629013Y10883000D01*
X2622561Y10881628D01*
X2622556Y10881628D01*
X2535613Y10863147D01*
X2442212Y10843294D01*
X2436182Y10840609D01*
X2436181Y10840609D01*
X2273778Y10768303D01*
X2273776Y10768302D01*
X2267748Y10765618D01*
X2113247Y10653366D01*
X1985460Y10511444D01*
X1889973Y10346056D01*
X1830958Y10164428D01*
X1810996Y9974500D01*
X-1253799Y9974500D01*
X-1253799Y13673343D01*
X-1233797Y13741464D01*
X-1201862Y13775278D01*
X-1138747Y13821134D01*
X-1134325Y13826045D01*
X-1015379Y13958148D01*
X-1015378Y13958149D01*
X-1010960Y13963056D01*
X-952686Y14063990D01*
X-918777Y14122721D01*
X-918776Y14122722D01*
X-915473Y14128444D01*
X-856458Y14310072D01*
X-836496Y14500000D01*
X-856458Y14689928D01*
X-915473Y14871556D01*
X-1010960Y15036944D01*
X-1138747Y15178866D01*
X-1293248Y15291118D01*
X-1299276Y15293802D01*
X-1299278Y15293803D01*
X-1461681Y15366109D01*
X-1461682Y15366109D01*
X-1467712Y15368794D01*
X-1561113Y15388647D01*
X-1648056Y15407128D01*
X-1648061Y15407128D01*
X-1654513Y15408500D01*
X-1845487Y15408500D01*
X-1851939Y15407128D01*
X-1851944Y15407128D01*
X-1938887Y15388647D01*
X-2032288Y15368794D01*
X-2038318Y15366109D01*
X-2038319Y15366109D01*
X-2200722Y15293803D01*
X-2200724Y15293802D01*
X-2206752Y15291118D01*
X-2361253Y15178866D01*
X-2489040Y15036944D01*
X-2584527Y14871556D01*
X-2643542Y14689928D01*
X-2663504Y14500000D01*
X-2643542Y14310072D01*
X-2584527Y14128444D01*
X-2581224Y14122722D01*
X-2581223Y14122721D01*
X-2537680Y14047303D01*
X-2520799Y13984303D01*
X-2520799Y9065225D01*
X-2540801Y8997104D01*
X-2553157Y8980922D01*
X-2626339Y8899645D01*
X-2721826Y8734257D01*
X-2780841Y8552629D01*
X-2800803Y8362701D01*
X-7991500Y8362701D01*
X-7991500Y20865500D01*
X-7971498Y20933621D01*
X-7917842Y20980114D01*
X-7865500Y20991500D01*
X7865500Y20991500D01*
X7933621Y20971498D01*
G37*
%TD.AperFunction*%
%TD*%
M02*
