%TF.GenerationSoftware,KiCad,Pcbnew,(6.0.6)*%
%TF.CreationDate,2022-06-22T16:29:19-06:00*%
%TF.ProjectId,15Pin_Fanout _Diodes__Heater,31355069-6e5f-4466-916e-6f7574205f44,rev?*%
%TF.SameCoordinates,Original*%
%TF.FileFunction,Copper,L2,Bot*%
%TF.FilePolarity,Positive*%
%FSLAX46Y46*%
G04 Gerber Fmt 4.6, Leading zero omitted, Abs format (unit mm)*
G04 Created by KiCad (PCBNEW (6.0.6)) date 2022-06-22 16:29:19*
%MOMM*%
%LPD*%
G01*
G04 APERTURE LIST*
G04 Aperture macros list*
%AMRoundRect*
0 Rectangle with rounded corners*
0 $1 Rounding radius*
0 $2 $3 $4 $5 $6 $7 $8 $9 X,Y pos of 4 corners*
0 Add a 4 corners polygon primitive as box body*
4,1,4,$2,$3,$4,$5,$6,$7,$8,$9,$2,$3,0*
0 Add four circle primitives for the rounded corners*
1,1,$1+$1,$2,$3*
1,1,$1+$1,$4,$5*
1,1,$1+$1,$6,$7*
1,1,$1+$1,$8,$9*
0 Add four rect primitives between the rounded corners*
20,1,$1+$1,$2,$3,$4,$5,0*
20,1,$1+$1,$4,$5,$6,$7,0*
20,1,$1+$1,$6,$7,$8,$9,0*
20,1,$1+$1,$8,$9,$2,$3,0*%
G04 Aperture macros list end*
%TA.AperFunction,ComponentPad*%
%ADD10RoundRect,0.250000X0.350000X0.625000X-0.350000X0.625000X-0.350000X-0.625000X0.350000X-0.625000X0*%
%TD*%
%TA.AperFunction,ComponentPad*%
%ADD11O,1.200000X1.750000*%
%TD*%
%TA.AperFunction,ComponentPad*%
%ADD12O,1.500000X2.700000*%
%TD*%
%TA.AperFunction,ComponentPad*%
%ADD13O,1.500000X3.300000*%
%TD*%
%TA.AperFunction,ViaPad*%
%ADD14C,0.800000*%
%TD*%
%TA.AperFunction,Conductor*%
%ADD15C,0.250000*%
%TD*%
G04 APERTURE END LIST*
D10*
%TO.P,J3,1,Pin_1*%
%TO.N,Net-(J1-Pad10)*%
X-6550000Y17100000D03*
D11*
%TO.P,J3,2,Pin_2*%
%TO.N,Net-(J1-Pad12)*%
X-8550000Y17100000D03*
%TD*%
D10*
%TO.P,J2,1,Pin_1*%
%TO.N,Net-(J1-Pad7)*%
X650000Y17100000D03*
D11*
%TO.P,J2,2,Pin_2*%
%TO.N,Net-(J1-Pad9)*%
X-1350000Y17100000D03*
%TD*%
D12*
%TO.P,J1,20*%
%TO.N,N/C*%
X7250000Y-3396000D03*
%TO.P,J1,21*%
X-7250000Y-3396000D03*
D13*
%TO.P,J1,22*%
X7250000Y2564000D03*
%TO.P,J1,23*%
X-7250000Y2564000D03*
%TD*%
D14*
%TO.N,GND*%
X-1750000Y7000000D03*
X2724500Y9170285D03*
X1224500Y10500000D03*
X-3500000Y5250000D03*
X4500000Y7750000D03*
%TO.N,Net-(J1-Pad4)*%
X3000000Y14000000D03*
X9000000Y16500000D03*
%TD*%
D15*
%TO.N,Net-(J1-Pad4)*%
X6500000Y14000000D02*
X9000000Y16500000D01*
X3000000Y14000000D02*
X6500000Y14000000D01*
%TD*%
%TA.AperFunction,Conductor*%
%TO.N,GND*%
G36*
X11933621Y23471498D02*
G01*
X11980114Y23417842D01*
X11991500Y23365500D01*
X11991500Y15634500D01*
X11971498Y15566379D01*
X11917842Y15519886D01*
X11865500Y15508500D01*
X9568738Y15508500D01*
X9500617Y15528502D01*
X9454124Y15582158D01*
X9444020Y15652432D01*
X9473514Y15717012D01*
X9494677Y15736436D01*
X9558608Y15782885D01*
X9611253Y15821134D01*
X9649076Y15863141D01*
X9734621Y15958148D01*
X9734622Y15958149D01*
X9739040Y15963056D01*
X9834527Y16128444D01*
X9893542Y16310072D01*
X9913504Y16500000D01*
X9901477Y16614434D01*
X9894232Y16683365D01*
X9894232Y16683367D01*
X9893542Y16689928D01*
X9834527Y16871556D01*
X9739040Y17036944D01*
X9611253Y17178866D01*
X9456752Y17291118D01*
X9450724Y17293802D01*
X9450722Y17293803D01*
X9288319Y17366109D01*
X9288318Y17366109D01*
X9282288Y17368794D01*
X9188887Y17388647D01*
X9101944Y17407128D01*
X9101939Y17407128D01*
X9095487Y17408500D01*
X8904513Y17408500D01*
X8898061Y17407128D01*
X8898056Y17407128D01*
X8811113Y17388647D01*
X8717712Y17368794D01*
X8711682Y17366109D01*
X8711681Y17366109D01*
X8549278Y17293803D01*
X8549276Y17293802D01*
X8543248Y17291118D01*
X8388747Y17178866D01*
X8260960Y17036944D01*
X8165473Y16871556D01*
X8106458Y16689928D01*
X8105768Y16683367D01*
X8105768Y16683365D01*
X8089093Y16524707D01*
X8062080Y16459050D01*
X8052878Y16448782D01*
X6274500Y14670405D01*
X6212188Y14636379D01*
X6185405Y14633500D01*
X3708200Y14633500D01*
X3640079Y14653502D01*
X3620853Y14669843D01*
X3620580Y14669540D01*
X3615668Y14673963D01*
X3611253Y14678866D01*
X3456752Y14791118D01*
X3450724Y14793802D01*
X3450722Y14793803D01*
X3288319Y14866109D01*
X3288318Y14866109D01*
X3282288Y14868794D01*
X3165633Y14893590D01*
X3101944Y14907128D01*
X3101939Y14907128D01*
X3095487Y14908500D01*
X2904513Y14908500D01*
X2898061Y14907128D01*
X2898056Y14907128D01*
X2834367Y14893590D01*
X2717712Y14868794D01*
X2711682Y14866109D01*
X2711681Y14866109D01*
X2549278Y14793803D01*
X2549276Y14793802D01*
X2543248Y14791118D01*
X2388747Y14678866D01*
X2384326Y14673956D01*
X2384325Y14673955D01*
X2350492Y14636379D01*
X2260960Y14536944D01*
X2165473Y14371556D01*
X2106458Y14189928D01*
X2086496Y14000000D01*
X2106458Y13810072D01*
X2165473Y13628444D01*
X2260960Y13463056D01*
X2265378Y13458149D01*
X2265379Y13458148D01*
X2347452Y13366997D01*
X2388747Y13321134D01*
X2543248Y13208882D01*
X2549276Y13206198D01*
X2549278Y13206197D01*
X2711681Y13133891D01*
X2717712Y13131206D01*
X2811112Y13111353D01*
X2898056Y13092872D01*
X2898061Y13092872D01*
X2904513Y13091500D01*
X3095487Y13091500D01*
X3101939Y13092872D01*
X3101944Y13092872D01*
X3188888Y13111353D01*
X3282288Y13131206D01*
X3288319Y13133891D01*
X3450722Y13206197D01*
X3450724Y13206198D01*
X3456752Y13208882D01*
X3611253Y13321134D01*
X3615668Y13326037D01*
X3620580Y13330460D01*
X3621705Y13329211D01*
X3675014Y13362051D01*
X3708200Y13366500D01*
X6421233Y13366500D01*
X6432416Y13365973D01*
X6439909Y13364298D01*
X6447835Y13364547D01*
X6447836Y13364547D01*
X6507986Y13366438D01*
X6511945Y13366500D01*
X6539856Y13366500D01*
X6543791Y13366997D01*
X6543856Y13367005D01*
X6555693Y13367938D01*
X6587951Y13368952D01*
X6591970Y13369078D01*
X6599889Y13369327D01*
X6619343Y13374979D01*
X6638700Y13378987D01*
X6650930Y13380532D01*
X6650931Y13380532D01*
X6658797Y13381526D01*
X6666168Y13384445D01*
X6666170Y13384445D01*
X6699912Y13397804D01*
X6711142Y13401649D01*
X6745983Y13411771D01*
X6745984Y13411771D01*
X6753593Y13413982D01*
X6760412Y13418015D01*
X6760417Y13418017D01*
X6771028Y13424293D01*
X6788776Y13432988D01*
X6807617Y13440448D01*
X6843387Y13466436D01*
X6853307Y13472952D01*
X6884535Y13491420D01*
X6884538Y13491422D01*
X6891362Y13495458D01*
X6905683Y13509779D01*
X6920717Y13522620D01*
X6930694Y13529869D01*
X6937107Y13534528D01*
X6965298Y13568605D01*
X6973288Y13577384D01*
X7776405Y14380501D01*
X7838717Y14414527D01*
X7909532Y14409462D01*
X7966368Y14366915D01*
X7991179Y14300395D01*
X7991500Y14291406D01*
X7991500Y4705927D01*
X7971498Y4637806D01*
X7917842Y4591313D01*
X7847568Y4581209D01*
X7814855Y4590554D01*
X7658180Y4659330D01*
X7658167Y4659335D01*
X7653033Y4661588D01*
X7647582Y4662897D01*
X7647578Y4662898D01*
X7440046Y4712722D01*
X7440045Y4712722D01*
X7434589Y4714032D01*
X7350525Y4718879D01*
X7215917Y4726640D01*
X7215914Y4726640D01*
X7210310Y4726963D01*
X6987285Y4699975D01*
X6772565Y4633918D01*
X6767585Y4631348D01*
X6767581Y4631346D01*
X6577919Y4533454D01*
X6572936Y4530882D01*
X6394708Y4394123D01*
X6243515Y4227964D01*
X6124136Y4037656D01*
X6040344Y3829217D01*
X5994787Y3609233D01*
X5991500Y3552225D01*
X5991500Y1607001D01*
X5991749Y1604214D01*
X5991749Y1604208D01*
X5998009Y1534071D01*
X6006383Y1440238D01*
X6065663Y1223549D01*
X6162378Y1020782D01*
X6293471Y838346D01*
X6454799Y682008D01*
X6641262Y556710D01*
X6846967Y466412D01*
X6852418Y465103D01*
X6852422Y465102D01*
X7025503Y423549D01*
X7065411Y413968D01*
X7149475Y409121D01*
X7284083Y401360D01*
X7284086Y401360D01*
X7289690Y401037D01*
X7512715Y428025D01*
X7727435Y494082D01*
X7732415Y496652D01*
X7732419Y496654D01*
X7807710Y535515D01*
X7877417Y548984D01*
X7943341Y522629D01*
X7984550Y464816D01*
X7991500Y423549D01*
X7991500Y-1554073D01*
X7971498Y-1622194D01*
X7917842Y-1668687D01*
X7847568Y-1678791D01*
X7814855Y-1669446D01*
X7658180Y-1600670D01*
X7658167Y-1600665D01*
X7653033Y-1598412D01*
X7647582Y-1597103D01*
X7647578Y-1597102D01*
X7440046Y-1547278D01*
X7440045Y-1547278D01*
X7434589Y-1545968D01*
X7350525Y-1541121D01*
X7215917Y-1533360D01*
X7215914Y-1533360D01*
X7210310Y-1533037D01*
X6987285Y-1560025D01*
X6772565Y-1626082D01*
X6767585Y-1628652D01*
X6767581Y-1628654D01*
X6577919Y-1726546D01*
X6572936Y-1729118D01*
X6394708Y-1865877D01*
X6243515Y-2032036D01*
X6124136Y-2222344D01*
X6040344Y-2430783D01*
X5994787Y-2650767D01*
X5991500Y-2707775D01*
X5991500Y-4052999D01*
X5991749Y-4055786D01*
X5991749Y-4055792D01*
X5998009Y-4125929D01*
X6006383Y-4219762D01*
X6065663Y-4436451D01*
X6162378Y-4639218D01*
X6293471Y-4821654D01*
X6454799Y-4977992D01*
X6641262Y-5103290D01*
X6846967Y-5193588D01*
X6852418Y-5194897D01*
X6852422Y-5194898D01*
X7025503Y-5236451D01*
X7065411Y-5246032D01*
X7149475Y-5250879D01*
X7284083Y-5258640D01*
X7284086Y-5258640D01*
X7289690Y-5258963D01*
X7512715Y-5231975D01*
X7727435Y-5165918D01*
X7732415Y-5163348D01*
X7732419Y-5163346D01*
X7807710Y-5124485D01*
X7877417Y-5111016D01*
X7943341Y-5137371D01*
X7984550Y-5195184D01*
X7991500Y-5236451D01*
X7991500Y-5865500D01*
X7971498Y-5933621D01*
X7917842Y-5980114D01*
X7865500Y-5991500D01*
X-7865500Y-5991500D01*
X-7933621Y-5971498D01*
X-7980114Y-5917842D01*
X-7991500Y-5865500D01*
X-7991500Y-5237927D01*
X-7971498Y-5169806D01*
X-7917842Y-5123313D01*
X-7847568Y-5113209D01*
X-7814855Y-5122554D01*
X-7658180Y-5191330D01*
X-7658167Y-5191335D01*
X-7653033Y-5193588D01*
X-7647582Y-5194897D01*
X-7647578Y-5194898D01*
X-7474497Y-5236451D01*
X-7434589Y-5246032D01*
X-7350525Y-5250879D01*
X-7215917Y-5258640D01*
X-7215914Y-5258640D01*
X-7210310Y-5258963D01*
X-6987285Y-5231975D01*
X-6772565Y-5165918D01*
X-6767585Y-5163348D01*
X-6767581Y-5163346D01*
X-6577919Y-5065454D01*
X-6577918Y-5065454D01*
X-6572936Y-5062882D01*
X-6394708Y-4926123D01*
X-6243515Y-4759964D01*
X-6124136Y-4569656D01*
X-6040344Y-4361217D01*
X-5994787Y-4141233D01*
X-5991500Y-4084225D01*
X-5991500Y-2739001D01*
X-5994449Y-2705952D01*
X-6005884Y-2577833D01*
X-6006383Y-2572238D01*
X-6065663Y-2355549D01*
X-6162378Y-2152782D01*
X-6293471Y-1970346D01*
X-6454799Y-1814008D01*
X-6641262Y-1688710D01*
X-6846967Y-1598412D01*
X-6852418Y-1597103D01*
X-6852422Y-1597102D01*
X-7059954Y-1547278D01*
X-7059955Y-1547278D01*
X-7065411Y-1545968D01*
X-7149475Y-1541121D01*
X-7284083Y-1533360D01*
X-7284086Y-1533360D01*
X-7289690Y-1533037D01*
X-7512715Y-1560025D01*
X-7727435Y-1626082D01*
X-7732415Y-1628652D01*
X-7732419Y-1628654D01*
X-7807710Y-1667515D01*
X-7877417Y-1680984D01*
X-7943341Y-1654629D01*
X-7984550Y-1596816D01*
X-7991500Y-1555549D01*
X-7991500Y422073D01*
X-7971498Y490194D01*
X-7917842Y536687D01*
X-7847568Y546791D01*
X-7814855Y537446D01*
X-7658180Y468670D01*
X-7658167Y468665D01*
X-7653033Y466412D01*
X-7647582Y465103D01*
X-7647578Y465102D01*
X-7474497Y423549D01*
X-7434589Y413968D01*
X-7350525Y409121D01*
X-7215917Y401360D01*
X-7215914Y401360D01*
X-7210310Y401037D01*
X-6987285Y428025D01*
X-6772565Y494082D01*
X-6767585Y496652D01*
X-6767581Y496654D01*
X-6577919Y594546D01*
X-6577918Y594546D01*
X-6572936Y597118D01*
X-6394708Y733877D01*
X-6243515Y900036D01*
X-6124136Y1090344D01*
X-6040344Y1298783D01*
X-5994787Y1518767D01*
X-5991500Y1575775D01*
X-5991500Y3520999D01*
X-5994449Y3554048D01*
X-6005884Y3682167D01*
X-6006383Y3687762D01*
X-6065663Y3904451D01*
X-6162378Y4107218D01*
X-6293471Y4289654D01*
X-6454799Y4445992D01*
X-6641262Y4571290D01*
X-6846967Y4661588D01*
X-6852418Y4662897D01*
X-6852422Y4662898D01*
X-7059954Y4712722D01*
X-7059955Y4712722D01*
X-7065411Y4714032D01*
X-7149475Y4718879D01*
X-7284083Y4726640D01*
X-7284086Y4726640D01*
X-7289690Y4726963D01*
X-7512715Y4699975D01*
X-7727435Y4633918D01*
X-7732415Y4631348D01*
X-7732419Y4631346D01*
X-7807710Y4592485D01*
X-7877417Y4579016D01*
X-7943341Y4605371D01*
X-7984550Y4663184D01*
X-7991500Y4704451D01*
X-7991500Y14991377D01*
X-7991498Y14992147D01*
X-7991079Y15060746D01*
X-7991024Y15069721D01*
X-7999150Y15098153D01*
X-8002728Y15114915D01*
X-8005648Y15135302D01*
X-8006920Y15144187D01*
X-8017549Y15167564D01*
X-8023996Y15185087D01*
X-8028584Y15201138D01*
X-8031051Y15209771D01*
X-8035844Y15217368D01*
X-8046830Y15234780D01*
X-8054970Y15249865D01*
X-8067208Y15276782D01*
X-8083970Y15296235D01*
X-8095073Y15311239D01*
X-8108776Y15332958D01*
X-8115501Y15338897D01*
X-8115504Y15338901D01*
X-8130938Y15352532D01*
X-8142982Y15364724D01*
X-8156427Y15380327D01*
X-8156430Y15380329D01*
X-8162287Y15387127D01*
X-8183835Y15401094D01*
X-8198709Y15412385D01*
X-8211217Y15423431D01*
X-8211218Y15423432D01*
X-8217951Y15429378D01*
X-8244713Y15441943D01*
X-8259691Y15450263D01*
X-8276983Y15461471D01*
X-8276988Y15461473D01*
X-8284515Y15466352D01*
X-8293108Y15468922D01*
X-8293113Y15468924D01*
X-8309120Y15473711D01*
X-8326564Y15480372D01*
X-8341672Y15487465D01*
X-8341673Y15487465D01*
X-8349800Y15491281D01*
X-8354793Y15492058D01*
X-8412440Y15530017D01*
X-8441214Y15594921D01*
X-8430331Y15665078D01*
X-8383245Y15718215D01*
X-8345826Y15733960D01*
X-8193299Y15770719D01*
X-8193297Y15770720D01*
X-8187466Y15772125D01*
X-8182008Y15774607D01*
X-8182004Y15774608D01*
X-8066959Y15826916D01*
X-7994913Y15859674D01*
X-7822389Y15982054D01*
X-7818247Y15986381D01*
X-7818241Y15986386D01*
X-7731194Y16077317D01*
X-7669639Y16112694D01*
X-7598730Y16109175D01*
X-7540979Y16067879D01*
X-7533035Y16056496D01*
X-7498478Y16000652D01*
X-7373303Y15875695D01*
X-7367073Y15871855D01*
X-7367072Y15871854D01*
X-7229910Y15787306D01*
X-7222738Y15782885D01*
X-7197783Y15774608D01*
X-7061389Y15729368D01*
X-7061387Y15729368D01*
X-7054861Y15727203D01*
X-7048025Y15726503D01*
X-7048022Y15726502D01*
X-7009614Y15722567D01*
X-6950400Y15716500D01*
X-6149600Y15716500D01*
X-6146354Y15716837D01*
X-6146350Y15716837D01*
X-6050692Y15726762D01*
X-6050688Y15726763D01*
X-6043834Y15727474D01*
X-6037298Y15729655D01*
X-6037296Y15729655D01*
X-5902557Y15774608D01*
X-5876054Y15783450D01*
X-5725652Y15876522D01*
X-5600695Y16001697D01*
X-5563648Y16061798D01*
X-5511725Y16146032D01*
X-5511724Y16146034D01*
X-5507885Y16152262D01*
X-5452203Y16320139D01*
X-5441500Y16424600D01*
X-5441500Y16772154D01*
X-2458500Y16772154D01*
X-2443452Y16614434D01*
X-2383908Y16411466D01*
X-2381164Y16406139D01*
X-2381164Y16406138D01*
X-2328453Y16303794D01*
X-2287058Y16223420D01*
X-2156396Y16057080D01*
X-2151865Y16053148D01*
X-2151862Y16053145D01*
X-2048043Y15963056D01*
X-1996637Y15918448D01*
X-1991451Y15915448D01*
X-1991447Y15915445D01*
X-1895043Y15859674D01*
X-1813546Y15812527D01*
X-1613729Y15743139D01*
X-1607794Y15742278D01*
X-1607792Y15742278D01*
X-1410336Y15713648D01*
X-1410333Y15713648D01*
X-1404396Y15712787D01*
X-1193101Y15722567D01*
X-1061923Y15754181D01*
X-993299Y15770719D01*
X-993297Y15770720D01*
X-987466Y15772125D01*
X-982008Y15774607D01*
X-982004Y15774608D01*
X-866959Y15826916D01*
X-794913Y15859674D01*
X-622389Y15982054D01*
X-618247Y15986381D01*
X-618241Y15986386D01*
X-531194Y16077317D01*
X-469639Y16112694D01*
X-398730Y16109175D01*
X-340979Y16067879D01*
X-333035Y16056496D01*
X-298478Y16000652D01*
X-173303Y15875695D01*
X-167073Y15871855D01*
X-167072Y15871854D01*
X-29910Y15787306D01*
X-22738Y15782885D01*
X2217Y15774608D01*
X138611Y15729368D01*
X138613Y15729368D01*
X145139Y15727203D01*
X151975Y15726503D01*
X151978Y15726502D01*
X190386Y15722567D01*
X249600Y15716500D01*
X1050400Y15716500D01*
X1053646Y15716837D01*
X1053650Y15716837D01*
X1149308Y15726762D01*
X1149312Y15726763D01*
X1156166Y15727474D01*
X1162702Y15729655D01*
X1162704Y15729655D01*
X1297443Y15774608D01*
X1323946Y15783450D01*
X1474348Y15876522D01*
X1599305Y16001697D01*
X1636352Y16061798D01*
X1688275Y16146032D01*
X1688276Y16146034D01*
X1692115Y16152262D01*
X1747797Y16320139D01*
X1758500Y16424600D01*
X1758500Y17775400D01*
X1747526Y17881166D01*
X1743749Y17892489D01*
X1693868Y18041998D01*
X1691550Y18048946D01*
X1598478Y18199348D01*
X1473303Y18324305D01*
X1370826Y18387473D01*
X1328968Y18413275D01*
X1328966Y18413276D01*
X1322738Y18417115D01*
X1162254Y18470345D01*
X1161389Y18470632D01*
X1161387Y18470632D01*
X1154861Y18472797D01*
X1148025Y18473497D01*
X1148022Y18473498D01*
X1104969Y18477909D01*
X1050400Y18483500D01*
X249600Y18483500D01*
X246354Y18483163D01*
X246350Y18483163D01*
X150692Y18473238D01*
X150688Y18473237D01*
X143834Y18472526D01*
X137298Y18470345D01*
X137296Y18470345D01*
X14213Y18429281D01*
X-23946Y18416550D01*
X-174348Y18323478D01*
X-299305Y18198303D01*
X-303145Y18192073D01*
X-303146Y18192072D01*
X-331074Y18146764D01*
X-383846Y18099271D01*
X-453918Y18087847D01*
X-519042Y18116121D01*
X-537418Y18135045D01*
X-543604Y18142920D01*
X-548135Y18146852D01*
X-548138Y18146855D01*
X-698833Y18277621D01*
X-703363Y18281552D01*
X-708549Y18284552D01*
X-708553Y18284555D01*
X-881258Y18384467D01*
X-886454Y18387473D01*
X-1086271Y18456861D01*
X-1092206Y18457722D01*
X-1092208Y18457722D01*
X-1289664Y18486352D01*
X-1289667Y18486352D01*
X-1295604Y18487213D01*
X-1506899Y18477433D01*
X-1638077Y18445819D01*
X-1706701Y18429281D01*
X-1706703Y18429280D01*
X-1712534Y18427875D01*
X-1717992Y18425393D01*
X-1717996Y18425392D01*
X-1833041Y18373084D01*
X-1905087Y18340326D01*
X-2077611Y18217946D01*
X-2223881Y18065150D01*
X-2338620Y17887452D01*
X-2417686Y17691263D01*
X-2458228Y17483663D01*
X-2458500Y17478101D01*
X-2458500Y16772154D01*
X-5441500Y16772154D01*
X-5441500Y17775400D01*
X-5452474Y17881166D01*
X-5456251Y17892489D01*
X-5506132Y18041998D01*
X-5508450Y18048946D01*
X-5601522Y18199348D01*
X-5726697Y18324305D01*
X-5829174Y18387473D01*
X-5871032Y18413275D01*
X-5871034Y18413276D01*
X-5877262Y18417115D01*
X-6037746Y18470345D01*
X-6038611Y18470632D01*
X-6038613Y18470632D01*
X-6045139Y18472797D01*
X-6051975Y18473497D01*
X-6051978Y18473498D01*
X-6095031Y18477909D01*
X-6149600Y18483500D01*
X-6950400Y18483500D01*
X-6953646Y18483163D01*
X-6953650Y18483163D01*
X-7049308Y18473238D01*
X-7049312Y18473237D01*
X-7056166Y18472526D01*
X-7062702Y18470345D01*
X-7062704Y18470345D01*
X-7185787Y18429281D01*
X-7223946Y18416550D01*
X-7374348Y18323478D01*
X-7499305Y18198303D01*
X-7503145Y18192073D01*
X-7503146Y18192072D01*
X-7531074Y18146764D01*
X-7583846Y18099271D01*
X-7653918Y18087847D01*
X-7719042Y18116121D01*
X-7737418Y18135045D01*
X-7743604Y18142920D01*
X-7748135Y18146852D01*
X-7748138Y18146855D01*
X-7898833Y18277621D01*
X-7903363Y18281552D01*
X-7908549Y18284552D01*
X-7908553Y18284555D01*
X-8081258Y18384467D01*
X-8086454Y18387473D01*
X-8286271Y18456861D01*
X-8292206Y18457722D01*
X-8292208Y18457722D01*
X-8489664Y18486352D01*
X-8489667Y18486352D01*
X-8495604Y18487213D01*
X-8706899Y18477433D01*
X-8838077Y18445819D01*
X-8906701Y18429281D01*
X-8906703Y18429280D01*
X-8912534Y18427875D01*
X-8917992Y18425393D01*
X-8917996Y18425392D01*
X-9033041Y18373084D01*
X-9105087Y18340326D01*
X-9277611Y18217946D01*
X-9423881Y18065150D01*
X-9538620Y17887452D01*
X-9617686Y17691263D01*
X-9658228Y17483663D01*
X-9658500Y17478101D01*
X-9658500Y16772154D01*
X-9643452Y16614434D01*
X-9583908Y16411466D01*
X-9581164Y16406139D01*
X-9581164Y16406138D01*
X-9528453Y16303794D01*
X-9487058Y16223420D01*
X-9356396Y16057080D01*
X-9351865Y16053148D01*
X-9351862Y16053145D01*
X-9248043Y15963056D01*
X-9196637Y15918448D01*
X-9191451Y15915448D01*
X-9191447Y15915445D01*
X-9095043Y15859674D01*
X-9013546Y15812527D01*
X-8904350Y15774608D01*
X-8843646Y15753528D01*
X-8785856Y15712286D01*
X-8759537Y15646348D01*
X-8773045Y15576648D01*
X-8822091Y15525316D01*
X-8884979Y15508500D01*
X-11865500Y15508500D01*
X-11933621Y15528502D01*
X-11980114Y15582158D01*
X-11991500Y15634500D01*
X-11991500Y23365500D01*
X-11971498Y23433621D01*
X-11917842Y23480114D01*
X-11865500Y23491500D01*
X11865500Y23491500D01*
X11933621Y23471498D01*
G37*
%TD.AperFunction*%
%TD*%
M02*
